G04 #@! TF.FileFunction,Soldermask,Bot*
%FSLAX46Y46*%
G04 Gerber Fmt 4.6, Leading zero omitted, Abs format (unit mm)*
G04 Created by KiCad (PCBNEW 4.0.2-stable) date 22/09/2016 0:52:13*
%MOMM*%
G01*
G04 APERTURE LIST*
%ADD10C,0.100000*%
%ADD11R,2.600960X1.600200*%
%ADD12R,0.800000X0.750000*%
%ADD13R,0.750000X0.800000*%
%ADD14R,1.350000X1.350000*%
%ADD15C,1.350000*%
%ADD16R,2.540000X2.670000*%
%ADD17R,1.270000X0.762000*%
%ADD18R,2.032000X1.524000*%
%ADD19R,1.500000X3.200000*%
%ADD20R,3.200000X1.500000*%
%ADD21R,2.029460X1.651000*%
%ADD22R,1.500000X1.300000*%
%ADD23R,1.727200X2.032000*%
%ADD24O,1.727200X2.032000*%
%ADD25R,2.032000X1.727200*%
%ADD26O,2.032000X1.727200*%
%ADD27R,2.000000X2.600000*%
%ADD28O,2.000000X2.600000*%
%ADD29R,2.235200X2.235200*%
%ADD30C,3.000000*%
%ADD31R,0.800000X0.500000*%
%ADD32R,0.800000X0.400000*%
%ADD33R,3.657600X2.032000*%
%ADD34R,1.016000X2.032000*%
%ADD35C,1.000760*%
%ADD36C,3.200000*%
G04 APERTURE END LIST*
D10*
X0Y50000000D02*
X0Y0D01*
X50000000Y50000000D02*
X0Y50000000D01*
X50000000Y0D02*
X50000000Y50000000D01*
X0Y0D02*
X50000000Y0D01*
D11*
X30457140Y34798000D03*
X34058860Y34798000D03*
D12*
X14720000Y4318000D03*
X13220000Y4318000D03*
X16752000Y11303000D03*
X15252000Y11303000D03*
D13*
X24638000Y32016000D03*
X24638000Y33516000D03*
D12*
X16752000Y9652000D03*
X15252000Y9652000D03*
X18554000Y9652000D03*
X20054000Y9652000D03*
D11*
X19834860Y34798000D03*
X16233140Y34798000D03*
D12*
X33643000Y30353000D03*
X32143000Y30353000D03*
D13*
X37719000Y36691000D03*
X37719000Y35191000D03*
D12*
X29833000Y11430000D03*
X28333000Y11430000D03*
D13*
X29464000Y38239000D03*
X29464000Y39739000D03*
D12*
X38620000Y31242000D03*
X40120000Y31242000D03*
X21070000Y25527000D03*
X19570000Y25527000D03*
D13*
X27432000Y22110000D03*
X27432000Y23610000D03*
D12*
X22848000Y30480000D03*
X21348000Y30480000D03*
D13*
X37084000Y15609000D03*
X37084000Y14109000D03*
X38862000Y15609000D03*
X38862000Y14109000D03*
D12*
X18149000Y38608000D03*
X16649000Y38608000D03*
D13*
X22987000Y32016000D03*
X22987000Y33516000D03*
X10668000Y13347000D03*
X10668000Y14847000D03*
X17272000Y20562000D03*
X17272000Y19062000D03*
X40640000Y15609000D03*
X40640000Y14109000D03*
X19050000Y20562000D03*
X19050000Y19062000D03*
D12*
X38620000Y32893000D03*
X40120000Y32893000D03*
X20689000Y22098000D03*
X19189000Y22098000D03*
X20713000Y23749000D03*
X22213000Y23749000D03*
D13*
X32258000Y16395000D03*
X32258000Y17895000D03*
X33782000Y16395000D03*
X33782000Y17895000D03*
D14*
X32766000Y39116000D03*
D15*
X34766000Y39116000D03*
X36766000Y39116000D03*
X32766000Y41116000D03*
X34766000Y41116000D03*
X36766000Y41116000D03*
D16*
X27178000Y32702500D03*
D17*
X27178000Y30351500D03*
D18*
X40005000Y38989000D03*
X40005000Y35687000D03*
D19*
X10600000Y6985000D03*
X14800000Y6985000D03*
D20*
X27940000Y9593000D03*
X27940000Y5393000D03*
D21*
X20193000Y41716960D03*
X20193000Y38547040D03*
D22*
X10715000Y9906000D03*
X13415000Y9906000D03*
X39323000Y17399000D03*
X36623000Y17399000D03*
X19511000Y17272000D03*
X16811000Y17272000D03*
X24464000Y17272000D03*
X21764000Y17272000D03*
X27606000Y17780000D03*
X30306000Y17780000D03*
D23*
X22606000Y45720000D03*
D24*
X25146000Y45720000D03*
X27686000Y45720000D03*
D23*
X1905000Y40005000D03*
D24*
X4445000Y40005000D03*
X6985000Y40005000D03*
D23*
X1905000Y36195000D03*
D24*
X4445000Y36195000D03*
X6985000Y36195000D03*
D23*
X1905000Y32385000D03*
D24*
X4445000Y32385000D03*
X6985000Y32385000D03*
D23*
X1905000Y28575000D03*
D24*
X4445000Y28575000D03*
X6985000Y28575000D03*
D23*
X1905000Y24765000D03*
D24*
X4445000Y24765000D03*
X6985000Y24765000D03*
D23*
X1905000Y20955000D03*
D24*
X4445000Y20955000D03*
X6985000Y20955000D03*
D23*
X1905000Y17145000D03*
D24*
X4445000Y17145000D03*
X6985000Y17145000D03*
D23*
X1905000Y13335000D03*
D24*
X4445000Y13335000D03*
X6985000Y13335000D03*
D23*
X1905000Y9525000D03*
D24*
X4445000Y9525000D03*
X6985000Y9525000D03*
D25*
X20320000Y1905000D03*
D26*
X20320000Y4445000D03*
X20320000Y6985000D03*
D25*
X24130000Y1905000D03*
D26*
X24130000Y4445000D03*
X24130000Y6985000D03*
D23*
X48260000Y9525000D03*
D24*
X45720000Y9525000D03*
X43180000Y9525000D03*
D23*
X48260000Y13335000D03*
D24*
X45720000Y13335000D03*
X43180000Y13335000D03*
D23*
X48260000Y17145000D03*
D24*
X45720000Y17145000D03*
X43180000Y17145000D03*
D23*
X48260000Y20955000D03*
D24*
X45720000Y20955000D03*
X43180000Y20955000D03*
D23*
X48260000Y24765000D03*
D24*
X45720000Y24765000D03*
X43180000Y24765000D03*
D23*
X48260000Y28575000D03*
D24*
X45720000Y28575000D03*
X43180000Y28575000D03*
D23*
X48260000Y32385000D03*
D24*
X45720000Y32385000D03*
X43180000Y32385000D03*
D23*
X48260000Y36195000D03*
D24*
X45720000Y36195000D03*
X43180000Y36195000D03*
D23*
X48260000Y40005000D03*
D24*
X45720000Y40005000D03*
X43180000Y40005000D03*
D27*
X33020000Y46355000D03*
D28*
X35560000Y46355000D03*
X38100000Y46355000D03*
X40640000Y46355000D03*
D27*
X9525000Y46355000D03*
D28*
X12065000Y46355000D03*
X14605000Y46355000D03*
X17145000Y46355000D03*
D29*
X39497000Y11049000D03*
D30*
X27720000Y2516000D03*
X40860000Y2516000D03*
D31*
X9514000Y33090000D03*
D32*
X9514000Y34690000D03*
X9514000Y33890000D03*
D31*
X9514000Y35490000D03*
D32*
X11314000Y33890000D03*
D31*
X11314000Y33090000D03*
D32*
X11314000Y34690000D03*
D31*
X11314000Y35490000D03*
X10022000Y21914000D03*
D32*
X10022000Y23514000D03*
X10022000Y22714000D03*
D31*
X10022000Y24314000D03*
D32*
X11822000Y22714000D03*
D31*
X11822000Y21914000D03*
D32*
X11822000Y23514000D03*
D31*
X11822000Y24314000D03*
X22214000Y18993000D03*
D32*
X22214000Y20593000D03*
X22214000Y19793000D03*
D31*
X22214000Y21393000D03*
D32*
X24014000Y19793000D03*
D31*
X24014000Y18993000D03*
D32*
X24014000Y20593000D03*
D31*
X24014000Y21393000D03*
X38873000Y21774000D03*
D32*
X38873000Y20174000D03*
X38873000Y20974000D03*
D31*
X38873000Y19374000D03*
D32*
X37073000Y20974000D03*
D31*
X37073000Y21774000D03*
D32*
X37073000Y20174000D03*
D31*
X37073000Y19374000D03*
X38873000Y25457000D03*
D32*
X38873000Y23857000D03*
X38873000Y24657000D03*
D31*
X38873000Y23057000D03*
D32*
X37073000Y24657000D03*
D31*
X37073000Y25457000D03*
D32*
X37073000Y23857000D03*
D31*
X37073000Y23057000D03*
D33*
X25146000Y42418000D03*
D34*
X25146000Y35814000D03*
X22860000Y35814000D03*
X27432000Y35814000D03*
D35*
X23749000Y11798300D03*
X23749000Y10299700D03*
D36*
X4000000Y46000000D03*
X46000000Y46000000D03*
X4000000Y4000000D03*
X46000000Y4000000D03*
M02*
