G04 #@! TF.FileFunction,Copper,L2,Bot,Signal*
%FSLAX46Y46*%
G04 Gerber Fmt 4.6, Leading zero omitted, Abs format (unit mm)*
G04 Created by KiCad (PCBNEW 4.0.2-stable) date 22/09/2016 0:52:13*
%MOMM*%
G01*
G04 APERTURE LIST*
%ADD10C,0.100000*%
%ADD11R,2.600960X1.600200*%
%ADD12R,0.800000X0.750000*%
%ADD13R,0.750000X0.800000*%
%ADD14R,1.350000X1.350000*%
%ADD15C,1.350000*%
%ADD16R,2.540000X2.670000*%
%ADD17R,1.270000X0.762000*%
%ADD18R,2.032000X1.524000*%
%ADD19R,1.500000X3.200000*%
%ADD20R,3.200000X1.500000*%
%ADD21R,2.029460X1.651000*%
%ADD22R,1.500000X1.300000*%
%ADD23R,1.727200X2.032000*%
%ADD24O,1.727200X2.032000*%
%ADD25R,2.032000X1.727200*%
%ADD26O,2.032000X1.727200*%
%ADD27R,2.000000X2.600000*%
%ADD28O,2.000000X2.600000*%
%ADD29R,2.235200X2.235200*%
%ADD30C,3.000000*%
%ADD31R,0.800000X0.500000*%
%ADD32R,0.800000X0.400000*%
%ADD33R,3.657600X2.032000*%
%ADD34R,1.016000X2.032000*%
%ADD35C,1.000760*%
%ADD36C,0.600000*%
%ADD37C,0.500000*%
%ADD38C,0.280000*%
%ADD39C,0.250000*%
%ADD40C,0.254000*%
G04 APERTURE END LIST*
D10*
X0Y50000000D02*
X0Y0D01*
X50000000Y50000000D02*
X0Y50000000D01*
X50000000Y0D02*
X50000000Y50000000D01*
X0Y0D02*
X50000000Y0D01*
D11*
X30457140Y34798000D03*
X34058860Y34798000D03*
D12*
X14720000Y4318000D03*
X13220000Y4318000D03*
X16752000Y11303000D03*
X15252000Y11303000D03*
D13*
X24638000Y32016000D03*
X24638000Y33516000D03*
D12*
X16752000Y9652000D03*
X15252000Y9652000D03*
X18554000Y9652000D03*
X20054000Y9652000D03*
D11*
X19834860Y34798000D03*
X16233140Y34798000D03*
D12*
X33643000Y30353000D03*
X32143000Y30353000D03*
D13*
X37719000Y36691000D03*
X37719000Y35191000D03*
D12*
X29833000Y11430000D03*
X28333000Y11430000D03*
D13*
X29464000Y38239000D03*
X29464000Y39739000D03*
D12*
X38620000Y31242000D03*
X40120000Y31242000D03*
X21070000Y25527000D03*
X19570000Y25527000D03*
D13*
X27432000Y22110000D03*
X27432000Y23610000D03*
D12*
X22848000Y30480000D03*
X21348000Y30480000D03*
D13*
X37084000Y15609000D03*
X37084000Y14109000D03*
X38862000Y15609000D03*
X38862000Y14109000D03*
D12*
X18149000Y38608000D03*
X16649000Y38608000D03*
D13*
X22987000Y32016000D03*
X22987000Y33516000D03*
X10668000Y13347000D03*
X10668000Y14847000D03*
X17272000Y20562000D03*
X17272000Y19062000D03*
X40640000Y15609000D03*
X40640000Y14109000D03*
X19050000Y20562000D03*
X19050000Y19062000D03*
D12*
X38620000Y32893000D03*
X40120000Y32893000D03*
X20689000Y22098000D03*
X19189000Y22098000D03*
X20713000Y23749000D03*
X22213000Y23749000D03*
D13*
X32258000Y16395000D03*
X32258000Y17895000D03*
X33782000Y16395000D03*
X33782000Y17895000D03*
D14*
X32766000Y39116000D03*
D15*
X34766000Y39116000D03*
X36766000Y39116000D03*
X32766000Y41116000D03*
X34766000Y41116000D03*
X36766000Y41116000D03*
D16*
X27178000Y32702500D03*
D17*
X27178000Y30351500D03*
D18*
X40005000Y38989000D03*
X40005000Y35687000D03*
D19*
X10600000Y6985000D03*
X14800000Y6985000D03*
D20*
X27940000Y9593000D03*
X27940000Y5393000D03*
D21*
X20193000Y41716960D03*
X20193000Y38547040D03*
D22*
X10715000Y9906000D03*
X13415000Y9906000D03*
X39323000Y17399000D03*
X36623000Y17399000D03*
X19511000Y17272000D03*
X16811000Y17272000D03*
X24464000Y17272000D03*
X21764000Y17272000D03*
X27606000Y17780000D03*
X30306000Y17780000D03*
D23*
X22606000Y45720000D03*
D24*
X25146000Y45720000D03*
X27686000Y45720000D03*
D23*
X1905000Y40005000D03*
D24*
X4445000Y40005000D03*
X6985000Y40005000D03*
D23*
X1905000Y36195000D03*
D24*
X4445000Y36195000D03*
X6985000Y36195000D03*
D23*
X1905000Y32385000D03*
D24*
X4445000Y32385000D03*
X6985000Y32385000D03*
D23*
X1905000Y28575000D03*
D24*
X4445000Y28575000D03*
X6985000Y28575000D03*
D23*
X1905000Y24765000D03*
D24*
X4445000Y24765000D03*
X6985000Y24765000D03*
D23*
X1905000Y20955000D03*
D24*
X4445000Y20955000D03*
X6985000Y20955000D03*
D23*
X1905000Y17145000D03*
D24*
X4445000Y17145000D03*
X6985000Y17145000D03*
D23*
X1905000Y13335000D03*
D24*
X4445000Y13335000D03*
X6985000Y13335000D03*
D23*
X1905000Y9525000D03*
D24*
X4445000Y9525000D03*
X6985000Y9525000D03*
D25*
X20320000Y1905000D03*
D26*
X20320000Y4445000D03*
X20320000Y6985000D03*
D25*
X24130000Y1905000D03*
D26*
X24130000Y4445000D03*
X24130000Y6985000D03*
D23*
X48260000Y9525000D03*
D24*
X45720000Y9525000D03*
X43180000Y9525000D03*
D23*
X48260000Y13335000D03*
D24*
X45720000Y13335000D03*
X43180000Y13335000D03*
D23*
X48260000Y17145000D03*
D24*
X45720000Y17145000D03*
X43180000Y17145000D03*
D23*
X48260000Y20955000D03*
D24*
X45720000Y20955000D03*
X43180000Y20955000D03*
D23*
X48260000Y24765000D03*
D24*
X45720000Y24765000D03*
X43180000Y24765000D03*
D23*
X48260000Y28575000D03*
D24*
X45720000Y28575000D03*
X43180000Y28575000D03*
D23*
X48260000Y32385000D03*
D24*
X45720000Y32385000D03*
X43180000Y32385000D03*
D23*
X48260000Y36195000D03*
D24*
X45720000Y36195000D03*
X43180000Y36195000D03*
D23*
X48260000Y40005000D03*
D24*
X45720000Y40005000D03*
X43180000Y40005000D03*
D27*
X33020000Y46355000D03*
D28*
X35560000Y46355000D03*
X38100000Y46355000D03*
X40640000Y46355000D03*
D27*
X9525000Y46355000D03*
D28*
X12065000Y46355000D03*
X14605000Y46355000D03*
X17145000Y46355000D03*
D29*
X39497000Y11049000D03*
D30*
X27720000Y2516000D03*
X40860000Y2516000D03*
D31*
X9514000Y33090000D03*
D32*
X9514000Y34690000D03*
X9514000Y33890000D03*
D31*
X9514000Y35490000D03*
D32*
X11314000Y33890000D03*
D31*
X11314000Y33090000D03*
D32*
X11314000Y34690000D03*
D31*
X11314000Y35490000D03*
X10022000Y21914000D03*
D32*
X10022000Y23514000D03*
X10022000Y22714000D03*
D31*
X10022000Y24314000D03*
D32*
X11822000Y22714000D03*
D31*
X11822000Y21914000D03*
D32*
X11822000Y23514000D03*
D31*
X11822000Y24314000D03*
X22214000Y18993000D03*
D32*
X22214000Y20593000D03*
X22214000Y19793000D03*
D31*
X22214000Y21393000D03*
D32*
X24014000Y19793000D03*
D31*
X24014000Y18993000D03*
D32*
X24014000Y20593000D03*
D31*
X24014000Y21393000D03*
X38873000Y21774000D03*
D32*
X38873000Y20174000D03*
X38873000Y20974000D03*
D31*
X38873000Y19374000D03*
D32*
X37073000Y20974000D03*
D31*
X37073000Y21774000D03*
D32*
X37073000Y20174000D03*
D31*
X37073000Y19374000D03*
X38873000Y25457000D03*
D32*
X38873000Y23857000D03*
X38873000Y24657000D03*
D31*
X38873000Y23057000D03*
D32*
X37073000Y24657000D03*
D31*
X37073000Y25457000D03*
D32*
X37073000Y23857000D03*
D31*
X37073000Y23057000D03*
D33*
X25146000Y42418000D03*
D34*
X25146000Y35814000D03*
X22860000Y35814000D03*
X27432000Y35814000D03*
D35*
X23749000Y11798300D03*
X23749000Y10299700D03*
D36*
X32766000Y37719000D03*
X31877000Y42037000D03*
X40640000Y18542000D03*
X43815000Y38100000D03*
X37465000Y8763000D03*
X29591000Y7620000D03*
X30099000Y9017000D03*
X17272000Y12192000D03*
X16764000Y8636000D03*
X30861000Y11938000D03*
X9525000Y31750000D03*
X24257000Y29591000D03*
X36957000Y43561000D03*
X38100000Y42418000D03*
X38481000Y40894000D03*
X46482000Y22860000D03*
X44450000Y15240000D03*
X46482000Y15240000D03*
X32004000Y10795000D03*
X21590000Y9017000D03*
X18288000Y11557000D03*
X8509000Y8128000D03*
X12700000Y6858000D03*
X26035000Y23622000D03*
X23241000Y23749000D03*
X34798000Y16764000D03*
X16256000Y20574000D03*
X13589000Y14224000D03*
X15748000Y13843000D03*
X13970000Y15875000D03*
X9906000Y25400000D03*
X5207000Y26670000D03*
X35052000Y36195000D03*
X25146000Y38100000D03*
X16129000Y7874000D03*
X10668000Y12446000D03*
X21590000Y12065000D03*
X26797000Y12954000D03*
X37846000Y33401000D03*
X7620000Y11049000D03*
X24003000Y34798000D03*
X26289000Y17780000D03*
X19304000Y32893000D03*
X24130000Y16002000D03*
X39751000Y15621000D03*
X38481000Y40005000D03*
X36830000Y34925000D03*
X36830000Y36703000D03*
X33655000Y29464000D03*
X37592000Y30988000D03*
X12827000Y26924000D03*
X18161000Y16002000D03*
X10795000Y20701000D03*
X28702000Y21590000D03*
X22098000Y31242000D03*
X39370000Y32131000D03*
X27051000Y37465000D03*
X21463000Y26416000D03*
X19939000Y19050000D03*
X28829000Y16510000D03*
X26289000Y16510000D03*
X19558000Y16002000D03*
X34798000Y17653000D03*
X18161000Y16891000D03*
X20701000Y21209000D03*
X21336000Y18415000D03*
X34798000Y15875000D03*
X34798000Y37338000D03*
X11811000Y5842000D03*
X29845000Y4191000D03*
X21844000Y38481000D03*
X9271000Y6858000D03*
X8001000Y33528000D03*
X6477000Y22479000D03*
X7620000Y23368000D03*
X9017000Y23495000D03*
X9017000Y21209000D03*
X13335000Y19812000D03*
X12065000Y18415000D03*
X21209000Y20447000D03*
X20828000Y19050000D03*
X25019000Y16002000D03*
X26289000Y21209000D03*
X41783000Y21717000D03*
X41783000Y20828000D03*
X40640000Y30226000D03*
X40005000Y24638000D03*
X42418000Y27051000D03*
X41783000Y38100000D03*
X40386000Y37592000D03*
X12954000Y37465000D03*
X12065000Y37465000D03*
X33655000Y11303000D03*
X16891000Y13335000D03*
X16002000Y14732000D03*
X35560000Y10668000D03*
X13335000Y33655000D03*
X13335000Y27559000D03*
X19685000Y12954000D03*
X33655000Y12700000D03*
X35560000Y12192000D03*
X18796000Y13335000D03*
X16002000Y24511000D03*
X16002000Y19177000D03*
X16002000Y25400000D03*
X17653000Y30353000D03*
X17780000Y23495000D03*
X18796000Y28321000D03*
X17018000Y28321000D03*
X16764000Y27305000D03*
X18669000Y23495000D03*
X19304000Y27686000D03*
X18288000Y29591000D03*
X17018000Y29591000D03*
X16891000Y23495000D03*
X32258000Y29464000D03*
X33909000Y18923000D03*
X33020000Y18923000D03*
X32766000Y20193000D03*
X32131000Y20701000D03*
X31369000Y22225000D03*
X33528000Y22098000D03*
X29972000Y22225000D03*
X33528000Y22987000D03*
X32131000Y21844000D03*
X33528000Y21209000D03*
X29464000Y21209000D03*
X34290000Y32893000D03*
X30099000Y24130000D03*
X33528000Y25654000D03*
X31369000Y24511000D03*
X33528000Y26543000D03*
X28575000Y23495000D03*
X31369000Y23622000D03*
X33528000Y24765000D03*
X32258000Y23622000D03*
X33528000Y23876000D03*
X21082000Y27686000D03*
X16764000Y32131000D03*
X18288000Y30988000D03*
D37*
X11430000Y2794000D02*
X10160000Y2794000D01*
X11430000Y2794000D02*
X18669000Y2794000D01*
X20320000Y4445000D02*
X18669000Y2794000D01*
X10160000Y2794000D02*
X4445000Y8509000D01*
X4445000Y8509000D02*
X4445000Y9525000D01*
X4445000Y9525000D02*
X4699000Y9525000D01*
X4445000Y9525000D02*
X4572000Y9525000D01*
X30457140Y34798000D02*
X30457140Y31727140D01*
X29081500Y30351500D02*
X27178000Y30351500D01*
X30457140Y31727140D02*
X29081500Y30351500D01*
X25146000Y45720000D02*
X25273000Y45720000D01*
X25273000Y45720000D02*
X26924000Y44069000D01*
X30457140Y42567860D02*
X30457140Y34798000D01*
X28956000Y44069000D02*
X30457140Y42567860D01*
X26924000Y44069000D02*
X28956000Y44069000D01*
X45720000Y13335000D02*
X45720000Y9525000D01*
X45720000Y17145000D02*
X45720000Y13335000D01*
X45720000Y20955000D02*
X45720000Y17145000D01*
X45720000Y24765000D02*
X45720000Y20955000D01*
X45720000Y28575000D02*
X45720000Y24765000D01*
X45720000Y32385000D02*
X45720000Y28575000D01*
X45720000Y36195000D02*
X45720000Y32385000D01*
X45720000Y40005000D02*
X45720000Y36195000D01*
X35560000Y46355000D02*
X35560000Y46228000D01*
X35560000Y46228000D02*
X40132000Y41656000D01*
X45085000Y41656000D02*
X45720000Y41021000D01*
X40132000Y41656000D02*
X45085000Y41656000D01*
X45720000Y41021000D02*
X45720000Y40005000D01*
X20320000Y4445000D02*
X24130000Y4445000D01*
X4445000Y9525000D02*
X4445000Y9144000D01*
X4445000Y13335000D02*
X4445000Y9525000D01*
X4445000Y17145000D02*
X4445000Y13335000D01*
X4445000Y20955000D02*
X4445000Y17145000D01*
X4445000Y24765000D02*
X4445000Y20955000D01*
X4445000Y28575000D02*
X4445000Y24765000D01*
X4445000Y32385000D02*
X4445000Y28575000D01*
X4445000Y36195000D02*
X4445000Y32385000D01*
X4445000Y40005000D02*
X4445000Y36195000D01*
X12065000Y46355000D02*
X12065000Y45466000D01*
X12065000Y45466000D02*
X8255000Y41656000D01*
X5080000Y41656000D02*
X4445000Y41021000D01*
X8255000Y41656000D02*
X5080000Y41656000D01*
X4445000Y41021000D02*
X4445000Y40005000D01*
X25146000Y45720000D02*
X25146000Y46228000D01*
X25146000Y46228000D02*
X22987000Y48387000D01*
X12065000Y47752000D02*
X12065000Y46355000D01*
X12700000Y48387000D02*
X12065000Y47752000D01*
X22987000Y48387000D02*
X12700000Y48387000D01*
X25273000Y45720000D02*
X27940000Y48387000D01*
X27940000Y48387000D02*
X34925000Y48387000D01*
X34925000Y48387000D02*
X35560000Y47752000D01*
X35560000Y47752000D02*
X35560000Y46355000D01*
D38*
X34058860Y36426140D02*
X32766000Y37719000D01*
X34058860Y34798000D02*
X34058860Y36426140D01*
X33020000Y43180000D02*
X33020000Y46355000D01*
X31877000Y42037000D02*
X33020000Y43180000D01*
D39*
X32893000Y33909000D02*
X32893000Y26924000D01*
X40640000Y18542000D02*
X36703000Y18542000D01*
X36703000Y18542000D02*
X35306000Y18542000D01*
X35306000Y18542000D02*
X32893000Y20955000D01*
X33782000Y34798000D02*
X32893000Y33909000D01*
X32893000Y23114000D02*
X32893000Y20955000D01*
X32893000Y26924000D02*
X32893000Y23114000D01*
X33782000Y34798000D02*
X34058860Y34798000D01*
D37*
X21209000Y8255000D02*
X23368000Y8255000D01*
X19685000Y8509000D02*
X20955000Y8509000D01*
X20955000Y8509000D02*
X21209000Y8255000D01*
X18554000Y9640000D02*
X19685000Y8509000D01*
X26729000Y8382000D02*
X27940000Y9593000D01*
X23495000Y8382000D02*
X26729000Y8382000D01*
X23368000Y8255000D02*
X23495000Y8382000D01*
D38*
X39370000Y41021000D02*
X38735000Y41656000D01*
X39370000Y41021000D02*
X40259000Y41021000D01*
X40259000Y41021000D02*
X43180000Y38100000D01*
X43180000Y38100000D02*
X43815000Y38100000D01*
X37465000Y8763000D02*
X35560000Y8763000D01*
X35560000Y8763000D02*
X35433000Y8763000D01*
X35433000Y8763000D02*
X34544000Y7874000D01*
X34544000Y7874000D02*
X29845000Y7874000D01*
X29845000Y7874000D02*
X29591000Y7620000D01*
X29523000Y9593000D02*
X30099000Y9017000D01*
X34290000Y42291000D02*
X33115000Y41116000D01*
X37084000Y42291000D02*
X34290000Y42291000D01*
X37719000Y41656000D02*
X37084000Y42291000D01*
X38735000Y41656000D02*
X37719000Y41656000D01*
D37*
X18554000Y9652000D02*
X18554000Y9640000D01*
D38*
X17272000Y12192000D02*
X17526000Y11938000D01*
X17526000Y10680000D02*
X18554000Y9652000D01*
X17526000Y11938000D02*
X17526000Y10680000D01*
X17272000Y12065000D02*
X17272000Y12192000D01*
X14720000Y4318000D02*
X14720000Y6905000D01*
X14720000Y6905000D02*
X14800000Y6985000D01*
X32766000Y41116000D02*
X33115000Y41116000D01*
X29523000Y9593000D02*
X27940000Y9593000D01*
D37*
X28333000Y11430000D02*
X28333000Y9986000D01*
X28333000Y9986000D02*
X27940000Y9593000D01*
X14800000Y6985000D02*
X16383000Y6985000D01*
X16891000Y8509000D02*
X16764000Y8636000D01*
X16891000Y7493000D02*
X16891000Y8509000D01*
X16383000Y6985000D02*
X16891000Y7493000D01*
X14800000Y6985000D02*
X14800000Y5668000D01*
D38*
X18554000Y9652000D02*
X18161000Y9652000D01*
X18161000Y9652000D02*
X17653000Y9144000D01*
X17145000Y8636000D02*
X16764000Y8636000D01*
X17653000Y9144000D02*
X17145000Y8636000D01*
D37*
X32766000Y41116000D02*
X32353000Y41116000D01*
X32353000Y41116000D02*
X31369000Y40132000D01*
X26162000Y29464000D02*
X24638000Y30988000D01*
X29337000Y29464000D02*
X26162000Y29464000D01*
X32258000Y32385000D02*
X29337000Y29464000D01*
X32258000Y35941000D02*
X32258000Y32385000D01*
X31369000Y36830000D02*
X32258000Y35941000D01*
X31369000Y40132000D02*
X31369000Y36830000D01*
X24638000Y30988000D02*
X24638000Y32016000D01*
X24638000Y32016000D02*
X26491500Y32016000D01*
X26491500Y32016000D02*
X27178000Y32702500D01*
X27432000Y35814000D02*
X27432000Y32956500D01*
X27432000Y32956500D02*
X27178000Y32702500D01*
D38*
X30861000Y11938000D02*
X30924500Y11874500D01*
X9906000Y31369000D02*
X9906000Y25400000D01*
X9525000Y31750000D02*
X9906000Y31369000D01*
X26035000Y23622000D02*
X26035000Y24257000D01*
X23749000Y30099000D02*
X24257000Y29591000D01*
X39497000Y36830000D02*
X41529000Y36830000D01*
X38354000Y40894000D02*
X37719000Y40259000D01*
X37719000Y40259000D02*
X37719000Y39751000D01*
X37719000Y39751000D02*
X38227000Y39243000D01*
X38227000Y39243000D02*
X38227000Y38100000D01*
X38227000Y38100000D02*
X39497000Y36830000D01*
X38481000Y40894000D02*
X38354000Y40894000D01*
X41021000Y32893000D02*
X40120000Y32893000D01*
X41783000Y33655000D02*
X41021000Y32893000D01*
X41783000Y36576000D02*
X41783000Y33655000D01*
X41529000Y36830000D02*
X41783000Y36576000D01*
X37084000Y43434000D02*
X38100000Y42418000D01*
X38259000Y41116000D02*
X36766000Y41116000D01*
X38259000Y41116000D02*
X38481000Y40894000D01*
X36957000Y43561000D02*
X37084000Y43434000D01*
X48260000Y22860000D02*
X46482000Y22860000D01*
X41541000Y14109000D02*
X42672000Y15240000D01*
X42672000Y15240000D02*
X44450000Y15240000D01*
X40640000Y14109000D02*
X41541000Y14109000D01*
X46482000Y15240000D02*
X48260000Y15240000D01*
X30861000Y11938000D02*
X30924500Y11874500D01*
X30924500Y11874500D02*
X32004000Y10795000D01*
X29833000Y11430000D02*
X30353000Y11430000D01*
X30353000Y11430000D02*
X30861000Y11938000D01*
X20054000Y9652000D02*
X20955000Y9652000D01*
X20955000Y9652000D02*
X21590000Y9017000D01*
X18288000Y11557000D02*
X20054000Y9791000D01*
X20054000Y9791000D02*
X20054000Y9652000D01*
X13589000Y14224000D02*
X13589000Y14097000D01*
X8509000Y10160000D02*
X8509000Y8128000D01*
X9652000Y11303000D02*
X8509000Y10160000D01*
X10795000Y11303000D02*
X9652000Y11303000D01*
X13589000Y14097000D02*
X10795000Y11303000D01*
X12700000Y6858000D02*
X12954000Y6858000D01*
X13415000Y7319000D02*
X13415000Y9906000D01*
X12954000Y6858000D02*
X13415000Y7319000D01*
X13220000Y4318000D02*
X13220000Y6338000D01*
X13220000Y6338000D02*
X12700000Y6858000D01*
X27432000Y23610000D02*
X26047000Y23610000D01*
X26047000Y23610000D02*
X26035000Y23622000D01*
X23241000Y23749000D02*
X22213000Y23749000D01*
X34798000Y16764000D02*
X34925000Y16764000D01*
X36322000Y14871000D02*
X37084000Y14109000D01*
X36322000Y15367000D02*
X36322000Y14871000D01*
X34925000Y16764000D02*
X36322000Y15367000D01*
X33782000Y17895000D02*
X33782000Y17653000D01*
X33782000Y17653000D02*
X34671000Y16764000D01*
X34671000Y16764000D02*
X34798000Y16764000D01*
X32258000Y17895000D02*
X33782000Y17895000D01*
X16268000Y20562000D02*
X17272000Y20562000D01*
X16256000Y20574000D02*
X16268000Y20562000D01*
X15252000Y11303000D02*
X15252000Y13347000D01*
X12966000Y14847000D02*
X12942000Y14847000D01*
X13589000Y14224000D02*
X12966000Y14847000D01*
X15252000Y13347000D02*
X15748000Y13843000D01*
X10668000Y14847000D02*
X12942000Y14847000D01*
X12942000Y14847000D02*
X13970000Y15875000D01*
X9906000Y25400000D02*
X8636000Y26670000D01*
X8636000Y26670000D02*
X5207000Y26670000D01*
X24130000Y1905000D02*
X20320000Y1905000D01*
X1905000Y13335000D02*
X1905000Y17145000D01*
X1905000Y17145000D02*
X1905000Y20955000D01*
X1905000Y20955000D02*
X1905000Y24765000D01*
X1905000Y24765000D02*
X1905000Y28575000D01*
X1905000Y28575000D02*
X1905000Y32385000D01*
X1905000Y32385000D02*
X1905000Y36195000D01*
X1905000Y36195000D02*
X1905000Y40005000D01*
X48260000Y9525000D02*
X48260000Y13335000D01*
X48260000Y13335000D02*
X48260000Y15240000D01*
X48260000Y15240000D02*
X48260000Y17145000D01*
X48260000Y17145000D02*
X48260000Y20955000D01*
X48260000Y20955000D02*
X48260000Y22860000D01*
X48260000Y22860000D02*
X48260000Y24765000D01*
X48260000Y24765000D02*
X48260000Y28575000D01*
X48260000Y28575000D02*
X48260000Y32385000D01*
X48260000Y32385000D02*
X48260000Y36195000D01*
X48260000Y36195000D02*
X48260000Y40005000D01*
X40860000Y2516000D02*
X40860000Y3014000D01*
X40860000Y3014000D02*
X44704000Y6858000D01*
X48260000Y7366000D02*
X48260000Y9525000D01*
X47752000Y6858000D02*
X48260000Y7366000D01*
X44704000Y6858000D02*
X47752000Y6858000D01*
X40860000Y2516000D02*
X27720000Y2516000D01*
X37084000Y14109000D02*
X38862000Y14109000D01*
X38862000Y14109000D02*
X40640000Y14109000D01*
X24130000Y1905000D02*
X27109000Y1905000D01*
X27109000Y1905000D02*
X27720000Y2516000D01*
X19050000Y20562000D02*
X17272000Y20562000D01*
X19189000Y22098000D02*
X19189000Y20701000D01*
X19189000Y20701000D02*
X19050000Y20562000D01*
X19570000Y25527000D02*
X19570000Y22479000D01*
X19570000Y22479000D02*
X19189000Y22098000D01*
X19570000Y25527000D02*
X19570000Y25515000D01*
X19570000Y25515000D02*
X20447000Y24638000D01*
X20447000Y24638000D02*
X21324000Y24638000D01*
X21324000Y24638000D02*
X22213000Y23749000D01*
X24638000Y33516000D02*
X24626000Y33516000D01*
X24626000Y33516000D02*
X23749000Y32639000D01*
X22110000Y29718000D02*
X21348000Y30480000D01*
X23368000Y29718000D02*
X22110000Y29718000D01*
X23749000Y30099000D02*
X23368000Y29718000D01*
X23749000Y32639000D02*
X23749000Y30099000D01*
X40120000Y31242000D02*
X40120000Y32893000D01*
X37719000Y35191000D02*
X37822000Y35191000D01*
X37822000Y35191000D02*
X40120000Y32893000D01*
X37719000Y35191000D02*
X37580000Y35191000D01*
X37580000Y35191000D02*
X36957000Y35814000D01*
X36068000Y36195000D02*
X35052000Y36195000D01*
X36449000Y35814000D02*
X36068000Y36195000D01*
X36957000Y35814000D02*
X36449000Y35814000D01*
D37*
X25146000Y35814000D02*
X25146000Y34024000D01*
X25146000Y34024000D02*
X24638000Y33516000D01*
D39*
X16752000Y11303000D02*
X16752000Y9652000D01*
X16752000Y9652000D02*
X16129000Y9029000D01*
X16129000Y9029000D02*
X16129000Y7874000D01*
D38*
X21590000Y12065000D02*
X22860000Y13335000D01*
X22860000Y13335000D02*
X26416000Y13335000D01*
X26797000Y12954000D02*
X26416000Y13335000D01*
D37*
X38620000Y32893000D02*
X38354000Y32893000D01*
X38354000Y32893000D02*
X37846000Y33401000D01*
X40640000Y15609000D02*
X39763000Y15609000D01*
X39763000Y15609000D02*
X39751000Y15621000D01*
X10668000Y12446000D02*
X10668000Y13347000D01*
X10668000Y12446000D02*
X9017000Y12446000D01*
X9017000Y12446000D02*
X7620000Y11049000D01*
X22860000Y35814000D02*
X22987000Y35814000D01*
X22987000Y35814000D02*
X24003000Y34798000D01*
X19834860Y34798000D02*
X19834860Y33423860D01*
X19834860Y33423860D02*
X19304000Y32893000D01*
X22987000Y32016000D02*
X20181000Y32016000D01*
X20181000Y32016000D02*
X19304000Y32893000D01*
X18149000Y38608000D02*
X20132040Y38608000D01*
X20132040Y38608000D02*
X20193000Y38547040D01*
D38*
X26289000Y17780000D02*
X27606000Y17780000D01*
X24464000Y17272000D02*
X25781000Y17272000D01*
X25781000Y17272000D02*
X26289000Y17780000D01*
X24130000Y16002000D02*
X24130000Y16637000D01*
X24130000Y16637000D02*
X24464000Y16971000D01*
X24464000Y16971000D02*
X24464000Y17272000D01*
D37*
X39739000Y15609000D02*
X38862000Y15609000D01*
X39751000Y15621000D02*
X39739000Y15609000D01*
X38862000Y15609000D02*
X38862000Y16938000D01*
X38862000Y16938000D02*
X39323000Y17399000D01*
X38481000Y40005000D02*
X39497000Y38989000D01*
X39497000Y38989000D02*
X40005000Y38989000D01*
X40005000Y38989000D02*
X39624000Y38989000D01*
X20193000Y38547040D02*
X20193000Y35156140D01*
X20193000Y35156140D02*
X19834860Y34798000D01*
X19834860Y34798000D02*
X21844000Y34798000D01*
X21844000Y34798000D02*
X22860000Y35814000D01*
D39*
X36766500Y37655500D02*
X36766500Y36766500D01*
X36766500Y34861500D02*
X36766500Y34607500D01*
X36830000Y34925000D02*
X36766500Y34861500D01*
X36766500Y36766500D02*
X36830000Y36703000D01*
X33655000Y29464000D02*
X33643000Y29476000D01*
X33643000Y29476000D02*
X33643000Y30353000D01*
X33643000Y30353000D02*
X33643000Y33262000D01*
X33643000Y33262000D02*
X33909000Y33528000D01*
X33909000Y33528000D02*
X35687000Y33528000D01*
X35687000Y33528000D02*
X36766500Y34607500D01*
X40005000Y35687000D02*
X38723000Y35687000D01*
X38723000Y35687000D02*
X37719000Y36691000D01*
X37719000Y36691000D02*
X37719000Y36703000D01*
X37719000Y36703000D02*
X36766500Y37655500D01*
X36766500Y37655500D02*
X36766000Y37656000D01*
X37592000Y30988000D02*
X36766500Y31813500D01*
X36766500Y31813500D02*
X36766500Y34607500D01*
X36766000Y37656000D02*
X36766000Y39116000D01*
X19304000Y28829000D02*
X19084373Y28956593D01*
X19084373Y28956593D02*
X16637000Y28956000D01*
X19304000Y28829000D02*
X29591000Y28829000D01*
X29591000Y28829000D02*
X31115000Y30353000D01*
X32143000Y30353000D02*
X31115000Y30353000D01*
X14478000Y26924000D02*
X12827000Y26924000D01*
X16637000Y28956000D02*
X14478000Y26924000D01*
X15494000Y16002000D02*
X18161000Y16002000D01*
X10795000Y20701000D02*
X15494000Y16002000D01*
X22848000Y30480000D02*
X22848000Y30492000D01*
X22848000Y30492000D02*
X22098000Y31242000D01*
X27432000Y22110000D02*
X28182000Y22110000D01*
X28182000Y22110000D02*
X28702000Y21590000D01*
X27190000Y22352000D02*
X25654000Y22352000D01*
X25654000Y22352000D02*
X21590000Y26416000D01*
X21590000Y26416000D02*
X21463000Y26416000D01*
X27190000Y22352000D02*
X27432000Y22110000D01*
X21070000Y25527000D02*
X21070000Y26023000D01*
X21070000Y26023000D02*
X21463000Y26416000D01*
X39370000Y32131000D02*
X38620000Y31381000D01*
X38620000Y31381000D02*
X38620000Y31242000D01*
X29464000Y38239000D02*
X27825000Y38239000D01*
X27825000Y38239000D02*
X27051000Y37465000D01*
X28702000Y21590000D02*
X28702000Y21717000D01*
X19511000Y17272000D02*
X19511000Y17352000D01*
X19511000Y17352000D02*
X19939000Y17780000D01*
X19939000Y17780000D02*
X19939000Y19050000D01*
X26289000Y16510000D02*
X28829000Y16510000D01*
X19511000Y16049000D02*
X19511000Y17272000D01*
X19558000Y16002000D02*
X19511000Y16049000D01*
X19558000Y17272000D02*
X19511000Y17272000D01*
X36623000Y17399000D02*
X35052000Y17399000D01*
X35052000Y17399000D02*
X34798000Y17653000D01*
X37084000Y15609000D02*
X37084000Y16938000D01*
X37084000Y16938000D02*
X36623000Y17399000D01*
X16811000Y17272000D02*
X17780000Y17272000D01*
X17780000Y17272000D02*
X18161000Y16891000D01*
X17272000Y19062000D02*
X17272000Y17733000D01*
X17272000Y17733000D02*
X16811000Y17272000D01*
X19050000Y19062000D02*
X17272000Y19062000D01*
X20689000Y22098000D02*
X20689000Y23725000D01*
X20689000Y23725000D02*
X20713000Y23749000D01*
X20689000Y21221000D02*
X20689000Y22098000D01*
X20701000Y21209000D02*
X20689000Y21221000D01*
X21764000Y17987000D02*
X21764000Y17272000D01*
X21336000Y18415000D02*
X21764000Y17987000D01*
X21764000Y17272000D02*
X21717000Y17272000D01*
X33782000Y16395000D02*
X34151000Y16395000D01*
X34151000Y16395000D02*
X34671000Y15875000D01*
X34671000Y15875000D02*
X34798000Y15875000D01*
X33794000Y16383000D02*
X33782000Y16395000D01*
X32258000Y16395000D02*
X33782000Y16395000D01*
X30306000Y17780000D02*
X30873000Y17780000D01*
X30873000Y17780000D02*
X32258000Y16395000D01*
X34798000Y37338000D02*
X33020000Y39116000D01*
X33020000Y39116000D02*
X32766000Y39116000D01*
X11303000Y5842000D02*
X11811000Y5842000D01*
X11303000Y5842000D02*
X10600000Y6545000D01*
X10600000Y6545000D02*
X10600000Y6985000D01*
X10600000Y6799000D02*
X10600000Y6985000D01*
X29845000Y4191000D02*
X28643000Y5393000D01*
X28643000Y5393000D02*
X27940000Y5393000D01*
X21844000Y40132000D02*
X20259040Y41716960D01*
X21844000Y39878000D02*
X21844000Y40132000D01*
X21844000Y39624000D02*
X21844000Y39878000D01*
X21844000Y38481000D02*
X21844000Y39624000D01*
X20259040Y41716960D02*
X20193000Y41716960D01*
X10715000Y9906000D02*
X9779000Y9906000D01*
X9271000Y9398000D02*
X9271000Y6858000D01*
X9779000Y9906000D02*
X9271000Y9398000D01*
X10668000Y9906000D02*
X10715000Y9906000D01*
X9514000Y33090000D02*
X9976000Y33090000D01*
X10414000Y36576000D02*
X6985000Y40005000D01*
X10414000Y33528000D02*
X10414000Y36576000D01*
X9976000Y33090000D02*
X10414000Y33528000D01*
X9514000Y33890000D02*
X8363000Y33890000D01*
X8363000Y33890000D02*
X8001000Y33528000D01*
X9514000Y34690000D02*
X8274000Y34690000D01*
X8274000Y34690000D02*
X6985000Y33401000D01*
X6985000Y33401000D02*
X6985000Y32385000D01*
X9514000Y35490000D02*
X8312000Y35490000D01*
X5715000Y29845000D02*
X6985000Y28575000D01*
X5715000Y33020000D02*
X5715000Y29845000D01*
X6350000Y33655000D02*
X5715000Y33020000D01*
X6477000Y33655000D02*
X6350000Y33655000D01*
X8312000Y35490000D02*
X6477000Y33655000D01*
X6985000Y24765000D02*
X6985000Y22987000D01*
X8058000Y21914000D02*
X10022000Y21914000D01*
X6985000Y22987000D02*
X8058000Y21914000D01*
X6985000Y20955000D02*
X6985000Y21971000D01*
X6985000Y21971000D02*
X6477000Y22479000D01*
X7620000Y23368000D02*
X8274000Y22714000D01*
X8274000Y22714000D02*
X10022000Y22714000D01*
X8890000Y20828000D02*
X8890000Y21082000D01*
X6985000Y18923000D02*
X8890000Y20828000D01*
X6985000Y17145000D02*
X6985000Y18923000D01*
X9036000Y23514000D02*
X10022000Y23514000D01*
X9017000Y23495000D02*
X9036000Y23514000D01*
X8890000Y21082000D02*
X9017000Y21209000D01*
X6985000Y13335000D02*
X6985000Y14351000D01*
X6985000Y14351000D02*
X5715000Y15621000D01*
X5715000Y15621000D02*
X5715000Y25527000D01*
X5715000Y25527000D02*
X6350000Y26162000D01*
X6350000Y26162000D02*
X8174000Y26162000D01*
X8174000Y26162000D02*
X10022000Y24314000D01*
X19558000Y19812000D02*
X21082000Y19812000D01*
X13335000Y19812000D02*
X16129000Y19812000D01*
X16129000Y19812000D02*
X17907000Y19812000D01*
X17907000Y19812000D02*
X19558000Y19812000D01*
X6985000Y9525000D02*
X6985000Y11303000D01*
X8382000Y14732000D02*
X12065000Y18415000D01*
X8382000Y12700000D02*
X8382000Y14732000D01*
X6985000Y11303000D02*
X8382000Y12700000D01*
X21082000Y19812000D02*
X21901000Y18993000D01*
X21901000Y18993000D02*
X22214000Y18993000D01*
X12954000Y3556000D02*
X12700000Y3556000D01*
X20320000Y6985000D02*
X16891000Y3556000D01*
X12954000Y3556000D02*
X16891000Y3556000D01*
X21209000Y20447000D02*
X21863000Y19793000D01*
X20828000Y19050000D02*
X20637500Y18859500D01*
X20637500Y18859500D02*
X20637500Y16192500D01*
X20637500Y16192500D02*
X19812000Y15367000D01*
X19812000Y15367000D02*
X15748000Y15367000D01*
X11938000Y11557000D02*
X15748000Y15367000D01*
X11938000Y6731000D02*
X11938000Y11557000D01*
X12446000Y6223000D02*
X11938000Y6731000D01*
X12446000Y3810000D02*
X12446000Y6223000D01*
X12700000Y3556000D02*
X12446000Y3810000D01*
X22214000Y19793000D02*
X21863000Y19793000D01*
X24130000Y6985000D02*
X26289000Y6985000D01*
X27305000Y8001000D02*
X27686000Y8382000D01*
X27686000Y8382000D02*
X34290000Y8382000D01*
X34290000Y8382000D02*
X36195000Y10287000D01*
X36195000Y10287000D02*
X36195000Y12446000D01*
X36195000Y12446000D02*
X33782000Y14859000D01*
X33782000Y14859000D02*
X24257000Y14859000D01*
X24257000Y14859000D02*
X23114000Y16002000D01*
X23114000Y16002000D02*
X23114000Y20066000D01*
X23114000Y20066000D02*
X22587000Y20593000D01*
X26289000Y6985000D02*
X27305000Y8001000D01*
X22587000Y20593000D02*
X22214000Y20593000D01*
X36703000Y10287000D02*
X36703000Y12700000D01*
X36703000Y12700000D02*
X34036000Y15367000D01*
X34036000Y15367000D02*
X25654000Y15367000D01*
X25654000Y15367000D02*
X25019000Y16002000D01*
X37465000Y9525000D02*
X36703000Y10287000D01*
X37465000Y9525000D02*
X43180000Y9525000D01*
X22919000Y22098000D02*
X22214000Y21393000D01*
X24511000Y22098000D02*
X22919000Y22098000D01*
X25527000Y21082000D02*
X24511000Y22098000D01*
X26162000Y21082000D02*
X25527000Y21082000D01*
X26289000Y21209000D02*
X26162000Y21082000D01*
X38873000Y21774000D02*
X41726000Y21774000D01*
X41726000Y21774000D02*
X41783000Y21717000D01*
X38873000Y20974000D02*
X41637000Y20974000D01*
X41637000Y20974000D02*
X41783000Y20828000D01*
X38873000Y20174000D02*
X42399000Y20174000D01*
X42399000Y20174000D02*
X43180000Y20955000D01*
X38873000Y19374000D02*
X43758000Y19374000D01*
X44450000Y23495000D02*
X43180000Y24765000D01*
X44450000Y20066000D02*
X44450000Y23495000D01*
X43758000Y19374000D02*
X44450000Y20066000D01*
X38873000Y25457000D02*
X40316000Y25457000D01*
X41783000Y27432000D02*
X42926000Y28575000D01*
X41783000Y26924000D02*
X41783000Y27432000D01*
X40316000Y25457000D02*
X41783000Y26924000D01*
X42926000Y28575000D02*
X43180000Y28575000D01*
X38873000Y24657000D02*
X39986000Y24657000D01*
X40640000Y30226000D02*
X42799000Y32385000D01*
X39986000Y24657000D02*
X40005000Y24638000D01*
X42799000Y32385000D02*
X43180000Y32385000D01*
X38873000Y23857000D02*
X40875000Y23857000D01*
X42418000Y26797000D02*
X42418000Y27051000D01*
X41402000Y25781000D02*
X42418000Y26797000D01*
X41402000Y24384000D02*
X41402000Y25781000D01*
X40875000Y23857000D02*
X41402000Y24384000D01*
X38873000Y23057000D02*
X40837000Y23057000D01*
X44450000Y38735000D02*
X43180000Y40005000D01*
X44450000Y27432000D02*
X44450000Y38735000D01*
X43688000Y26670000D02*
X44450000Y27432000D01*
X43053000Y26670000D02*
X43688000Y26670000D01*
X41910000Y25527000D02*
X43053000Y26670000D01*
X41910000Y24130000D02*
X41910000Y25527000D01*
X40837000Y23057000D02*
X41910000Y24130000D01*
X40386000Y37592000D02*
X41275000Y37592000D01*
X41275000Y37592000D02*
X41783000Y38100000D01*
X12827000Y44577000D02*
X14605000Y46355000D01*
X12192000Y44577000D02*
X12827000Y44577000D01*
X11430000Y43815000D02*
X12192000Y44577000D01*
X11430000Y37211000D02*
X11430000Y43815000D01*
X11811000Y36830000D02*
X11430000Y37211000D01*
X12319000Y36830000D02*
X11811000Y36830000D01*
X12954000Y37465000D02*
X12319000Y36830000D01*
X17145000Y46355000D02*
X15367000Y44577000D01*
X11938000Y37592000D02*
X12065000Y37465000D01*
X11938000Y43618998D02*
X11938000Y37592000D01*
X12388002Y44069000D02*
X11938000Y43618998D01*
X13081000Y44069000D02*
X12388002Y44069000D01*
X13589000Y44577000D02*
X13081000Y44069000D01*
X13843000Y44577000D02*
X13589000Y44577000D01*
X15367000Y44577000D02*
X13843000Y44577000D01*
X26289000Y10668000D02*
X27813000Y12192000D01*
X32131000Y12573000D02*
X33147000Y11557000D01*
X33147000Y11557000D02*
X33401000Y11557000D01*
X33401000Y11557000D02*
X33655000Y11303000D01*
X26035000Y10668000D02*
X26289000Y10668000D01*
X25019000Y9017000D02*
X25781000Y9779000D01*
X25781000Y9779000D02*
X25781000Y10414000D01*
X25781000Y10414000D02*
X26035000Y10668000D01*
X24511000Y9017000D02*
X22606000Y9017000D01*
X22606000Y9017000D02*
X22352000Y9271000D01*
X19812000Y11811000D02*
X19177000Y11811000D01*
X16891000Y13335000D02*
X17018000Y13335000D01*
X17018000Y13335000D02*
X17145000Y13335000D01*
X17145000Y13335000D02*
X18288000Y12192000D01*
X19812000Y11811000D02*
X22352000Y9271000D01*
X18796000Y12192000D02*
X18288000Y12192000D01*
X19177000Y11811000D02*
X18796000Y12192000D01*
X24511000Y9017000D02*
X25019000Y9017000D01*
X30480000Y12573000D02*
X32131000Y12573000D01*
X30099000Y12192000D02*
X30480000Y12573000D01*
X27813000Y12192000D02*
X30099000Y12192000D01*
X25781000Y11176000D02*
X26035000Y11176000D01*
X24707002Y9467002D02*
X25273000Y10033000D01*
X25273000Y10033000D02*
X25273000Y10668000D01*
X25273000Y10668000D02*
X25781000Y11176000D01*
X22860000Y9467002D02*
X22548002Y9779000D01*
X22548002Y9779000D02*
X20008002Y12319000D01*
X19050000Y12700000D02*
X19431000Y12319000D01*
X18542000Y12700000D02*
X19050000Y12700000D01*
X18415000Y12827000D02*
X18542000Y12700000D01*
X18288000Y12954000D02*
X18415000Y12827000D01*
X18288000Y12954000D02*
X16510000Y14732000D01*
X16510000Y14732000D02*
X16002000Y14732000D01*
X19431000Y12319000D02*
X20008002Y12319000D01*
X22860000Y9467002D02*
X24199002Y9467002D01*
X24199002Y9467002D02*
X24707002Y9467002D01*
X30168002Y13023002D02*
X32442998Y13023002D01*
X29845000Y12700000D02*
X30168002Y13023002D01*
X27559000Y12700000D02*
X29845000Y12700000D01*
X26035000Y11176000D02*
X27559000Y12700000D01*
X35560000Y10668000D02*
X34163000Y12065000D01*
X34163000Y12065000D02*
X33401000Y12065000D01*
X33401000Y12065000D02*
X32442998Y13023002D01*
X13335000Y27559000D02*
X13335000Y33655000D01*
X20574000Y13843000D02*
X19685000Y12954000D01*
X32512000Y13843000D02*
X20574000Y13843000D01*
X33655000Y12700000D02*
X32512000Y13843000D01*
X35560000Y12192000D02*
X33401000Y14351000D01*
X33401000Y14351000D02*
X19812523Y14350477D01*
X19812523Y14350477D02*
X18796000Y13335000D01*
X11314000Y33890000D02*
X11703000Y33890000D01*
X11703000Y33890000D02*
X12065000Y33528000D01*
X12065000Y33528000D02*
X12065000Y28956000D01*
X12065000Y28956000D02*
X11557000Y28448000D01*
X11557000Y28448000D02*
X11557000Y26162000D01*
X11557000Y26162000D02*
X12573000Y25146000D01*
X12573000Y25146000D02*
X13716000Y25146000D01*
X13716000Y25146000D02*
X15367000Y25146000D01*
X15367000Y25146000D02*
X16002000Y24511000D01*
X13081000Y19177000D02*
X11557000Y20701000D01*
X11430000Y29210000D02*
X11430000Y32950998D01*
X11430000Y29210000D02*
X10922000Y28702000D01*
X10922000Y28702000D02*
X10922000Y21463000D01*
X13081000Y19177000D02*
X16002000Y19177000D01*
X11430000Y20955000D02*
X10922000Y21463000D01*
X11430000Y20828000D02*
X11430000Y20955000D01*
X11557000Y20701000D02*
X11430000Y20828000D01*
X11314000Y33090000D02*
X11314000Y33066998D01*
X11314000Y33066998D02*
X11430000Y32950998D01*
X12954000Y25781000D02*
X15621000Y25781000D01*
X11665000Y34690000D02*
X12700000Y33655000D01*
X12700000Y33655000D02*
X12700000Y28702000D01*
X12700000Y28702000D02*
X12192000Y28194000D01*
X12192000Y28194000D02*
X12192000Y26543000D01*
X12192000Y26543000D02*
X12954000Y25781000D01*
X15621000Y25781000D02*
X16002000Y25400000D01*
X11314000Y34690000D02*
X11665000Y34690000D01*
X11314000Y35490000D02*
X12516000Y35490000D01*
X16637000Y31369000D02*
X17653000Y30353000D01*
X12516000Y35490000D02*
X16637000Y31369000D01*
X16999000Y22714000D02*
X17780000Y23495000D01*
X18796000Y28321000D02*
X17018000Y28321000D01*
X16999000Y22714000D02*
X11822000Y22714000D01*
X17780000Y27305000D02*
X18923000Y27305000D01*
X16764000Y27305000D02*
X17780000Y27305000D01*
X17088000Y21914000D02*
X11822000Y21914000D01*
X18669000Y23495000D02*
X17088000Y21914000D01*
X18923000Y27305000D02*
X19304000Y27686000D01*
X18288000Y29591000D02*
X17018000Y29591000D01*
X15221000Y23514000D02*
X11822000Y23514000D01*
X16764000Y23368000D02*
X16891000Y23495000D01*
X15367000Y23368000D02*
X16764000Y23368000D01*
X15221000Y23514000D02*
X15367000Y23368000D01*
X11822000Y24314000D02*
X15183000Y24314000D01*
X32131000Y29591000D02*
X32258000Y29464000D01*
X31115000Y29591000D02*
X32131000Y29591000D01*
X29845000Y28321000D02*
X31115000Y29591000D01*
X20828000Y28321000D02*
X29845000Y28321000D01*
X16383000Y23876000D02*
X20828000Y28321000D01*
X15621000Y23876000D02*
X16383000Y23876000D01*
X15183000Y24314000D02*
X15621000Y23876000D01*
X24014000Y19793000D02*
X24530000Y19793000D01*
X33274000Y19558000D02*
X33909000Y18923000D01*
X24765000Y19558000D02*
X33274000Y19558000D01*
X24530000Y19793000D02*
X24765000Y19558000D01*
X32950000Y18993000D02*
X33020000Y18923000D01*
X24014000Y18993000D02*
X32950000Y18993000D01*
X24434002Y20593000D02*
X24961002Y20066000D01*
X24961002Y20066000D02*
X32639000Y20066000D01*
X32639000Y20066000D02*
X32766000Y20193000D01*
X24434002Y20593000D02*
X24014000Y20593000D01*
X24014000Y20593000D02*
X24288002Y20593000D01*
X25146000Y20574000D02*
X24327000Y21393000D01*
X32004000Y20574000D02*
X25146000Y20574000D01*
X32131000Y20701000D02*
X32004000Y20574000D01*
X24327000Y21393000D02*
X24014000Y21393000D01*
X34652000Y20974000D02*
X37073000Y20974000D01*
X34652000Y20974000D02*
X33528000Y22098000D01*
X29972000Y22225000D02*
X31369000Y22225000D01*
X34741000Y21774000D02*
X33528000Y22987000D01*
X34741000Y21774000D02*
X37073000Y21774000D01*
X34563000Y20174000D02*
X37073000Y20174000D01*
X34563000Y20174000D02*
X33528000Y21209000D01*
X31496000Y21209000D02*
X32131000Y21844000D01*
X29464000Y21209000D02*
X31496000Y21209000D01*
X37073000Y19374000D02*
X37662000Y19374000D01*
X34798000Y32893000D02*
X34290000Y32893000D01*
X37973000Y29718000D02*
X34798000Y32893000D01*
X37973000Y19685000D02*
X37973000Y29718000D01*
X37662000Y19374000D02*
X37973000Y19685000D01*
X30480000Y24511000D02*
X30099000Y24130000D01*
X34525000Y24657000D02*
X33528000Y25654000D01*
X34525000Y24657000D02*
X37073000Y24657000D01*
X31369000Y24511000D02*
X30480000Y24511000D01*
X34614000Y25457000D02*
X33528000Y26543000D01*
X34614000Y25457000D02*
X37073000Y25457000D01*
X31115000Y23368000D02*
X28702000Y23368000D01*
X28702000Y23368000D02*
X28575000Y23495000D01*
X34436000Y23857000D02*
X37073000Y23857000D01*
X34436000Y23857000D02*
X33528000Y24765000D01*
X31369000Y23622000D02*
X31115000Y23368000D01*
X37073000Y23057000D02*
X34474000Y23057000D01*
X25908000Y22860000D02*
X21082000Y27686000D01*
X31496000Y22860000D02*
X25908000Y22860000D01*
X32258000Y23622000D02*
X31496000Y22860000D01*
X33655000Y23876000D02*
X33528000Y23876000D01*
X34474000Y23057000D02*
X33655000Y23876000D01*
X21209000Y27813000D02*
X21082000Y27686000D01*
X16764000Y32004000D02*
X16764000Y32131000D01*
X16891000Y31877000D02*
X16764000Y32004000D01*
X17780000Y30988000D02*
X16891000Y31877000D01*
X18288000Y30988000D02*
X17780000Y30988000D01*
D40*
G36*
X49315000Y41629039D02*
X49249910Y41656000D01*
X48545750Y41656000D01*
X48387000Y41497250D01*
X48387000Y40132000D01*
X48407000Y40132000D01*
X48407000Y39878000D01*
X48387000Y39878000D01*
X48387000Y38512750D01*
X48545750Y38354000D01*
X49249910Y38354000D01*
X49315000Y38380961D01*
X49315000Y37819039D01*
X49249910Y37846000D01*
X48545750Y37846000D01*
X48387000Y37687250D01*
X48387000Y36322000D01*
X48407000Y36322000D01*
X48407000Y36068000D01*
X48387000Y36068000D01*
X48387000Y34702750D01*
X48545750Y34544000D01*
X49249910Y34544000D01*
X49315000Y34570961D01*
X49315000Y34009039D01*
X49249910Y34036000D01*
X48545750Y34036000D01*
X48387000Y33877250D01*
X48387000Y32512000D01*
X48407000Y32512000D01*
X48407000Y32258000D01*
X48387000Y32258000D01*
X48387000Y30892750D01*
X48545750Y30734000D01*
X49249910Y30734000D01*
X49315000Y30760961D01*
X49315000Y30199039D01*
X49249910Y30226000D01*
X48545750Y30226000D01*
X48387000Y30067250D01*
X48387000Y28702000D01*
X48407000Y28702000D01*
X48407000Y28448000D01*
X48387000Y28448000D01*
X48387000Y27082750D01*
X48545750Y26924000D01*
X49249910Y26924000D01*
X49315000Y26950961D01*
X49315000Y26389039D01*
X49249910Y26416000D01*
X48545750Y26416000D01*
X48387000Y26257250D01*
X48387000Y24892000D01*
X48407000Y24892000D01*
X48407000Y24638000D01*
X48387000Y24638000D01*
X48387000Y23272750D01*
X48545750Y23114000D01*
X49249910Y23114000D01*
X49315000Y23140961D01*
X49315000Y22579039D01*
X49249910Y22606000D01*
X48545750Y22606000D01*
X48387000Y22447250D01*
X48387000Y21082000D01*
X48407000Y21082000D01*
X48407000Y20828000D01*
X48387000Y20828000D01*
X48387000Y19462750D01*
X48545750Y19304000D01*
X49249910Y19304000D01*
X49315000Y19330961D01*
X49315000Y18769039D01*
X49249910Y18796000D01*
X48545750Y18796000D01*
X48387000Y18637250D01*
X48387000Y17272000D01*
X48407000Y17272000D01*
X48407000Y17018000D01*
X48387000Y17018000D01*
X48387000Y15652750D01*
X48545750Y15494000D01*
X49249910Y15494000D01*
X49315000Y15520961D01*
X49315000Y14959039D01*
X49249910Y14986000D01*
X48545750Y14986000D01*
X48387000Y14827250D01*
X48387000Y13462000D01*
X48407000Y13462000D01*
X48407000Y13208000D01*
X48387000Y13208000D01*
X48387000Y11842750D01*
X48545750Y11684000D01*
X49249910Y11684000D01*
X49315000Y11710961D01*
X49315000Y11149039D01*
X49249910Y11176000D01*
X48545750Y11176000D01*
X48387000Y11017250D01*
X48387000Y9652000D01*
X48407000Y9652000D01*
X48407000Y9398000D01*
X48387000Y9398000D01*
X48387000Y8032750D01*
X48545750Y7874000D01*
X49249910Y7874000D01*
X49315000Y7900961D01*
X49315000Y685000D01*
X42035454Y685000D01*
X42194365Y1002030D01*
X40860000Y2336395D01*
X39525635Y1002030D01*
X39684546Y685000D01*
X28895454Y685000D01*
X29054365Y1002030D01*
X27720000Y2336395D01*
X26385635Y1002030D01*
X26544546Y685000D01*
X25685693Y685000D01*
X25781000Y915090D01*
X25781000Y1597955D01*
X25887261Y1341418D01*
X26206030Y1181635D01*
X27540395Y2516000D01*
X27526253Y2530142D01*
X27705858Y2709747D01*
X27720000Y2695605D01*
X27734143Y2709747D01*
X27913748Y2530142D01*
X27899605Y2516000D01*
X29233970Y1181635D01*
X29552739Y1341418D01*
X29862723Y2132187D01*
X29848056Y2899813D01*
X38717277Y2899813D01*
X38733503Y2050613D01*
X39027261Y1341418D01*
X39346030Y1181635D01*
X40680395Y2516000D01*
X41039605Y2516000D01*
X42373970Y1181635D01*
X42692739Y1341418D01*
X43002723Y2132187D01*
X42986497Y2981387D01*
X42747913Y3557381D01*
X43764613Y3557381D01*
X44104155Y2735628D01*
X44732321Y2106364D01*
X45553481Y1765389D01*
X46442619Y1764613D01*
X47264372Y2104155D01*
X47893636Y2732321D01*
X48234611Y3553481D01*
X48235387Y4442619D01*
X47895845Y5264372D01*
X47267679Y5893636D01*
X46446519Y6234611D01*
X45557381Y6235387D01*
X44735628Y5895845D01*
X44106364Y5267679D01*
X43765389Y4446519D01*
X43764613Y3557381D01*
X42747913Y3557381D01*
X42692739Y3690582D01*
X42373970Y3850365D01*
X41039605Y2516000D01*
X40680395Y2516000D01*
X39346030Y3850365D01*
X39027261Y3690582D01*
X38717277Y2899813D01*
X29848056Y2899813D01*
X29846497Y2981387D01*
X29732708Y3256097D01*
X30030167Y3255838D01*
X30373943Y3397883D01*
X30637192Y3660673D01*
X30779838Y4004201D01*
X30779860Y4029970D01*
X39525635Y4029970D01*
X40860000Y2695605D01*
X42194365Y4029970D01*
X42034582Y4348739D01*
X41243813Y4658723D01*
X40394613Y4642497D01*
X39685418Y4348739D01*
X39525635Y4029970D01*
X30779860Y4029970D01*
X30780162Y4376167D01*
X30638117Y4719943D01*
X30375327Y4983192D01*
X30187440Y5061210D01*
X30187440Y6143000D01*
X30143162Y6378317D01*
X30004090Y6594441D01*
X29835755Y6709459D01*
X30119943Y6826883D01*
X30383192Y7089673D01*
X30387065Y7099000D01*
X34544000Y7099000D01*
X34840580Y7157993D01*
X35092008Y7325992D01*
X35754016Y7988000D01*
X36917511Y7988000D01*
X36934673Y7970808D01*
X37278201Y7828162D01*
X37650167Y7827838D01*
X37993943Y7969883D01*
X38257192Y8232673D01*
X38399838Y8576201D01*
X38400002Y8765000D01*
X41796654Y8765000D01*
X42120330Y8280585D01*
X42606511Y7955729D01*
X43180000Y7841655D01*
X43753489Y7955729D01*
X44239670Y8280585D01*
X44450000Y8595366D01*
X44660330Y8280585D01*
X45146511Y7955729D01*
X45720000Y7841655D01*
X46293489Y7955729D01*
X46779670Y8280585D01*
X46794500Y8302780D01*
X46858073Y8149302D01*
X47036701Y7970673D01*
X47270090Y7874000D01*
X47974250Y7874000D01*
X48133000Y8032750D01*
X48133000Y9398000D01*
X48113000Y9398000D01*
X48113000Y9652000D01*
X48133000Y9652000D01*
X48133000Y11017250D01*
X47974250Y11176000D01*
X47270090Y11176000D01*
X47036701Y11079327D01*
X46858073Y10900698D01*
X46794500Y10747220D01*
X46779670Y10769415D01*
X46605000Y10886126D01*
X46605000Y11973874D01*
X46779670Y12090585D01*
X46794500Y12112780D01*
X46858073Y11959302D01*
X47036701Y11780673D01*
X47270090Y11684000D01*
X47974250Y11684000D01*
X48133000Y11842750D01*
X48133000Y13208000D01*
X48113000Y13208000D01*
X48113000Y13462000D01*
X48133000Y13462000D01*
X48133000Y14827250D01*
X47974250Y14986000D01*
X47270090Y14986000D01*
X47036701Y14889327D01*
X46858073Y14710698D01*
X46794500Y14557220D01*
X46779670Y14579415D01*
X46605000Y14696126D01*
X46605000Y15783874D01*
X46779670Y15900585D01*
X46794500Y15922780D01*
X46858073Y15769302D01*
X47036701Y15590673D01*
X47270090Y15494000D01*
X47974250Y15494000D01*
X48133000Y15652750D01*
X48133000Y17018000D01*
X48113000Y17018000D01*
X48113000Y17272000D01*
X48133000Y17272000D01*
X48133000Y18637250D01*
X47974250Y18796000D01*
X47270090Y18796000D01*
X47036701Y18699327D01*
X46858073Y18520698D01*
X46794500Y18367220D01*
X46779670Y18389415D01*
X46605000Y18506126D01*
X46605000Y19593874D01*
X46779670Y19710585D01*
X46794500Y19732780D01*
X46858073Y19579302D01*
X47036701Y19400673D01*
X47270090Y19304000D01*
X47974250Y19304000D01*
X48133000Y19462750D01*
X48133000Y20828000D01*
X48113000Y20828000D01*
X48113000Y21082000D01*
X48133000Y21082000D01*
X48133000Y22447250D01*
X47974250Y22606000D01*
X47270090Y22606000D01*
X47036701Y22509327D01*
X46858073Y22330698D01*
X46794500Y22177220D01*
X46779670Y22199415D01*
X46605000Y22316126D01*
X46605000Y23403874D01*
X46779670Y23520585D01*
X46794500Y23542780D01*
X46858073Y23389302D01*
X47036701Y23210673D01*
X47270090Y23114000D01*
X47974250Y23114000D01*
X48133000Y23272750D01*
X48133000Y24638000D01*
X48113000Y24638000D01*
X48113000Y24892000D01*
X48133000Y24892000D01*
X48133000Y26257250D01*
X47974250Y26416000D01*
X47270090Y26416000D01*
X47036701Y26319327D01*
X46858073Y26140698D01*
X46794500Y25987220D01*
X46779670Y26009415D01*
X46605000Y26126126D01*
X46605000Y27213874D01*
X46779670Y27330585D01*
X46794500Y27352780D01*
X46858073Y27199302D01*
X47036701Y27020673D01*
X47270090Y26924000D01*
X47974250Y26924000D01*
X48133000Y27082750D01*
X48133000Y28448000D01*
X48113000Y28448000D01*
X48113000Y28702000D01*
X48133000Y28702000D01*
X48133000Y30067250D01*
X47974250Y30226000D01*
X47270090Y30226000D01*
X47036701Y30129327D01*
X46858073Y29950698D01*
X46794500Y29797220D01*
X46779670Y29819415D01*
X46605000Y29936126D01*
X46605000Y31023874D01*
X46779670Y31140585D01*
X46794500Y31162780D01*
X46858073Y31009302D01*
X47036701Y30830673D01*
X47270090Y30734000D01*
X47974250Y30734000D01*
X48133000Y30892750D01*
X48133000Y32258000D01*
X48113000Y32258000D01*
X48113000Y32512000D01*
X48133000Y32512000D01*
X48133000Y33877250D01*
X47974250Y34036000D01*
X47270090Y34036000D01*
X47036701Y33939327D01*
X46858073Y33760698D01*
X46794500Y33607220D01*
X46779670Y33629415D01*
X46605000Y33746126D01*
X46605000Y34833874D01*
X46779670Y34950585D01*
X46794500Y34972780D01*
X46858073Y34819302D01*
X47036701Y34640673D01*
X47270090Y34544000D01*
X47974250Y34544000D01*
X48133000Y34702750D01*
X48133000Y36068000D01*
X48113000Y36068000D01*
X48113000Y36322000D01*
X48133000Y36322000D01*
X48133000Y37687250D01*
X47974250Y37846000D01*
X47270090Y37846000D01*
X47036701Y37749327D01*
X46858073Y37570698D01*
X46794500Y37417220D01*
X46779670Y37439415D01*
X46605000Y37556126D01*
X46605000Y38643874D01*
X46779670Y38760585D01*
X46794500Y38782780D01*
X46858073Y38629302D01*
X47036701Y38450673D01*
X47270090Y38354000D01*
X47974250Y38354000D01*
X48133000Y38512750D01*
X48133000Y39878000D01*
X48113000Y39878000D01*
X48113000Y40132000D01*
X48133000Y40132000D01*
X48133000Y41497250D01*
X47974250Y41656000D01*
X47270090Y41656000D01*
X47036701Y41559327D01*
X46858073Y41380698D01*
X46794500Y41227220D01*
X46779670Y41249415D01*
X46475511Y41452648D01*
X46445709Y41497250D01*
X46345790Y41646790D01*
X46345787Y41646792D01*
X45710790Y42281790D01*
X45633280Y42333580D01*
X45423675Y42473633D01*
X45367484Y42484810D01*
X45085000Y42541001D01*
X45084995Y42541000D01*
X40498579Y42541000D01*
X38564995Y44474584D01*
X38725687Y44506548D01*
X39256120Y44860971D01*
X39370000Y45031405D01*
X39483880Y44860971D01*
X40014313Y44506548D01*
X40640000Y44382091D01*
X41265687Y44506548D01*
X41796120Y44860971D01*
X42150543Y45391404D01*
X42183557Y45557381D01*
X43764613Y45557381D01*
X44104155Y44735628D01*
X44732321Y44106364D01*
X45553481Y43765389D01*
X46442619Y43764613D01*
X47264372Y44104155D01*
X47893636Y44732321D01*
X48234611Y45553481D01*
X48235387Y46442619D01*
X47895845Y47264372D01*
X47267679Y47893636D01*
X46446519Y48234611D01*
X45557381Y48235387D01*
X44735628Y47895845D01*
X44106364Y47267679D01*
X43765389Y46446519D01*
X43764613Y45557381D01*
X42183557Y45557381D01*
X42275000Y46017091D01*
X42275000Y46692909D01*
X42150543Y47318596D01*
X41796120Y47849029D01*
X41265687Y48203452D01*
X40640000Y48327909D01*
X40014313Y48203452D01*
X39483880Y47849029D01*
X39370000Y47678595D01*
X39256120Y47849029D01*
X38725687Y48203452D01*
X38100000Y48327909D01*
X37474313Y48203452D01*
X36943880Y47849029D01*
X36830000Y47678595D01*
X36716120Y47849029D01*
X36381184Y48072825D01*
X36377634Y48090674D01*
X36302278Y48203452D01*
X36185790Y48377790D01*
X36185787Y48377792D01*
X35550790Y49012790D01*
X35263675Y49204633D01*
X35207484Y49215810D01*
X34925000Y49272001D01*
X34924995Y49272000D01*
X27940005Y49272000D01*
X27940000Y49272001D01*
X27601326Y49204634D01*
X27601324Y49204633D01*
X27601325Y49204633D01*
X27314210Y49012790D01*
X27314208Y49012787D01*
X25612060Y47310640D01*
X25241163Y47384416D01*
X23612790Y49012790D01*
X23325675Y49204633D01*
X23269484Y49215810D01*
X22987000Y49272001D01*
X22986995Y49272000D01*
X12700005Y49272000D01*
X12700000Y49272001D01*
X12361326Y49204634D01*
X12361324Y49204633D01*
X12361325Y49204633D01*
X12074210Y49012790D01*
X12074208Y49012787D01*
X11439210Y48377790D01*
X11247367Y48090675D01*
X11247367Y48090674D01*
X11243817Y48072826D01*
X11080808Y47963907D01*
X10989090Y48106441D01*
X10776890Y48251431D01*
X10525000Y48302440D01*
X8525000Y48302440D01*
X8289683Y48258162D01*
X8073559Y48119090D01*
X7928569Y47906890D01*
X7877560Y47655000D01*
X7877560Y45055000D01*
X7921838Y44819683D01*
X8060910Y44603559D01*
X8273110Y44458569D01*
X8525000Y44407560D01*
X9754981Y44407560D01*
X7888420Y42541000D01*
X5080005Y42541000D01*
X5080000Y42541001D01*
X4741326Y42473634D01*
X4659722Y42419108D01*
X4454210Y42281790D01*
X4454208Y42281787D01*
X3819210Y41646790D01*
X3689489Y41452648D01*
X3385330Y41249415D01*
X3370500Y41227220D01*
X3306927Y41380698D01*
X3128299Y41559327D01*
X2894910Y41656000D01*
X2190750Y41656000D01*
X2032000Y41497250D01*
X2032000Y40132000D01*
X2052000Y40132000D01*
X2052000Y39878000D01*
X2032000Y39878000D01*
X2032000Y38512750D01*
X2190750Y38354000D01*
X2894910Y38354000D01*
X3128299Y38450673D01*
X3306927Y38629302D01*
X3370500Y38782780D01*
X3385330Y38760585D01*
X3560000Y38643874D01*
X3560000Y37556126D01*
X3385330Y37439415D01*
X3370500Y37417220D01*
X3306927Y37570698D01*
X3128299Y37749327D01*
X2894910Y37846000D01*
X2190750Y37846000D01*
X2032000Y37687250D01*
X2032000Y36322000D01*
X2052000Y36322000D01*
X2052000Y36068000D01*
X2032000Y36068000D01*
X2032000Y34702750D01*
X2190750Y34544000D01*
X2894910Y34544000D01*
X3128299Y34640673D01*
X3306927Y34819302D01*
X3370500Y34972780D01*
X3385330Y34950585D01*
X3560000Y34833874D01*
X3560000Y33746126D01*
X3385330Y33629415D01*
X3370500Y33607220D01*
X3306927Y33760698D01*
X3128299Y33939327D01*
X2894910Y34036000D01*
X2190750Y34036000D01*
X2032000Y33877250D01*
X2032000Y32512000D01*
X2052000Y32512000D01*
X2052000Y32258000D01*
X2032000Y32258000D01*
X2032000Y30892750D01*
X2190750Y30734000D01*
X2894910Y30734000D01*
X3128299Y30830673D01*
X3306927Y31009302D01*
X3370500Y31162780D01*
X3385330Y31140585D01*
X3560000Y31023874D01*
X3560000Y29936126D01*
X3385330Y29819415D01*
X3370500Y29797220D01*
X3306927Y29950698D01*
X3128299Y30129327D01*
X2894910Y30226000D01*
X2190750Y30226000D01*
X2032000Y30067250D01*
X2032000Y28702000D01*
X2052000Y28702000D01*
X2052000Y28448000D01*
X2032000Y28448000D01*
X2032000Y27082750D01*
X2190750Y26924000D01*
X2894910Y26924000D01*
X3128299Y27020673D01*
X3306927Y27199302D01*
X3370500Y27352780D01*
X3385330Y27330585D01*
X3560000Y27213874D01*
X3560000Y26126126D01*
X3385330Y26009415D01*
X3370500Y25987220D01*
X3306927Y26140698D01*
X3128299Y26319327D01*
X2894910Y26416000D01*
X2190750Y26416000D01*
X2032000Y26257250D01*
X2032000Y24892000D01*
X2052000Y24892000D01*
X2052000Y24638000D01*
X2032000Y24638000D01*
X2032000Y23272750D01*
X2190750Y23114000D01*
X2894910Y23114000D01*
X3128299Y23210673D01*
X3306927Y23389302D01*
X3370500Y23542780D01*
X3385330Y23520585D01*
X3560000Y23403874D01*
X3560000Y22316126D01*
X3385330Y22199415D01*
X3370500Y22177220D01*
X3306927Y22330698D01*
X3128299Y22509327D01*
X2894910Y22606000D01*
X2190750Y22606000D01*
X2032000Y22447250D01*
X2032000Y21082000D01*
X2052000Y21082000D01*
X2052000Y20828000D01*
X2032000Y20828000D01*
X2032000Y19462750D01*
X2190750Y19304000D01*
X2894910Y19304000D01*
X3128299Y19400673D01*
X3306927Y19579302D01*
X3370500Y19732780D01*
X3385330Y19710585D01*
X3560000Y19593874D01*
X3560000Y18506126D01*
X3385330Y18389415D01*
X3370500Y18367220D01*
X3306927Y18520698D01*
X3128299Y18699327D01*
X2894910Y18796000D01*
X2190750Y18796000D01*
X2032000Y18637250D01*
X2032000Y17272000D01*
X2052000Y17272000D01*
X2052000Y17018000D01*
X2032000Y17018000D01*
X2032000Y15652750D01*
X2190750Y15494000D01*
X2894910Y15494000D01*
X3128299Y15590673D01*
X3306927Y15769302D01*
X3370500Y15922780D01*
X3385330Y15900585D01*
X3560000Y15783874D01*
X3560000Y14696126D01*
X3385330Y14579415D01*
X3370500Y14557220D01*
X3306927Y14710698D01*
X3128299Y14889327D01*
X2894910Y14986000D01*
X2190750Y14986000D01*
X2032000Y14827250D01*
X2032000Y13462000D01*
X2052000Y13462000D01*
X2052000Y13208000D01*
X2032000Y13208000D01*
X2032000Y11842750D01*
X2190750Y11684000D01*
X2894910Y11684000D01*
X3128299Y11780673D01*
X3306927Y11959302D01*
X3370500Y12112780D01*
X3385330Y12090585D01*
X3560000Y11973874D01*
X3560000Y10886126D01*
X3385330Y10769415D01*
X3370500Y10747220D01*
X3306927Y10900698D01*
X3128299Y11079327D01*
X2894910Y11176000D01*
X2190750Y11176000D01*
X2032000Y11017250D01*
X2032000Y9652000D01*
X2052000Y9652000D01*
X2052000Y9398000D01*
X2032000Y9398000D01*
X2032000Y8032750D01*
X2190750Y7874000D01*
X2894910Y7874000D01*
X3128299Y7970673D01*
X3306927Y8149302D01*
X3370500Y8302780D01*
X3385330Y8280585D01*
X3689489Y8077352D01*
X3761297Y7969883D01*
X3819210Y7883210D01*
X9534208Y2168213D01*
X9534210Y2168210D01*
X9588123Y2132187D01*
X9821326Y1976366D01*
X10160000Y1908999D01*
X10160005Y1909000D01*
X18668995Y1909000D01*
X18669000Y1908999D01*
X18951484Y1965190D01*
X19007675Y1976367D01*
X19090936Y2032000D01*
X20193000Y2032000D01*
X20193000Y2052000D01*
X20447000Y2052000D01*
X20447000Y2032000D01*
X21812250Y2032000D01*
X21971000Y2190750D01*
X21971000Y2894910D01*
X21874327Y3128299D01*
X21695698Y3306927D01*
X21542220Y3370500D01*
X21564415Y3385330D01*
X21681126Y3560000D01*
X22768874Y3560000D01*
X22885585Y3385330D01*
X22907780Y3370500D01*
X22754302Y3306927D01*
X22575673Y3128299D01*
X22479000Y2894910D01*
X22479000Y2190750D01*
X22637750Y2032000D01*
X24003000Y2032000D01*
X24003000Y2052000D01*
X24257000Y2052000D01*
X24257000Y2032000D01*
X24277000Y2032000D01*
X24277000Y1778000D01*
X24257000Y1778000D01*
X24257000Y1758000D01*
X24003000Y1758000D01*
X24003000Y1778000D01*
X22637750Y1778000D01*
X22479000Y1619250D01*
X22479000Y915090D01*
X22574307Y685000D01*
X21875693Y685000D01*
X21971000Y915090D01*
X21971000Y1619250D01*
X21812250Y1778000D01*
X20447000Y1778000D01*
X20447000Y1758000D01*
X20193000Y1758000D01*
X20193000Y1778000D01*
X18827750Y1778000D01*
X18669000Y1619250D01*
X18669000Y915090D01*
X18764307Y685000D01*
X685000Y685000D01*
X685000Y3557381D01*
X1764613Y3557381D01*
X2104155Y2735628D01*
X2732321Y2106364D01*
X3553481Y1765389D01*
X4442619Y1764613D01*
X5264372Y2104155D01*
X5893636Y2732321D01*
X6234611Y3553481D01*
X6235387Y4442619D01*
X5895845Y5264372D01*
X5267679Y5893636D01*
X4446519Y6234611D01*
X3557381Y6235387D01*
X2735628Y5895845D01*
X2106364Y5267679D01*
X1765389Y4446519D01*
X1764613Y3557381D01*
X685000Y3557381D01*
X685000Y7969307D01*
X915090Y7874000D01*
X1619250Y7874000D01*
X1778000Y8032750D01*
X1778000Y9398000D01*
X1758000Y9398000D01*
X1758000Y9652000D01*
X1778000Y9652000D01*
X1778000Y11017250D01*
X1619250Y11176000D01*
X915090Y11176000D01*
X685000Y11080693D01*
X685000Y11779307D01*
X915090Y11684000D01*
X1619250Y11684000D01*
X1778000Y11842750D01*
X1778000Y13208000D01*
X1758000Y13208000D01*
X1758000Y13462000D01*
X1778000Y13462000D01*
X1778000Y14827250D01*
X1619250Y14986000D01*
X915090Y14986000D01*
X685000Y14890693D01*
X685000Y15589307D01*
X915090Y15494000D01*
X1619250Y15494000D01*
X1778000Y15652750D01*
X1778000Y17018000D01*
X1758000Y17018000D01*
X1758000Y17272000D01*
X1778000Y17272000D01*
X1778000Y18637250D01*
X1619250Y18796000D01*
X915090Y18796000D01*
X685000Y18700693D01*
X685000Y19399307D01*
X915090Y19304000D01*
X1619250Y19304000D01*
X1778000Y19462750D01*
X1778000Y20828000D01*
X1758000Y20828000D01*
X1758000Y21082000D01*
X1778000Y21082000D01*
X1778000Y22447250D01*
X1619250Y22606000D01*
X915090Y22606000D01*
X685000Y22510693D01*
X685000Y23209307D01*
X915090Y23114000D01*
X1619250Y23114000D01*
X1778000Y23272750D01*
X1778000Y24638000D01*
X1758000Y24638000D01*
X1758000Y24892000D01*
X1778000Y24892000D01*
X1778000Y26257250D01*
X1619250Y26416000D01*
X915090Y26416000D01*
X685000Y26320693D01*
X685000Y27019307D01*
X915090Y26924000D01*
X1619250Y26924000D01*
X1778000Y27082750D01*
X1778000Y28448000D01*
X1758000Y28448000D01*
X1758000Y28702000D01*
X1778000Y28702000D01*
X1778000Y30067250D01*
X1619250Y30226000D01*
X915090Y30226000D01*
X685000Y30130693D01*
X685000Y30829307D01*
X915090Y30734000D01*
X1619250Y30734000D01*
X1778000Y30892750D01*
X1778000Y32258000D01*
X1758000Y32258000D01*
X1758000Y32512000D01*
X1778000Y32512000D01*
X1778000Y33877250D01*
X1619250Y34036000D01*
X915090Y34036000D01*
X685000Y33940693D01*
X685000Y34639307D01*
X915090Y34544000D01*
X1619250Y34544000D01*
X1778000Y34702750D01*
X1778000Y36068000D01*
X1758000Y36068000D01*
X1758000Y36322000D01*
X1778000Y36322000D01*
X1778000Y37687250D01*
X1619250Y37846000D01*
X915090Y37846000D01*
X685000Y37750693D01*
X685000Y38449307D01*
X915090Y38354000D01*
X1619250Y38354000D01*
X1778000Y38512750D01*
X1778000Y39878000D01*
X1758000Y39878000D01*
X1758000Y40132000D01*
X1778000Y40132000D01*
X1778000Y41497250D01*
X1619250Y41656000D01*
X915090Y41656000D01*
X685000Y41560693D01*
X685000Y45557381D01*
X1764613Y45557381D01*
X2104155Y44735628D01*
X2732321Y44106364D01*
X3553481Y43765389D01*
X4442619Y43764613D01*
X5264372Y44104155D01*
X5893636Y44732321D01*
X6234611Y45553481D01*
X6235387Y46442619D01*
X5895845Y47264372D01*
X5267679Y47893636D01*
X4446519Y48234611D01*
X3557381Y48235387D01*
X2735628Y47895845D01*
X2106364Y47267679D01*
X1765389Y46446519D01*
X1764613Y45557381D01*
X685000Y45557381D01*
X685000Y49315000D01*
X49315000Y49315000D01*
X49315000Y41629039D01*
X49315000Y41629039D01*
G37*
X49315000Y41629039D02*
X49249910Y41656000D01*
X48545750Y41656000D01*
X48387000Y41497250D01*
X48387000Y40132000D01*
X48407000Y40132000D01*
X48407000Y39878000D01*
X48387000Y39878000D01*
X48387000Y38512750D01*
X48545750Y38354000D01*
X49249910Y38354000D01*
X49315000Y38380961D01*
X49315000Y37819039D01*
X49249910Y37846000D01*
X48545750Y37846000D01*
X48387000Y37687250D01*
X48387000Y36322000D01*
X48407000Y36322000D01*
X48407000Y36068000D01*
X48387000Y36068000D01*
X48387000Y34702750D01*
X48545750Y34544000D01*
X49249910Y34544000D01*
X49315000Y34570961D01*
X49315000Y34009039D01*
X49249910Y34036000D01*
X48545750Y34036000D01*
X48387000Y33877250D01*
X48387000Y32512000D01*
X48407000Y32512000D01*
X48407000Y32258000D01*
X48387000Y32258000D01*
X48387000Y30892750D01*
X48545750Y30734000D01*
X49249910Y30734000D01*
X49315000Y30760961D01*
X49315000Y30199039D01*
X49249910Y30226000D01*
X48545750Y30226000D01*
X48387000Y30067250D01*
X48387000Y28702000D01*
X48407000Y28702000D01*
X48407000Y28448000D01*
X48387000Y28448000D01*
X48387000Y27082750D01*
X48545750Y26924000D01*
X49249910Y26924000D01*
X49315000Y26950961D01*
X49315000Y26389039D01*
X49249910Y26416000D01*
X48545750Y26416000D01*
X48387000Y26257250D01*
X48387000Y24892000D01*
X48407000Y24892000D01*
X48407000Y24638000D01*
X48387000Y24638000D01*
X48387000Y23272750D01*
X48545750Y23114000D01*
X49249910Y23114000D01*
X49315000Y23140961D01*
X49315000Y22579039D01*
X49249910Y22606000D01*
X48545750Y22606000D01*
X48387000Y22447250D01*
X48387000Y21082000D01*
X48407000Y21082000D01*
X48407000Y20828000D01*
X48387000Y20828000D01*
X48387000Y19462750D01*
X48545750Y19304000D01*
X49249910Y19304000D01*
X49315000Y19330961D01*
X49315000Y18769039D01*
X49249910Y18796000D01*
X48545750Y18796000D01*
X48387000Y18637250D01*
X48387000Y17272000D01*
X48407000Y17272000D01*
X48407000Y17018000D01*
X48387000Y17018000D01*
X48387000Y15652750D01*
X48545750Y15494000D01*
X49249910Y15494000D01*
X49315000Y15520961D01*
X49315000Y14959039D01*
X49249910Y14986000D01*
X48545750Y14986000D01*
X48387000Y14827250D01*
X48387000Y13462000D01*
X48407000Y13462000D01*
X48407000Y13208000D01*
X48387000Y13208000D01*
X48387000Y11842750D01*
X48545750Y11684000D01*
X49249910Y11684000D01*
X49315000Y11710961D01*
X49315000Y11149039D01*
X49249910Y11176000D01*
X48545750Y11176000D01*
X48387000Y11017250D01*
X48387000Y9652000D01*
X48407000Y9652000D01*
X48407000Y9398000D01*
X48387000Y9398000D01*
X48387000Y8032750D01*
X48545750Y7874000D01*
X49249910Y7874000D01*
X49315000Y7900961D01*
X49315000Y685000D01*
X42035454Y685000D01*
X42194365Y1002030D01*
X40860000Y2336395D01*
X39525635Y1002030D01*
X39684546Y685000D01*
X28895454Y685000D01*
X29054365Y1002030D01*
X27720000Y2336395D01*
X26385635Y1002030D01*
X26544546Y685000D01*
X25685693Y685000D01*
X25781000Y915090D01*
X25781000Y1597955D01*
X25887261Y1341418D01*
X26206030Y1181635D01*
X27540395Y2516000D01*
X27526253Y2530142D01*
X27705858Y2709747D01*
X27720000Y2695605D01*
X27734143Y2709747D01*
X27913748Y2530142D01*
X27899605Y2516000D01*
X29233970Y1181635D01*
X29552739Y1341418D01*
X29862723Y2132187D01*
X29848056Y2899813D01*
X38717277Y2899813D01*
X38733503Y2050613D01*
X39027261Y1341418D01*
X39346030Y1181635D01*
X40680395Y2516000D01*
X41039605Y2516000D01*
X42373970Y1181635D01*
X42692739Y1341418D01*
X43002723Y2132187D01*
X42986497Y2981387D01*
X42747913Y3557381D01*
X43764613Y3557381D01*
X44104155Y2735628D01*
X44732321Y2106364D01*
X45553481Y1765389D01*
X46442619Y1764613D01*
X47264372Y2104155D01*
X47893636Y2732321D01*
X48234611Y3553481D01*
X48235387Y4442619D01*
X47895845Y5264372D01*
X47267679Y5893636D01*
X46446519Y6234611D01*
X45557381Y6235387D01*
X44735628Y5895845D01*
X44106364Y5267679D01*
X43765389Y4446519D01*
X43764613Y3557381D01*
X42747913Y3557381D01*
X42692739Y3690582D01*
X42373970Y3850365D01*
X41039605Y2516000D01*
X40680395Y2516000D01*
X39346030Y3850365D01*
X39027261Y3690582D01*
X38717277Y2899813D01*
X29848056Y2899813D01*
X29846497Y2981387D01*
X29732708Y3256097D01*
X30030167Y3255838D01*
X30373943Y3397883D01*
X30637192Y3660673D01*
X30779838Y4004201D01*
X30779860Y4029970D01*
X39525635Y4029970D01*
X40860000Y2695605D01*
X42194365Y4029970D01*
X42034582Y4348739D01*
X41243813Y4658723D01*
X40394613Y4642497D01*
X39685418Y4348739D01*
X39525635Y4029970D01*
X30779860Y4029970D01*
X30780162Y4376167D01*
X30638117Y4719943D01*
X30375327Y4983192D01*
X30187440Y5061210D01*
X30187440Y6143000D01*
X30143162Y6378317D01*
X30004090Y6594441D01*
X29835755Y6709459D01*
X30119943Y6826883D01*
X30383192Y7089673D01*
X30387065Y7099000D01*
X34544000Y7099000D01*
X34840580Y7157993D01*
X35092008Y7325992D01*
X35754016Y7988000D01*
X36917511Y7988000D01*
X36934673Y7970808D01*
X37278201Y7828162D01*
X37650167Y7827838D01*
X37993943Y7969883D01*
X38257192Y8232673D01*
X38399838Y8576201D01*
X38400002Y8765000D01*
X41796654Y8765000D01*
X42120330Y8280585D01*
X42606511Y7955729D01*
X43180000Y7841655D01*
X43753489Y7955729D01*
X44239670Y8280585D01*
X44450000Y8595366D01*
X44660330Y8280585D01*
X45146511Y7955729D01*
X45720000Y7841655D01*
X46293489Y7955729D01*
X46779670Y8280585D01*
X46794500Y8302780D01*
X46858073Y8149302D01*
X47036701Y7970673D01*
X47270090Y7874000D01*
X47974250Y7874000D01*
X48133000Y8032750D01*
X48133000Y9398000D01*
X48113000Y9398000D01*
X48113000Y9652000D01*
X48133000Y9652000D01*
X48133000Y11017250D01*
X47974250Y11176000D01*
X47270090Y11176000D01*
X47036701Y11079327D01*
X46858073Y10900698D01*
X46794500Y10747220D01*
X46779670Y10769415D01*
X46605000Y10886126D01*
X46605000Y11973874D01*
X46779670Y12090585D01*
X46794500Y12112780D01*
X46858073Y11959302D01*
X47036701Y11780673D01*
X47270090Y11684000D01*
X47974250Y11684000D01*
X48133000Y11842750D01*
X48133000Y13208000D01*
X48113000Y13208000D01*
X48113000Y13462000D01*
X48133000Y13462000D01*
X48133000Y14827250D01*
X47974250Y14986000D01*
X47270090Y14986000D01*
X47036701Y14889327D01*
X46858073Y14710698D01*
X46794500Y14557220D01*
X46779670Y14579415D01*
X46605000Y14696126D01*
X46605000Y15783874D01*
X46779670Y15900585D01*
X46794500Y15922780D01*
X46858073Y15769302D01*
X47036701Y15590673D01*
X47270090Y15494000D01*
X47974250Y15494000D01*
X48133000Y15652750D01*
X48133000Y17018000D01*
X48113000Y17018000D01*
X48113000Y17272000D01*
X48133000Y17272000D01*
X48133000Y18637250D01*
X47974250Y18796000D01*
X47270090Y18796000D01*
X47036701Y18699327D01*
X46858073Y18520698D01*
X46794500Y18367220D01*
X46779670Y18389415D01*
X46605000Y18506126D01*
X46605000Y19593874D01*
X46779670Y19710585D01*
X46794500Y19732780D01*
X46858073Y19579302D01*
X47036701Y19400673D01*
X47270090Y19304000D01*
X47974250Y19304000D01*
X48133000Y19462750D01*
X48133000Y20828000D01*
X48113000Y20828000D01*
X48113000Y21082000D01*
X48133000Y21082000D01*
X48133000Y22447250D01*
X47974250Y22606000D01*
X47270090Y22606000D01*
X47036701Y22509327D01*
X46858073Y22330698D01*
X46794500Y22177220D01*
X46779670Y22199415D01*
X46605000Y22316126D01*
X46605000Y23403874D01*
X46779670Y23520585D01*
X46794500Y23542780D01*
X46858073Y23389302D01*
X47036701Y23210673D01*
X47270090Y23114000D01*
X47974250Y23114000D01*
X48133000Y23272750D01*
X48133000Y24638000D01*
X48113000Y24638000D01*
X48113000Y24892000D01*
X48133000Y24892000D01*
X48133000Y26257250D01*
X47974250Y26416000D01*
X47270090Y26416000D01*
X47036701Y26319327D01*
X46858073Y26140698D01*
X46794500Y25987220D01*
X46779670Y26009415D01*
X46605000Y26126126D01*
X46605000Y27213874D01*
X46779670Y27330585D01*
X46794500Y27352780D01*
X46858073Y27199302D01*
X47036701Y27020673D01*
X47270090Y26924000D01*
X47974250Y26924000D01*
X48133000Y27082750D01*
X48133000Y28448000D01*
X48113000Y28448000D01*
X48113000Y28702000D01*
X48133000Y28702000D01*
X48133000Y30067250D01*
X47974250Y30226000D01*
X47270090Y30226000D01*
X47036701Y30129327D01*
X46858073Y29950698D01*
X46794500Y29797220D01*
X46779670Y29819415D01*
X46605000Y29936126D01*
X46605000Y31023874D01*
X46779670Y31140585D01*
X46794500Y31162780D01*
X46858073Y31009302D01*
X47036701Y30830673D01*
X47270090Y30734000D01*
X47974250Y30734000D01*
X48133000Y30892750D01*
X48133000Y32258000D01*
X48113000Y32258000D01*
X48113000Y32512000D01*
X48133000Y32512000D01*
X48133000Y33877250D01*
X47974250Y34036000D01*
X47270090Y34036000D01*
X47036701Y33939327D01*
X46858073Y33760698D01*
X46794500Y33607220D01*
X46779670Y33629415D01*
X46605000Y33746126D01*
X46605000Y34833874D01*
X46779670Y34950585D01*
X46794500Y34972780D01*
X46858073Y34819302D01*
X47036701Y34640673D01*
X47270090Y34544000D01*
X47974250Y34544000D01*
X48133000Y34702750D01*
X48133000Y36068000D01*
X48113000Y36068000D01*
X48113000Y36322000D01*
X48133000Y36322000D01*
X48133000Y37687250D01*
X47974250Y37846000D01*
X47270090Y37846000D01*
X47036701Y37749327D01*
X46858073Y37570698D01*
X46794500Y37417220D01*
X46779670Y37439415D01*
X46605000Y37556126D01*
X46605000Y38643874D01*
X46779670Y38760585D01*
X46794500Y38782780D01*
X46858073Y38629302D01*
X47036701Y38450673D01*
X47270090Y38354000D01*
X47974250Y38354000D01*
X48133000Y38512750D01*
X48133000Y39878000D01*
X48113000Y39878000D01*
X48113000Y40132000D01*
X48133000Y40132000D01*
X48133000Y41497250D01*
X47974250Y41656000D01*
X47270090Y41656000D01*
X47036701Y41559327D01*
X46858073Y41380698D01*
X46794500Y41227220D01*
X46779670Y41249415D01*
X46475511Y41452648D01*
X46445709Y41497250D01*
X46345790Y41646790D01*
X46345787Y41646792D01*
X45710790Y42281790D01*
X45633280Y42333580D01*
X45423675Y42473633D01*
X45367484Y42484810D01*
X45085000Y42541001D01*
X45084995Y42541000D01*
X40498579Y42541000D01*
X38564995Y44474584D01*
X38725687Y44506548D01*
X39256120Y44860971D01*
X39370000Y45031405D01*
X39483880Y44860971D01*
X40014313Y44506548D01*
X40640000Y44382091D01*
X41265687Y44506548D01*
X41796120Y44860971D01*
X42150543Y45391404D01*
X42183557Y45557381D01*
X43764613Y45557381D01*
X44104155Y44735628D01*
X44732321Y44106364D01*
X45553481Y43765389D01*
X46442619Y43764613D01*
X47264372Y44104155D01*
X47893636Y44732321D01*
X48234611Y45553481D01*
X48235387Y46442619D01*
X47895845Y47264372D01*
X47267679Y47893636D01*
X46446519Y48234611D01*
X45557381Y48235387D01*
X44735628Y47895845D01*
X44106364Y47267679D01*
X43765389Y46446519D01*
X43764613Y45557381D01*
X42183557Y45557381D01*
X42275000Y46017091D01*
X42275000Y46692909D01*
X42150543Y47318596D01*
X41796120Y47849029D01*
X41265687Y48203452D01*
X40640000Y48327909D01*
X40014313Y48203452D01*
X39483880Y47849029D01*
X39370000Y47678595D01*
X39256120Y47849029D01*
X38725687Y48203452D01*
X38100000Y48327909D01*
X37474313Y48203452D01*
X36943880Y47849029D01*
X36830000Y47678595D01*
X36716120Y47849029D01*
X36381184Y48072825D01*
X36377634Y48090674D01*
X36302278Y48203452D01*
X36185790Y48377790D01*
X36185787Y48377792D01*
X35550790Y49012790D01*
X35263675Y49204633D01*
X35207484Y49215810D01*
X34925000Y49272001D01*
X34924995Y49272000D01*
X27940005Y49272000D01*
X27940000Y49272001D01*
X27601326Y49204634D01*
X27601324Y49204633D01*
X27601325Y49204633D01*
X27314210Y49012790D01*
X27314208Y49012787D01*
X25612060Y47310640D01*
X25241163Y47384416D01*
X23612790Y49012790D01*
X23325675Y49204633D01*
X23269484Y49215810D01*
X22987000Y49272001D01*
X22986995Y49272000D01*
X12700005Y49272000D01*
X12700000Y49272001D01*
X12361326Y49204634D01*
X12361324Y49204633D01*
X12361325Y49204633D01*
X12074210Y49012790D01*
X12074208Y49012787D01*
X11439210Y48377790D01*
X11247367Y48090675D01*
X11247367Y48090674D01*
X11243817Y48072826D01*
X11080808Y47963907D01*
X10989090Y48106441D01*
X10776890Y48251431D01*
X10525000Y48302440D01*
X8525000Y48302440D01*
X8289683Y48258162D01*
X8073559Y48119090D01*
X7928569Y47906890D01*
X7877560Y47655000D01*
X7877560Y45055000D01*
X7921838Y44819683D01*
X8060910Y44603559D01*
X8273110Y44458569D01*
X8525000Y44407560D01*
X9754981Y44407560D01*
X7888420Y42541000D01*
X5080005Y42541000D01*
X5080000Y42541001D01*
X4741326Y42473634D01*
X4659722Y42419108D01*
X4454210Y42281790D01*
X4454208Y42281787D01*
X3819210Y41646790D01*
X3689489Y41452648D01*
X3385330Y41249415D01*
X3370500Y41227220D01*
X3306927Y41380698D01*
X3128299Y41559327D01*
X2894910Y41656000D01*
X2190750Y41656000D01*
X2032000Y41497250D01*
X2032000Y40132000D01*
X2052000Y40132000D01*
X2052000Y39878000D01*
X2032000Y39878000D01*
X2032000Y38512750D01*
X2190750Y38354000D01*
X2894910Y38354000D01*
X3128299Y38450673D01*
X3306927Y38629302D01*
X3370500Y38782780D01*
X3385330Y38760585D01*
X3560000Y38643874D01*
X3560000Y37556126D01*
X3385330Y37439415D01*
X3370500Y37417220D01*
X3306927Y37570698D01*
X3128299Y37749327D01*
X2894910Y37846000D01*
X2190750Y37846000D01*
X2032000Y37687250D01*
X2032000Y36322000D01*
X2052000Y36322000D01*
X2052000Y36068000D01*
X2032000Y36068000D01*
X2032000Y34702750D01*
X2190750Y34544000D01*
X2894910Y34544000D01*
X3128299Y34640673D01*
X3306927Y34819302D01*
X3370500Y34972780D01*
X3385330Y34950585D01*
X3560000Y34833874D01*
X3560000Y33746126D01*
X3385330Y33629415D01*
X3370500Y33607220D01*
X3306927Y33760698D01*
X3128299Y33939327D01*
X2894910Y34036000D01*
X2190750Y34036000D01*
X2032000Y33877250D01*
X2032000Y32512000D01*
X2052000Y32512000D01*
X2052000Y32258000D01*
X2032000Y32258000D01*
X2032000Y30892750D01*
X2190750Y30734000D01*
X2894910Y30734000D01*
X3128299Y30830673D01*
X3306927Y31009302D01*
X3370500Y31162780D01*
X3385330Y31140585D01*
X3560000Y31023874D01*
X3560000Y29936126D01*
X3385330Y29819415D01*
X3370500Y29797220D01*
X3306927Y29950698D01*
X3128299Y30129327D01*
X2894910Y30226000D01*
X2190750Y30226000D01*
X2032000Y30067250D01*
X2032000Y28702000D01*
X2052000Y28702000D01*
X2052000Y28448000D01*
X2032000Y28448000D01*
X2032000Y27082750D01*
X2190750Y26924000D01*
X2894910Y26924000D01*
X3128299Y27020673D01*
X3306927Y27199302D01*
X3370500Y27352780D01*
X3385330Y27330585D01*
X3560000Y27213874D01*
X3560000Y26126126D01*
X3385330Y26009415D01*
X3370500Y25987220D01*
X3306927Y26140698D01*
X3128299Y26319327D01*
X2894910Y26416000D01*
X2190750Y26416000D01*
X2032000Y26257250D01*
X2032000Y24892000D01*
X2052000Y24892000D01*
X2052000Y24638000D01*
X2032000Y24638000D01*
X2032000Y23272750D01*
X2190750Y23114000D01*
X2894910Y23114000D01*
X3128299Y23210673D01*
X3306927Y23389302D01*
X3370500Y23542780D01*
X3385330Y23520585D01*
X3560000Y23403874D01*
X3560000Y22316126D01*
X3385330Y22199415D01*
X3370500Y22177220D01*
X3306927Y22330698D01*
X3128299Y22509327D01*
X2894910Y22606000D01*
X2190750Y22606000D01*
X2032000Y22447250D01*
X2032000Y21082000D01*
X2052000Y21082000D01*
X2052000Y20828000D01*
X2032000Y20828000D01*
X2032000Y19462750D01*
X2190750Y19304000D01*
X2894910Y19304000D01*
X3128299Y19400673D01*
X3306927Y19579302D01*
X3370500Y19732780D01*
X3385330Y19710585D01*
X3560000Y19593874D01*
X3560000Y18506126D01*
X3385330Y18389415D01*
X3370500Y18367220D01*
X3306927Y18520698D01*
X3128299Y18699327D01*
X2894910Y18796000D01*
X2190750Y18796000D01*
X2032000Y18637250D01*
X2032000Y17272000D01*
X2052000Y17272000D01*
X2052000Y17018000D01*
X2032000Y17018000D01*
X2032000Y15652750D01*
X2190750Y15494000D01*
X2894910Y15494000D01*
X3128299Y15590673D01*
X3306927Y15769302D01*
X3370500Y15922780D01*
X3385330Y15900585D01*
X3560000Y15783874D01*
X3560000Y14696126D01*
X3385330Y14579415D01*
X3370500Y14557220D01*
X3306927Y14710698D01*
X3128299Y14889327D01*
X2894910Y14986000D01*
X2190750Y14986000D01*
X2032000Y14827250D01*
X2032000Y13462000D01*
X2052000Y13462000D01*
X2052000Y13208000D01*
X2032000Y13208000D01*
X2032000Y11842750D01*
X2190750Y11684000D01*
X2894910Y11684000D01*
X3128299Y11780673D01*
X3306927Y11959302D01*
X3370500Y12112780D01*
X3385330Y12090585D01*
X3560000Y11973874D01*
X3560000Y10886126D01*
X3385330Y10769415D01*
X3370500Y10747220D01*
X3306927Y10900698D01*
X3128299Y11079327D01*
X2894910Y11176000D01*
X2190750Y11176000D01*
X2032000Y11017250D01*
X2032000Y9652000D01*
X2052000Y9652000D01*
X2052000Y9398000D01*
X2032000Y9398000D01*
X2032000Y8032750D01*
X2190750Y7874000D01*
X2894910Y7874000D01*
X3128299Y7970673D01*
X3306927Y8149302D01*
X3370500Y8302780D01*
X3385330Y8280585D01*
X3689489Y8077352D01*
X3761297Y7969883D01*
X3819210Y7883210D01*
X9534208Y2168213D01*
X9534210Y2168210D01*
X9588123Y2132187D01*
X9821326Y1976366D01*
X10160000Y1908999D01*
X10160005Y1909000D01*
X18668995Y1909000D01*
X18669000Y1908999D01*
X18951484Y1965190D01*
X19007675Y1976367D01*
X19090936Y2032000D01*
X20193000Y2032000D01*
X20193000Y2052000D01*
X20447000Y2052000D01*
X20447000Y2032000D01*
X21812250Y2032000D01*
X21971000Y2190750D01*
X21971000Y2894910D01*
X21874327Y3128299D01*
X21695698Y3306927D01*
X21542220Y3370500D01*
X21564415Y3385330D01*
X21681126Y3560000D01*
X22768874Y3560000D01*
X22885585Y3385330D01*
X22907780Y3370500D01*
X22754302Y3306927D01*
X22575673Y3128299D01*
X22479000Y2894910D01*
X22479000Y2190750D01*
X22637750Y2032000D01*
X24003000Y2032000D01*
X24003000Y2052000D01*
X24257000Y2052000D01*
X24257000Y2032000D01*
X24277000Y2032000D01*
X24277000Y1778000D01*
X24257000Y1778000D01*
X24257000Y1758000D01*
X24003000Y1758000D01*
X24003000Y1778000D01*
X22637750Y1778000D01*
X22479000Y1619250D01*
X22479000Y915090D01*
X22574307Y685000D01*
X21875693Y685000D01*
X21971000Y915090D01*
X21971000Y1619250D01*
X21812250Y1778000D01*
X20447000Y1778000D01*
X20447000Y1758000D01*
X20193000Y1758000D01*
X20193000Y1778000D01*
X18827750Y1778000D01*
X18669000Y1619250D01*
X18669000Y915090D01*
X18764307Y685000D01*
X685000Y685000D01*
X685000Y3557381D01*
X1764613Y3557381D01*
X2104155Y2735628D01*
X2732321Y2106364D01*
X3553481Y1765389D01*
X4442619Y1764613D01*
X5264372Y2104155D01*
X5893636Y2732321D01*
X6234611Y3553481D01*
X6235387Y4442619D01*
X5895845Y5264372D01*
X5267679Y5893636D01*
X4446519Y6234611D01*
X3557381Y6235387D01*
X2735628Y5895845D01*
X2106364Y5267679D01*
X1765389Y4446519D01*
X1764613Y3557381D01*
X685000Y3557381D01*
X685000Y7969307D01*
X915090Y7874000D01*
X1619250Y7874000D01*
X1778000Y8032750D01*
X1778000Y9398000D01*
X1758000Y9398000D01*
X1758000Y9652000D01*
X1778000Y9652000D01*
X1778000Y11017250D01*
X1619250Y11176000D01*
X915090Y11176000D01*
X685000Y11080693D01*
X685000Y11779307D01*
X915090Y11684000D01*
X1619250Y11684000D01*
X1778000Y11842750D01*
X1778000Y13208000D01*
X1758000Y13208000D01*
X1758000Y13462000D01*
X1778000Y13462000D01*
X1778000Y14827250D01*
X1619250Y14986000D01*
X915090Y14986000D01*
X685000Y14890693D01*
X685000Y15589307D01*
X915090Y15494000D01*
X1619250Y15494000D01*
X1778000Y15652750D01*
X1778000Y17018000D01*
X1758000Y17018000D01*
X1758000Y17272000D01*
X1778000Y17272000D01*
X1778000Y18637250D01*
X1619250Y18796000D01*
X915090Y18796000D01*
X685000Y18700693D01*
X685000Y19399307D01*
X915090Y19304000D01*
X1619250Y19304000D01*
X1778000Y19462750D01*
X1778000Y20828000D01*
X1758000Y20828000D01*
X1758000Y21082000D01*
X1778000Y21082000D01*
X1778000Y22447250D01*
X1619250Y22606000D01*
X915090Y22606000D01*
X685000Y22510693D01*
X685000Y23209307D01*
X915090Y23114000D01*
X1619250Y23114000D01*
X1778000Y23272750D01*
X1778000Y24638000D01*
X1758000Y24638000D01*
X1758000Y24892000D01*
X1778000Y24892000D01*
X1778000Y26257250D01*
X1619250Y26416000D01*
X915090Y26416000D01*
X685000Y26320693D01*
X685000Y27019307D01*
X915090Y26924000D01*
X1619250Y26924000D01*
X1778000Y27082750D01*
X1778000Y28448000D01*
X1758000Y28448000D01*
X1758000Y28702000D01*
X1778000Y28702000D01*
X1778000Y30067250D01*
X1619250Y30226000D01*
X915090Y30226000D01*
X685000Y30130693D01*
X685000Y30829307D01*
X915090Y30734000D01*
X1619250Y30734000D01*
X1778000Y30892750D01*
X1778000Y32258000D01*
X1758000Y32258000D01*
X1758000Y32512000D01*
X1778000Y32512000D01*
X1778000Y33877250D01*
X1619250Y34036000D01*
X915090Y34036000D01*
X685000Y33940693D01*
X685000Y34639307D01*
X915090Y34544000D01*
X1619250Y34544000D01*
X1778000Y34702750D01*
X1778000Y36068000D01*
X1758000Y36068000D01*
X1758000Y36322000D01*
X1778000Y36322000D01*
X1778000Y37687250D01*
X1619250Y37846000D01*
X915090Y37846000D01*
X685000Y37750693D01*
X685000Y38449307D01*
X915090Y38354000D01*
X1619250Y38354000D01*
X1778000Y38512750D01*
X1778000Y39878000D01*
X1758000Y39878000D01*
X1758000Y40132000D01*
X1778000Y40132000D01*
X1778000Y41497250D01*
X1619250Y41656000D01*
X915090Y41656000D01*
X685000Y41560693D01*
X685000Y45557381D01*
X1764613Y45557381D01*
X2104155Y44735628D01*
X2732321Y44106364D01*
X3553481Y43765389D01*
X4442619Y43764613D01*
X5264372Y44104155D01*
X5893636Y44732321D01*
X6234611Y45553481D01*
X6235387Y46442619D01*
X5895845Y47264372D01*
X5267679Y47893636D01*
X4446519Y48234611D01*
X3557381Y48235387D01*
X2735628Y47895845D01*
X2106364Y47267679D01*
X1765389Y46446519D01*
X1764613Y45557381D01*
X685000Y45557381D01*
X685000Y49315000D01*
X49315000Y49315000D01*
X49315000Y41629039D01*
G36*
X11178000Y11557000D02*
X11178000Y11203440D01*
X9965000Y11203440D01*
X9729683Y11159162D01*
X9513559Y11020090D01*
X9368569Y10807890D01*
X9317560Y10556000D01*
X9317560Y10494156D01*
X9241599Y10443401D01*
X8733599Y9935401D01*
X8568852Y9688839D01*
X8511000Y9398000D01*
X8511000Y7420463D01*
X8478808Y7388327D01*
X8336162Y7044799D01*
X8335838Y6672833D01*
X8477883Y6329057D01*
X8740673Y6065808D01*
X9084201Y5923162D01*
X9202560Y5923059D01*
X9202560Y5385000D01*
X9246838Y5149683D01*
X9385910Y4933559D01*
X9598110Y4788569D01*
X9850000Y4737560D01*
X11350000Y4737560D01*
X11585317Y4781838D01*
X11686000Y4846626D01*
X11686000Y3810000D01*
X11712058Y3679000D01*
X10526579Y3679000D01*
X5673029Y8532551D01*
X5715000Y8595366D01*
X5925330Y8280585D01*
X6411511Y7955729D01*
X6985000Y7841655D01*
X7558489Y7955729D01*
X8044670Y8280585D01*
X8369526Y8766766D01*
X8483600Y9340255D01*
X8483600Y9709745D01*
X8369526Y10283234D01*
X8292228Y10398918D01*
X8412192Y10518673D01*
X8462566Y10639986D01*
X9383579Y11561000D01*
X10361178Y11561000D01*
X10481201Y11511162D01*
X10853167Y11510838D01*
X11196943Y11652883D01*
X11197105Y11653044D01*
X11178000Y11557000D01*
X11178000Y11557000D01*
G37*
X11178000Y11557000D02*
X11178000Y11203440D01*
X9965000Y11203440D01*
X9729683Y11159162D01*
X9513559Y11020090D01*
X9368569Y10807890D01*
X9317560Y10556000D01*
X9317560Y10494156D01*
X9241599Y10443401D01*
X8733599Y9935401D01*
X8568852Y9688839D01*
X8511000Y9398000D01*
X8511000Y7420463D01*
X8478808Y7388327D01*
X8336162Y7044799D01*
X8335838Y6672833D01*
X8477883Y6329057D01*
X8740673Y6065808D01*
X9084201Y5923162D01*
X9202560Y5923059D01*
X9202560Y5385000D01*
X9246838Y5149683D01*
X9385910Y4933559D01*
X9598110Y4788569D01*
X9850000Y4737560D01*
X11350000Y4737560D01*
X11585317Y4781838D01*
X11686000Y4846626D01*
X11686000Y3810000D01*
X11712058Y3679000D01*
X10526579Y3679000D01*
X5673029Y8532551D01*
X5715000Y8595366D01*
X5925330Y8280585D01*
X6411511Y7955729D01*
X6985000Y7841655D01*
X7558489Y7955729D01*
X8044670Y8280585D01*
X8369526Y8766766D01*
X8483600Y9340255D01*
X8483600Y9709745D01*
X8369526Y10283234D01*
X8292228Y10398918D01*
X8412192Y10518673D01*
X8462566Y10639986D01*
X9383579Y11561000D01*
X10361178Y11561000D01*
X10481201Y11511162D01*
X10853167Y11510838D01*
X11196943Y11652883D01*
X11197105Y11653044D01*
X11178000Y11557000D01*
G36*
X13287998Y8621000D02*
X13409850Y8621000D01*
X13402560Y8585000D01*
X13402560Y5385000D01*
X13427928Y5250178D01*
X13347000Y5169250D01*
X13347000Y4445000D01*
X13367000Y4445000D01*
X13367000Y4316000D01*
X13206000Y4316000D01*
X13206000Y6223000D01*
X13148148Y6513839D01*
X12983401Y6760401D01*
X12698000Y7045802D01*
X12698000Y8621000D01*
X13129250Y8621000D01*
X13287998Y8779748D01*
X13287998Y8621000D01*
X13287998Y8621000D01*
G37*
X13287998Y8621000D02*
X13409850Y8621000D01*
X13402560Y8585000D01*
X13402560Y5385000D01*
X13427928Y5250178D01*
X13347000Y5169250D01*
X13347000Y4445000D01*
X13367000Y4445000D01*
X13367000Y4316000D01*
X13206000Y4316000D01*
X13206000Y6223000D01*
X13148148Y6513839D01*
X12983401Y6760401D01*
X12698000Y7045802D01*
X12698000Y8621000D01*
X13129250Y8621000D01*
X13287998Y8779748D01*
X13287998Y8621000D01*
G36*
X32609599Y11019599D02*
X32817950Y10880384D01*
X32861883Y10774057D01*
X33124673Y10510808D01*
X33468201Y10368162D01*
X33840167Y10367838D01*
X34183943Y10509883D01*
X34413829Y10739369D01*
X34624878Y10528320D01*
X34624838Y10482833D01*
X34766883Y10139057D01*
X34869479Y10036281D01*
X33975198Y9142000D01*
X31034110Y9142000D01*
X31034162Y9202167D01*
X30892117Y9545943D01*
X30629327Y9809192D01*
X30285799Y9951838D01*
X30260156Y9951860D01*
X30187440Y10024576D01*
X30187440Y10343000D01*
X30172951Y10420000D01*
X30359309Y10420000D01*
X30592698Y10516673D01*
X30771327Y10695301D01*
X30868000Y10928690D01*
X30868000Y11144250D01*
X30709250Y11303000D01*
X29960000Y11303000D01*
X29960000Y11283000D01*
X29706000Y11283000D01*
X29706000Y11303000D01*
X29686000Y11303000D01*
X29686000Y11432000D01*
X30099000Y11432000D01*
X30389839Y11489852D01*
X30490333Y11557000D01*
X30709250Y11557000D01*
X30868000Y11715750D01*
X30868000Y11813000D01*
X31816198Y11813000D01*
X32609599Y11019599D01*
X32609599Y11019599D01*
G37*
X32609599Y11019599D02*
X32817950Y10880384D01*
X32861883Y10774057D01*
X33124673Y10510808D01*
X33468201Y10368162D01*
X33840167Y10367838D01*
X34183943Y10509883D01*
X34413829Y10739369D01*
X34624878Y10528320D01*
X34624838Y10482833D01*
X34766883Y10139057D01*
X34869479Y10036281D01*
X33975198Y9142000D01*
X31034110Y9142000D01*
X31034162Y9202167D01*
X30892117Y9545943D01*
X30629327Y9809192D01*
X30285799Y9951838D01*
X30260156Y9951860D01*
X30187440Y10024576D01*
X30187440Y10343000D01*
X30172951Y10420000D01*
X30359309Y10420000D01*
X30592698Y10516673D01*
X30771327Y10695301D01*
X30868000Y10928690D01*
X30868000Y11144250D01*
X30709250Y11303000D01*
X29960000Y11303000D01*
X29960000Y11283000D01*
X29706000Y11283000D01*
X29706000Y11303000D01*
X29686000Y11303000D01*
X29686000Y11432000D01*
X30099000Y11432000D01*
X30389839Y11489852D01*
X30490333Y11557000D01*
X30709250Y11557000D01*
X30868000Y11715750D01*
X30868000Y11813000D01*
X31816198Y11813000D01*
X32609599Y11019599D01*
G36*
X15471673Y13939808D02*
X15815201Y13797162D01*
X16070411Y13796940D01*
X15956162Y13521799D01*
X15955838Y13149833D01*
X16097883Y12806057D01*
X16360673Y12542808D01*
X16398707Y12527015D01*
X16337162Y12378799D01*
X16337113Y12322639D01*
X16116683Y12281162D01*
X16013354Y12214671D01*
X16011698Y12216327D01*
X15778309Y12313000D01*
X15537750Y12313000D01*
X15379000Y12154250D01*
X15379000Y11430000D01*
X15399000Y11430000D01*
X15399000Y11176000D01*
X15379000Y11176000D01*
X15379000Y9779000D01*
X15399000Y9779000D01*
X15399000Y9525000D01*
X15379000Y9525000D01*
X15379000Y9505000D01*
X15125000Y9505000D01*
X15125000Y9525000D01*
X15105000Y9525000D01*
X15105000Y9779000D01*
X15125000Y9779000D01*
X15125000Y11176000D01*
X14375750Y11176000D01*
X14361624Y11161874D01*
X14291309Y11191000D01*
X13700750Y11191000D01*
X13542000Y11032250D01*
X13542000Y10033000D01*
X13562000Y10033000D01*
X13562000Y9779000D01*
X13542000Y9779000D01*
X13542000Y9759000D01*
X13288000Y9759000D01*
X13288000Y9779000D01*
X13268000Y9779000D01*
X13268000Y10033000D01*
X13288000Y10033000D01*
X13288000Y11032250D01*
X13129250Y11191000D01*
X12698000Y11191000D01*
X12698000Y11242198D01*
X13260112Y11804310D01*
X14217000Y11804310D01*
X14217000Y11588750D01*
X14375750Y11430000D01*
X15125000Y11430000D01*
X15125000Y12154250D01*
X14966250Y12313000D01*
X14725691Y12313000D01*
X14492302Y12216327D01*
X14313673Y12037699D01*
X14217000Y11804310D01*
X13260112Y11804310D01*
X15433675Y13977873D01*
X15471673Y13939808D01*
X15471673Y13939808D01*
G37*
X15471673Y13939808D02*
X15815201Y13797162D01*
X16070411Y13796940D01*
X15956162Y13521799D01*
X15955838Y13149833D01*
X16097883Y12806057D01*
X16360673Y12542808D01*
X16398707Y12527015D01*
X16337162Y12378799D01*
X16337113Y12322639D01*
X16116683Y12281162D01*
X16013354Y12214671D01*
X16011698Y12216327D01*
X15778309Y12313000D01*
X15537750Y12313000D01*
X15379000Y12154250D01*
X15379000Y11430000D01*
X15399000Y11430000D01*
X15399000Y11176000D01*
X15379000Y11176000D01*
X15379000Y9779000D01*
X15399000Y9779000D01*
X15399000Y9525000D01*
X15379000Y9525000D01*
X15379000Y9505000D01*
X15125000Y9505000D01*
X15125000Y9525000D01*
X15105000Y9525000D01*
X15105000Y9779000D01*
X15125000Y9779000D01*
X15125000Y11176000D01*
X14375750Y11176000D01*
X14361624Y11161874D01*
X14291309Y11191000D01*
X13700750Y11191000D01*
X13542000Y11032250D01*
X13542000Y10033000D01*
X13562000Y10033000D01*
X13562000Y9779000D01*
X13542000Y9779000D01*
X13542000Y9759000D01*
X13288000Y9759000D01*
X13288000Y9779000D01*
X13268000Y9779000D01*
X13268000Y10033000D01*
X13288000Y10033000D01*
X13288000Y11032250D01*
X13129250Y11191000D01*
X12698000Y11191000D01*
X12698000Y11242198D01*
X13260112Y11804310D01*
X14217000Y11804310D01*
X14217000Y11588750D01*
X14375750Y11430000D01*
X15125000Y11430000D01*
X15125000Y12154250D01*
X14966250Y12313000D01*
X14725691Y12313000D01*
X14492302Y12216327D01*
X14313673Y12037699D01*
X14217000Y11804310D01*
X13260112Y11804310D01*
X15433675Y13977873D01*
X15471673Y13939808D01*
G36*
X20181000Y9779000D02*
X20201000Y9779000D01*
X20201000Y9525000D01*
X20181000Y9525000D01*
X20181000Y9505000D01*
X19940579Y9505000D01*
X19927000Y9518579D01*
X19927000Y9525000D01*
X19920579Y9525000D01*
X19907000Y9538579D01*
X19907000Y9779000D01*
X19927000Y9779000D01*
X19927000Y9799000D01*
X20181000Y9799000D01*
X20181000Y9779000D01*
X20181000Y9779000D01*
G37*
X20181000Y9779000D02*
X20201000Y9779000D01*
X20201000Y9525000D01*
X20181000Y9525000D01*
X20181000Y9505000D01*
X19940579Y9505000D01*
X19927000Y9518579D01*
X19927000Y9525000D01*
X19920579Y9525000D01*
X19907000Y9538579D01*
X19907000Y9779000D01*
X19927000Y9779000D01*
X19927000Y9799000D01*
X20181000Y9799000D01*
X20181000Y9779000D01*
G36*
X42120330Y18389415D02*
X41795474Y17903234D01*
X41681400Y17329745D01*
X41681400Y16960255D01*
X41795474Y16386766D01*
X42120330Y15900585D01*
X42606511Y15575729D01*
X43180000Y15461655D01*
X43753489Y15575729D01*
X44239670Y15900585D01*
X44450000Y16215366D01*
X44660330Y15900585D01*
X44835000Y15783874D01*
X44835000Y14696126D01*
X44660330Y14579415D01*
X44450000Y14264634D01*
X44239670Y14579415D01*
X43753489Y14904271D01*
X43180000Y15018345D01*
X42606511Y14904271D01*
X42120330Y14579415D01*
X41795474Y14093234D01*
X41681400Y13519745D01*
X41681400Y13150255D01*
X41795474Y12576766D01*
X42120330Y12090585D01*
X42606511Y11765729D01*
X43180000Y11651655D01*
X43753489Y11765729D01*
X44239670Y12090585D01*
X44450000Y12405366D01*
X44660330Y12090585D01*
X44835000Y11973874D01*
X44835000Y10886126D01*
X44660330Y10769415D01*
X44450000Y10454634D01*
X44239670Y10769415D01*
X43753489Y11094271D01*
X43180000Y11208345D01*
X42606511Y11094271D01*
X42120330Y10769415D01*
X41796654Y10285000D01*
X41262040Y10285000D01*
X41262040Y12166600D01*
X41217762Y12401917D01*
X41078690Y12618041D01*
X40866490Y12763031D01*
X40614600Y12814040D01*
X38379400Y12814040D01*
X38144083Y12769762D01*
X37927959Y12630690D01*
X37782969Y12418490D01*
X37731960Y12166600D01*
X37731960Y10332842D01*
X37463000Y10601802D01*
X37463000Y12700000D01*
X37405148Y12990839D01*
X37308970Y13134780D01*
X37369750Y13074000D01*
X37585310Y13074000D01*
X37818699Y13170673D01*
X37973000Y13324975D01*
X38127301Y13170673D01*
X38360690Y13074000D01*
X38576250Y13074000D01*
X38735000Y13232750D01*
X38735000Y13982000D01*
X38989000Y13982000D01*
X38989000Y13232750D01*
X39147750Y13074000D01*
X39363310Y13074000D01*
X39596699Y13170673D01*
X39751000Y13324975D01*
X39905301Y13170673D01*
X40138690Y13074000D01*
X40354250Y13074000D01*
X40513000Y13232750D01*
X40513000Y13982000D01*
X40767000Y13982000D01*
X40767000Y13232750D01*
X40925750Y13074000D01*
X41141310Y13074000D01*
X41374699Y13170673D01*
X41553327Y13349302D01*
X41650000Y13582691D01*
X41650000Y13823250D01*
X41491250Y13982000D01*
X40767000Y13982000D01*
X40513000Y13982000D01*
X39788750Y13982000D01*
X39751000Y13944250D01*
X39713250Y13982000D01*
X38989000Y13982000D01*
X38735000Y13982000D01*
X38010750Y13982000D01*
X37973000Y13944250D01*
X37935250Y13982000D01*
X37211000Y13982000D01*
X37211000Y13962000D01*
X36957000Y13962000D01*
X36957000Y13982000D01*
X36937000Y13982000D01*
X36937000Y14236000D01*
X36957000Y14236000D01*
X36957000Y14256000D01*
X37211000Y14256000D01*
X37211000Y14236000D01*
X37935250Y14236000D01*
X37973000Y14273750D01*
X38010750Y14236000D01*
X38735000Y14236000D01*
X38735000Y14256000D01*
X38989000Y14256000D01*
X38989000Y14236000D01*
X39713250Y14236000D01*
X39751000Y14273750D01*
X39788750Y14236000D01*
X40513000Y14236000D01*
X40513000Y14256000D01*
X40767000Y14256000D01*
X40767000Y14236000D01*
X41491250Y14236000D01*
X41650000Y14394750D01*
X41650000Y14635309D01*
X41553327Y14868698D01*
X41551957Y14870068D01*
X41611431Y14957110D01*
X41662440Y15209000D01*
X41662440Y16009000D01*
X41618162Y16244317D01*
X41479090Y16460441D01*
X41266890Y16605431D01*
X41015000Y16656440D01*
X40701696Y16656440D01*
X40720440Y16749000D01*
X40720440Y17606929D01*
X40825167Y17606838D01*
X41168943Y17748883D01*
X41432192Y18011673D01*
X41574838Y18355201D01*
X41575063Y18614000D01*
X42456445Y18614000D01*
X42120330Y18389415D01*
X42120330Y18389415D01*
G37*
X42120330Y18389415D02*
X41795474Y17903234D01*
X41681400Y17329745D01*
X41681400Y16960255D01*
X41795474Y16386766D01*
X42120330Y15900585D01*
X42606511Y15575729D01*
X43180000Y15461655D01*
X43753489Y15575729D01*
X44239670Y15900585D01*
X44450000Y16215366D01*
X44660330Y15900585D01*
X44835000Y15783874D01*
X44835000Y14696126D01*
X44660330Y14579415D01*
X44450000Y14264634D01*
X44239670Y14579415D01*
X43753489Y14904271D01*
X43180000Y15018345D01*
X42606511Y14904271D01*
X42120330Y14579415D01*
X41795474Y14093234D01*
X41681400Y13519745D01*
X41681400Y13150255D01*
X41795474Y12576766D01*
X42120330Y12090585D01*
X42606511Y11765729D01*
X43180000Y11651655D01*
X43753489Y11765729D01*
X44239670Y12090585D01*
X44450000Y12405366D01*
X44660330Y12090585D01*
X44835000Y11973874D01*
X44835000Y10886126D01*
X44660330Y10769415D01*
X44450000Y10454634D01*
X44239670Y10769415D01*
X43753489Y11094271D01*
X43180000Y11208345D01*
X42606511Y11094271D01*
X42120330Y10769415D01*
X41796654Y10285000D01*
X41262040Y10285000D01*
X41262040Y12166600D01*
X41217762Y12401917D01*
X41078690Y12618041D01*
X40866490Y12763031D01*
X40614600Y12814040D01*
X38379400Y12814040D01*
X38144083Y12769762D01*
X37927959Y12630690D01*
X37782969Y12418490D01*
X37731960Y12166600D01*
X37731960Y10332842D01*
X37463000Y10601802D01*
X37463000Y12700000D01*
X37405148Y12990839D01*
X37308970Y13134780D01*
X37369750Y13074000D01*
X37585310Y13074000D01*
X37818699Y13170673D01*
X37973000Y13324975D01*
X38127301Y13170673D01*
X38360690Y13074000D01*
X38576250Y13074000D01*
X38735000Y13232750D01*
X38735000Y13982000D01*
X38989000Y13982000D01*
X38989000Y13232750D01*
X39147750Y13074000D01*
X39363310Y13074000D01*
X39596699Y13170673D01*
X39751000Y13324975D01*
X39905301Y13170673D01*
X40138690Y13074000D01*
X40354250Y13074000D01*
X40513000Y13232750D01*
X40513000Y13982000D01*
X40767000Y13982000D01*
X40767000Y13232750D01*
X40925750Y13074000D01*
X41141310Y13074000D01*
X41374699Y13170673D01*
X41553327Y13349302D01*
X41650000Y13582691D01*
X41650000Y13823250D01*
X41491250Y13982000D01*
X40767000Y13982000D01*
X40513000Y13982000D01*
X39788750Y13982000D01*
X39751000Y13944250D01*
X39713250Y13982000D01*
X38989000Y13982000D01*
X38735000Y13982000D01*
X38010750Y13982000D01*
X37973000Y13944250D01*
X37935250Y13982000D01*
X37211000Y13982000D01*
X37211000Y13962000D01*
X36957000Y13962000D01*
X36957000Y13982000D01*
X36937000Y13982000D01*
X36937000Y14236000D01*
X36957000Y14236000D01*
X36957000Y14256000D01*
X37211000Y14256000D01*
X37211000Y14236000D01*
X37935250Y14236000D01*
X37973000Y14273750D01*
X38010750Y14236000D01*
X38735000Y14236000D01*
X38735000Y14256000D01*
X38989000Y14256000D01*
X38989000Y14236000D01*
X39713250Y14236000D01*
X39751000Y14273750D01*
X39788750Y14236000D01*
X40513000Y14236000D01*
X40513000Y14256000D01*
X40767000Y14256000D01*
X40767000Y14236000D01*
X41491250Y14236000D01*
X41650000Y14394750D01*
X41650000Y14635309D01*
X41553327Y14868698D01*
X41551957Y14870068D01*
X41611431Y14957110D01*
X41662440Y15209000D01*
X41662440Y16009000D01*
X41618162Y16244317D01*
X41479090Y16460441D01*
X41266890Y16605431D01*
X41015000Y16656440D01*
X40701696Y16656440D01*
X40720440Y16749000D01*
X40720440Y17606929D01*
X40825167Y17606838D01*
X41168943Y17748883D01*
X41432192Y18011673D01*
X41574838Y18355201D01*
X41575063Y18614000D01*
X42456445Y18614000D01*
X42120330Y18389415D01*
G36*
X14863698Y15557500D02*
X11602871Y12296673D01*
X11603162Y12631167D01*
X11600365Y12637935D01*
X11639431Y12695110D01*
X11690440Y12947000D01*
X11690440Y13747000D01*
X11646162Y13982317D01*
X11579671Y14085646D01*
X11581327Y14087302D01*
X11678000Y14320691D01*
X11678000Y14561250D01*
X11519250Y14720000D01*
X10795000Y14720000D01*
X10795000Y14700000D01*
X10541000Y14700000D01*
X10541000Y14720000D01*
X9816750Y14720000D01*
X9658000Y14561250D01*
X9658000Y14320691D01*
X9754673Y14087302D01*
X9756043Y14085932D01*
X9696569Y13998890D01*
X9645560Y13747000D01*
X9645560Y13331000D01*
X9142000Y13331000D01*
X9142000Y14417198D01*
X9757776Y15032974D01*
X9816750Y14974000D01*
X10541000Y14974000D01*
X10541000Y15723250D01*
X10795000Y15723250D01*
X10795000Y14974000D01*
X11519250Y14974000D01*
X11678000Y15132750D01*
X11678000Y15373309D01*
X11581327Y15606698D01*
X11402699Y15785327D01*
X11169310Y15882000D01*
X10953750Y15882000D01*
X10795000Y15723250D01*
X10541000Y15723250D01*
X10494526Y15769724D01*
X12204680Y17479878D01*
X12250167Y17479838D01*
X12593943Y17621883D01*
X12696719Y17724479D01*
X14863698Y15557500D01*
X14863698Y15557500D01*
G37*
X14863698Y15557500D02*
X11602871Y12296673D01*
X11603162Y12631167D01*
X11600365Y12637935D01*
X11639431Y12695110D01*
X11690440Y12947000D01*
X11690440Y13747000D01*
X11646162Y13982317D01*
X11579671Y14085646D01*
X11581327Y14087302D01*
X11678000Y14320691D01*
X11678000Y14561250D01*
X11519250Y14720000D01*
X10795000Y14720000D01*
X10795000Y14700000D01*
X10541000Y14700000D01*
X10541000Y14720000D01*
X9816750Y14720000D01*
X9658000Y14561250D01*
X9658000Y14320691D01*
X9754673Y14087302D01*
X9756043Y14085932D01*
X9696569Y13998890D01*
X9645560Y13747000D01*
X9645560Y13331000D01*
X9142000Y13331000D01*
X9142000Y14417198D01*
X9757776Y15032974D01*
X9816750Y14974000D01*
X10541000Y14974000D01*
X10541000Y15723250D01*
X10795000Y15723250D01*
X10795000Y14974000D01*
X11519250Y14974000D01*
X11678000Y15132750D01*
X11678000Y15373309D01*
X11581327Y15606698D01*
X11402699Y15785327D01*
X11169310Y15882000D01*
X10953750Y15882000D01*
X10795000Y15723250D01*
X10541000Y15723250D01*
X10494526Y15769724D01*
X12204680Y17479878D01*
X12250167Y17479838D01*
X12593943Y17621883D01*
X12696719Y17724479D01*
X14863698Y15557500D01*
G36*
X32385000Y18022000D02*
X32751710Y18022000D01*
X32833201Y17988162D01*
X33205167Y17987838D01*
X33287846Y18022000D01*
X33640710Y18022000D01*
X33722201Y17988162D01*
X33924695Y17987986D01*
X33863162Y17839799D01*
X33863082Y17748000D01*
X33655000Y17748000D01*
X33655000Y17768000D01*
X32385000Y17768000D01*
X32385000Y17748000D01*
X32131000Y17748000D01*
X32131000Y17768000D01*
X32111000Y17768000D01*
X32111000Y18022000D01*
X32131000Y18022000D01*
X32131000Y18042000D01*
X32385000Y18042000D01*
X32385000Y18022000D01*
X32385000Y18022000D01*
G37*
X32385000Y18022000D02*
X32751710Y18022000D01*
X32833201Y17988162D01*
X33205167Y17987838D01*
X33287846Y18022000D01*
X33640710Y18022000D01*
X33722201Y17988162D01*
X33924695Y17987986D01*
X33863162Y17839799D01*
X33863082Y17748000D01*
X33655000Y17748000D01*
X33655000Y17768000D01*
X32385000Y17768000D01*
X32385000Y17748000D01*
X32131000Y17748000D01*
X32131000Y17768000D01*
X32111000Y17768000D01*
X32111000Y18022000D01*
X32131000Y18022000D01*
X32131000Y18042000D01*
X32385000Y18042000D01*
X32385000Y18022000D01*
G36*
X16262000Y21088309D02*
X16262000Y20847750D01*
X16420748Y20689002D01*
X16262000Y20689002D01*
X16262000Y20572000D01*
X13897463Y20572000D01*
X13865327Y20604192D01*
X13521799Y20746838D01*
X13149833Y20747162D01*
X12806057Y20605117D01*
X12766837Y20565965D01*
X12301317Y21031485D01*
X12457317Y21060838D01*
X12602095Y21154000D01*
X16289210Y21154000D01*
X16262000Y21088309D01*
X16262000Y21088309D01*
G37*
X16262000Y21088309D02*
X16262000Y20847750D01*
X16420748Y20689002D01*
X16262000Y20689002D01*
X16262000Y20572000D01*
X13897463Y20572000D01*
X13865327Y20604192D01*
X13521799Y20746838D01*
X13149833Y20747162D01*
X12806057Y20605117D01*
X12766837Y20565965D01*
X12301317Y21031485D01*
X12457317Y21060838D01*
X12602095Y21154000D01*
X16289210Y21154000D01*
X16262000Y21088309D01*
G36*
X19316000Y22225000D02*
X19336000Y22225000D01*
X19336000Y21971000D01*
X19316000Y21971000D01*
X19316000Y21951000D01*
X19062000Y21951000D01*
X19062000Y21971000D01*
X19042000Y21971000D01*
X19042000Y22225000D01*
X19062000Y22225000D01*
X19062000Y22245000D01*
X19316000Y22245000D01*
X19316000Y22225000D01*
X19316000Y22225000D01*
G37*
X19316000Y22225000D02*
X19336000Y22225000D01*
X19336000Y21971000D01*
X19316000Y21971000D01*
X19316000Y21951000D01*
X19062000Y21951000D01*
X19062000Y21971000D01*
X19042000Y21971000D01*
X19042000Y22225000D01*
X19062000Y22225000D01*
X19062000Y22245000D01*
X19316000Y22245000D01*
X19316000Y22225000D01*
G36*
X22340000Y23876000D02*
X22360000Y23876000D01*
X22360000Y23622000D01*
X22340000Y23622000D01*
X22340000Y22897750D01*
X22498750Y22739000D01*
X22536646Y22739000D01*
X22381599Y22635401D01*
X22036638Y22290440D01*
X21814000Y22290440D01*
X21736440Y22275846D01*
X21736440Y22473000D01*
X21692162Y22708317D01*
X21667231Y22747061D01*
X21686691Y22739000D01*
X21927250Y22739000D01*
X22086000Y22897750D01*
X22086000Y23622000D01*
X22066000Y23622000D01*
X22066000Y23876000D01*
X22086000Y23876000D01*
X22086000Y23896000D01*
X22340000Y23896000D01*
X22340000Y23876000D01*
X22340000Y23876000D01*
G37*
X22340000Y23876000D02*
X22360000Y23876000D01*
X22360000Y23622000D01*
X22340000Y23622000D01*
X22340000Y22897750D01*
X22498750Y22739000D01*
X22536646Y22739000D01*
X22381599Y22635401D01*
X22036638Y22290440D01*
X21814000Y22290440D01*
X21736440Y22275846D01*
X21736440Y22473000D01*
X21692162Y22708317D01*
X21667231Y22747061D01*
X21686691Y22739000D01*
X21927250Y22739000D01*
X22086000Y22897750D01*
X22086000Y23622000D01*
X22066000Y23622000D01*
X22066000Y23876000D01*
X22086000Y23876000D01*
X22086000Y23896000D01*
X22340000Y23896000D01*
X22340000Y23876000D01*
G36*
X19697000Y25654000D02*
X19717000Y25654000D01*
X19717000Y25400000D01*
X19697000Y25400000D01*
X19697000Y24675750D01*
X19830344Y24542406D01*
X19716569Y24375890D01*
X19665560Y24124000D01*
X19665560Y23374000D01*
X19709838Y23138683D01*
X19734769Y23099939D01*
X19715309Y23108000D01*
X19520707Y23108000D01*
X19603838Y23308201D01*
X19604162Y23680167D01*
X19462117Y24023943D01*
X19199327Y24287192D01*
X18855799Y24429838D01*
X18483833Y24430162D01*
X18224286Y24322920D01*
X17998483Y24416681D01*
X18556232Y24974430D01*
X18631673Y24792301D01*
X18810302Y24613673D01*
X19043691Y24517000D01*
X19284250Y24517000D01*
X19443000Y24675750D01*
X19443000Y25400000D01*
X19423000Y25400000D01*
X19423000Y25654000D01*
X19443000Y25654000D01*
X19443000Y25674000D01*
X19697000Y25674000D01*
X19697000Y25654000D01*
X19697000Y25654000D01*
G37*
X19697000Y25654000D02*
X19717000Y25654000D01*
X19717000Y25400000D01*
X19697000Y25400000D01*
X19697000Y24675750D01*
X19830344Y24542406D01*
X19716569Y24375890D01*
X19665560Y24124000D01*
X19665560Y23374000D01*
X19709838Y23138683D01*
X19734769Y23099939D01*
X19715309Y23108000D01*
X19520707Y23108000D01*
X19603838Y23308201D01*
X19604162Y23680167D01*
X19462117Y24023943D01*
X19199327Y24287192D01*
X18855799Y24429838D01*
X18483833Y24430162D01*
X18224286Y24322920D01*
X17998483Y24416681D01*
X18556232Y24974430D01*
X18631673Y24792301D01*
X18810302Y24613673D01*
X19043691Y24517000D01*
X19284250Y24517000D01*
X19443000Y24675750D01*
X19443000Y25400000D01*
X19423000Y25400000D01*
X19423000Y25654000D01*
X19443000Y25654000D01*
X19443000Y25674000D01*
X19697000Y25674000D01*
X19697000Y25654000D01*
G36*
X31727673Y28671808D02*
X32071201Y28529162D01*
X32133000Y28529108D01*
X32133000Y25069111D01*
X31899327Y25303192D01*
X31555799Y25445838D01*
X31183833Y25446162D01*
X30840057Y25304117D01*
X30806882Y25271000D01*
X30480000Y25271000D01*
X30189160Y25213148D01*
X29967613Y25065115D01*
X29913833Y25065162D01*
X29570057Y24923117D01*
X29306808Y24660327D01*
X29164162Y24316799D01*
X29164085Y24228331D01*
X29105327Y24287192D01*
X28761799Y24429838D01*
X28389833Y24430162D01*
X28315554Y24399471D01*
X28166699Y24548327D01*
X27933310Y24645000D01*
X27717750Y24645000D01*
X27559000Y24486250D01*
X27559000Y23737000D01*
X27579000Y23737000D01*
X27579000Y23620000D01*
X27285000Y23620000D01*
X27285000Y23737000D01*
X27305000Y23737000D01*
X27305000Y24486250D01*
X27146250Y24645000D01*
X26930690Y24645000D01*
X26697301Y24548327D01*
X26518673Y24369698D01*
X26422000Y24136309D01*
X26422000Y23895750D01*
X26580748Y23737002D01*
X26422000Y23737002D01*
X26422000Y23620000D01*
X26222802Y23620000D01*
X22281802Y27561000D01*
X29845000Y27561000D01*
X30135839Y27618852D01*
X30382401Y27783599D01*
X31429802Y28831000D01*
X31568759Y28831000D01*
X31727673Y28671808D01*
X31727673Y28671808D01*
G37*
X31727673Y28671808D02*
X32071201Y28529162D01*
X32133000Y28529108D01*
X32133000Y25069111D01*
X31899327Y25303192D01*
X31555799Y25445838D01*
X31183833Y25446162D01*
X30840057Y25304117D01*
X30806882Y25271000D01*
X30480000Y25271000D01*
X30189160Y25213148D01*
X29967613Y25065115D01*
X29913833Y25065162D01*
X29570057Y24923117D01*
X29306808Y24660327D01*
X29164162Y24316799D01*
X29164085Y24228331D01*
X29105327Y24287192D01*
X28761799Y24429838D01*
X28389833Y24430162D01*
X28315554Y24399471D01*
X28166699Y24548327D01*
X27933310Y24645000D01*
X27717750Y24645000D01*
X27559000Y24486250D01*
X27559000Y23737000D01*
X27579000Y23737000D01*
X27579000Y23620000D01*
X27285000Y23620000D01*
X27285000Y23737000D01*
X27305000Y23737000D01*
X27305000Y24486250D01*
X27146250Y24645000D01*
X26930690Y24645000D01*
X26697301Y24548327D01*
X26518673Y24369698D01*
X26422000Y24136309D01*
X26422000Y23895750D01*
X26580748Y23737002D01*
X26422000Y23737002D01*
X26422000Y23620000D01*
X26222802Y23620000D01*
X22281802Y27561000D01*
X29845000Y27561000D01*
X30135839Y27618852D01*
X30382401Y27783599D01*
X31429802Y28831000D01*
X31568759Y28831000D01*
X31727673Y28671808D01*
G36*
X8510838Y32604683D02*
X8649910Y32388559D01*
X8862110Y32243569D01*
X9114000Y32192560D01*
X9914000Y32192560D01*
X10149317Y32236838D01*
X10365441Y32375910D01*
X10413134Y32445711D01*
X10449910Y32388559D01*
X10662110Y32243569D01*
X10670000Y32241971D01*
X10670000Y29524802D01*
X10384599Y29239401D01*
X10219852Y28992839D01*
X10162000Y28702000D01*
X10162000Y25248802D01*
X8711401Y26699401D01*
X8464839Y26864148D01*
X8174000Y26922000D01*
X7137555Y26922000D01*
X7558489Y27005729D01*
X8044670Y27330585D01*
X8369526Y27816766D01*
X8483600Y28390255D01*
X8483600Y28759745D01*
X8369526Y29333234D01*
X8044670Y29819415D01*
X7558489Y30144271D01*
X6985000Y30258345D01*
X6477421Y30157381D01*
X6475000Y30159802D01*
X6475000Y30803100D01*
X6985000Y30701655D01*
X7558489Y30815729D01*
X8044670Y31140585D01*
X8369526Y31626766D01*
X8483600Y32200255D01*
X8483600Y32569745D01*
X8456766Y32704647D01*
X8489485Y32718166D01*
X8510838Y32604683D01*
X8510838Y32604683D01*
G37*
X8510838Y32604683D02*
X8649910Y32388559D01*
X8862110Y32243569D01*
X9114000Y32192560D01*
X9914000Y32192560D01*
X10149317Y32236838D01*
X10365441Y32375910D01*
X10413134Y32445711D01*
X10449910Y32388559D01*
X10662110Y32243569D01*
X10670000Y32241971D01*
X10670000Y29524802D01*
X10384599Y29239401D01*
X10219852Y28992839D01*
X10162000Y28702000D01*
X10162000Y25248802D01*
X8711401Y26699401D01*
X8464839Y26864148D01*
X8174000Y26922000D01*
X7137555Y26922000D01*
X7558489Y27005729D01*
X8044670Y27330585D01*
X8369526Y27816766D01*
X8483600Y28390255D01*
X8483600Y28759745D01*
X8369526Y29333234D01*
X8044670Y29819415D01*
X7558489Y30144271D01*
X6985000Y30258345D01*
X6477421Y30157381D01*
X6475000Y30159802D01*
X6475000Y30803100D01*
X6985000Y30701655D01*
X7558489Y30815729D01*
X8044670Y31140585D01*
X8369526Y31626766D01*
X8483600Y32200255D01*
X8483600Y32569745D01*
X8456766Y32704647D01*
X8489485Y32718166D01*
X8510838Y32604683D01*
G36*
X23948424Y30457673D02*
X24012210Y30362210D01*
X24785421Y29589000D01*
X23618771Y29589000D01*
X23699441Y29640910D01*
X23844431Y29853110D01*
X23895440Y30105000D01*
X23895440Y30536970D01*
X23948424Y30457673D01*
X23948424Y30457673D01*
G37*
X23948424Y30457673D02*
X24012210Y30362210D01*
X24785421Y29589000D01*
X23618771Y29589000D01*
X23699441Y29640910D01*
X23844431Y29853110D01*
X23895440Y30105000D01*
X23895440Y30536970D01*
X23948424Y30457673D01*
G36*
X22738980Y47383440D02*
X21742400Y47383440D01*
X21507083Y47339162D01*
X21290959Y47200090D01*
X21145969Y46987890D01*
X21094960Y46736000D01*
X21094960Y44704000D01*
X21139238Y44468683D01*
X21278310Y44252559D01*
X21490510Y44107569D01*
X21742400Y44056560D01*
X23184974Y44056560D01*
X23081883Y44037162D01*
X22865759Y43898090D01*
X22720769Y43685890D01*
X22669760Y43434000D01*
X22669760Y41402000D01*
X22714038Y41166683D01*
X22853110Y40950559D01*
X23065310Y40805569D01*
X23317200Y40754560D01*
X26974800Y40754560D01*
X27210117Y40798838D01*
X27426241Y40937910D01*
X27571231Y41150110D01*
X27622240Y41402000D01*
X27622240Y43184000D01*
X28589420Y43184000D01*
X29572140Y42201281D01*
X29572140Y39592000D01*
X29337000Y39592000D01*
X29337000Y39612000D01*
X28612750Y39612000D01*
X28454000Y39453250D01*
X28454000Y39212691D01*
X28542514Y38999000D01*
X27825000Y38999000D01*
X27534160Y38941148D01*
X27287599Y38776401D01*
X26911320Y38400122D01*
X26865833Y38400162D01*
X26522057Y38258117D01*
X26258808Y37995327D01*
X26116162Y37651799D01*
X26115838Y37279833D01*
X26125446Y37256579D01*
X26013698Y37368327D01*
X25780309Y37465000D01*
X25431750Y37465000D01*
X25273000Y37306250D01*
X25273000Y35941000D01*
X25293000Y35941000D01*
X25293000Y35687000D01*
X25273000Y35687000D01*
X25273000Y35667000D01*
X25019000Y35667000D01*
X25019000Y35687000D01*
X24999000Y35687000D01*
X24999000Y35941000D01*
X25019000Y35941000D01*
X25019000Y37306250D01*
X24860250Y37465000D01*
X24511691Y37465000D01*
X24278302Y37368327D01*
X24099673Y37189699D01*
X24003000Y36956310D01*
X24003000Y36896113D01*
X23971162Y37065317D01*
X23832090Y37281441D01*
X23619890Y37426431D01*
X23368000Y37477440D01*
X22352000Y37477440D01*
X22116683Y37433162D01*
X21900559Y37294090D01*
X21755569Y37081890D01*
X21704560Y36830000D01*
X21704560Y35910140D01*
X21695173Y35900752D01*
X21599430Y36049541D01*
X21387230Y36194531D01*
X21135340Y36245540D01*
X21078000Y36245540D01*
X21078000Y37074100D01*
X21207730Y37074100D01*
X21443047Y37118378D01*
X21659171Y37257450D01*
X21804161Y37469650D01*
X21819626Y37546021D01*
X22029167Y37545838D01*
X22372943Y37687883D01*
X22636192Y37950673D01*
X22778838Y38294201D01*
X22779162Y38666167D01*
X22637117Y39009943D01*
X22604000Y39043118D01*
X22604000Y40132000D01*
X22577483Y40265309D01*
X28454000Y40265309D01*
X28454000Y40024750D01*
X28612750Y39866000D01*
X29337000Y39866000D01*
X29337000Y40615250D01*
X29178250Y40774000D01*
X28962690Y40774000D01*
X28729301Y40677327D01*
X28550673Y40498698D01*
X28454000Y40265309D01*
X22577483Y40265309D01*
X22546148Y40422839D01*
X22381401Y40669401D01*
X21855170Y41195632D01*
X21855170Y42542460D01*
X21810892Y42777777D01*
X21671820Y42993901D01*
X21459620Y43138891D01*
X21207730Y43189900D01*
X19178270Y43189900D01*
X18942953Y43145622D01*
X18726829Y43006550D01*
X18581839Y42794350D01*
X18530830Y42542460D01*
X18530830Y40891460D01*
X18575108Y40656143D01*
X18714180Y40440019D01*
X18926380Y40295029D01*
X19178270Y40244020D01*
X20657178Y40244020D01*
X20881218Y40019980D01*
X19178270Y40019980D01*
X18942953Y39975702D01*
X18726829Y39836630D01*
X18581839Y39624430D01*
X18581714Y39623815D01*
X18549000Y39630440D01*
X17749000Y39630440D01*
X17513683Y39586162D01*
X17410354Y39519671D01*
X17408698Y39521327D01*
X17175309Y39618000D01*
X16934750Y39618000D01*
X16776000Y39459250D01*
X16776000Y38735000D01*
X16796000Y38735000D01*
X16796000Y38481000D01*
X16776000Y38481000D01*
X16776000Y37756750D01*
X16934750Y37598000D01*
X17175309Y37598000D01*
X17408698Y37694673D01*
X17410068Y37696043D01*
X17497110Y37636569D01*
X17749000Y37585560D01*
X18549000Y37585560D01*
X18556163Y37586908D01*
X18575108Y37486223D01*
X18714180Y37270099D01*
X18926380Y37125109D01*
X19178270Y37074100D01*
X19308000Y37074100D01*
X19308000Y36245540D01*
X18534380Y36245540D01*
X18299063Y36201262D01*
X18082939Y36062190D01*
X18036103Y35993643D01*
X17893318Y36136427D01*
X17659929Y36233100D01*
X16518890Y36233100D01*
X16360140Y36074350D01*
X16360140Y34925000D01*
X16380140Y34925000D01*
X16380140Y34671000D01*
X16360140Y34671000D01*
X16360140Y33521650D01*
X16518890Y33362900D01*
X17659929Y33362900D01*
X17893318Y33459573D01*
X18035018Y33601273D01*
X18070290Y33546459D01*
X18282490Y33401469D01*
X18485649Y33360328D01*
X18369162Y33079799D01*
X18368838Y32707833D01*
X18510883Y32364057D01*
X18773673Y32100808D01*
X18894986Y32050434D01*
X19555208Y31390213D01*
X19555210Y31390210D01*
X19785255Y31236500D01*
X19842325Y31198367D01*
X20181000Y31131000D01*
X20375004Y31131000D01*
X20313000Y30981310D01*
X20313000Y30765750D01*
X20471750Y30607000D01*
X21221000Y30607000D01*
X21221000Y30627000D01*
X21390790Y30627000D01*
X21495000Y30522608D01*
X21495000Y30353000D01*
X21475000Y30353000D01*
X21475000Y30333000D01*
X21221000Y30333000D01*
X21221000Y30353000D01*
X20471750Y30353000D01*
X20313000Y30194250D01*
X20313000Y29978690D01*
X20409673Y29745301D01*
X20565975Y29589000D01*
X19508741Y29589000D01*
X19466147Y29613745D01*
X19417659Y29630350D01*
X19375042Y29658811D01*
X19278617Y29677967D01*
X19223093Y29696982D01*
X19223162Y29776167D01*
X19081117Y30119943D01*
X18911791Y30289565D01*
X19080192Y30457673D01*
X19222838Y30801201D01*
X19223162Y31173167D01*
X19081117Y31516943D01*
X18818327Y31780192D01*
X18474799Y31922838D01*
X18102833Y31923162D01*
X17973202Y31869600D01*
X17699012Y32143790D01*
X17699162Y32316167D01*
X17557117Y32659943D01*
X17294327Y32923192D01*
X16950799Y33065838D01*
X16578833Y33066162D01*
X16235057Y32924117D01*
X16195837Y32884965D01*
X15717902Y33362900D01*
X15947390Y33362900D01*
X16106140Y33521650D01*
X16106140Y34671000D01*
X14456410Y34671000D01*
X14433106Y34647696D01*
X13356392Y35724410D01*
X14297660Y35724410D01*
X14297660Y35083750D01*
X14456410Y34925000D01*
X16106140Y34925000D01*
X16106140Y36074350D01*
X15947390Y36233100D01*
X14806351Y36233100D01*
X14572962Y36136427D01*
X14394333Y35957799D01*
X14297660Y35724410D01*
X13356392Y35724410D01*
X13053401Y36027401D01*
X12806839Y36192148D01*
X12729183Y36207595D01*
X12856401Y36292599D01*
X13093680Y36529878D01*
X13139167Y36529838D01*
X13482943Y36671883D01*
X13746192Y36934673D01*
X13888838Y37278201D01*
X13889162Y37650167D01*
X13747117Y37993943D01*
X13484327Y38257192D01*
X13327651Y38322250D01*
X15614000Y38322250D01*
X15614000Y38106690D01*
X15710673Y37873301D01*
X15889302Y37694673D01*
X16122691Y37598000D01*
X16363250Y37598000D01*
X16522000Y37756750D01*
X16522000Y38481000D01*
X15772750Y38481000D01*
X15614000Y38322250D01*
X13327651Y38322250D01*
X13140799Y38399838D01*
X12768833Y38400162D01*
X12698000Y38370894D01*
X12698000Y39109310D01*
X15614000Y39109310D01*
X15614000Y38893750D01*
X15772750Y38735000D01*
X16522000Y38735000D01*
X16522000Y39459250D01*
X16363250Y39618000D01*
X16122691Y39618000D01*
X15889302Y39521327D01*
X15710673Y39342699D01*
X15614000Y39109310D01*
X12698000Y39109310D01*
X12698000Y43304196D01*
X12702804Y43309000D01*
X13081000Y43309000D01*
X13371839Y43366852D01*
X13618401Y43531599D01*
X13903802Y43817000D01*
X15367000Y43817000D01*
X15657839Y43874852D01*
X15904401Y44039599D01*
X16430616Y44565814D01*
X16519313Y44506548D01*
X17145000Y44382091D01*
X17770687Y44506548D01*
X18301120Y44860971D01*
X18655543Y45391404D01*
X18780000Y46017091D01*
X18780000Y46692909D01*
X18655543Y47318596D01*
X18532997Y47502000D01*
X22620420Y47502000D01*
X22738980Y47383440D01*
X22738980Y47383440D01*
G37*
X22738980Y47383440D02*
X21742400Y47383440D01*
X21507083Y47339162D01*
X21290959Y47200090D01*
X21145969Y46987890D01*
X21094960Y46736000D01*
X21094960Y44704000D01*
X21139238Y44468683D01*
X21278310Y44252559D01*
X21490510Y44107569D01*
X21742400Y44056560D01*
X23184974Y44056560D01*
X23081883Y44037162D01*
X22865759Y43898090D01*
X22720769Y43685890D01*
X22669760Y43434000D01*
X22669760Y41402000D01*
X22714038Y41166683D01*
X22853110Y40950559D01*
X23065310Y40805569D01*
X23317200Y40754560D01*
X26974800Y40754560D01*
X27210117Y40798838D01*
X27426241Y40937910D01*
X27571231Y41150110D01*
X27622240Y41402000D01*
X27622240Y43184000D01*
X28589420Y43184000D01*
X29572140Y42201281D01*
X29572140Y39592000D01*
X29337000Y39592000D01*
X29337000Y39612000D01*
X28612750Y39612000D01*
X28454000Y39453250D01*
X28454000Y39212691D01*
X28542514Y38999000D01*
X27825000Y38999000D01*
X27534160Y38941148D01*
X27287599Y38776401D01*
X26911320Y38400122D01*
X26865833Y38400162D01*
X26522057Y38258117D01*
X26258808Y37995327D01*
X26116162Y37651799D01*
X26115838Y37279833D01*
X26125446Y37256579D01*
X26013698Y37368327D01*
X25780309Y37465000D01*
X25431750Y37465000D01*
X25273000Y37306250D01*
X25273000Y35941000D01*
X25293000Y35941000D01*
X25293000Y35687000D01*
X25273000Y35687000D01*
X25273000Y35667000D01*
X25019000Y35667000D01*
X25019000Y35687000D01*
X24999000Y35687000D01*
X24999000Y35941000D01*
X25019000Y35941000D01*
X25019000Y37306250D01*
X24860250Y37465000D01*
X24511691Y37465000D01*
X24278302Y37368327D01*
X24099673Y37189699D01*
X24003000Y36956310D01*
X24003000Y36896113D01*
X23971162Y37065317D01*
X23832090Y37281441D01*
X23619890Y37426431D01*
X23368000Y37477440D01*
X22352000Y37477440D01*
X22116683Y37433162D01*
X21900559Y37294090D01*
X21755569Y37081890D01*
X21704560Y36830000D01*
X21704560Y35910140D01*
X21695173Y35900752D01*
X21599430Y36049541D01*
X21387230Y36194531D01*
X21135340Y36245540D01*
X21078000Y36245540D01*
X21078000Y37074100D01*
X21207730Y37074100D01*
X21443047Y37118378D01*
X21659171Y37257450D01*
X21804161Y37469650D01*
X21819626Y37546021D01*
X22029167Y37545838D01*
X22372943Y37687883D01*
X22636192Y37950673D01*
X22778838Y38294201D01*
X22779162Y38666167D01*
X22637117Y39009943D01*
X22604000Y39043118D01*
X22604000Y40132000D01*
X22577483Y40265309D01*
X28454000Y40265309D01*
X28454000Y40024750D01*
X28612750Y39866000D01*
X29337000Y39866000D01*
X29337000Y40615250D01*
X29178250Y40774000D01*
X28962690Y40774000D01*
X28729301Y40677327D01*
X28550673Y40498698D01*
X28454000Y40265309D01*
X22577483Y40265309D01*
X22546148Y40422839D01*
X22381401Y40669401D01*
X21855170Y41195632D01*
X21855170Y42542460D01*
X21810892Y42777777D01*
X21671820Y42993901D01*
X21459620Y43138891D01*
X21207730Y43189900D01*
X19178270Y43189900D01*
X18942953Y43145622D01*
X18726829Y43006550D01*
X18581839Y42794350D01*
X18530830Y42542460D01*
X18530830Y40891460D01*
X18575108Y40656143D01*
X18714180Y40440019D01*
X18926380Y40295029D01*
X19178270Y40244020D01*
X20657178Y40244020D01*
X20881218Y40019980D01*
X19178270Y40019980D01*
X18942953Y39975702D01*
X18726829Y39836630D01*
X18581839Y39624430D01*
X18581714Y39623815D01*
X18549000Y39630440D01*
X17749000Y39630440D01*
X17513683Y39586162D01*
X17410354Y39519671D01*
X17408698Y39521327D01*
X17175309Y39618000D01*
X16934750Y39618000D01*
X16776000Y39459250D01*
X16776000Y38735000D01*
X16796000Y38735000D01*
X16796000Y38481000D01*
X16776000Y38481000D01*
X16776000Y37756750D01*
X16934750Y37598000D01*
X17175309Y37598000D01*
X17408698Y37694673D01*
X17410068Y37696043D01*
X17497110Y37636569D01*
X17749000Y37585560D01*
X18549000Y37585560D01*
X18556163Y37586908D01*
X18575108Y37486223D01*
X18714180Y37270099D01*
X18926380Y37125109D01*
X19178270Y37074100D01*
X19308000Y37074100D01*
X19308000Y36245540D01*
X18534380Y36245540D01*
X18299063Y36201262D01*
X18082939Y36062190D01*
X18036103Y35993643D01*
X17893318Y36136427D01*
X17659929Y36233100D01*
X16518890Y36233100D01*
X16360140Y36074350D01*
X16360140Y34925000D01*
X16380140Y34925000D01*
X16380140Y34671000D01*
X16360140Y34671000D01*
X16360140Y33521650D01*
X16518890Y33362900D01*
X17659929Y33362900D01*
X17893318Y33459573D01*
X18035018Y33601273D01*
X18070290Y33546459D01*
X18282490Y33401469D01*
X18485649Y33360328D01*
X18369162Y33079799D01*
X18368838Y32707833D01*
X18510883Y32364057D01*
X18773673Y32100808D01*
X18894986Y32050434D01*
X19555208Y31390213D01*
X19555210Y31390210D01*
X19785255Y31236500D01*
X19842325Y31198367D01*
X20181000Y31131000D01*
X20375004Y31131000D01*
X20313000Y30981310D01*
X20313000Y30765750D01*
X20471750Y30607000D01*
X21221000Y30607000D01*
X21221000Y30627000D01*
X21390790Y30627000D01*
X21495000Y30522608D01*
X21495000Y30353000D01*
X21475000Y30353000D01*
X21475000Y30333000D01*
X21221000Y30333000D01*
X21221000Y30353000D01*
X20471750Y30353000D01*
X20313000Y30194250D01*
X20313000Y29978690D01*
X20409673Y29745301D01*
X20565975Y29589000D01*
X19508741Y29589000D01*
X19466147Y29613745D01*
X19417659Y29630350D01*
X19375042Y29658811D01*
X19278617Y29677967D01*
X19223093Y29696982D01*
X19223162Y29776167D01*
X19081117Y30119943D01*
X18911791Y30289565D01*
X19080192Y30457673D01*
X19222838Y30801201D01*
X19223162Y31173167D01*
X19081117Y31516943D01*
X18818327Y31780192D01*
X18474799Y31922838D01*
X18102833Y31923162D01*
X17973202Y31869600D01*
X17699012Y32143790D01*
X17699162Y32316167D01*
X17557117Y32659943D01*
X17294327Y32923192D01*
X16950799Y33065838D01*
X16578833Y33066162D01*
X16235057Y32924117D01*
X16195837Y32884965D01*
X15717902Y33362900D01*
X15947390Y33362900D01*
X16106140Y33521650D01*
X16106140Y34671000D01*
X14456410Y34671000D01*
X14433106Y34647696D01*
X13356392Y35724410D01*
X14297660Y35724410D01*
X14297660Y35083750D01*
X14456410Y34925000D01*
X16106140Y34925000D01*
X16106140Y36074350D01*
X15947390Y36233100D01*
X14806351Y36233100D01*
X14572962Y36136427D01*
X14394333Y35957799D01*
X14297660Y35724410D01*
X13356392Y35724410D01*
X13053401Y36027401D01*
X12806839Y36192148D01*
X12729183Y36207595D01*
X12856401Y36292599D01*
X13093680Y36529878D01*
X13139167Y36529838D01*
X13482943Y36671883D01*
X13746192Y36934673D01*
X13888838Y37278201D01*
X13889162Y37650167D01*
X13747117Y37993943D01*
X13484327Y38257192D01*
X13327651Y38322250D01*
X15614000Y38322250D01*
X15614000Y38106690D01*
X15710673Y37873301D01*
X15889302Y37694673D01*
X16122691Y37598000D01*
X16363250Y37598000D01*
X16522000Y37756750D01*
X16522000Y38481000D01*
X15772750Y38481000D01*
X15614000Y38322250D01*
X13327651Y38322250D01*
X13140799Y38399838D01*
X12768833Y38400162D01*
X12698000Y38370894D01*
X12698000Y39109310D01*
X15614000Y39109310D01*
X15614000Y38893750D01*
X15772750Y38735000D01*
X16522000Y38735000D01*
X16522000Y39459250D01*
X16363250Y39618000D01*
X16122691Y39618000D01*
X15889302Y39521327D01*
X15710673Y39342699D01*
X15614000Y39109310D01*
X12698000Y39109310D01*
X12698000Y43304196D01*
X12702804Y43309000D01*
X13081000Y43309000D01*
X13371839Y43366852D01*
X13618401Y43531599D01*
X13903802Y43817000D01*
X15367000Y43817000D01*
X15657839Y43874852D01*
X15904401Y44039599D01*
X16430616Y44565814D01*
X16519313Y44506548D01*
X17145000Y44382091D01*
X17770687Y44506548D01*
X18301120Y44860971D01*
X18655543Y45391404D01*
X18780000Y46017091D01*
X18780000Y46692909D01*
X18655543Y47318596D01*
X18532997Y47502000D01*
X22620420Y47502000D01*
X22738980Y47383440D01*
G36*
X40247000Y31369000D02*
X40267000Y31369000D01*
X40267000Y31115000D01*
X40247000Y31115000D01*
X40247000Y31095000D01*
X39993000Y31095000D01*
X39993000Y31115000D01*
X39973000Y31115000D01*
X39973000Y31369000D01*
X39993000Y31369000D01*
X39993000Y31389000D01*
X40247000Y31389000D01*
X40247000Y31369000D01*
X40247000Y31369000D01*
G37*
X40247000Y31369000D02*
X40267000Y31369000D01*
X40267000Y31115000D01*
X40247000Y31115000D01*
X40247000Y31095000D01*
X39993000Y31095000D01*
X39993000Y31115000D01*
X39973000Y31115000D01*
X39973000Y31369000D01*
X39993000Y31369000D01*
X39993000Y31389000D01*
X40247000Y31389000D01*
X40247000Y31369000D01*
G36*
X41936882Y37164865D02*
X41795474Y36953234D01*
X41681400Y36379745D01*
X41681400Y36010255D01*
X41795474Y35436766D01*
X42120330Y34950585D01*
X42606511Y34625729D01*
X43180000Y34511655D01*
X43690000Y34613100D01*
X43690000Y33966900D01*
X43180000Y34068345D01*
X42606511Y33954271D01*
X42120330Y33629415D01*
X41795474Y33143234D01*
X41681400Y32569745D01*
X41681400Y32342202D01*
X41133768Y31794570D01*
X41058327Y31976699D01*
X40967525Y32067500D01*
X41058327Y32158301D01*
X41155000Y32391690D01*
X41155000Y32607250D01*
X40996250Y32766000D01*
X40247000Y32766000D01*
X40247000Y32746000D01*
X40077210Y32746000D01*
X39973000Y32850392D01*
X39973000Y33020000D01*
X39993000Y33020000D01*
X39993000Y33744250D01*
X40247000Y33744250D01*
X40247000Y33020000D01*
X40996250Y33020000D01*
X41155000Y33178750D01*
X41155000Y33394310D01*
X41058327Y33627699D01*
X40879698Y33806327D01*
X40646309Y33903000D01*
X40405750Y33903000D01*
X40247000Y33744250D01*
X39993000Y33744250D01*
X39834250Y33903000D01*
X39593691Y33903000D01*
X39360302Y33806327D01*
X39358932Y33804957D01*
X39271890Y33864431D01*
X39020000Y33915440D01*
X38645110Y33915440D01*
X38639117Y33929943D01*
X38376327Y34193192D01*
X38343254Y34206925D01*
X38453699Y34252673D01*
X38613829Y34412804D01*
X38737110Y34328569D01*
X38989000Y34277560D01*
X41021000Y34277560D01*
X41256317Y34321838D01*
X41472441Y34460910D01*
X41617431Y34673110D01*
X41668440Y34925000D01*
X41668440Y36449000D01*
X41624162Y36684317D01*
X41500294Y36876814D01*
X41565839Y36889852D01*
X41812401Y37054599D01*
X41922680Y37164878D01*
X41936882Y37164865D01*
X41936882Y37164865D01*
G37*
X41936882Y37164865D02*
X41795474Y36953234D01*
X41681400Y36379745D01*
X41681400Y36010255D01*
X41795474Y35436766D01*
X42120330Y34950585D01*
X42606511Y34625729D01*
X43180000Y34511655D01*
X43690000Y34613100D01*
X43690000Y33966900D01*
X43180000Y34068345D01*
X42606511Y33954271D01*
X42120330Y33629415D01*
X41795474Y33143234D01*
X41681400Y32569745D01*
X41681400Y32342202D01*
X41133768Y31794570D01*
X41058327Y31976699D01*
X40967525Y32067500D01*
X41058327Y32158301D01*
X41155000Y32391690D01*
X41155000Y32607250D01*
X40996250Y32766000D01*
X40247000Y32766000D01*
X40247000Y32746000D01*
X40077210Y32746000D01*
X39973000Y32850392D01*
X39973000Y33020000D01*
X39993000Y33020000D01*
X39993000Y33744250D01*
X40247000Y33744250D01*
X40247000Y33020000D01*
X40996250Y33020000D01*
X41155000Y33178750D01*
X41155000Y33394310D01*
X41058327Y33627699D01*
X40879698Y33806327D01*
X40646309Y33903000D01*
X40405750Y33903000D01*
X40247000Y33744250D01*
X39993000Y33744250D01*
X39834250Y33903000D01*
X39593691Y33903000D01*
X39360302Y33806327D01*
X39358932Y33804957D01*
X39271890Y33864431D01*
X39020000Y33915440D01*
X38645110Y33915440D01*
X38639117Y33929943D01*
X38376327Y34193192D01*
X38343254Y34206925D01*
X38453699Y34252673D01*
X38613829Y34412804D01*
X38737110Y34328569D01*
X38989000Y34277560D01*
X41021000Y34277560D01*
X41256317Y34321838D01*
X41472441Y34460910D01*
X41617431Y34673110D01*
X41668440Y34925000D01*
X41668440Y36449000D01*
X41624162Y36684317D01*
X41500294Y36876814D01*
X41565839Y36889852D01*
X41812401Y37054599D01*
X41922680Y37164878D01*
X41936882Y37164865D01*
G36*
X21977000Y33801750D02*
X22135750Y33643000D01*
X22860000Y33643000D01*
X22860000Y33663000D01*
X23114000Y33663000D01*
X23114000Y33643000D01*
X24511000Y33643000D01*
X24511000Y33663000D01*
X24765000Y33663000D01*
X24765000Y33643000D01*
X24785000Y33643000D01*
X24785000Y33389000D01*
X24765000Y33389000D01*
X24765000Y33369000D01*
X24511000Y33369000D01*
X24511000Y33389000D01*
X23114000Y33389000D01*
X23114000Y33369000D01*
X22860000Y33369000D01*
X22860000Y33389000D01*
X22135750Y33389000D01*
X21977000Y33230250D01*
X21977000Y32989691D01*
X22013737Y32901000D01*
X20547579Y32901000D01*
X20536697Y32911883D01*
X20652493Y33085185D01*
X20705260Y33350460D01*
X21135340Y33350460D01*
X21370657Y33394738D01*
X21586781Y33533810D01*
X21731771Y33746010D01*
X21765587Y33913000D01*
X21843995Y33913000D01*
X21844000Y33912999D01*
X21977000Y33939455D01*
X21977000Y33801750D01*
X21977000Y33801750D01*
G37*
X21977000Y33801750D02*
X22135750Y33643000D01*
X22860000Y33643000D01*
X22860000Y33663000D01*
X23114000Y33663000D01*
X23114000Y33643000D01*
X24511000Y33643000D01*
X24511000Y33663000D01*
X24765000Y33663000D01*
X24765000Y33643000D01*
X24785000Y33643000D01*
X24785000Y33389000D01*
X24765000Y33389000D01*
X24765000Y33369000D01*
X24511000Y33369000D01*
X24511000Y33389000D01*
X23114000Y33389000D01*
X23114000Y33369000D01*
X22860000Y33369000D01*
X22860000Y33389000D01*
X22135750Y33389000D01*
X21977000Y33230250D01*
X21977000Y32989691D01*
X22013737Y32901000D01*
X20547579Y32901000D01*
X20536697Y32911883D01*
X20652493Y33085185D01*
X20705260Y33350460D01*
X21135340Y33350460D01*
X21370657Y33394738D01*
X21586781Y33533810D01*
X21731771Y33746010D01*
X21765587Y33913000D01*
X21843995Y33913000D01*
X21844000Y33912999D01*
X21977000Y33939455D01*
X21977000Y33801750D01*
G36*
X37846000Y35318000D02*
X37866000Y35318000D01*
X37866000Y35064000D01*
X37846000Y35064000D01*
X37846000Y35044000D01*
X37765104Y35044000D01*
X37765162Y35110167D01*
X37671024Y35338000D01*
X37846000Y35338000D01*
X37846000Y35318000D01*
X37846000Y35318000D01*
G37*
X37846000Y35318000D02*
X37866000Y35318000D01*
X37866000Y35064000D01*
X37846000Y35064000D01*
X37846000Y35044000D01*
X37765104Y35044000D01*
X37765162Y35110167D01*
X37671024Y35338000D01*
X37846000Y35338000D01*
X37846000Y35318000D01*
G36*
X36006000Y38023090D02*
X36006000Y37656000D01*
X36006500Y37653486D01*
X36006500Y37157929D01*
X35895162Y36889799D01*
X35894838Y36517833D01*
X36036883Y36174057D01*
X36299673Y35910808D01*
X36532961Y35813938D01*
X36301057Y35718117D01*
X36037808Y35455327D01*
X36006780Y35380604D01*
X36006780Y35598100D01*
X35962502Y35833417D01*
X35823430Y36049541D01*
X35611230Y36194531D01*
X35359340Y36245540D01*
X34833860Y36245540D01*
X34833860Y36402968D01*
X34983167Y36402838D01*
X35326943Y36544883D01*
X35590192Y36807673D01*
X35732838Y37151201D01*
X35733162Y37523167D01*
X35591117Y37866943D01*
X35469156Y37989117D01*
X35507086Y38004789D01*
X35766129Y38263380D01*
X36006000Y38023090D01*
X36006000Y38023090D01*
G37*
X36006000Y38023090D02*
X36006000Y37656000D01*
X36006500Y37653486D01*
X36006500Y37157929D01*
X35895162Y36889799D01*
X35894838Y36517833D01*
X36036883Y36174057D01*
X36299673Y35910808D01*
X36532961Y35813938D01*
X36301057Y35718117D01*
X36037808Y35455327D01*
X36006780Y35380604D01*
X36006780Y35598100D01*
X35962502Y35833417D01*
X35823430Y36049541D01*
X35611230Y36194531D01*
X35359340Y36245540D01*
X34833860Y36245540D01*
X34833860Y36402968D01*
X34983167Y36402838D01*
X35326943Y36544883D01*
X35590192Y36807673D01*
X35732838Y37151201D01*
X35733162Y37523167D01*
X35591117Y37866943D01*
X35469156Y37989117D01*
X35507086Y38004789D01*
X35766129Y38263380D01*
X36006000Y38023090D01*
G36*
X38341560Y38892860D02*
X38341560Y38227000D01*
X38385838Y37991683D01*
X38524910Y37775559D01*
X38737110Y37630569D01*
X38989000Y37579560D01*
X39450988Y37579560D01*
X39450838Y37406833D01*
X39579089Y37096440D01*
X38989000Y37096440D01*
X38753683Y37052162D01*
X38741440Y37044284D01*
X38741440Y37091000D01*
X38697162Y37326317D01*
X38558090Y37542441D01*
X38345890Y37687431D01*
X38094000Y37738440D01*
X37758362Y37738440D01*
X37526000Y37970802D01*
X37526000Y38023670D01*
X37875916Y38372976D01*
X38075772Y38854282D01*
X38076037Y39158383D01*
X38341560Y38892860D01*
X38341560Y38892860D01*
G37*
X38341560Y38892860D02*
X38341560Y38227000D01*
X38385838Y37991683D01*
X38524910Y37775559D01*
X38737110Y37630569D01*
X38989000Y37579560D01*
X39450988Y37579560D01*
X39450838Y37406833D01*
X39579089Y37096440D01*
X38989000Y37096440D01*
X38753683Y37052162D01*
X38741440Y37044284D01*
X38741440Y37091000D01*
X38697162Y37326317D01*
X38558090Y37542441D01*
X38345890Y37687431D01*
X38094000Y37738440D01*
X37758362Y37738440D01*
X37526000Y37970802D01*
X37526000Y38023670D01*
X37875916Y38372976D01*
X38075772Y38854282D01*
X38076037Y39158383D01*
X38341560Y38892860D01*
G36*
X36959748Y41130142D02*
X36945605Y41116000D01*
X36959748Y41101857D01*
X36780143Y40922252D01*
X36766000Y40936395D01*
X36079279Y40249674D01*
X36024914Y40227211D01*
X35765871Y39968620D01*
X35618620Y40116129D01*
X35875916Y40372976D01*
X35899026Y40428631D01*
X36586395Y41116000D01*
X36572253Y41130142D01*
X36751858Y41309747D01*
X36766000Y41295605D01*
X36780143Y41309747D01*
X36959748Y41130142D01*
X36959748Y41130142D01*
G37*
X36959748Y41130142D02*
X36945605Y41116000D01*
X36959748Y41101857D01*
X36780143Y40922252D01*
X36766000Y40936395D01*
X36079279Y40249674D01*
X36024914Y40227211D01*
X35765871Y39968620D01*
X35618620Y40116129D01*
X35875916Y40372976D01*
X35899026Y40428631D01*
X36586395Y41116000D01*
X36572253Y41130142D01*
X36751858Y41309747D01*
X36766000Y41295605D01*
X36780143Y41309747D01*
X36959748Y41130142D01*
G36*
X34934313Y44506548D02*
X35560000Y44382091D01*
X36055724Y44480697D01*
X38105421Y42431000D01*
X38040015Y42431000D01*
X37632008Y42839008D01*
X37380580Y43007007D01*
X37084000Y43066000D01*
X34290000Y43066000D01*
X33993420Y43007007D01*
X33741992Y42839008D01*
X33634524Y42731540D01*
X33736007Y42883420D01*
X33795000Y43180000D01*
X33795000Y44407560D01*
X34020000Y44407560D01*
X34255317Y44451838D01*
X34471441Y44590910D01*
X34576951Y44745329D01*
X34934313Y44506548D01*
X34934313Y44506548D01*
G37*
X34934313Y44506548D02*
X35560000Y44382091D01*
X36055724Y44480697D01*
X38105421Y42431000D01*
X38040015Y42431000D01*
X37632008Y42839008D01*
X37380580Y43007007D01*
X37084000Y43066000D01*
X34290000Y43066000D01*
X33993420Y43007007D01*
X33741992Y42839008D01*
X33634524Y42731540D01*
X33736007Y42883420D01*
X33795000Y43180000D01*
X33795000Y44407560D01*
X34020000Y44407560D01*
X34255317Y44451838D01*
X34471441Y44590910D01*
X34576951Y44745329D01*
X34934313Y44506548D01*
M02*
