M48
;DRILL file {KiCad 4.0.2-stable} date 22/09/2016 0:54:28
;FORMAT={3:3/ absolute / metric / suppress trailing zeros}
FMAT,2
METRIC,LZ
T1C0.400
T2C0.599
T3C0.800
T4C1.016
T5C1.200
T6C2.300
T7C3.200
%
G90
G05
M71
T1
X005207Y02667
X006477Y022479
X00762Y023368
X00762Y011049
X008001Y033528
X008509Y008128
X009017Y023495
X009017Y021209
X009271Y006858
X009525Y03175
X009906Y0254
X010668Y012446
X010795Y020701
X011811Y005842
X012065Y037465
X012065Y018415
X0127Y006858
X012827Y026924
X012954Y037465
X013335Y033655
X013335Y027559
X013335Y019812
X013589Y014224
X01397Y015875
X015748Y013843
X016002Y0254
X016002Y024511
X016002Y019177
X016002Y014732
X016129Y007874
X016256Y020574
X016764Y032131
X016764Y027305
X016764Y008636
X016891Y023495
X016891Y013335
X017018Y029591
X017018Y028321
X017272Y012192
X017653Y030353
X01778Y023495
X018161Y016891
X018161Y016002
X018288Y030988
X018288Y029591
X018288Y011557
X018669Y023495
X018796Y028321
X018796Y013335
X019304Y032893
X019304Y027686
X019558Y016002
X019685Y012954
X019939Y01905
X020701Y021209
X020828Y01905
X021082Y027686
X021209Y020447
X021336Y018415
X021463Y026416
X02159Y012065
X02159Y009017
X021844Y038481
X022098Y031242
X023241Y023749
X024003Y034798
X02413Y016002
X024257Y029591
X025019Y016002
X025146Y0381
X026035Y023622
X026289Y021209
X026289Y01778
X026289Y01651
X026797Y012954
X027051Y037465
X028575Y023495
X028702Y02159
X028829Y01651
X029464Y021209
X029591Y00762
X029845Y004191
X029972Y022225
X030099Y02413
X030099Y009017
X030861Y011938
X031369Y024511
X031369Y023622
X031369Y022225
X031877Y042037
X032004Y010795
X032131Y021844
X032131Y020701
X032258Y029464
X032258Y023622
X032766Y037719
X032766Y020193
X03302Y018923
X033528Y026543
X033528Y025654
X033528Y024765
X033528Y023876
X033528Y022987
X033528Y022098
X033528Y021209
X033655Y029464
X033655Y0127
X033655Y011303
X033909Y018923
X03429Y032893
X034798Y037338
X034798Y017653
X034798Y016764
X034798Y015875
X035052Y036195
X03556Y012192
X03556Y010668
X03683Y036703
X03683Y034925
X036957Y043561
X037465Y008763
X037592Y030988
X037846Y033401
X0381Y042418
X038481Y040894
X038481Y040005
X03937Y032131
X039751Y015621
X040005Y024638
X040386Y037592
X04064Y030226
X04064Y018542
X041783Y0381
X041783Y021717
X041783Y020828
X042418Y027051
X043815Y0381
X04445Y01524
X046482Y02286
X046482Y01524
T2
X023749Y011798
X023749Y0103
T3
X032766Y041116
X032766Y039116
X034766Y041116
X034766Y039116
X036766Y041116
X036766Y039116
T4
X001905Y040005
X001905Y036195
X001905Y032385
X001905Y028575
X001905Y024765
X001905Y020955
X001905Y017145
X001905Y013335
X001905Y009525
X004445Y040005
X004445Y036195
X004445Y032385
X004445Y028575
X004445Y024765
X004445Y020955
X004445Y017145
X004445Y013335
X004445Y009525
X006985Y040005
X006985Y036195
X006985Y032385
X006985Y028575
X006985Y024765
X006985Y020955
X006985Y017145
X006985Y013335
X006985Y009525
X02032Y006985
X02032Y004445
X02032Y001905
X022606Y04572
X02413Y006985
X02413Y004445
X02413Y001905
X025146Y04572
X027686Y04572
X039497Y011049
X04318Y040005
X04318Y036195
X04318Y032385
X04318Y028575
X04318Y024765
X04318Y020955
X04318Y017145
X04318Y013335
X04318Y009525
X04572Y040005
X04572Y036195
X04572Y032385
X04572Y028575
X04572Y024765
X04572Y020955
X04572Y017145
X04572Y013335
X04572Y009525
X04826Y040005
X04826Y036195
X04826Y032385
X04826Y028575
X04826Y024765
X04826Y020955
X04826Y017145
X04826Y013335
X04826Y009525
T5
X009525Y046355
X012065Y046355
X014605Y046355
X017145Y046355
X03302Y046355
X03556Y046355
X0381Y046355
X04064Y046355
T6
X02772Y002516
X04086Y002516
T7
X004Y046
X004Y004
X046Y046
X046Y004
T0
M30
