G04 #@! TF.FileFunction,Soldermask,Top*
%FSLAX46Y46*%
G04 Gerber Fmt 4.6, Leading zero omitted, Abs format (unit mm)*
G04 Created by KiCad (PCBNEW 4.0.2-stable) date 22/09/2016 0:52:13*
%MOMM*%
G01*
G04 APERTURE LIST*
%ADD10C,0.100000*%
%ADD11R,0.800000X0.750000*%
%ADD12R,0.750000X0.800000*%
%ADD13R,1.350000X1.350000*%
%ADD14C,1.350000*%
%ADD15R,0.797560X0.797560*%
%ADD16R,0.450000X0.590000*%
%ADD17R,2.032000X1.524000*%
%ADD18O,0.300000X0.850000*%
%ADD19O,0.850000X0.300000*%
%ADD20R,1.675000X1.675000*%
%ADD21R,1.727200X2.032000*%
%ADD22O,1.727200X2.032000*%
%ADD23R,0.400000X1.400000*%
%ADD24R,1.800000X1.900000*%
%ADD25R,2.300000X1.900000*%
%ADD26R,2.032000X1.727200*%
%ADD27O,2.032000X1.727200*%
%ADD28R,2.000000X2.600000*%
%ADD29O,2.000000X2.600000*%
%ADD30R,2.235200X2.235200*%
%ADD31R,1.120000X2.880000*%
%ADD32C,3.000000*%
%ADD33R,1.143000X0.508000*%
%ADD34R,0.500000X0.900000*%
%ADD35R,0.900000X0.500000*%
%ADD36R,1.600000X2.180000*%
%ADD37R,1.550000X0.300000*%
%ADD38R,0.300000X1.550000*%
%ADD39R,2.000000X0.600000*%
%ADD40C,1.000760*%
%ADD41C,3.200000*%
G04 APERTURE END LIST*
D10*
X0Y50000000D02*
X0Y0D01*
X50000000Y50000000D02*
X0Y50000000D01*
X50000000Y0D02*
X50000000Y50000000D01*
X0Y0D02*
X50000000Y0D01*
D11*
X22340000Y11303000D03*
X20840000Y11303000D03*
X22340000Y12827000D03*
X20840000Y12827000D03*
D12*
X9906000Y21578000D03*
X9906000Y20078000D03*
X26797000Y8624000D03*
X26797000Y7124000D03*
X11684000Y29984000D03*
X11684000Y31484000D03*
X28448000Y8624000D03*
X28448000Y7124000D03*
X11684000Y28309000D03*
X11684000Y26809000D03*
D13*
X32766000Y39116000D03*
D14*
X34766000Y39116000D03*
X36766000Y39116000D03*
X32766000Y41116000D03*
X34766000Y41116000D03*
X36766000Y41116000D03*
D15*
X9601200Y34798000D03*
X11099800Y34798000D03*
D16*
X29845000Y40425000D03*
X29845000Y38315000D03*
D17*
X38481000Y14097000D03*
X38481000Y17399000D03*
D15*
X9537700Y38608000D03*
X11036300Y38608000D03*
X9537700Y40259000D03*
X11036300Y40259000D03*
X9537700Y41910000D03*
X11036300Y41910000D03*
X38620700Y34544000D03*
X40119300Y34544000D03*
X38620700Y32893000D03*
X40119300Y32893000D03*
D18*
X11835000Y7710000D03*
X12335000Y7710000D03*
X12835000Y7710000D03*
X13335000Y7710000D03*
X13835000Y7710000D03*
X14335000Y7710000D03*
X14835000Y7710000D03*
D19*
X15785000Y8660000D03*
X15785000Y9160000D03*
X15785000Y9660000D03*
X15785000Y10160000D03*
X15785000Y10660000D03*
X15785000Y11160000D03*
X15785000Y11660000D03*
D18*
X14835000Y12610000D03*
X14335000Y12610000D03*
X13835000Y12610000D03*
X13335000Y12610000D03*
X12835000Y12610000D03*
X12335000Y12610000D03*
X11835000Y12610000D03*
D19*
X10885000Y11660000D03*
X10885000Y11160000D03*
X10885000Y10660000D03*
X10885000Y10160000D03*
X10885000Y9660000D03*
X10885000Y9160000D03*
X10885000Y8660000D03*
D20*
X14172500Y10997500D03*
X12497500Y10997500D03*
X14172500Y9322500D03*
X12497500Y9322500D03*
D21*
X22606000Y45720000D03*
D22*
X25146000Y45720000D03*
X27686000Y45720000D03*
D21*
X1905000Y40005000D03*
D22*
X4445000Y40005000D03*
X6985000Y40005000D03*
D21*
X1905000Y36195000D03*
D22*
X4445000Y36195000D03*
X6985000Y36195000D03*
D21*
X1905000Y32385000D03*
D22*
X4445000Y32385000D03*
X6985000Y32385000D03*
D21*
X1905000Y28575000D03*
D22*
X4445000Y28575000D03*
X6985000Y28575000D03*
D21*
X1905000Y24765000D03*
D22*
X4445000Y24765000D03*
X6985000Y24765000D03*
D21*
X1905000Y20955000D03*
D22*
X4445000Y20955000D03*
X6985000Y20955000D03*
D21*
X1905000Y17145000D03*
D22*
X4445000Y17145000D03*
X6985000Y17145000D03*
D21*
X1905000Y13335000D03*
D22*
X4445000Y13335000D03*
X6985000Y13335000D03*
D23*
X11400000Y4445000D03*
X12050000Y4445000D03*
X12700000Y4445000D03*
X13350000Y4445000D03*
X14000000Y4445000D03*
D24*
X11550000Y1595000D03*
X13850000Y1595000D03*
D25*
X8950000Y1595000D03*
X16450000Y1595000D03*
D21*
X1905000Y9525000D03*
D22*
X4445000Y9525000D03*
X6985000Y9525000D03*
D26*
X20320000Y1905000D03*
D27*
X20320000Y4445000D03*
X20320000Y6985000D03*
D26*
X24130000Y1905000D03*
D27*
X24130000Y4445000D03*
X24130000Y6985000D03*
D21*
X48260000Y9525000D03*
D22*
X45720000Y9525000D03*
X43180000Y9525000D03*
D21*
X48260000Y13335000D03*
D22*
X45720000Y13335000D03*
X43180000Y13335000D03*
D21*
X48260000Y17145000D03*
D22*
X45720000Y17145000D03*
X43180000Y17145000D03*
D21*
X48260000Y20955000D03*
D22*
X45720000Y20955000D03*
X43180000Y20955000D03*
D21*
X48260000Y24765000D03*
D22*
X45720000Y24765000D03*
X43180000Y24765000D03*
D21*
X48260000Y28575000D03*
D22*
X45720000Y28575000D03*
X43180000Y28575000D03*
D21*
X48260000Y32385000D03*
D22*
X45720000Y32385000D03*
X43180000Y32385000D03*
D21*
X48260000Y36195000D03*
D22*
X45720000Y36195000D03*
X43180000Y36195000D03*
D21*
X48260000Y40005000D03*
D22*
X45720000Y40005000D03*
X43180000Y40005000D03*
D28*
X33020000Y46355000D03*
D29*
X35560000Y46355000D03*
X38100000Y46355000D03*
X40640000Y46355000D03*
D28*
X9525000Y46355000D03*
D29*
X12065000Y46355000D03*
X14605000Y46355000D03*
X17145000Y46355000D03*
D30*
X39497000Y11049000D03*
D31*
X30790000Y6096000D03*
X33290000Y6096000D03*
X35290000Y6096000D03*
X37790000Y6096000D03*
D32*
X27720000Y2516000D03*
X40860000Y2516000D03*
D33*
X21590000Y39370000D03*
X21590000Y40640000D03*
X21590000Y41910000D03*
X21590000Y43180000D03*
X27940000Y43180000D03*
X27940000Y41910000D03*
X27940000Y40640000D03*
X27940000Y39370000D03*
D34*
X11100500Y33147000D03*
X9600500Y33147000D03*
D35*
X17399000Y9537000D03*
X17399000Y11037000D03*
X19177000Y9537000D03*
X19177000Y11037000D03*
X9906000Y15736000D03*
X9906000Y14236000D03*
X9906000Y18530000D03*
X9906000Y17030000D03*
D34*
X39255000Y40005000D03*
X40755000Y40005000D03*
X39255000Y41910000D03*
X40755000Y41910000D03*
D35*
X29845000Y41795000D03*
X29845000Y43295000D03*
X40640000Y13474000D03*
X40640000Y14974000D03*
X40640000Y16268000D03*
X40640000Y17768000D03*
X9906000Y22872000D03*
X9906000Y24372000D03*
D34*
X12331000Y38608000D03*
X13831000Y38608000D03*
D35*
X34671000Y11315000D03*
X34671000Y12815000D03*
X36449000Y11315000D03*
X36449000Y12815000D03*
D34*
X12331000Y40259000D03*
X13831000Y40259000D03*
X12331000Y41910000D03*
X13831000Y41910000D03*
X40120000Y36195000D03*
X38620000Y36195000D03*
X40120000Y31242000D03*
X38620000Y31242000D03*
X20840000Y9652000D03*
X22340000Y9652000D03*
D36*
X39245320Y28986430D03*
X39240680Y19781570D03*
D37*
X14700000Y34150000D03*
X14700000Y33650000D03*
X14700000Y33150000D03*
X14700000Y32650000D03*
X14700000Y32150000D03*
X14700000Y31650000D03*
X14700000Y31150000D03*
X14700000Y30650000D03*
X14700000Y30150000D03*
X14700000Y29650000D03*
X14700000Y29150000D03*
X14700000Y28650000D03*
X14700000Y28150000D03*
X14700000Y27650000D03*
X14700000Y27150000D03*
X14700000Y26650000D03*
X14700000Y26150000D03*
X14700000Y25650000D03*
X14700000Y25150000D03*
X14700000Y24650000D03*
X14700000Y24150000D03*
X14700000Y23650000D03*
X14700000Y23150000D03*
X14700000Y22650000D03*
X14700000Y22150000D03*
X14700000Y21650000D03*
X14700000Y21150000D03*
X14700000Y20650000D03*
X14700000Y20150000D03*
X14700000Y19650000D03*
X14700000Y19150000D03*
X14700000Y18650000D03*
X14700000Y18150000D03*
X14700000Y17650000D03*
X14700000Y17150000D03*
X14700000Y16650000D03*
D38*
X16650000Y14700000D03*
X17150000Y14700000D03*
X17650000Y14700000D03*
X18150000Y14700000D03*
X18650000Y14700000D03*
X19150000Y14700000D03*
X19650000Y14700000D03*
X20150000Y14700000D03*
X20650000Y14700000D03*
X21150000Y14700000D03*
X21650000Y14700000D03*
X22150000Y14700000D03*
X22650000Y14700000D03*
X23150000Y14700000D03*
X23650000Y14700000D03*
X24150000Y14700000D03*
X24650000Y14700000D03*
X25150000Y14700000D03*
X25650000Y14700000D03*
X26150000Y14700000D03*
X26650000Y14700000D03*
X27150000Y14700000D03*
X27650000Y14700000D03*
X28150000Y14700000D03*
X28650000Y14700000D03*
X29150000Y14700000D03*
X29650000Y14700000D03*
X30150000Y14700000D03*
X30650000Y14700000D03*
X31150000Y14700000D03*
X31650000Y14700000D03*
X32150000Y14700000D03*
X32650000Y14700000D03*
X33150000Y14700000D03*
X33650000Y14700000D03*
X34150000Y14700000D03*
D37*
X36100000Y16650000D03*
X36100000Y17150000D03*
X36100000Y17650000D03*
X36100000Y18150000D03*
X36100000Y18650000D03*
X36100000Y19150000D03*
X36100000Y19650000D03*
X36100000Y20150000D03*
X36100000Y20650000D03*
X36100000Y21150000D03*
X36100000Y21650000D03*
X36100000Y22150000D03*
X36100000Y22650000D03*
X36100000Y23150000D03*
X36100000Y23650000D03*
X36100000Y24150000D03*
X36100000Y24650000D03*
X36100000Y25150000D03*
X36100000Y25650000D03*
X36100000Y26150000D03*
X36100000Y26650000D03*
X36100000Y27150000D03*
X36100000Y27650000D03*
X36100000Y28150000D03*
X36100000Y28650000D03*
X36100000Y29150000D03*
X36100000Y29650000D03*
X36100000Y30150000D03*
X36100000Y30650000D03*
X36100000Y31150000D03*
X36100000Y31650000D03*
X36100000Y32150000D03*
X36100000Y32650000D03*
X36100000Y33150000D03*
X36100000Y33650000D03*
X36100000Y34150000D03*
D38*
X34150000Y36100000D03*
X33650000Y36100000D03*
X33150000Y36100000D03*
X32650000Y36100000D03*
X32150000Y36100000D03*
X31650000Y36100000D03*
X31150000Y36100000D03*
X30650000Y36100000D03*
X30150000Y36100000D03*
X29650000Y36100000D03*
X29150000Y36100000D03*
X28650000Y36100000D03*
X28150000Y36100000D03*
X27650000Y36100000D03*
X27150000Y36100000D03*
X26650000Y36100000D03*
X26150000Y36100000D03*
X25650000Y36100000D03*
X25150000Y36100000D03*
X24650000Y36100000D03*
X24150000Y36100000D03*
X23650000Y36100000D03*
X23150000Y36100000D03*
X22650000Y36100000D03*
X22150000Y36100000D03*
X21650000Y36100000D03*
X21150000Y36100000D03*
X20650000Y36100000D03*
X20150000Y36100000D03*
X19650000Y36100000D03*
X19150000Y36100000D03*
X18650000Y36100000D03*
X18150000Y36100000D03*
X17650000Y36100000D03*
X17150000Y36100000D03*
X16650000Y36100000D03*
D34*
X9640000Y5715000D03*
X8140000Y5715000D03*
X15760000Y5715000D03*
X17260000Y5715000D03*
D35*
X36449000Y8521000D03*
X36449000Y10021000D03*
X34671000Y8521000D03*
X34671000Y10021000D03*
D39*
X12319000Y16256000D03*
X12319000Y17456000D03*
X12319000Y15056000D03*
D40*
X23749000Y11798300D03*
X23749000Y10299700D03*
D41*
X4000000Y46000000D03*
X46000000Y46000000D03*
X4000000Y4000000D03*
X46000000Y4000000D03*
M02*
