G04 #@! TF.FileFunction,Legend,Top*
%FSLAX46Y46*%
G04 Gerber Fmt 4.6, Leading zero omitted, Abs format (unit mm)*
G04 Created by KiCad (PCBNEW 4.0.2-stable) date 22/09/2016 0:52:13*
%MOMM*%
G01*
G04 APERTURE LIST*
%ADD10C,0.100000*%
%ADD11C,0.150000*%
%ADD12C,0.080000*%
%ADD13R,0.800000X0.750000*%
%ADD14R,0.750000X0.800000*%
%ADD15R,1.350000X1.350000*%
%ADD16C,1.350000*%
%ADD17R,0.797560X0.797560*%
%ADD18R,0.450000X0.590000*%
%ADD19R,2.032000X1.524000*%
%ADD20O,0.300000X0.850000*%
%ADD21O,0.850000X0.300000*%
%ADD22R,1.675000X1.675000*%
%ADD23R,1.727200X2.032000*%
%ADD24O,1.727200X2.032000*%
%ADD25R,0.400000X1.400000*%
%ADD26R,1.800000X1.900000*%
%ADD27R,2.300000X1.900000*%
%ADD28R,2.032000X1.727200*%
%ADD29O,2.032000X1.727200*%
%ADD30R,2.000000X2.600000*%
%ADD31O,2.000000X2.600000*%
%ADD32R,2.235200X2.235200*%
%ADD33R,1.120000X2.880000*%
%ADD34C,3.000000*%
%ADD35R,1.143000X0.508000*%
%ADD36R,0.500000X0.900000*%
%ADD37R,0.900000X0.500000*%
%ADD38R,1.600000X2.180000*%
%ADD39R,1.550000X0.300000*%
%ADD40R,0.300000X1.550000*%
%ADD41R,2.000000X0.600000*%
%ADD42C,1.000760*%
%ADD43C,3.200000*%
G04 APERTURE END LIST*
D10*
X0Y50000000D02*
X0Y0D01*
X50000000Y50000000D02*
X0Y50000000D01*
X50000000Y0D02*
X50000000Y50000000D01*
X0Y0D02*
X50000000Y0D01*
D11*
X21940000Y10703000D02*
X21240000Y10703000D01*
X21240000Y11903000D02*
X21940000Y11903000D01*
X21940000Y12227000D02*
X21240000Y12227000D01*
X21240000Y13427000D02*
X21940000Y13427000D01*
X10506000Y21178000D02*
X10506000Y20478000D01*
X9306000Y20478000D02*
X9306000Y21178000D01*
X27397000Y8224000D02*
X27397000Y7524000D01*
X26197000Y7524000D02*
X26197000Y8224000D01*
X11084000Y30384000D02*
X11084000Y31084000D01*
X12284000Y31084000D02*
X12284000Y30384000D01*
X29048000Y8224000D02*
X29048000Y7524000D01*
X27848000Y7524000D02*
X27848000Y8224000D01*
X12284000Y27909000D02*
X12284000Y27209000D01*
X11084000Y27209000D02*
X11084000Y27909000D01*
X33766000Y38116000D02*
X33766000Y40116000D01*
X33766000Y40116000D02*
X31766000Y40116000D01*
X31766000Y40116000D02*
X31766000Y42116000D01*
X31766000Y42116000D02*
X33766000Y42116000D01*
X33766000Y42116000D02*
X37766000Y42116000D01*
X37766000Y42116000D02*
X37766000Y38116000D01*
X37766000Y38116000D02*
X33766000Y38116000D01*
X32766000Y37616000D02*
X31266000Y37616000D01*
X31266000Y37616000D02*
X31266000Y39116000D01*
X11450500Y35348000D02*
X9550500Y35348000D01*
X11450500Y34248000D02*
X9550500Y34248000D01*
X10550500Y34798000D02*
X10100500Y34798000D01*
X10600500Y34548000D02*
X10600500Y35048000D01*
X10600500Y34798000D02*
X10350500Y34548000D01*
X10350500Y34548000D02*
X10350500Y35048000D01*
X10350500Y35048000D02*
X10600500Y34798000D01*
X29845000Y39120000D02*
X29845000Y38870000D01*
X29845000Y39620000D02*
X29845000Y39870000D01*
X29845000Y39620000D02*
X30195000Y39120000D01*
X30195000Y39120000D02*
X29495000Y39120000D01*
X29495000Y39120000D02*
X29845000Y39620000D01*
X30195000Y39620000D02*
X29495000Y39620000D01*
X29045000Y40670000D02*
X29045000Y38270000D01*
X30645000Y40670000D02*
X30645000Y38270000D01*
X37338000Y13208000D02*
X37338000Y12954000D01*
X37338000Y12954000D02*
X39624000Y12954000D01*
X39624000Y12954000D02*
X39624000Y13208000D01*
X37338000Y13208000D02*
X39624000Y13208000D01*
X39624000Y13208000D02*
X39624000Y14859000D01*
X37338000Y16637000D02*
X37338000Y18288000D01*
X37338000Y18288000D02*
X39624000Y18288000D01*
X39624000Y18288000D02*
X39624000Y16637000D01*
X37338000Y14859000D02*
X37338000Y13208000D01*
X11387000Y39158000D02*
X9487000Y39158000D01*
X11387000Y38058000D02*
X9487000Y38058000D01*
X10487000Y38608000D02*
X10037000Y38608000D01*
X10537000Y38358000D02*
X10537000Y38858000D01*
X10537000Y38608000D02*
X10287000Y38358000D01*
X10287000Y38358000D02*
X10287000Y38858000D01*
X10287000Y38858000D02*
X10537000Y38608000D01*
X11387000Y40809000D02*
X9487000Y40809000D01*
X11387000Y39709000D02*
X9487000Y39709000D01*
X10487000Y40259000D02*
X10037000Y40259000D01*
X10537000Y40009000D02*
X10537000Y40509000D01*
X10537000Y40259000D02*
X10287000Y40009000D01*
X10287000Y40009000D02*
X10287000Y40509000D01*
X10287000Y40509000D02*
X10537000Y40259000D01*
X11387000Y42460000D02*
X9487000Y42460000D01*
X11387000Y41360000D02*
X9487000Y41360000D01*
X10487000Y41910000D02*
X10037000Y41910000D01*
X10537000Y41660000D02*
X10537000Y42160000D01*
X10537000Y41910000D02*
X10287000Y41660000D01*
X10287000Y41660000D02*
X10287000Y42160000D01*
X10287000Y42160000D02*
X10537000Y41910000D01*
X40470000Y35094000D02*
X38570000Y35094000D01*
X40470000Y33994000D02*
X38570000Y33994000D01*
X39570000Y34544000D02*
X39120000Y34544000D01*
X39620000Y34294000D02*
X39620000Y34794000D01*
X39620000Y34544000D02*
X39370000Y34294000D01*
X39370000Y34294000D02*
X39370000Y34794000D01*
X39370000Y34794000D02*
X39620000Y34544000D01*
X40470000Y33443000D02*
X38570000Y33443000D01*
X40470000Y32343000D02*
X38570000Y32343000D01*
X39570000Y32893000D02*
X39120000Y32893000D01*
X39620000Y32643000D02*
X39620000Y33143000D01*
X39620000Y32893000D02*
X39370000Y32643000D01*
X39370000Y32643000D02*
X39370000Y33143000D01*
X39370000Y33143000D02*
X39620000Y32893000D01*
X10710000Y12785000D02*
X11460000Y12785000D01*
X15960000Y7535000D02*
X15210000Y7535000D01*
X15960000Y12785000D02*
X15210000Y12785000D01*
X10710000Y7535000D02*
X10710000Y8285000D01*
X15960000Y7535000D02*
X15960000Y8285000D01*
X15960000Y12785000D02*
X15960000Y12035000D01*
X10710000Y12785000D02*
X10710000Y12035000D01*
X21056000Y44420000D02*
X22606000Y44420000D01*
X21056000Y45720000D02*
X21056000Y44420000D01*
X22479000Y49911000D02*
X22479000Y55753000D01*
X22479000Y55753000D02*
X22733000Y55753000D01*
X22733000Y55753000D02*
X22733000Y49911000D01*
X22733000Y49911000D02*
X22606000Y49911000D01*
X22606000Y49911000D02*
X22606000Y55753000D01*
X22352000Y47244000D02*
X22352000Y46863000D01*
X22860000Y47244000D02*
X22860000Y46863000D01*
X24892000Y47244000D02*
X24892000Y46863000D01*
X25400000Y47244000D02*
X25400000Y46863000D01*
X27432000Y47244000D02*
X27432000Y46863000D01*
X27940000Y47244000D02*
X27940000Y46863000D01*
X23876000Y49784000D02*
X21336000Y49784000D01*
X22860000Y55880000D02*
X22860000Y49784000D01*
X22352000Y55880000D02*
X22860000Y55880000D01*
X22352000Y49784000D02*
X22352000Y55880000D01*
X23876000Y47244000D02*
X23876000Y49784000D01*
X21336000Y47244000D02*
X23876000Y47244000D01*
X21336000Y47244000D02*
X21336000Y49784000D01*
X26416000Y47244000D02*
X26416000Y49784000D01*
X26416000Y47244000D02*
X28956000Y47244000D01*
X27432000Y49784000D02*
X27432000Y55880000D01*
X27432000Y55880000D02*
X27940000Y55880000D01*
X27940000Y55880000D02*
X27940000Y49784000D01*
X28956000Y49784000D02*
X26416000Y49784000D01*
X26416000Y49784000D02*
X23876000Y49784000D01*
X25400000Y55880000D02*
X25400000Y49784000D01*
X24892000Y55880000D02*
X25400000Y55880000D01*
X24892000Y49784000D02*
X24892000Y55880000D01*
X26416000Y47244000D02*
X26416000Y49784000D01*
X23876000Y47244000D02*
X26416000Y47244000D01*
X23876000Y47244000D02*
X23876000Y49784000D01*
X28956000Y47244000D02*
X28956000Y49784000D01*
X3175000Y38735000D02*
X8255000Y38735000D01*
X8255000Y38735000D02*
X8255000Y41275000D01*
X8255000Y41275000D02*
X3175000Y41275000D01*
X355000Y41555000D02*
X1905000Y41555000D01*
X3175000Y41275000D02*
X3175000Y38735000D01*
X1905000Y38455000D02*
X355000Y38455000D01*
X355000Y38455000D02*
X355000Y41555000D01*
X3175000Y34925000D02*
X8255000Y34925000D01*
X8255000Y34925000D02*
X8255000Y37465000D01*
X8255000Y37465000D02*
X3175000Y37465000D01*
X355000Y37745000D02*
X1905000Y37745000D01*
X3175000Y37465000D02*
X3175000Y34925000D01*
X1905000Y34645000D02*
X355000Y34645000D01*
X355000Y34645000D02*
X355000Y37745000D01*
X3175000Y31115000D02*
X8255000Y31115000D01*
X8255000Y31115000D02*
X8255000Y33655000D01*
X8255000Y33655000D02*
X3175000Y33655000D01*
X355000Y33935000D02*
X1905000Y33935000D01*
X3175000Y33655000D02*
X3175000Y31115000D01*
X1905000Y30835000D02*
X355000Y30835000D01*
X355000Y30835000D02*
X355000Y33935000D01*
X3175000Y27305000D02*
X8255000Y27305000D01*
X8255000Y27305000D02*
X8255000Y29845000D01*
X8255000Y29845000D02*
X3175000Y29845000D01*
X355000Y30125000D02*
X1905000Y30125000D01*
X3175000Y29845000D02*
X3175000Y27305000D01*
X1905000Y27025000D02*
X355000Y27025000D01*
X355000Y27025000D02*
X355000Y30125000D01*
X3175000Y23495000D02*
X8255000Y23495000D01*
X8255000Y23495000D02*
X8255000Y26035000D01*
X8255000Y26035000D02*
X3175000Y26035000D01*
X355000Y26315000D02*
X1905000Y26315000D01*
X3175000Y26035000D02*
X3175000Y23495000D01*
X1905000Y23215000D02*
X355000Y23215000D01*
X355000Y23215000D02*
X355000Y26315000D01*
X3175000Y19685000D02*
X8255000Y19685000D01*
X8255000Y19685000D02*
X8255000Y22225000D01*
X8255000Y22225000D02*
X3175000Y22225000D01*
X355000Y22505000D02*
X1905000Y22505000D01*
X3175000Y22225000D02*
X3175000Y19685000D01*
X1905000Y19405000D02*
X355000Y19405000D01*
X355000Y19405000D02*
X355000Y22505000D01*
X3175000Y15875000D02*
X8255000Y15875000D01*
X8255000Y15875000D02*
X8255000Y18415000D01*
X8255000Y18415000D02*
X3175000Y18415000D01*
X355000Y18695000D02*
X1905000Y18695000D01*
X3175000Y18415000D02*
X3175000Y15875000D01*
X1905000Y15595000D02*
X355000Y15595000D01*
X355000Y15595000D02*
X355000Y18695000D01*
X3175000Y12065000D02*
X8255000Y12065000D01*
X8255000Y12065000D02*
X8255000Y14605000D01*
X8255000Y14605000D02*
X3175000Y14605000D01*
X355000Y14885000D02*
X1905000Y14885000D01*
X3175000Y14605000D02*
X3175000Y12065000D01*
X1905000Y11785000D02*
X355000Y11785000D01*
X355000Y11785000D02*
X355000Y14885000D01*
D12*
X16446500Y508000D02*
X16446500Y-381000D01*
X8953500Y508000D02*
X8953500Y-381000D01*
X8953500Y4445000D02*
X8953500Y2667000D01*
X8953500Y4445000D02*
X11049000Y4445000D01*
X16446500Y4445000D02*
X16446500Y2667000D01*
X16446500Y4445000D02*
X14351000Y4445000D01*
D11*
X3175000Y8255000D02*
X8255000Y8255000D01*
X8255000Y8255000D02*
X8255000Y10795000D01*
X8255000Y10795000D02*
X3175000Y10795000D01*
X355000Y11075000D02*
X1905000Y11075000D01*
X3175000Y10795000D02*
X3175000Y8255000D01*
X1905000Y7975000D02*
X355000Y7975000D01*
X355000Y7975000D02*
X355000Y11075000D01*
X21590000Y3175000D02*
X21590000Y8255000D01*
X21590000Y8255000D02*
X19050000Y8255000D01*
X19050000Y8255000D02*
X19050000Y3175000D01*
X18770000Y355000D02*
X18770000Y1905000D01*
X19050000Y3175000D02*
X21590000Y3175000D01*
X21870000Y1905000D02*
X21870000Y355000D01*
X21870000Y355000D02*
X18770000Y355000D01*
X25400000Y3175000D02*
X25400000Y8255000D01*
X25400000Y8255000D02*
X22860000Y8255000D01*
X22860000Y8255000D02*
X22860000Y3175000D01*
X22580000Y355000D02*
X22580000Y1905000D01*
X22860000Y3175000D02*
X25400000Y3175000D01*
X25680000Y1905000D02*
X25680000Y355000D01*
X25680000Y355000D02*
X22580000Y355000D01*
X46990000Y10795000D02*
X41910000Y10795000D01*
X41910000Y10795000D02*
X41910000Y8255000D01*
X41910000Y8255000D02*
X46990000Y8255000D01*
X49810000Y7975000D02*
X48260000Y7975000D01*
X46990000Y8255000D02*
X46990000Y10795000D01*
X48260000Y11075000D02*
X49810000Y11075000D01*
X49810000Y11075000D02*
X49810000Y7975000D01*
X46990000Y14605000D02*
X41910000Y14605000D01*
X41910000Y14605000D02*
X41910000Y12065000D01*
X41910000Y12065000D02*
X46990000Y12065000D01*
X49810000Y11785000D02*
X48260000Y11785000D01*
X46990000Y12065000D02*
X46990000Y14605000D01*
X48260000Y14885000D02*
X49810000Y14885000D01*
X49810000Y14885000D02*
X49810000Y11785000D01*
X46990000Y18415000D02*
X41910000Y18415000D01*
X41910000Y18415000D02*
X41910000Y15875000D01*
X41910000Y15875000D02*
X46990000Y15875000D01*
X49810000Y15595000D02*
X48260000Y15595000D01*
X46990000Y15875000D02*
X46990000Y18415000D01*
X48260000Y18695000D02*
X49810000Y18695000D01*
X49810000Y18695000D02*
X49810000Y15595000D01*
X46990000Y22225000D02*
X41910000Y22225000D01*
X41910000Y22225000D02*
X41910000Y19685000D01*
X41910000Y19685000D02*
X46990000Y19685000D01*
X49810000Y19405000D02*
X48260000Y19405000D01*
X46990000Y19685000D02*
X46990000Y22225000D01*
X48260000Y22505000D02*
X49810000Y22505000D01*
X49810000Y22505000D02*
X49810000Y19405000D01*
X46990000Y26035000D02*
X41910000Y26035000D01*
X41910000Y26035000D02*
X41910000Y23495000D01*
X41910000Y23495000D02*
X46990000Y23495000D01*
X49810000Y23215000D02*
X48260000Y23215000D01*
X46990000Y23495000D02*
X46990000Y26035000D01*
X48260000Y26315000D02*
X49810000Y26315000D01*
X49810000Y26315000D02*
X49810000Y23215000D01*
X46990000Y29845000D02*
X41910000Y29845000D01*
X41910000Y29845000D02*
X41910000Y27305000D01*
X41910000Y27305000D02*
X46990000Y27305000D01*
X49810000Y27025000D02*
X48260000Y27025000D01*
X46990000Y27305000D02*
X46990000Y29845000D01*
X48260000Y30125000D02*
X49810000Y30125000D01*
X49810000Y30125000D02*
X49810000Y27025000D01*
X46990000Y33655000D02*
X41910000Y33655000D01*
X41910000Y33655000D02*
X41910000Y31115000D01*
X41910000Y31115000D02*
X46990000Y31115000D01*
X49810000Y30835000D02*
X48260000Y30835000D01*
X46990000Y31115000D02*
X46990000Y33655000D01*
X48260000Y33935000D02*
X49810000Y33935000D01*
X49810000Y33935000D02*
X49810000Y30835000D01*
X46990000Y37465000D02*
X41910000Y37465000D01*
X41910000Y37465000D02*
X41910000Y34925000D01*
X41910000Y34925000D02*
X46990000Y34925000D01*
X49810000Y34645000D02*
X48260000Y34645000D01*
X46990000Y34925000D02*
X46990000Y37465000D01*
X48260000Y37745000D02*
X49810000Y37745000D01*
X49810000Y37745000D02*
X49810000Y34645000D01*
X46990000Y41275000D02*
X41910000Y41275000D01*
X41910000Y41275000D02*
X41910000Y38735000D01*
X41910000Y38735000D02*
X46990000Y38735000D01*
X49810000Y38455000D02*
X48260000Y38455000D01*
X46990000Y38735000D02*
X46990000Y41275000D01*
X48260000Y41555000D02*
X49810000Y41555000D01*
X49810000Y41555000D02*
X49810000Y38455000D01*
X31650000Y49375000D02*
X31650000Y43375000D01*
X31650000Y43375000D02*
X42010000Y43375000D01*
X42010000Y43375000D02*
X42010000Y49375000D01*
X42010000Y49375000D02*
X31650000Y49375000D01*
X33020000Y43375000D02*
X33020000Y44375000D01*
X33020000Y44375000D02*
X40640000Y44375000D01*
X40640000Y44375000D02*
X40640000Y43375000D01*
X33020000Y44375000D02*
X33270000Y44805000D01*
X33270000Y44805000D02*
X40390000Y44805000D01*
X40390000Y44805000D02*
X40640000Y44375000D01*
X33270000Y43375000D02*
X33270000Y44375000D01*
X40390000Y43375000D02*
X40390000Y44375000D01*
X32220000Y49375000D02*
X32220000Y48755000D01*
X32220000Y48755000D02*
X33820000Y48755000D01*
X33820000Y48755000D02*
X33820000Y49375000D01*
X34760000Y49375000D02*
X34760000Y48755000D01*
X34760000Y48755000D02*
X36360000Y48755000D01*
X36360000Y48755000D02*
X36360000Y49375000D01*
X37300000Y49375000D02*
X37300000Y48755000D01*
X37300000Y48755000D02*
X38900000Y48755000D01*
X38900000Y48755000D02*
X38900000Y49375000D01*
X39840000Y49375000D02*
X39840000Y48755000D01*
X39840000Y48755000D02*
X41440000Y48755000D01*
X41440000Y48755000D02*
X41440000Y49375000D01*
X8155000Y49375000D02*
X8155000Y43375000D01*
X8155000Y43375000D02*
X18515000Y43375000D01*
X18515000Y43375000D02*
X18515000Y49375000D01*
X18515000Y49375000D02*
X8155000Y49375000D01*
X9525000Y43375000D02*
X9525000Y44375000D01*
X9525000Y44375000D02*
X17145000Y44375000D01*
X17145000Y44375000D02*
X17145000Y43375000D01*
X9525000Y44375000D02*
X9775000Y44805000D01*
X9775000Y44805000D02*
X16895000Y44805000D01*
X16895000Y44805000D02*
X17145000Y44375000D01*
X9775000Y43375000D02*
X9775000Y44375000D01*
X16895000Y43375000D02*
X16895000Y44375000D01*
X8725000Y49375000D02*
X8725000Y48755000D01*
X8725000Y48755000D02*
X10325000Y48755000D01*
X10325000Y48755000D02*
X10325000Y49375000D01*
X11265000Y49375000D02*
X11265000Y48755000D01*
X11265000Y48755000D02*
X12865000Y48755000D01*
X12865000Y48755000D02*
X12865000Y49375000D01*
X13805000Y49375000D02*
X13805000Y48755000D01*
X13805000Y48755000D02*
X15405000Y48755000D01*
X15405000Y48755000D02*
X15405000Y49375000D01*
X16345000Y49375000D02*
X16345000Y48755000D01*
X16345000Y48755000D02*
X17945000Y48755000D01*
X17945000Y48755000D02*
X17945000Y49375000D01*
X41047000Y12599000D02*
X41047000Y11049000D01*
X37947000Y11049000D02*
X37947000Y12599000D01*
X37947000Y12599000D02*
X41047000Y12599000D01*
X38227000Y9779000D02*
X40767000Y9779000D01*
D12*
X40830500Y6223000D02*
X40830500Y4191000D01*
X30099000Y6223000D02*
X27749500Y6223000D01*
X27749500Y6223000D02*
X27749500Y4191000D01*
X40830500Y6223000D02*
X38481000Y6223000D01*
D11*
X22479000Y38735000D02*
X22479000Y43815000D01*
X22479000Y43815000D02*
X27051000Y43815000D01*
X27051000Y43815000D02*
X27051000Y38735000D01*
X27051000Y38735000D02*
X22479000Y38735000D01*
X24003000Y38735000D02*
X24003000Y39243000D01*
X24003000Y39243000D02*
X25273000Y39243000D01*
X25273000Y39243000D02*
X25273000Y38735000D01*
X9850500Y33822000D02*
X10850500Y33822000D01*
X10850500Y32472000D02*
X9850500Y32472000D01*
X18074000Y10787000D02*
X18074000Y9787000D01*
X16724000Y9787000D02*
X16724000Y10787000D01*
X19852000Y10787000D02*
X19852000Y9787000D01*
X18502000Y9787000D02*
X18502000Y10787000D01*
X9231000Y14486000D02*
X9231000Y15486000D01*
X10581000Y15486000D02*
X10581000Y14486000D01*
X9231000Y17280000D02*
X9231000Y18280000D01*
X10581000Y18280000D02*
X10581000Y17280000D01*
X40505000Y39330000D02*
X39505000Y39330000D01*
X39505000Y40680000D02*
X40505000Y40680000D01*
X40505000Y41235000D02*
X39505000Y41235000D01*
X39505000Y42585000D02*
X40505000Y42585000D01*
X30520000Y43045000D02*
X30520000Y42045000D01*
X29170000Y42045000D02*
X29170000Y43045000D01*
X41315000Y14724000D02*
X41315000Y13724000D01*
X39965000Y13724000D02*
X39965000Y14724000D01*
X41315000Y17518000D02*
X41315000Y16518000D01*
X39965000Y16518000D02*
X39965000Y17518000D01*
X10581000Y24122000D02*
X10581000Y23122000D01*
X9231000Y23122000D02*
X9231000Y24122000D01*
X13581000Y37933000D02*
X12581000Y37933000D01*
X12581000Y39283000D02*
X13581000Y39283000D01*
X35346000Y12565000D02*
X35346000Y11565000D01*
X33996000Y11565000D02*
X33996000Y12565000D01*
X37124000Y12565000D02*
X37124000Y11565000D01*
X35774000Y11565000D02*
X35774000Y12565000D01*
X13581000Y39584000D02*
X12581000Y39584000D01*
X12581000Y40934000D02*
X13581000Y40934000D01*
X13581000Y41235000D02*
X12581000Y41235000D01*
X12581000Y42585000D02*
X13581000Y42585000D01*
X38870000Y36870000D02*
X39870000Y36870000D01*
X39870000Y35520000D02*
X38870000Y35520000D01*
X38870000Y31917000D02*
X39870000Y31917000D01*
X39870000Y30567000D02*
X38870000Y30567000D01*
X22090000Y8977000D02*
X21090000Y8977000D01*
X21090000Y10327000D02*
X22090000Y10327000D01*
X39793220Y25623890D02*
X39793220Y23123890D01*
X39793220Y23123890D02*
X38693220Y23123890D01*
X38693220Y23123890D02*
X38693220Y25623890D01*
X38693220Y25623890D02*
X39793220Y25623890D01*
X38443220Y25873890D02*
X38443220Y22873890D01*
X40043220Y25873890D02*
X40043220Y22873890D01*
X40043220Y22873890D02*
X38443220Y22873890D01*
X40043220Y25873890D02*
X38443220Y25873890D01*
X37493220Y27373890D02*
X37493220Y21373890D01*
X40993220Y27373890D02*
X40993220Y21373890D01*
X40993220Y27373890D02*
X37493220Y27373890D01*
X40993220Y21373890D02*
X37493220Y21373890D01*
X15225000Y35575000D02*
X15225000Y34600000D01*
X35575000Y35575000D02*
X35575000Y34525000D01*
X35575000Y15225000D02*
X35575000Y16275000D01*
X15225000Y15225000D02*
X15225000Y16275000D01*
X15225000Y35575000D02*
X16275000Y35575000D01*
X15225000Y15225000D02*
X16275000Y15225000D01*
X35575000Y15225000D02*
X34525000Y15225000D01*
X35575000Y35575000D02*
X34525000Y35575000D01*
X15225000Y34600000D02*
X13925000Y34600000D01*
X8390000Y6390000D02*
X9390000Y6390000D01*
X9390000Y5040000D02*
X8390000Y5040000D01*
X17010000Y5040000D02*
X16010000Y5040000D01*
X16010000Y6390000D02*
X17010000Y6390000D01*
X37124000Y9771000D02*
X37124000Y8771000D01*
X35774000Y8771000D02*
X35774000Y9771000D01*
X35346000Y9771000D02*
X35346000Y8771000D01*
X33996000Y8771000D02*
X33996000Y9771000D01*
D12*
X12700000Y17970500D02*
X11938000Y17970500D01*
X12954000Y17843500D02*
X11684000Y17843500D01*
X12954000Y14668500D02*
X11684000Y14668500D01*
X12954000Y15875000D02*
X12954000Y15430500D01*
X11684000Y17081500D02*
X11684000Y16637000D01*
X11684000Y15875000D02*
X11684000Y15430500D01*
X12954000Y17081500D02*
X12954000Y16637000D01*
D11*
X24998680Y9448800D02*
X33599120Y9448800D01*
X33599120Y9448800D02*
X33599120Y12649200D01*
X33599120Y12649200D02*
X24998680Y12649200D01*
X24998680Y11899900D02*
X24998680Y12649200D01*
X24998680Y10149840D02*
X24998680Y9448800D01*
X24998680Y11348720D02*
X24698960Y11447780D01*
X24998680Y10749280D02*
X24698960Y10650220D01*
X24998680Y10149840D02*
X24998680Y11948160D01*
X18153143Y11834857D02*
X18105524Y11787238D01*
X17962667Y11739619D01*
X17867429Y11739619D01*
X17724571Y11787238D01*
X17629333Y11882476D01*
X17581714Y11977714D01*
X17534095Y12168190D01*
X17534095Y12311048D01*
X17581714Y12501524D01*
X17629333Y12596762D01*
X17724571Y12692000D01*
X17867429Y12739619D01*
X17962667Y12739619D01*
X18105524Y12692000D01*
X18153143Y12644381D01*
X19105524Y11739619D02*
X18534095Y11739619D01*
X18819809Y11739619D02*
X18819809Y12739619D01*
X18724571Y12596762D01*
X18629333Y12501524D01*
X18534095Y12453905D01*
X19724571Y12739619D02*
X19819810Y12739619D01*
X19915048Y12692000D01*
X19962667Y12644381D01*
X20010286Y12549143D01*
X20057905Y12358667D01*
X20057905Y12120571D01*
X20010286Y11930095D01*
X19962667Y11834857D01*
X19915048Y11787238D01*
X19819810Y11739619D01*
X19724571Y11739619D01*
X19629333Y11787238D01*
X19581714Y11834857D01*
X19534095Y11930095D01*
X19486476Y12120571D01*
X19486476Y12358667D01*
X19534095Y12549143D01*
X19581714Y12644381D01*
X19629333Y12692000D01*
X19724571Y12739619D01*
X23741143Y12723857D02*
X23693524Y12676238D01*
X23550667Y12628619D01*
X23455429Y12628619D01*
X23312571Y12676238D01*
X23217333Y12771476D01*
X23169714Y12866714D01*
X23122095Y13057190D01*
X23122095Y13200048D01*
X23169714Y13390524D01*
X23217333Y13485762D01*
X23312571Y13581000D01*
X23455429Y13628619D01*
X23550667Y13628619D01*
X23693524Y13581000D01*
X23741143Y13533381D01*
X24693524Y12628619D02*
X24122095Y12628619D01*
X24407809Y12628619D02*
X24407809Y13628619D01*
X24312571Y13485762D01*
X24217333Y13390524D01*
X24122095Y13342905D01*
X25645905Y12628619D02*
X25074476Y12628619D01*
X25360190Y12628619D02*
X25360190Y13628619D01*
X25264952Y13485762D01*
X25169714Y13390524D01*
X25074476Y13342905D01*
X11787143Y20185143D02*
X11834762Y20137524D01*
X11882381Y19994667D01*
X11882381Y19899429D01*
X11834762Y19756571D01*
X11739524Y19661333D01*
X11644286Y19613714D01*
X11453810Y19566095D01*
X11310952Y19566095D01*
X11120476Y19613714D01*
X11025238Y19661333D01*
X10930000Y19756571D01*
X10882381Y19899429D01*
X10882381Y19994667D01*
X10930000Y20137524D01*
X10977619Y20185143D01*
X11882381Y21137524D02*
X11882381Y20566095D01*
X11882381Y20851809D02*
X10882381Y20851809D01*
X11025238Y20756571D01*
X11120476Y20661333D01*
X11168095Y20566095D01*
X10882381Y21470857D02*
X10882381Y22089905D01*
X11263333Y21756571D01*
X11263333Y21899429D01*
X11310952Y21994667D01*
X11358571Y22042286D01*
X11453810Y22089905D01*
X11691905Y22089905D01*
X11787143Y22042286D01*
X11834762Y21994667D01*
X11882381Y21899429D01*
X11882381Y21613714D01*
X11834762Y21518476D01*
X11787143Y21470857D01*
X27154143Y10152143D02*
X27201762Y10104524D01*
X27249381Y9961667D01*
X27249381Y9866429D01*
X27201762Y9723571D01*
X27106524Y9628333D01*
X27011286Y9580714D01*
X26820810Y9533095D01*
X26677952Y9533095D01*
X26487476Y9580714D01*
X26392238Y9628333D01*
X26297000Y9723571D01*
X26249381Y9866429D01*
X26249381Y9961667D01*
X26297000Y10104524D01*
X26344619Y10152143D01*
X27249381Y11104524D02*
X27249381Y10533095D01*
X27249381Y10818809D02*
X26249381Y10818809D01*
X26392238Y10723571D01*
X26487476Y10628333D01*
X26535095Y10533095D01*
X26582714Y11961667D02*
X27249381Y11961667D01*
X26201762Y11723571D02*
X26916048Y11485476D01*
X26916048Y12104524D01*
X13438143Y30091143D02*
X13485762Y30043524D01*
X13533381Y29900667D01*
X13533381Y29805429D01*
X13485762Y29662571D01*
X13390524Y29567333D01*
X13295286Y29519714D01*
X13104810Y29472095D01*
X12961952Y29472095D01*
X12771476Y29519714D01*
X12676238Y29567333D01*
X12581000Y29662571D01*
X12533381Y29805429D01*
X12533381Y29900667D01*
X12581000Y30043524D01*
X12628619Y30091143D01*
X13533381Y31043524D02*
X13533381Y30472095D01*
X13533381Y30757809D02*
X12533381Y30757809D01*
X12676238Y30662571D01*
X12771476Y30567333D01*
X12819095Y30472095D01*
X12533381Y31948286D02*
X12533381Y31472095D01*
X13009571Y31424476D01*
X12961952Y31472095D01*
X12914333Y31567333D01*
X12914333Y31805429D01*
X12961952Y31900667D01*
X13009571Y31948286D01*
X13104810Y31995905D01*
X13342905Y31995905D01*
X13438143Y31948286D01*
X13485762Y31900667D01*
X13533381Y31805429D01*
X13533381Y31567333D01*
X13485762Y31472095D01*
X13438143Y31424476D01*
X28805143Y10152143D02*
X28852762Y10104524D01*
X28900381Y9961667D01*
X28900381Y9866429D01*
X28852762Y9723571D01*
X28757524Y9628333D01*
X28662286Y9580714D01*
X28471810Y9533095D01*
X28328952Y9533095D01*
X28138476Y9580714D01*
X28043238Y9628333D01*
X27948000Y9723571D01*
X27900381Y9866429D01*
X27900381Y9961667D01*
X27948000Y10104524D01*
X27995619Y10152143D01*
X27995619Y10533095D02*
X27948000Y10580714D01*
X27900381Y10675952D01*
X27900381Y10914048D01*
X27948000Y11009286D01*
X27995619Y11056905D01*
X28090857Y11104524D01*
X28186095Y11104524D01*
X28328952Y11056905D01*
X28900381Y10485476D01*
X28900381Y11104524D01*
X27900381Y11437857D02*
X27900381Y12056905D01*
X28281333Y11723571D01*
X28281333Y11866429D01*
X28328952Y11961667D01*
X28376571Y12009286D01*
X28471810Y12056905D01*
X28709905Y12056905D01*
X28805143Y12009286D01*
X28852762Y11961667D01*
X28900381Y11866429D01*
X28900381Y11580714D01*
X28852762Y11485476D01*
X28805143Y11437857D01*
X13438143Y26916143D02*
X13485762Y26868524D01*
X13533381Y26725667D01*
X13533381Y26630429D01*
X13485762Y26487571D01*
X13390524Y26392333D01*
X13295286Y26344714D01*
X13104810Y26297095D01*
X12961952Y26297095D01*
X12771476Y26344714D01*
X12676238Y26392333D01*
X12581000Y26487571D01*
X12533381Y26630429D01*
X12533381Y26725667D01*
X12581000Y26868524D01*
X12628619Y26916143D01*
X12628619Y27297095D02*
X12581000Y27344714D01*
X12533381Y27439952D01*
X12533381Y27678048D01*
X12581000Y27773286D01*
X12628619Y27820905D01*
X12723857Y27868524D01*
X12819095Y27868524D01*
X12961952Y27820905D01*
X13533381Y27249476D01*
X13533381Y27868524D01*
X12866714Y28725667D02*
X13533381Y28725667D01*
X12485762Y28487571D02*
X13200048Y28249476D01*
X13200048Y28868524D01*
X35107715Y36853857D02*
X35060096Y36806238D01*
X34917239Y36758619D01*
X34822001Y36758619D01*
X34679143Y36806238D01*
X34583905Y36901476D01*
X34536286Y36996714D01*
X34488667Y37187190D01*
X34488667Y37330048D01*
X34536286Y37520524D01*
X34583905Y37615762D01*
X34679143Y37711000D01*
X34822001Y37758619D01*
X34917239Y37758619D01*
X35060096Y37711000D01*
X35107715Y37663381D01*
X35726762Y37758619D02*
X35917239Y37758619D01*
X36012477Y37711000D01*
X36107715Y37615762D01*
X36155334Y37425286D01*
X36155334Y37091952D01*
X36107715Y36901476D01*
X36012477Y36806238D01*
X35917239Y36758619D01*
X35726762Y36758619D01*
X35631524Y36806238D01*
X35536286Y36901476D01*
X35488667Y37091952D01*
X35488667Y37425286D01*
X35536286Y37615762D01*
X35631524Y37711000D01*
X35726762Y37758619D01*
X36583905Y36758619D02*
X36583905Y37758619D01*
X37155334Y36758619D01*
X37155334Y37758619D01*
X38155334Y36758619D02*
X37583905Y36758619D01*
X37869619Y36758619D02*
X37869619Y37758619D01*
X37774381Y37615762D01*
X37679143Y37520524D01*
X37583905Y37472905D01*
X12025405Y34345619D02*
X12025405Y35345619D01*
X12263500Y35345619D01*
X12406358Y35298000D01*
X12501596Y35202762D01*
X12549215Y35107524D01*
X12596834Y34917048D01*
X12596834Y34774190D01*
X12549215Y34583714D01*
X12501596Y34488476D01*
X12406358Y34393238D01*
X12263500Y34345619D01*
X12025405Y34345619D01*
X12977786Y35250381D02*
X13025405Y35298000D01*
X13120643Y35345619D01*
X13358739Y35345619D01*
X13453977Y35298000D01*
X13501596Y35250381D01*
X13549215Y35155143D01*
X13549215Y35059905D01*
X13501596Y34917048D01*
X12930167Y34345619D01*
X13549215Y34345619D01*
X27201905Y37393619D02*
X27201905Y38393619D01*
X27440000Y38393619D01*
X27582858Y38346000D01*
X27678096Y38250762D01*
X27725715Y38155524D01*
X27773334Y37965048D01*
X27773334Y37822190D01*
X27725715Y37631714D01*
X27678096Y37536476D01*
X27582858Y37441238D01*
X27440000Y37393619D01*
X27201905Y37393619D01*
X28106667Y38393619D02*
X28725715Y38393619D01*
X28392381Y38012667D01*
X28535239Y38012667D01*
X28630477Y37965048D01*
X28678096Y37917429D01*
X28725715Y37822190D01*
X28725715Y37584095D01*
X28678096Y37488857D01*
X28630477Y37441238D01*
X28535239Y37393619D01*
X28249524Y37393619D01*
X28154286Y37441238D01*
X28106667Y37488857D01*
X37028381Y14628905D02*
X36028381Y14628905D01*
X36028381Y14867000D01*
X36076000Y15009858D01*
X36171238Y15105096D01*
X36266476Y15152715D01*
X36456952Y15200334D01*
X36599810Y15200334D01*
X36790286Y15152715D01*
X36885524Y15105096D01*
X36980762Y15009858D01*
X37028381Y14867000D01*
X37028381Y14628905D01*
X36361714Y16057477D02*
X37028381Y16057477D01*
X35980762Y15819381D02*
X36695048Y15581286D01*
X36695048Y16200334D01*
X14628905Y38155619D02*
X14628905Y39155619D01*
X14867000Y39155619D01*
X15009858Y39108000D01*
X15105096Y39012762D01*
X15152715Y38917524D01*
X15200334Y38727048D01*
X15200334Y38584190D01*
X15152715Y38393714D01*
X15105096Y38298476D01*
X15009858Y38203238D01*
X14867000Y38155619D01*
X14628905Y38155619D01*
X16057477Y39155619D02*
X15867000Y39155619D01*
X15771762Y39108000D01*
X15724143Y39060381D01*
X15628905Y38917524D01*
X15581286Y38727048D01*
X15581286Y38346095D01*
X15628905Y38250857D01*
X15676524Y38203238D01*
X15771762Y38155619D01*
X15962239Y38155619D01*
X16057477Y38203238D01*
X16105096Y38250857D01*
X16152715Y38346095D01*
X16152715Y38584190D01*
X16105096Y38679429D01*
X16057477Y38727048D01*
X15962239Y38774667D01*
X15771762Y38774667D01*
X15676524Y38727048D01*
X15628905Y38679429D01*
X15581286Y38584190D01*
X14628905Y39806619D02*
X14628905Y40806619D01*
X14867000Y40806619D01*
X15009858Y40759000D01*
X15105096Y40663762D01*
X15152715Y40568524D01*
X15200334Y40378048D01*
X15200334Y40235190D01*
X15152715Y40044714D01*
X15105096Y39949476D01*
X15009858Y39854238D01*
X14867000Y39806619D01*
X14628905Y39806619D01*
X15533667Y40806619D02*
X16200334Y40806619D01*
X15771762Y39806619D01*
X14628905Y41457619D02*
X14628905Y42457619D01*
X14867000Y42457619D01*
X15009858Y42410000D01*
X15105096Y42314762D01*
X15152715Y42219524D01*
X15200334Y42029048D01*
X15200334Y41886190D01*
X15152715Y41695714D01*
X15105096Y41600476D01*
X15009858Y41505238D01*
X14867000Y41457619D01*
X14628905Y41457619D01*
X15771762Y42029048D02*
X15676524Y42076667D01*
X15628905Y42124286D01*
X15581286Y42219524D01*
X15581286Y42267143D01*
X15628905Y42362381D01*
X15676524Y42410000D01*
X15771762Y42457619D01*
X15962239Y42457619D01*
X16057477Y42410000D01*
X16105096Y42362381D01*
X16152715Y42267143D01*
X16152715Y42219524D01*
X16105096Y42124286D01*
X16057477Y42076667D01*
X15962239Y42029048D01*
X15771762Y42029048D01*
X15676524Y41981429D01*
X15628905Y41933810D01*
X15581286Y41838571D01*
X15581286Y41648095D01*
X15628905Y41552857D01*
X15676524Y41505238D01*
X15771762Y41457619D01*
X15962239Y41457619D01*
X16057477Y41505238D01*
X16105096Y41552857D01*
X16152715Y41648095D01*
X16152715Y41838571D01*
X16105096Y41933810D01*
X16057477Y41981429D01*
X15962239Y42029048D01*
X41727381Y33805905D02*
X40727381Y33805905D01*
X40727381Y34044000D01*
X40775000Y34186858D01*
X40870238Y34282096D01*
X40965476Y34329715D01*
X41155952Y34377334D01*
X41298810Y34377334D01*
X41489286Y34329715D01*
X41584524Y34282096D01*
X41679762Y34186858D01*
X41727381Y34044000D01*
X41727381Y33805905D01*
X41727381Y34853524D02*
X41727381Y35044000D01*
X41679762Y35139239D01*
X41632143Y35186858D01*
X41489286Y35282096D01*
X41298810Y35329715D01*
X40917857Y35329715D01*
X40822619Y35282096D01*
X40775000Y35234477D01*
X40727381Y35139239D01*
X40727381Y34948762D01*
X40775000Y34853524D01*
X40822619Y34805905D01*
X40917857Y34758286D01*
X41155952Y34758286D01*
X41251190Y34805905D01*
X41298810Y34853524D01*
X41346429Y34948762D01*
X41346429Y35139239D01*
X41298810Y35234477D01*
X41251190Y35282096D01*
X41155952Y35329715D01*
X38044381Y31678714D02*
X37044381Y31678714D01*
X37044381Y31916809D01*
X37092000Y32059667D01*
X37187238Y32154905D01*
X37282476Y32202524D01*
X37472952Y32250143D01*
X37615810Y32250143D01*
X37806286Y32202524D01*
X37901524Y32154905D01*
X37996762Y32059667D01*
X38044381Y31916809D01*
X38044381Y31678714D01*
X38044381Y33202524D02*
X38044381Y32631095D01*
X38044381Y32916809D02*
X37044381Y32916809D01*
X37187238Y32821571D01*
X37282476Y32726333D01*
X37330095Y32631095D01*
X37044381Y33821571D02*
X37044381Y33916810D01*
X37092000Y34012048D01*
X37139619Y34059667D01*
X37234857Y34107286D01*
X37425333Y34154905D01*
X37663429Y34154905D01*
X37853905Y34107286D01*
X37949143Y34059667D01*
X37996762Y34012048D01*
X38044381Y33916810D01*
X38044381Y33821571D01*
X37996762Y33726333D01*
X37949143Y33678714D01*
X37853905Y33631095D01*
X37663429Y33583476D01*
X37425333Y33583476D01*
X37234857Y33631095D01*
X37139619Y33678714D01*
X37092000Y33726333D01*
X37044381Y33821571D01*
X9977381Y8929810D02*
X8977381Y8929810D01*
X9882143Y9977429D02*
X9929762Y9929810D01*
X9977381Y9786953D01*
X9977381Y9691715D01*
X9929762Y9548857D01*
X9834524Y9453619D01*
X9739286Y9406000D01*
X9548810Y9358381D01*
X9405952Y9358381D01*
X9215476Y9406000D01*
X9120238Y9453619D01*
X9025000Y9548857D01*
X8977381Y9691715D01*
X8977381Y9786953D01*
X9025000Y9929810D01*
X9072619Y9977429D01*
X9977381Y10929810D02*
X9977381Y10358381D01*
X9977381Y10644095D02*
X8977381Y10644095D01*
X9120238Y10548857D01*
X9215476Y10453619D01*
X9263095Y10358381D01*
X17958381Y44981905D02*
X16958381Y44981905D01*
X16958381Y45362858D01*
X17006000Y45458096D01*
X17053619Y45505715D01*
X17148857Y45553334D01*
X17291714Y45553334D01*
X17386952Y45505715D01*
X17434571Y45458096D01*
X17482190Y45362858D01*
X17482190Y44981905D01*
X17958381Y46505715D02*
X17958381Y45934286D01*
X17958381Y46220000D02*
X16958381Y46220000D01*
X17101238Y46124762D01*
X17196476Y46029524D01*
X17244095Y45934286D01*
D10*
X14395571Y3194095D02*
X14395571Y3994095D01*
X14700333Y3994095D01*
X14776524Y3956000D01*
X14814619Y3917905D01*
X14852714Y3841714D01*
X14852714Y3727429D01*
X14814619Y3651238D01*
X14776524Y3613143D01*
X14700333Y3575048D01*
X14395571Y3575048D01*
X15614619Y3194095D02*
X15157476Y3194095D01*
X15386047Y3194095D02*
X15386047Y3994095D01*
X15309857Y3879810D01*
X15233666Y3803619D01*
X15157476Y3765524D01*
X16109857Y3994095D02*
X16186048Y3994095D01*
X16262238Y3956000D01*
X16300333Y3917905D01*
X16338429Y3841714D01*
X16376524Y3689333D01*
X16376524Y3498857D01*
X16338429Y3346476D01*
X16300333Y3270286D01*
X16262238Y3232190D01*
X16186048Y3194095D01*
X16109857Y3194095D01*
X16033667Y3232190D01*
X15995571Y3270286D01*
X15957476Y3346476D01*
X15919381Y3498857D01*
X15919381Y3689333D01*
X15957476Y3841714D01*
X15995571Y3917905D01*
X16033667Y3956000D01*
X16109857Y3994095D01*
D11*
X31186381Y46918714D02*
X30186381Y46918714D01*
X30186381Y47299667D01*
X30234000Y47394905D01*
X30281619Y47442524D01*
X30376857Y47490143D01*
X30519714Y47490143D01*
X30614952Y47442524D01*
X30662571Y47394905D01*
X30710190Y47299667D01*
X30710190Y46918714D01*
X30281619Y47871095D02*
X30234000Y47918714D01*
X30186381Y48013952D01*
X30186381Y48252048D01*
X30234000Y48347286D01*
X30281619Y48394905D01*
X30376857Y48442524D01*
X30472095Y48442524D01*
X30614952Y48394905D01*
X31186381Y47823476D01*
X31186381Y48442524D01*
X30186381Y48775857D02*
X30186381Y49394905D01*
X30567333Y49061571D01*
X30567333Y49204429D01*
X30614952Y49299667D01*
X30662571Y49347286D01*
X30757810Y49394905D01*
X30995905Y49394905D01*
X31091143Y49347286D01*
X31138762Y49299667D01*
X31186381Y49204429D01*
X31186381Y48918714D01*
X31138762Y48823476D01*
X31091143Y48775857D01*
X20010381Y43489714D02*
X19010381Y43489714D01*
X19010381Y43870667D01*
X19058000Y43965905D01*
X19105619Y44013524D01*
X19200857Y44061143D01*
X19343714Y44061143D01*
X19438952Y44013524D01*
X19486571Y43965905D01*
X19534190Y43870667D01*
X19534190Y43489714D01*
X19105619Y44442095D02*
X19058000Y44489714D01*
X19010381Y44584952D01*
X19010381Y44823048D01*
X19058000Y44918286D01*
X19105619Y44965905D01*
X19200857Y45013524D01*
X19296095Y45013524D01*
X19438952Y44965905D01*
X20010381Y44394476D01*
X20010381Y45013524D01*
X19343714Y45870667D02*
X20010381Y45870667D01*
X18962762Y45632571D02*
X19677048Y45394476D01*
X19677048Y46013524D01*
X41092381Y6913714D02*
X40092381Y6913714D01*
X40092381Y7294667D01*
X40140000Y7389905D01*
X40187619Y7437524D01*
X40282857Y7485143D01*
X40425714Y7485143D01*
X40520952Y7437524D01*
X40568571Y7389905D01*
X40616190Y7294667D01*
X40616190Y6913714D01*
X40187619Y7866095D02*
X40140000Y7913714D01*
X40092381Y8008952D01*
X40092381Y8247048D01*
X40140000Y8342286D01*
X40187619Y8389905D01*
X40282857Y8437524D01*
X40378095Y8437524D01*
X40520952Y8389905D01*
X41092381Y7818476D01*
X41092381Y8437524D01*
X40092381Y9342286D02*
X40092381Y8866095D01*
X40568571Y8818476D01*
X40520952Y8866095D01*
X40473333Y8961333D01*
X40473333Y9199429D01*
X40520952Y9294667D01*
X40568571Y9342286D01*
X40663810Y9389905D01*
X40901905Y9389905D01*
X40997143Y9342286D01*
X41044762Y9294667D01*
X41092381Y9199429D01*
X41092381Y8961333D01*
X41044762Y8866095D01*
X40997143Y8818476D01*
X33075714Y3103619D02*
X33075714Y4103619D01*
X33456667Y4103619D01*
X33551905Y4056000D01*
X33599524Y4008381D01*
X33647143Y3913143D01*
X33647143Y3770286D01*
X33599524Y3675048D01*
X33551905Y3627429D01*
X33456667Y3579810D01*
X33075714Y3579810D01*
X34028095Y4008381D02*
X34075714Y4056000D01*
X34170952Y4103619D01*
X34409048Y4103619D01*
X34504286Y4056000D01*
X34551905Y4008381D01*
X34599524Y3913143D01*
X34599524Y3817905D01*
X34551905Y3675048D01*
X33980476Y3103619D01*
X34599524Y3103619D01*
X35456667Y4103619D02*
X35266190Y4103619D01*
X35170952Y4056000D01*
X35123333Y4008381D01*
X35028095Y3865524D01*
X34980476Y3675048D01*
X34980476Y3294095D01*
X35028095Y3198857D01*
X35075714Y3151238D01*
X35170952Y3103619D01*
X35361429Y3103619D01*
X35456667Y3151238D01*
X35504286Y3198857D01*
X35551905Y3294095D01*
X35551905Y3532190D01*
X35504286Y3627429D01*
X35456667Y3675048D01*
X35361429Y3722667D01*
X35170952Y3722667D01*
X35075714Y3675048D01*
X35028095Y3627429D01*
X34980476Y3532190D01*
X24542762Y37425381D02*
X24447524Y37473000D01*
X24352286Y37568238D01*
X24209429Y37711095D01*
X24114190Y37758714D01*
X24018952Y37758714D01*
X24066571Y37520619D02*
X23971333Y37568238D01*
X23876095Y37663476D01*
X23828476Y37853952D01*
X23828476Y38187286D01*
X23876095Y38377762D01*
X23971333Y38473000D01*
X24066571Y38520619D01*
X24257048Y38520619D01*
X24352286Y38473000D01*
X24447524Y38377762D01*
X24495143Y38187286D01*
X24495143Y37853952D01*
X24447524Y37663476D01*
X24352286Y37568238D01*
X24257048Y37520619D01*
X24066571Y37520619D01*
X25447524Y37520619D02*
X24876095Y37520619D01*
X25161809Y37520619D02*
X25161809Y38520619D01*
X25066571Y38377762D01*
X24971333Y38282524D01*
X24876095Y38234905D01*
X12469834Y32694619D02*
X12136500Y33170810D01*
X11898405Y32694619D02*
X11898405Y33694619D01*
X12279358Y33694619D01*
X12374596Y33647000D01*
X12422215Y33599381D01*
X12469834Y33504143D01*
X12469834Y33361286D01*
X12422215Y33266048D01*
X12374596Y33218429D01*
X12279358Y33170810D01*
X11898405Y33170810D01*
X13422215Y32694619D02*
X12850786Y32694619D01*
X13136500Y32694619D02*
X13136500Y33694619D01*
X13041262Y33551762D01*
X12946024Y33456524D01*
X12850786Y33408905D01*
X17597381Y7961334D02*
X17121190Y7628000D01*
X17597381Y7389905D02*
X16597381Y7389905D01*
X16597381Y7770858D01*
X16645000Y7866096D01*
X16692619Y7913715D01*
X16787857Y7961334D01*
X16930714Y7961334D01*
X17025952Y7913715D01*
X17073571Y7866096D01*
X17121190Y7770858D01*
X17121190Y7389905D01*
X16692619Y8342286D02*
X16645000Y8389905D01*
X16597381Y8485143D01*
X16597381Y8723239D01*
X16645000Y8818477D01*
X16692619Y8866096D01*
X16787857Y8913715D01*
X16883095Y8913715D01*
X17025952Y8866096D01*
X17597381Y8294667D01*
X17597381Y8913715D01*
X18867381Y7961334D02*
X18391190Y7628000D01*
X18867381Y7389905D02*
X17867381Y7389905D01*
X17867381Y7770858D01*
X17915000Y7866096D01*
X17962619Y7913715D01*
X18057857Y7961334D01*
X18200714Y7961334D01*
X18295952Y7913715D01*
X18343571Y7866096D01*
X18391190Y7770858D01*
X18391190Y7389905D01*
X17867381Y8294667D02*
X17867381Y8913715D01*
X18248333Y8580381D01*
X18248333Y8723239D01*
X18295952Y8818477D01*
X18343571Y8866096D01*
X18438810Y8913715D01*
X18676905Y8913715D01*
X18772143Y8866096D01*
X18819762Y8818477D01*
X18867381Y8723239D01*
X18867381Y8437524D01*
X18819762Y8342286D01*
X18772143Y8294667D01*
X11517334Y13390619D02*
X11184000Y13866810D01*
X10945905Y13390619D02*
X10945905Y14390619D01*
X11326858Y14390619D01*
X11422096Y14343000D01*
X11469715Y14295381D01*
X11517334Y14200143D01*
X11517334Y14057286D01*
X11469715Y13962048D01*
X11422096Y13914429D01*
X11326858Y13866810D01*
X10945905Y13866810D01*
X12374477Y14057286D02*
X12374477Y13390619D01*
X12136381Y14438238D02*
X11898286Y13723952D01*
X12517334Y13723952D01*
X11517334Y18216619D02*
X11184000Y18692810D01*
X10945905Y18216619D02*
X10945905Y19216619D01*
X11326858Y19216619D01*
X11422096Y19169000D01*
X11469715Y19121381D01*
X11517334Y19026143D01*
X11517334Y18883286D01*
X11469715Y18788048D01*
X11422096Y18740429D01*
X11326858Y18692810D01*
X10945905Y18692810D01*
X12422096Y19216619D02*
X11945905Y19216619D01*
X11898286Y18740429D01*
X11945905Y18788048D01*
X12041143Y18835667D01*
X12279239Y18835667D01*
X12374477Y18788048D01*
X12422096Y18740429D01*
X12469715Y18645190D01*
X12469715Y18407095D01*
X12422096Y18311857D01*
X12374477Y18264238D01*
X12279239Y18216619D01*
X12041143Y18216619D01*
X11945905Y18264238D01*
X11898286Y18311857D01*
X39838334Y38028619D02*
X39505000Y38504810D01*
X39266905Y38028619D02*
X39266905Y39028619D01*
X39647858Y39028619D01*
X39743096Y38981000D01*
X39790715Y38933381D01*
X39838334Y38838143D01*
X39838334Y38695286D01*
X39790715Y38600048D01*
X39743096Y38552429D01*
X39647858Y38504810D01*
X39266905Y38504810D01*
X40695477Y39028619D02*
X40505000Y39028619D01*
X40409762Y38981000D01*
X40362143Y38933381D01*
X40266905Y38790524D01*
X40219286Y38600048D01*
X40219286Y38219095D01*
X40266905Y38123857D01*
X40314524Y38076238D01*
X40409762Y38028619D01*
X40600239Y38028619D01*
X40695477Y38076238D01*
X40743096Y38123857D01*
X40790715Y38219095D01*
X40790715Y38457190D01*
X40743096Y38552429D01*
X40695477Y38600048D01*
X40600239Y38647667D01*
X40409762Y38647667D01*
X40314524Y38600048D01*
X40266905Y38552429D01*
X40219286Y38457190D01*
X41997334Y41838619D02*
X41664000Y42314810D01*
X41425905Y41838619D02*
X41425905Y42838619D01*
X41806858Y42838619D01*
X41902096Y42791000D01*
X41949715Y42743381D01*
X41997334Y42648143D01*
X41997334Y42505286D01*
X41949715Y42410048D01*
X41902096Y42362429D01*
X41806858Y42314810D01*
X41425905Y42314810D01*
X42330667Y42838619D02*
X42997334Y42838619D01*
X42568762Y41838619D01*
X30424381Y44537334D02*
X29948190Y44204000D01*
X30424381Y43965905D02*
X29424381Y43965905D01*
X29424381Y44346858D01*
X29472000Y44442096D01*
X29519619Y44489715D01*
X29614857Y44537334D01*
X29757714Y44537334D01*
X29852952Y44489715D01*
X29900571Y44442096D01*
X29948190Y44346858D01*
X29948190Y43965905D01*
X29852952Y45108762D02*
X29805333Y45013524D01*
X29757714Y44965905D01*
X29662476Y44918286D01*
X29614857Y44918286D01*
X29519619Y44965905D01*
X29472000Y45013524D01*
X29424381Y45108762D01*
X29424381Y45299239D01*
X29472000Y45394477D01*
X29519619Y45442096D01*
X29614857Y45489715D01*
X29662476Y45489715D01*
X29757714Y45442096D01*
X29805333Y45394477D01*
X29852952Y45299239D01*
X29852952Y45108762D01*
X29900571Y45013524D01*
X29948190Y44965905D01*
X30043429Y44918286D01*
X30233905Y44918286D01*
X30329143Y44965905D01*
X30376762Y45013524D01*
X30424381Y45108762D01*
X30424381Y45299239D01*
X30376762Y45394477D01*
X30329143Y45442096D01*
X30233905Y45489715D01*
X30043429Y45489715D01*
X29948190Y45442096D01*
X29900571Y45394477D01*
X29852952Y45299239D01*
X41997334Y14787619D02*
X41664000Y15263810D01*
X41425905Y14787619D02*
X41425905Y15787619D01*
X41806858Y15787619D01*
X41902096Y15740000D01*
X41949715Y15692381D01*
X41997334Y15597143D01*
X41997334Y15454286D01*
X41949715Y15359048D01*
X41902096Y15311429D01*
X41806858Y15263810D01*
X41425905Y15263810D01*
X42473524Y14787619D02*
X42664000Y14787619D01*
X42759239Y14835238D01*
X42806858Y14882857D01*
X42902096Y15025714D01*
X42949715Y15216190D01*
X42949715Y15597143D01*
X42902096Y15692381D01*
X42854477Y15740000D01*
X42759239Y15787619D01*
X42568762Y15787619D01*
X42473524Y15740000D01*
X42425905Y15692381D01*
X42378286Y15597143D01*
X42378286Y15359048D01*
X42425905Y15263810D01*
X42473524Y15216190D01*
X42568762Y15168571D01*
X42759239Y15168571D01*
X42854477Y15216190D01*
X42902096Y15263810D01*
X42949715Y15359048D01*
X41473381Y19042143D02*
X40997190Y18708809D01*
X41473381Y18470714D02*
X40473381Y18470714D01*
X40473381Y18851667D01*
X40521000Y18946905D01*
X40568619Y18994524D01*
X40663857Y19042143D01*
X40806714Y19042143D01*
X40901952Y18994524D01*
X40949571Y18946905D01*
X40997190Y18851667D01*
X40997190Y18470714D01*
X41473381Y19994524D02*
X41473381Y19423095D01*
X41473381Y19708809D02*
X40473381Y19708809D01*
X40616238Y19613571D01*
X40711476Y19518333D01*
X40759095Y19423095D01*
X40473381Y20613571D02*
X40473381Y20708810D01*
X40521000Y20804048D01*
X40568619Y20851667D01*
X40663857Y20899286D01*
X40854333Y20946905D01*
X41092429Y20946905D01*
X41282905Y20899286D01*
X41378143Y20851667D01*
X41425762Y20804048D01*
X41473381Y20708810D01*
X41473381Y20613571D01*
X41425762Y20518333D01*
X41378143Y20470714D01*
X41282905Y20423095D01*
X41092429Y20375476D01*
X40854333Y20375476D01*
X40663857Y20423095D01*
X40568619Y20470714D01*
X40521000Y20518333D01*
X40473381Y20613571D01*
X11882381Y23106143D02*
X11406190Y22772809D01*
X11882381Y22534714D02*
X10882381Y22534714D01*
X10882381Y22915667D01*
X10930000Y23010905D01*
X10977619Y23058524D01*
X11072857Y23106143D01*
X11215714Y23106143D01*
X11310952Y23058524D01*
X11358571Y23010905D01*
X11406190Y22915667D01*
X11406190Y22534714D01*
X11882381Y24058524D02*
X11882381Y23487095D01*
X11882381Y23772809D02*
X10882381Y23772809D01*
X11025238Y23677571D01*
X11120476Y23582333D01*
X11168095Y23487095D01*
X11882381Y25010905D02*
X11882381Y24439476D01*
X11882381Y24725190D02*
X10882381Y24725190D01*
X11025238Y24629952D01*
X11120476Y24534714D01*
X11168095Y24439476D01*
X17391143Y38155619D02*
X17057809Y38631810D01*
X16819714Y38155619D02*
X16819714Y39155619D01*
X17200667Y39155619D01*
X17295905Y39108000D01*
X17343524Y39060381D01*
X17391143Y38965143D01*
X17391143Y38822286D01*
X17343524Y38727048D01*
X17295905Y38679429D01*
X17200667Y38631810D01*
X16819714Y38631810D01*
X18343524Y38155619D02*
X17772095Y38155619D01*
X18057809Y38155619D02*
X18057809Y39155619D01*
X17962571Y39012762D01*
X17867333Y38917524D01*
X17772095Y38869905D01*
X18724476Y39060381D02*
X18772095Y39108000D01*
X18867333Y39155619D01*
X19105429Y39155619D01*
X19200667Y39108000D01*
X19248286Y39060381D01*
X19295905Y38965143D01*
X19295905Y38869905D01*
X19248286Y38727048D01*
X18676857Y38155619D01*
X19295905Y38155619D01*
X33345381Y11422143D02*
X32869190Y11088809D01*
X33345381Y10850714D02*
X32345381Y10850714D01*
X32345381Y11231667D01*
X32393000Y11326905D01*
X32440619Y11374524D01*
X32535857Y11422143D01*
X32678714Y11422143D01*
X32773952Y11374524D01*
X32821571Y11326905D01*
X32869190Y11231667D01*
X32869190Y10850714D01*
X33345381Y12374524D02*
X33345381Y11803095D01*
X33345381Y12088809D02*
X32345381Y12088809D01*
X32488238Y11993571D01*
X32583476Y11898333D01*
X32631095Y11803095D01*
X32345381Y12707857D02*
X32345381Y13326905D01*
X32726333Y12993571D01*
X32726333Y13136429D01*
X32773952Y13231667D01*
X32821571Y13279286D01*
X32916810Y13326905D01*
X33154905Y13326905D01*
X33250143Y13279286D01*
X33297762Y13231667D01*
X33345381Y13136429D01*
X33345381Y12850714D01*
X33297762Y12755476D01*
X33250143Y12707857D01*
X35298143Y13390619D02*
X34964809Y13866810D01*
X34726714Y13390619D02*
X34726714Y14390619D01*
X35107667Y14390619D01*
X35202905Y14343000D01*
X35250524Y14295381D01*
X35298143Y14200143D01*
X35298143Y14057286D01*
X35250524Y13962048D01*
X35202905Y13914429D01*
X35107667Y13866810D01*
X34726714Y13866810D01*
X36250524Y13390619D02*
X35679095Y13390619D01*
X35964809Y13390619D02*
X35964809Y14390619D01*
X35869571Y14247762D01*
X35774333Y14152524D01*
X35679095Y14104905D01*
X37107667Y14057286D02*
X37107667Y13390619D01*
X36869571Y14438238D02*
X36631476Y13723952D01*
X37250524Y13723952D01*
X17391143Y39806619D02*
X17057809Y40282810D01*
X16819714Y39806619D02*
X16819714Y40806619D01*
X17200667Y40806619D01*
X17295905Y40759000D01*
X17343524Y40711381D01*
X17391143Y40616143D01*
X17391143Y40473286D01*
X17343524Y40378048D01*
X17295905Y40330429D01*
X17200667Y40282810D01*
X16819714Y40282810D01*
X18343524Y39806619D02*
X17772095Y39806619D01*
X18057809Y39806619D02*
X18057809Y40806619D01*
X17962571Y40663762D01*
X17867333Y40568524D01*
X17772095Y40520905D01*
X19248286Y40806619D02*
X18772095Y40806619D01*
X18724476Y40330429D01*
X18772095Y40378048D01*
X18867333Y40425667D01*
X19105429Y40425667D01*
X19200667Y40378048D01*
X19248286Y40330429D01*
X19295905Y40235190D01*
X19295905Y39997095D01*
X19248286Y39901857D01*
X19200667Y39854238D01*
X19105429Y39806619D01*
X18867333Y39806619D01*
X18772095Y39854238D01*
X18724476Y39901857D01*
X17391143Y41457619D02*
X17057809Y41933810D01*
X16819714Y41457619D02*
X16819714Y42457619D01*
X17200667Y42457619D01*
X17295905Y42410000D01*
X17343524Y42362381D01*
X17391143Y42267143D01*
X17391143Y42124286D01*
X17343524Y42029048D01*
X17295905Y41981429D01*
X17200667Y41933810D01*
X16819714Y41933810D01*
X18343524Y41457619D02*
X17772095Y41457619D01*
X18057809Y41457619D02*
X18057809Y42457619D01*
X17962571Y42314762D01*
X17867333Y42219524D01*
X17772095Y42171905D01*
X19200667Y42457619D02*
X19010190Y42457619D01*
X18914952Y42410000D01*
X18867333Y42362381D01*
X18772095Y42219524D01*
X18724476Y42029048D01*
X18724476Y41648095D01*
X18772095Y41552857D01*
X18819714Y41505238D01*
X18914952Y41457619D01*
X19105429Y41457619D01*
X19200667Y41505238D01*
X19248286Y41552857D01*
X19295905Y41648095D01*
X19295905Y41886190D01*
X19248286Y41981429D01*
X19200667Y42029048D01*
X19105429Y42076667D01*
X18914952Y42076667D01*
X18819714Y42029048D01*
X18772095Y41981429D01*
X18724476Y41886190D01*
X36060143Y35361619D02*
X35726809Y35837810D01*
X35488714Y35361619D02*
X35488714Y36361619D01*
X35869667Y36361619D01*
X35964905Y36314000D01*
X36012524Y36266381D01*
X36060143Y36171143D01*
X36060143Y36028286D01*
X36012524Y35933048D01*
X35964905Y35885429D01*
X35869667Y35837810D01*
X35488714Y35837810D01*
X37012524Y35361619D02*
X36441095Y35361619D01*
X36726809Y35361619D02*
X36726809Y36361619D01*
X36631571Y36218762D01*
X36536333Y36123524D01*
X36441095Y36075905D01*
X37345857Y36361619D02*
X38012524Y36361619D01*
X37583952Y35361619D01*
X41727381Y30472143D02*
X41251190Y30138809D01*
X41727381Y29900714D02*
X40727381Y29900714D01*
X40727381Y30281667D01*
X40775000Y30376905D01*
X40822619Y30424524D01*
X40917857Y30472143D01*
X41060714Y30472143D01*
X41155952Y30424524D01*
X41203571Y30376905D01*
X41251190Y30281667D01*
X41251190Y29900714D01*
X41727381Y31424524D02*
X41727381Y30853095D01*
X41727381Y31138809D02*
X40727381Y31138809D01*
X40870238Y31043571D01*
X40965476Y30948333D01*
X41013095Y30853095D01*
X41155952Y31995952D02*
X41108333Y31900714D01*
X41060714Y31853095D01*
X40965476Y31805476D01*
X40917857Y31805476D01*
X40822619Y31853095D01*
X40775000Y31900714D01*
X40727381Y31995952D01*
X40727381Y32186429D01*
X40775000Y32281667D01*
X40822619Y32329286D01*
X40917857Y32376905D01*
X40965476Y32376905D01*
X41060714Y32329286D01*
X41108333Y32281667D01*
X41155952Y32186429D01*
X41155952Y31995952D01*
X41203571Y31900714D01*
X41251190Y31853095D01*
X41346429Y31805476D01*
X41536905Y31805476D01*
X41632143Y31853095D01*
X41679762Y31900714D01*
X41727381Y31995952D01*
X41727381Y32186429D01*
X41679762Y32281667D01*
X41632143Y32329286D01*
X41536905Y32376905D01*
X41346429Y32376905D01*
X41251190Y32329286D01*
X41203571Y32281667D01*
X41155952Y32186429D01*
X23614143Y8564619D02*
X23280809Y9040810D01*
X23042714Y8564619D02*
X23042714Y9564619D01*
X23423667Y9564619D01*
X23518905Y9517000D01*
X23566524Y9469381D01*
X23614143Y9374143D01*
X23614143Y9231286D01*
X23566524Y9136048D01*
X23518905Y9088429D01*
X23423667Y9040810D01*
X23042714Y9040810D01*
X24566524Y8564619D02*
X23995095Y8564619D01*
X24280809Y8564619D02*
X24280809Y9564619D01*
X24185571Y9421762D01*
X24090333Y9326524D01*
X23995095Y9278905D01*
X25042714Y8564619D02*
X25233190Y8564619D01*
X25328429Y8612238D01*
X25376048Y8659857D01*
X25471286Y8802714D01*
X25518905Y8993190D01*
X25518905Y9374143D01*
X25471286Y9469381D01*
X25423667Y9517000D01*
X25328429Y9564619D01*
X25137952Y9564619D01*
X25042714Y9517000D01*
X24995095Y9469381D01*
X24947476Y9374143D01*
X24947476Y9136048D01*
X24995095Y9040810D01*
X25042714Y8993190D01*
X25137952Y8945571D01*
X25328429Y8945571D01*
X25423667Y8993190D01*
X25471286Y9040810D01*
X25518905Y9136048D01*
X38123762Y27749667D02*
X38171381Y27892524D01*
X38171381Y28130620D01*
X38123762Y28225858D01*
X38076143Y28273477D01*
X37980905Y28321096D01*
X37885667Y28321096D01*
X37790429Y28273477D01*
X37742810Y28225858D01*
X37695190Y28130620D01*
X37647571Y27940143D01*
X37599952Y27844905D01*
X37552333Y27797286D01*
X37457095Y27749667D01*
X37361857Y27749667D01*
X37266619Y27797286D01*
X37219000Y27844905D01*
X37171381Y27940143D01*
X37171381Y28178239D01*
X37219000Y28321096D01*
X37171381Y28654429D02*
X38171381Y28892524D01*
X37457095Y29083001D01*
X38171381Y29273477D01*
X37171381Y29511572D01*
X38171381Y30416334D02*
X38171381Y29844905D01*
X38171381Y30130619D02*
X37171381Y30130619D01*
X37314238Y30035381D01*
X37409476Y29940143D01*
X37457095Y29844905D01*
X14351095Y36996619D02*
X14351095Y36187095D01*
X14398714Y36091857D01*
X14446333Y36044238D01*
X14541571Y35996619D01*
X14732048Y35996619D01*
X14827286Y36044238D01*
X14874905Y36091857D01*
X14922524Y36187095D01*
X14922524Y36996619D01*
X15351095Y36901381D02*
X15398714Y36949000D01*
X15493952Y36996619D01*
X15732048Y36996619D01*
X15827286Y36949000D01*
X15874905Y36901381D01*
X15922524Y36806143D01*
X15922524Y36710905D01*
X15874905Y36568048D01*
X15303476Y35996619D01*
X15922524Y35996619D01*
X7580476Y7659619D02*
X7913809Y6659619D01*
X8247143Y7659619D01*
X9151905Y6659619D02*
X8818571Y7135810D01*
X8580476Y6659619D02*
X8580476Y7659619D01*
X8961429Y7659619D01*
X9056667Y7612000D01*
X9104286Y7564381D01*
X9151905Y7469143D01*
X9151905Y7326286D01*
X9104286Y7231048D01*
X9056667Y7183429D01*
X8961429Y7135810D01*
X8580476Y7135810D01*
X10104286Y6659619D02*
X9532857Y6659619D01*
X9818571Y6659619D02*
X9818571Y7659619D01*
X9723333Y7516762D01*
X9628095Y7421524D01*
X9532857Y7373905D01*
X12533476Y6643619D02*
X12866809Y5643619D01*
X13200143Y6643619D01*
X14104905Y5643619D02*
X13771571Y6119810D01*
X13533476Y5643619D02*
X13533476Y6643619D01*
X13914429Y6643619D01*
X14009667Y6596000D01*
X14057286Y6548381D01*
X14104905Y6453143D01*
X14104905Y6310286D01*
X14057286Y6215048D01*
X14009667Y6167429D01*
X13914429Y6119810D01*
X13533476Y6119810D01*
X14485857Y6548381D02*
X14533476Y6596000D01*
X14628714Y6643619D01*
X14866810Y6643619D01*
X14962048Y6596000D01*
X15009667Y6548381D01*
X15057286Y6453143D01*
X15057286Y6357905D01*
X15009667Y6215048D01*
X14438238Y5643619D01*
X15057286Y5643619D01*
X37298476Y8929619D02*
X37631809Y7929619D01*
X37965143Y8929619D01*
X38869905Y7929619D02*
X38536571Y8405810D01*
X38298476Y7929619D02*
X38298476Y8929619D01*
X38679429Y8929619D01*
X38774667Y8882000D01*
X38822286Y8834381D01*
X38869905Y8739143D01*
X38869905Y8596286D01*
X38822286Y8501048D01*
X38774667Y8453429D01*
X38679429Y8405810D01*
X38298476Y8405810D01*
X39203238Y8929619D02*
X39822286Y8929619D01*
X39488952Y8548667D01*
X39631810Y8548667D01*
X39727048Y8501048D01*
X39774667Y8453429D01*
X39822286Y8358190D01*
X39822286Y8120095D01*
X39774667Y8024857D01*
X39727048Y7977238D01*
X39631810Y7929619D01*
X39346095Y7929619D01*
X39250857Y7977238D01*
X39203238Y8024857D01*
X31202476Y9056619D02*
X31535809Y8056619D01*
X31869143Y9056619D01*
X32773905Y8056619D02*
X32440571Y8532810D01*
X32202476Y8056619D02*
X32202476Y9056619D01*
X32583429Y9056619D01*
X32678667Y9009000D01*
X32726286Y8961381D01*
X32773905Y8866143D01*
X32773905Y8723286D01*
X32726286Y8628048D01*
X32678667Y8580429D01*
X32583429Y8532810D01*
X32202476Y8532810D01*
X33631048Y8723286D02*
X33631048Y8056619D01*
X33392952Y9104238D02*
X33154857Y8389952D01*
X33773905Y8389952D01*
X13803381Y14557476D02*
X14803381Y15224143D01*
X13803381Y15224143D02*
X14803381Y14557476D01*
X14803381Y16128905D02*
X14803381Y15557476D01*
X14803381Y15843190D02*
X13803381Y15843190D01*
X13946238Y15747952D01*
X14041476Y15652714D01*
X14089095Y15557476D01*
X30257809Y11834810D02*
X30257809Y11358619D01*
X29924476Y12358619D02*
X30257809Y11834810D01*
X30591143Y12358619D01*
X31448286Y11358619D02*
X30876857Y11358619D01*
X31162571Y11358619D02*
X31162571Y12358619D01*
X31067333Y12215762D01*
X30972095Y12120524D01*
X30876857Y12072905D01*
%LPC*%
D13*
X22340000Y11303000D03*
X20840000Y11303000D03*
X22340000Y12827000D03*
X20840000Y12827000D03*
D14*
X9906000Y21578000D03*
X9906000Y20078000D03*
X26797000Y8624000D03*
X26797000Y7124000D03*
X11684000Y29984000D03*
X11684000Y31484000D03*
X28448000Y8624000D03*
X28448000Y7124000D03*
X11684000Y28309000D03*
X11684000Y26809000D03*
D15*
X32766000Y39116000D03*
D16*
X34766000Y39116000D03*
X36766000Y39116000D03*
X32766000Y41116000D03*
X34766000Y41116000D03*
X36766000Y41116000D03*
D17*
X9601200Y34798000D03*
X11099800Y34798000D03*
D18*
X29845000Y40425000D03*
X29845000Y38315000D03*
D19*
X38481000Y14097000D03*
X38481000Y17399000D03*
D17*
X9537700Y38608000D03*
X11036300Y38608000D03*
X9537700Y40259000D03*
X11036300Y40259000D03*
X9537700Y41910000D03*
X11036300Y41910000D03*
X38620700Y34544000D03*
X40119300Y34544000D03*
X38620700Y32893000D03*
X40119300Y32893000D03*
D20*
X11835000Y7710000D03*
X12335000Y7710000D03*
X12835000Y7710000D03*
X13335000Y7710000D03*
X13835000Y7710000D03*
X14335000Y7710000D03*
X14835000Y7710000D03*
D21*
X15785000Y8660000D03*
X15785000Y9160000D03*
X15785000Y9660000D03*
X15785000Y10160000D03*
X15785000Y10660000D03*
X15785000Y11160000D03*
X15785000Y11660000D03*
D20*
X14835000Y12610000D03*
X14335000Y12610000D03*
X13835000Y12610000D03*
X13335000Y12610000D03*
X12835000Y12610000D03*
X12335000Y12610000D03*
X11835000Y12610000D03*
D21*
X10885000Y11660000D03*
X10885000Y11160000D03*
X10885000Y10660000D03*
X10885000Y10160000D03*
X10885000Y9660000D03*
X10885000Y9160000D03*
X10885000Y8660000D03*
D22*
X14172500Y10997500D03*
X12497500Y10997500D03*
X14172500Y9322500D03*
X12497500Y9322500D03*
D23*
X22606000Y45720000D03*
D24*
X25146000Y45720000D03*
X27686000Y45720000D03*
D23*
X1905000Y40005000D03*
D24*
X4445000Y40005000D03*
X6985000Y40005000D03*
D23*
X1905000Y36195000D03*
D24*
X4445000Y36195000D03*
X6985000Y36195000D03*
D23*
X1905000Y32385000D03*
D24*
X4445000Y32385000D03*
X6985000Y32385000D03*
D23*
X1905000Y28575000D03*
D24*
X4445000Y28575000D03*
X6985000Y28575000D03*
D23*
X1905000Y24765000D03*
D24*
X4445000Y24765000D03*
X6985000Y24765000D03*
D23*
X1905000Y20955000D03*
D24*
X4445000Y20955000D03*
X6985000Y20955000D03*
D23*
X1905000Y17145000D03*
D24*
X4445000Y17145000D03*
X6985000Y17145000D03*
D23*
X1905000Y13335000D03*
D24*
X4445000Y13335000D03*
X6985000Y13335000D03*
D25*
X11400000Y4445000D03*
X12050000Y4445000D03*
X12700000Y4445000D03*
X13350000Y4445000D03*
X14000000Y4445000D03*
D26*
X11550000Y1595000D03*
X13850000Y1595000D03*
D27*
X8950000Y1595000D03*
X16450000Y1595000D03*
D23*
X1905000Y9525000D03*
D24*
X4445000Y9525000D03*
X6985000Y9525000D03*
D28*
X20320000Y1905000D03*
D29*
X20320000Y4445000D03*
X20320000Y6985000D03*
D28*
X24130000Y1905000D03*
D29*
X24130000Y4445000D03*
X24130000Y6985000D03*
D23*
X48260000Y9525000D03*
D24*
X45720000Y9525000D03*
X43180000Y9525000D03*
D23*
X48260000Y13335000D03*
D24*
X45720000Y13335000D03*
X43180000Y13335000D03*
D23*
X48260000Y17145000D03*
D24*
X45720000Y17145000D03*
X43180000Y17145000D03*
D23*
X48260000Y20955000D03*
D24*
X45720000Y20955000D03*
X43180000Y20955000D03*
D23*
X48260000Y24765000D03*
D24*
X45720000Y24765000D03*
X43180000Y24765000D03*
D23*
X48260000Y28575000D03*
D24*
X45720000Y28575000D03*
X43180000Y28575000D03*
D23*
X48260000Y32385000D03*
D24*
X45720000Y32385000D03*
X43180000Y32385000D03*
D23*
X48260000Y36195000D03*
D24*
X45720000Y36195000D03*
X43180000Y36195000D03*
D23*
X48260000Y40005000D03*
D24*
X45720000Y40005000D03*
X43180000Y40005000D03*
D30*
X33020000Y46355000D03*
D31*
X35560000Y46355000D03*
X38100000Y46355000D03*
X40640000Y46355000D03*
D30*
X9525000Y46355000D03*
D31*
X12065000Y46355000D03*
X14605000Y46355000D03*
X17145000Y46355000D03*
D32*
X39497000Y11049000D03*
D33*
X30790000Y6096000D03*
X33290000Y6096000D03*
X35290000Y6096000D03*
X37790000Y6096000D03*
D34*
X27720000Y2516000D03*
X40860000Y2516000D03*
D35*
X21590000Y39370000D03*
X21590000Y40640000D03*
X21590000Y41910000D03*
X21590000Y43180000D03*
X27940000Y43180000D03*
X27940000Y41910000D03*
X27940000Y40640000D03*
X27940000Y39370000D03*
D36*
X11100500Y33147000D03*
X9600500Y33147000D03*
D37*
X17399000Y9537000D03*
X17399000Y11037000D03*
X19177000Y9537000D03*
X19177000Y11037000D03*
X9906000Y15736000D03*
X9906000Y14236000D03*
X9906000Y18530000D03*
X9906000Y17030000D03*
D36*
X39255000Y40005000D03*
X40755000Y40005000D03*
X39255000Y41910000D03*
X40755000Y41910000D03*
D37*
X29845000Y41795000D03*
X29845000Y43295000D03*
X40640000Y13474000D03*
X40640000Y14974000D03*
X40640000Y16268000D03*
X40640000Y17768000D03*
X9906000Y22872000D03*
X9906000Y24372000D03*
D36*
X12331000Y38608000D03*
X13831000Y38608000D03*
D37*
X34671000Y11315000D03*
X34671000Y12815000D03*
X36449000Y11315000D03*
X36449000Y12815000D03*
D36*
X12331000Y40259000D03*
X13831000Y40259000D03*
X12331000Y41910000D03*
X13831000Y41910000D03*
X40120000Y36195000D03*
X38620000Y36195000D03*
X40120000Y31242000D03*
X38620000Y31242000D03*
X20840000Y9652000D03*
X22340000Y9652000D03*
D38*
X39245320Y28986430D03*
X39240680Y19781570D03*
D39*
X14700000Y34150000D03*
X14700000Y33650000D03*
X14700000Y33150000D03*
X14700000Y32650000D03*
X14700000Y32150000D03*
X14700000Y31650000D03*
X14700000Y31150000D03*
X14700000Y30650000D03*
X14700000Y30150000D03*
X14700000Y29650000D03*
X14700000Y29150000D03*
X14700000Y28650000D03*
X14700000Y28150000D03*
X14700000Y27650000D03*
X14700000Y27150000D03*
X14700000Y26650000D03*
X14700000Y26150000D03*
X14700000Y25650000D03*
X14700000Y25150000D03*
X14700000Y24650000D03*
X14700000Y24150000D03*
X14700000Y23650000D03*
X14700000Y23150000D03*
X14700000Y22650000D03*
X14700000Y22150000D03*
X14700000Y21650000D03*
X14700000Y21150000D03*
X14700000Y20650000D03*
X14700000Y20150000D03*
X14700000Y19650000D03*
X14700000Y19150000D03*
X14700000Y18650000D03*
X14700000Y18150000D03*
X14700000Y17650000D03*
X14700000Y17150000D03*
X14700000Y16650000D03*
D40*
X16650000Y14700000D03*
X17150000Y14700000D03*
X17650000Y14700000D03*
X18150000Y14700000D03*
X18650000Y14700000D03*
X19150000Y14700000D03*
X19650000Y14700000D03*
X20150000Y14700000D03*
X20650000Y14700000D03*
X21150000Y14700000D03*
X21650000Y14700000D03*
X22150000Y14700000D03*
X22650000Y14700000D03*
X23150000Y14700000D03*
X23650000Y14700000D03*
X24150000Y14700000D03*
X24650000Y14700000D03*
X25150000Y14700000D03*
X25650000Y14700000D03*
X26150000Y14700000D03*
X26650000Y14700000D03*
X27150000Y14700000D03*
X27650000Y14700000D03*
X28150000Y14700000D03*
X28650000Y14700000D03*
X29150000Y14700000D03*
X29650000Y14700000D03*
X30150000Y14700000D03*
X30650000Y14700000D03*
X31150000Y14700000D03*
X31650000Y14700000D03*
X32150000Y14700000D03*
X32650000Y14700000D03*
X33150000Y14700000D03*
X33650000Y14700000D03*
X34150000Y14700000D03*
D39*
X36100000Y16650000D03*
X36100000Y17150000D03*
X36100000Y17650000D03*
X36100000Y18150000D03*
X36100000Y18650000D03*
X36100000Y19150000D03*
X36100000Y19650000D03*
X36100000Y20150000D03*
X36100000Y20650000D03*
X36100000Y21150000D03*
X36100000Y21650000D03*
X36100000Y22150000D03*
X36100000Y22650000D03*
X36100000Y23150000D03*
X36100000Y23650000D03*
X36100000Y24150000D03*
X36100000Y24650000D03*
X36100000Y25150000D03*
X36100000Y25650000D03*
X36100000Y26150000D03*
X36100000Y26650000D03*
X36100000Y27150000D03*
X36100000Y27650000D03*
X36100000Y28150000D03*
X36100000Y28650000D03*
X36100000Y29150000D03*
X36100000Y29650000D03*
X36100000Y30150000D03*
X36100000Y30650000D03*
X36100000Y31150000D03*
X36100000Y31650000D03*
X36100000Y32150000D03*
X36100000Y32650000D03*
X36100000Y33150000D03*
X36100000Y33650000D03*
X36100000Y34150000D03*
D40*
X34150000Y36100000D03*
X33650000Y36100000D03*
X33150000Y36100000D03*
X32650000Y36100000D03*
X32150000Y36100000D03*
X31650000Y36100000D03*
X31150000Y36100000D03*
X30650000Y36100000D03*
X30150000Y36100000D03*
X29650000Y36100000D03*
X29150000Y36100000D03*
X28650000Y36100000D03*
X28150000Y36100000D03*
X27650000Y36100000D03*
X27150000Y36100000D03*
X26650000Y36100000D03*
X26150000Y36100000D03*
X25650000Y36100000D03*
X25150000Y36100000D03*
X24650000Y36100000D03*
X24150000Y36100000D03*
X23650000Y36100000D03*
X23150000Y36100000D03*
X22650000Y36100000D03*
X22150000Y36100000D03*
X21650000Y36100000D03*
X21150000Y36100000D03*
X20650000Y36100000D03*
X20150000Y36100000D03*
X19650000Y36100000D03*
X19150000Y36100000D03*
X18650000Y36100000D03*
X18150000Y36100000D03*
X17650000Y36100000D03*
X17150000Y36100000D03*
X16650000Y36100000D03*
D36*
X9640000Y5715000D03*
X8140000Y5715000D03*
X15760000Y5715000D03*
X17260000Y5715000D03*
D37*
X36449000Y8521000D03*
X36449000Y10021000D03*
X34671000Y8521000D03*
X34671000Y10021000D03*
D41*
X12319000Y16256000D03*
X12319000Y17456000D03*
X12319000Y15056000D03*
D42*
X23749000Y11798300D03*
X23749000Y10299700D03*
D43*
X4000000Y46000000D03*
X46000000Y46000000D03*
X4000000Y4000000D03*
X46000000Y4000000D03*
M02*
