G04 #@! TF.FileFunction,Copper,L1,Top,Signal*
%FSLAX46Y46*%
G04 Gerber Fmt 4.6, Leading zero omitted, Abs format (unit mm)*
G04 Created by KiCad (PCBNEW 4.0.2-stable) date 22/09/2016 0:52:12*
%MOMM*%
G01*
G04 APERTURE LIST*
%ADD10C,0.100000*%
%ADD11R,0.800000X0.750000*%
%ADD12R,0.750000X0.800000*%
%ADD13R,1.350000X1.350000*%
%ADD14C,1.350000*%
%ADD15R,0.797560X0.797560*%
%ADD16R,0.450000X0.590000*%
%ADD17R,2.032000X1.524000*%
%ADD18O,0.300000X0.850000*%
%ADD19O,0.850000X0.300000*%
%ADD20R,1.675000X1.675000*%
%ADD21R,1.727200X2.032000*%
%ADD22O,1.727200X2.032000*%
%ADD23R,0.400000X1.400000*%
%ADD24R,1.800000X1.900000*%
%ADD25R,2.300000X1.900000*%
%ADD26R,2.032000X1.727200*%
%ADD27O,2.032000X1.727200*%
%ADD28R,2.000000X2.600000*%
%ADD29O,2.000000X2.600000*%
%ADD30R,2.235200X2.235200*%
%ADD31R,1.120000X2.880000*%
%ADD32C,3.000000*%
%ADD33R,1.143000X0.508000*%
%ADD34R,0.500000X0.900000*%
%ADD35R,0.900000X0.500000*%
%ADD36R,1.600000X2.180000*%
%ADD37R,1.550000X0.300000*%
%ADD38R,0.300000X1.550000*%
%ADD39R,2.000000X0.600000*%
%ADD40C,1.000760*%
%ADD41C,0.600000*%
%ADD42C,0.500000*%
%ADD43C,0.280000*%
%ADD44C,0.250000*%
%ADD45C,0.254000*%
G04 APERTURE END LIST*
D10*
X0Y50000000D02*
X0Y0D01*
X50000000Y50000000D02*
X0Y50000000D01*
X50000000Y0D02*
X50000000Y50000000D01*
X0Y0D02*
X50000000Y0D01*
D11*
X22340000Y11303000D03*
X20840000Y11303000D03*
X22340000Y12827000D03*
X20840000Y12827000D03*
D12*
X9906000Y21578000D03*
X9906000Y20078000D03*
X26797000Y8624000D03*
X26797000Y7124000D03*
X11684000Y29984000D03*
X11684000Y31484000D03*
X28448000Y8624000D03*
X28448000Y7124000D03*
X11684000Y28309000D03*
X11684000Y26809000D03*
D13*
X32766000Y39116000D03*
D14*
X34766000Y39116000D03*
X36766000Y39116000D03*
X32766000Y41116000D03*
X34766000Y41116000D03*
X36766000Y41116000D03*
D15*
X9601200Y34798000D03*
X11099800Y34798000D03*
D16*
X29845000Y40425000D03*
X29845000Y38315000D03*
D17*
X38481000Y14097000D03*
X38481000Y17399000D03*
D15*
X9537700Y38608000D03*
X11036300Y38608000D03*
X9537700Y40259000D03*
X11036300Y40259000D03*
X9537700Y41910000D03*
X11036300Y41910000D03*
X38620700Y34544000D03*
X40119300Y34544000D03*
X38620700Y32893000D03*
X40119300Y32893000D03*
D18*
X11835000Y7710000D03*
X12335000Y7710000D03*
X12835000Y7710000D03*
X13335000Y7710000D03*
X13835000Y7710000D03*
X14335000Y7710000D03*
X14835000Y7710000D03*
D19*
X15785000Y8660000D03*
X15785000Y9160000D03*
X15785000Y9660000D03*
X15785000Y10160000D03*
X15785000Y10660000D03*
X15785000Y11160000D03*
X15785000Y11660000D03*
D18*
X14835000Y12610000D03*
X14335000Y12610000D03*
X13835000Y12610000D03*
X13335000Y12610000D03*
X12835000Y12610000D03*
X12335000Y12610000D03*
X11835000Y12610000D03*
D19*
X10885000Y11660000D03*
X10885000Y11160000D03*
X10885000Y10660000D03*
X10885000Y10160000D03*
X10885000Y9660000D03*
X10885000Y9160000D03*
X10885000Y8660000D03*
D20*
X14172500Y10997500D03*
X12497500Y10997500D03*
X14172500Y9322500D03*
X12497500Y9322500D03*
D21*
X22606000Y45720000D03*
D22*
X25146000Y45720000D03*
X27686000Y45720000D03*
D21*
X1905000Y40005000D03*
D22*
X4445000Y40005000D03*
X6985000Y40005000D03*
D21*
X1905000Y36195000D03*
D22*
X4445000Y36195000D03*
X6985000Y36195000D03*
D21*
X1905000Y32385000D03*
D22*
X4445000Y32385000D03*
X6985000Y32385000D03*
D21*
X1905000Y28575000D03*
D22*
X4445000Y28575000D03*
X6985000Y28575000D03*
D21*
X1905000Y24765000D03*
D22*
X4445000Y24765000D03*
X6985000Y24765000D03*
D21*
X1905000Y20955000D03*
D22*
X4445000Y20955000D03*
X6985000Y20955000D03*
D21*
X1905000Y17145000D03*
D22*
X4445000Y17145000D03*
X6985000Y17145000D03*
D21*
X1905000Y13335000D03*
D22*
X4445000Y13335000D03*
X6985000Y13335000D03*
D23*
X11400000Y4445000D03*
X12050000Y4445000D03*
X12700000Y4445000D03*
X13350000Y4445000D03*
X14000000Y4445000D03*
D24*
X11550000Y1595000D03*
X13850000Y1595000D03*
D25*
X8950000Y1595000D03*
X16450000Y1595000D03*
D21*
X1905000Y9525000D03*
D22*
X4445000Y9525000D03*
X6985000Y9525000D03*
D26*
X20320000Y1905000D03*
D27*
X20320000Y4445000D03*
X20320000Y6985000D03*
D26*
X24130000Y1905000D03*
D27*
X24130000Y4445000D03*
X24130000Y6985000D03*
D21*
X48260000Y9525000D03*
D22*
X45720000Y9525000D03*
X43180000Y9525000D03*
D21*
X48260000Y13335000D03*
D22*
X45720000Y13335000D03*
X43180000Y13335000D03*
D21*
X48260000Y17145000D03*
D22*
X45720000Y17145000D03*
X43180000Y17145000D03*
D21*
X48260000Y20955000D03*
D22*
X45720000Y20955000D03*
X43180000Y20955000D03*
D21*
X48260000Y24765000D03*
D22*
X45720000Y24765000D03*
X43180000Y24765000D03*
D21*
X48260000Y28575000D03*
D22*
X45720000Y28575000D03*
X43180000Y28575000D03*
D21*
X48260000Y32385000D03*
D22*
X45720000Y32385000D03*
X43180000Y32385000D03*
D21*
X48260000Y36195000D03*
D22*
X45720000Y36195000D03*
X43180000Y36195000D03*
D21*
X48260000Y40005000D03*
D22*
X45720000Y40005000D03*
X43180000Y40005000D03*
D28*
X33020000Y46355000D03*
D29*
X35560000Y46355000D03*
X38100000Y46355000D03*
X40640000Y46355000D03*
D28*
X9525000Y46355000D03*
D29*
X12065000Y46355000D03*
X14605000Y46355000D03*
X17145000Y46355000D03*
D30*
X39497000Y11049000D03*
D31*
X30790000Y6096000D03*
X33290000Y6096000D03*
X35290000Y6096000D03*
X37790000Y6096000D03*
D32*
X27720000Y2516000D03*
X40860000Y2516000D03*
D33*
X21590000Y39370000D03*
X21590000Y40640000D03*
X21590000Y41910000D03*
X21590000Y43180000D03*
X27940000Y43180000D03*
X27940000Y41910000D03*
X27940000Y40640000D03*
X27940000Y39370000D03*
D34*
X11100500Y33147000D03*
X9600500Y33147000D03*
D35*
X17399000Y9537000D03*
X17399000Y11037000D03*
X19177000Y9537000D03*
X19177000Y11037000D03*
X9906000Y15736000D03*
X9906000Y14236000D03*
X9906000Y18530000D03*
X9906000Y17030000D03*
D34*
X39255000Y40005000D03*
X40755000Y40005000D03*
X39255000Y41910000D03*
X40755000Y41910000D03*
D35*
X29845000Y41795000D03*
X29845000Y43295000D03*
X40640000Y13474000D03*
X40640000Y14974000D03*
X40640000Y16268000D03*
X40640000Y17768000D03*
X9906000Y22872000D03*
X9906000Y24372000D03*
D34*
X12331000Y38608000D03*
X13831000Y38608000D03*
D35*
X34671000Y11315000D03*
X34671000Y12815000D03*
X36449000Y11315000D03*
X36449000Y12815000D03*
D34*
X12331000Y40259000D03*
X13831000Y40259000D03*
X12331000Y41910000D03*
X13831000Y41910000D03*
X40120000Y36195000D03*
X38620000Y36195000D03*
X40120000Y31242000D03*
X38620000Y31242000D03*
X20840000Y9652000D03*
X22340000Y9652000D03*
D36*
X39245320Y28986430D03*
X39240680Y19781570D03*
D37*
X14700000Y34150000D03*
X14700000Y33650000D03*
X14700000Y33150000D03*
X14700000Y32650000D03*
X14700000Y32150000D03*
X14700000Y31650000D03*
X14700000Y31150000D03*
X14700000Y30650000D03*
X14700000Y30150000D03*
X14700000Y29650000D03*
X14700000Y29150000D03*
X14700000Y28650000D03*
X14700000Y28150000D03*
X14700000Y27650000D03*
X14700000Y27150000D03*
X14700000Y26650000D03*
X14700000Y26150000D03*
X14700000Y25650000D03*
X14700000Y25150000D03*
X14700000Y24650000D03*
X14700000Y24150000D03*
X14700000Y23650000D03*
X14700000Y23150000D03*
X14700000Y22650000D03*
X14700000Y22150000D03*
X14700000Y21650000D03*
X14700000Y21150000D03*
X14700000Y20650000D03*
X14700000Y20150000D03*
X14700000Y19650000D03*
X14700000Y19150000D03*
X14700000Y18650000D03*
X14700000Y18150000D03*
X14700000Y17650000D03*
X14700000Y17150000D03*
X14700000Y16650000D03*
D38*
X16650000Y14700000D03*
X17150000Y14700000D03*
X17650000Y14700000D03*
X18150000Y14700000D03*
X18650000Y14700000D03*
X19150000Y14700000D03*
X19650000Y14700000D03*
X20150000Y14700000D03*
X20650000Y14700000D03*
X21150000Y14700000D03*
X21650000Y14700000D03*
X22150000Y14700000D03*
X22650000Y14700000D03*
X23150000Y14700000D03*
X23650000Y14700000D03*
X24150000Y14700000D03*
X24650000Y14700000D03*
X25150000Y14700000D03*
X25650000Y14700000D03*
X26150000Y14700000D03*
X26650000Y14700000D03*
X27150000Y14700000D03*
X27650000Y14700000D03*
X28150000Y14700000D03*
X28650000Y14700000D03*
X29150000Y14700000D03*
X29650000Y14700000D03*
X30150000Y14700000D03*
X30650000Y14700000D03*
X31150000Y14700000D03*
X31650000Y14700000D03*
X32150000Y14700000D03*
X32650000Y14700000D03*
X33150000Y14700000D03*
X33650000Y14700000D03*
X34150000Y14700000D03*
D37*
X36100000Y16650000D03*
X36100000Y17150000D03*
X36100000Y17650000D03*
X36100000Y18150000D03*
X36100000Y18650000D03*
X36100000Y19150000D03*
X36100000Y19650000D03*
X36100000Y20150000D03*
X36100000Y20650000D03*
X36100000Y21150000D03*
X36100000Y21650000D03*
X36100000Y22150000D03*
X36100000Y22650000D03*
X36100000Y23150000D03*
X36100000Y23650000D03*
X36100000Y24150000D03*
X36100000Y24650000D03*
X36100000Y25150000D03*
X36100000Y25650000D03*
X36100000Y26150000D03*
X36100000Y26650000D03*
X36100000Y27150000D03*
X36100000Y27650000D03*
X36100000Y28150000D03*
X36100000Y28650000D03*
X36100000Y29150000D03*
X36100000Y29650000D03*
X36100000Y30150000D03*
X36100000Y30650000D03*
X36100000Y31150000D03*
X36100000Y31650000D03*
X36100000Y32150000D03*
X36100000Y32650000D03*
X36100000Y33150000D03*
X36100000Y33650000D03*
X36100000Y34150000D03*
D38*
X34150000Y36100000D03*
X33650000Y36100000D03*
X33150000Y36100000D03*
X32650000Y36100000D03*
X32150000Y36100000D03*
X31650000Y36100000D03*
X31150000Y36100000D03*
X30650000Y36100000D03*
X30150000Y36100000D03*
X29650000Y36100000D03*
X29150000Y36100000D03*
X28650000Y36100000D03*
X28150000Y36100000D03*
X27650000Y36100000D03*
X27150000Y36100000D03*
X26650000Y36100000D03*
X26150000Y36100000D03*
X25650000Y36100000D03*
X25150000Y36100000D03*
X24650000Y36100000D03*
X24150000Y36100000D03*
X23650000Y36100000D03*
X23150000Y36100000D03*
X22650000Y36100000D03*
X22150000Y36100000D03*
X21650000Y36100000D03*
X21150000Y36100000D03*
X20650000Y36100000D03*
X20150000Y36100000D03*
X19650000Y36100000D03*
X19150000Y36100000D03*
X18650000Y36100000D03*
X18150000Y36100000D03*
X17650000Y36100000D03*
X17150000Y36100000D03*
X16650000Y36100000D03*
D34*
X9640000Y5715000D03*
X8140000Y5715000D03*
X15760000Y5715000D03*
X17260000Y5715000D03*
D35*
X36449000Y8521000D03*
X36449000Y10021000D03*
X34671000Y8521000D03*
X34671000Y10021000D03*
D39*
X12319000Y16256000D03*
X12319000Y17456000D03*
X12319000Y15056000D03*
D40*
X23749000Y11798300D03*
X23749000Y10299700D03*
D41*
X32766000Y37719000D03*
X31877000Y42037000D03*
X40640000Y18542000D03*
X43815000Y38100000D03*
X37465000Y8763000D03*
X29591000Y7620000D03*
X30099000Y9017000D03*
X17272000Y12192000D03*
X16764000Y8636000D03*
X30861000Y11938000D03*
X9525000Y31750000D03*
X24257000Y29591000D03*
X36957000Y43561000D03*
X38100000Y42418000D03*
X38481000Y40894000D03*
X46482000Y22860000D03*
X44450000Y15240000D03*
X46482000Y15240000D03*
X32004000Y10795000D03*
X21590000Y9017000D03*
X18288000Y11557000D03*
X8509000Y8128000D03*
X12700000Y6858000D03*
X26035000Y23622000D03*
X23241000Y23749000D03*
X34798000Y16764000D03*
X16256000Y20574000D03*
X13589000Y14224000D03*
X15748000Y13843000D03*
X13970000Y15875000D03*
X9906000Y25400000D03*
X5207000Y26670000D03*
X35052000Y36195000D03*
X25146000Y38100000D03*
X16129000Y7874000D03*
X10668000Y12446000D03*
X21590000Y12065000D03*
X26797000Y12954000D03*
X37846000Y33401000D03*
X7620000Y11049000D03*
X24003000Y34798000D03*
X26289000Y17780000D03*
X19304000Y32893000D03*
X24130000Y16002000D03*
X39751000Y15621000D03*
X38481000Y40005000D03*
X36830000Y34925000D03*
X36830000Y36703000D03*
X33655000Y29464000D03*
X37592000Y30988000D03*
X12827000Y26924000D03*
X18161000Y16002000D03*
X10795000Y20701000D03*
X28702000Y21590000D03*
X22098000Y31242000D03*
X39370000Y32131000D03*
X27051000Y37465000D03*
X21463000Y26416000D03*
X19939000Y19050000D03*
X28829000Y16510000D03*
X26289000Y16510000D03*
X19558000Y16002000D03*
X34798000Y17653000D03*
X18161000Y16891000D03*
X20701000Y21209000D03*
X21336000Y18415000D03*
X34798000Y15875000D03*
X34798000Y37338000D03*
X11811000Y5842000D03*
X29845000Y4191000D03*
X21844000Y38481000D03*
X9271000Y6858000D03*
X8001000Y33528000D03*
X6477000Y22479000D03*
X7620000Y23368000D03*
X9017000Y23495000D03*
X9017000Y21209000D03*
X13335000Y19812000D03*
X12065000Y18415000D03*
X21209000Y20447000D03*
X20828000Y19050000D03*
X25019000Y16002000D03*
X26289000Y21209000D03*
X41783000Y21717000D03*
X41783000Y20828000D03*
X40640000Y30226000D03*
X40005000Y24638000D03*
X42418000Y27051000D03*
X41783000Y38100000D03*
X40386000Y37592000D03*
X12954000Y37465000D03*
X12065000Y37465000D03*
X33655000Y11303000D03*
X16891000Y13335000D03*
X16002000Y14732000D03*
X35560000Y10668000D03*
X13335000Y33655000D03*
X13335000Y27559000D03*
X19685000Y12954000D03*
X33655000Y12700000D03*
X35560000Y12192000D03*
X18796000Y13335000D03*
X16002000Y24511000D03*
X16002000Y19177000D03*
X16002000Y25400000D03*
X17653000Y30353000D03*
X17780000Y23495000D03*
X18796000Y28321000D03*
X17018000Y28321000D03*
X16764000Y27305000D03*
X18669000Y23495000D03*
X19304000Y27686000D03*
X18288000Y29591000D03*
X17018000Y29591000D03*
X16891000Y23495000D03*
X32258000Y29464000D03*
X33909000Y18923000D03*
X33020000Y18923000D03*
X32766000Y20193000D03*
X32131000Y20701000D03*
X31369000Y22225000D03*
X33528000Y22098000D03*
X29972000Y22225000D03*
X33528000Y22987000D03*
X32131000Y21844000D03*
X33528000Y21209000D03*
X29464000Y21209000D03*
X34290000Y32893000D03*
X30099000Y24130000D03*
X33528000Y25654000D03*
X31369000Y24511000D03*
X33528000Y26543000D03*
X28575000Y23495000D03*
X31369000Y23622000D03*
X33528000Y24765000D03*
X32258000Y23622000D03*
X33528000Y23876000D03*
X21082000Y27686000D03*
X16764000Y32131000D03*
X18288000Y30988000D03*
D42*
X29845000Y43295000D02*
X29730000Y43295000D01*
X29730000Y43295000D02*
X28956000Y44069000D01*
X28956000Y44069000D02*
X26924000Y44069000D01*
X26924000Y44069000D02*
X25273000Y45720000D01*
X25273000Y45720000D02*
X25146000Y45720000D01*
X22606000Y45720000D02*
X22606000Y46101000D01*
X22606000Y46101000D02*
X24892000Y48387000D01*
D43*
X32766000Y37719000D02*
X32004000Y37719000D01*
X31369000Y41529000D02*
X31877000Y42037000D01*
X31369000Y38354000D02*
X31369000Y41529000D01*
X32004000Y37719000D02*
X31369000Y38354000D01*
D42*
X21590000Y39370000D02*
X21590000Y40640000D01*
X21590000Y40640000D02*
X21590000Y41910000D01*
X21590000Y41910000D02*
X21590000Y43180000D01*
X24892000Y48387000D02*
X30988000Y48387000D01*
X30988000Y48387000D02*
X33020000Y46355000D01*
X21590000Y43180000D02*
X21590000Y44704000D01*
X21590000Y44704000D02*
X22606000Y45720000D01*
X9525000Y46355000D02*
X9525000Y46609000D01*
X9525000Y46609000D02*
X11303000Y48387000D01*
X11303000Y48387000D02*
X19939000Y48387000D01*
X19939000Y48387000D02*
X22606000Y45720000D01*
D44*
X40640000Y18542000D02*
X40640000Y17768000D01*
D43*
X46990000Y22352000D02*
X47244000Y22606000D01*
X47244000Y22606000D02*
X47244000Y23114000D01*
X47244000Y23114000D02*
X46990000Y23368000D01*
X46990000Y23368000D02*
X46990000Y36957000D01*
X46990000Y12573000D02*
X46990000Y14732000D01*
X43815000Y38100000D02*
X45339000Y38100000D01*
X45339000Y38100000D02*
X45847000Y38100000D01*
X45847000Y38100000D02*
X46990000Y36957000D01*
X46990000Y12573000D02*
X45847000Y11430000D01*
X45847000Y11430000D02*
X42799000Y11430000D01*
X42799000Y11430000D02*
X40894000Y9525000D01*
X40894000Y9525000D02*
X38227000Y9525000D01*
X38227000Y9525000D02*
X37465000Y8763000D01*
X29591000Y7620000D02*
X30099000Y8128000D01*
X30099000Y8128000D02*
X30099000Y9017000D01*
X47244000Y15494000D02*
X46990000Y15748000D01*
X47244000Y14986000D02*
X47244000Y15494000D01*
X46990000Y14732000D02*
X47244000Y14986000D01*
X46990000Y15748000D02*
X46990000Y22352000D01*
X17650000Y13078000D02*
X17650000Y12570000D01*
X17650000Y13078000D02*
X17650000Y14700000D01*
X17650000Y12570000D02*
X17272000Y12192000D01*
X15785000Y8660000D02*
X16740000Y8660000D01*
X16740000Y8660000D02*
X16764000Y8636000D01*
X14835000Y7710000D02*
X15785000Y8660000D01*
X9906000Y20078000D02*
X9005000Y20078000D01*
X8624000Y24372000D02*
X9906000Y24372000D01*
X8318500Y24066500D02*
X8624000Y24372000D01*
X8318500Y21780500D02*
X8318500Y24066500D01*
X8255000Y21717000D02*
X8318500Y21780500D01*
X8255000Y20828000D02*
X8255000Y21717000D01*
X9005000Y20078000D02*
X8255000Y20828000D01*
X25150000Y14700000D02*
X25150000Y13331000D01*
X25654000Y8267000D02*
X26797000Y7124000D01*
X25654000Y12827000D02*
X25654000Y8267000D01*
X25150000Y13331000D02*
X25654000Y12827000D01*
X27150000Y14700000D02*
X27150000Y13617000D01*
X28829000Y11938000D02*
X30861000Y11938000D01*
X27150000Y13617000D02*
X28829000Y11938000D01*
X9537000Y32766000D02*
X9537000Y31762000D01*
X9537000Y31762000D02*
X9525000Y31750000D01*
X9537000Y32766000D02*
X9537000Y32754000D01*
X10807000Y31484000D02*
X11684000Y31484000D01*
X9537000Y32754000D02*
X10807000Y31484000D01*
X23241000Y28575000D02*
X23241000Y23749000D01*
X24257000Y29591000D02*
X23241000Y28575000D01*
X21150000Y14700000D02*
X21150000Y16578000D01*
X21150000Y16578000D02*
X23241000Y18669000D01*
X23241000Y18669000D02*
X23241000Y23749000D01*
X27940000Y41910000D02*
X26543000Y41910000D01*
X38481000Y42037000D02*
X38100000Y42418000D01*
X38481000Y40894000D02*
X38481000Y42037000D01*
X31750000Y43561000D02*
X36957000Y43561000D01*
X28194000Y47117000D02*
X31750000Y43561000D01*
X24638000Y47117000D02*
X28194000Y47117000D01*
X23876000Y46355000D02*
X24638000Y47117000D01*
X23876000Y44577000D02*
X23876000Y46355000D01*
X26543000Y41910000D02*
X23876000Y44577000D01*
X39240680Y21587680D02*
X39240680Y19781570D01*
X39624000Y21971000D02*
X39240680Y21587680D01*
X40513000Y21971000D02*
X39624000Y21971000D01*
X41402000Y22860000D02*
X40513000Y21971000D01*
X41910000Y22860000D02*
X41402000Y22860000D01*
X46482000Y22860000D02*
X41910000Y22860000D01*
X44450000Y15240000D02*
X46482000Y15240000D01*
X30329000Y2516000D02*
X27720000Y2516000D01*
X32004000Y4191000D02*
X30329000Y2516000D01*
X32004000Y5842000D02*
X32004000Y4191000D01*
X32004000Y7874000D02*
X32004000Y5842000D01*
X32004000Y10795000D02*
X32004000Y7874000D01*
X19050000Y8509000D02*
X17653000Y7112000D01*
X21082000Y8509000D02*
X19050000Y8509000D01*
X21590000Y9017000D02*
X21082000Y8509000D01*
X19177000Y11037000D02*
X18808000Y11037000D01*
X18808000Y11037000D02*
X18288000Y11557000D01*
X16510000Y6477000D02*
X16510000Y6604000D01*
X16510000Y6604000D02*
X17018000Y7112000D01*
X17018000Y7112000D02*
X17653000Y7112000D01*
X14000000Y4445000D02*
X15875000Y4445000D01*
X16510000Y5080000D02*
X16510000Y6477000D01*
X15875000Y4445000D02*
X16510000Y5080000D01*
X18669000Y1905000D02*
X20320000Y1905000D01*
X17653000Y7112000D02*
X18415000Y6350000D01*
X18415000Y6350000D02*
X18415000Y2159000D01*
X18415000Y2159000D02*
X18669000Y1905000D01*
X1905000Y7874000D02*
X1905000Y9525000D01*
X2413000Y7366000D02*
X1905000Y7874000D01*
X7747000Y7366000D02*
X2413000Y7366000D01*
X8509000Y8128000D02*
X7747000Y7366000D01*
X12835000Y6993000D02*
X12700000Y6858000D01*
X12835000Y6993000D02*
X12835000Y7710000D01*
X25908000Y23749000D02*
X23241000Y23749000D01*
X26035000Y23622000D02*
X25908000Y23749000D01*
D44*
X35184000Y17150000D02*
X34798000Y16764000D01*
X36100000Y17150000D02*
X35184000Y17150000D01*
D43*
X14700000Y18150000D02*
X15991000Y18150000D01*
X16764000Y20066000D02*
X16256000Y20574000D01*
X16764000Y18923000D02*
X16764000Y20066000D01*
X15991000Y18150000D02*
X16764000Y18923000D01*
X15367000Y14224000D02*
X13589000Y14224000D01*
X15748000Y13843000D02*
X15367000Y14224000D01*
D44*
X13589000Y16256000D02*
X13970000Y15875000D01*
X13589000Y16256000D02*
X12319000Y16256000D01*
D43*
X9906000Y24372000D02*
X9906000Y25400000D01*
X1905000Y26924000D02*
X1905000Y28575000D01*
X5207000Y26670000D02*
X2159000Y26670000D01*
X2159000Y26670000D02*
X1905000Y26924000D01*
X14700000Y28650000D02*
X13410000Y28650000D01*
X13410000Y28650000D02*
X11684000Y26924000D01*
X11684000Y26924000D02*
X11684000Y26809000D01*
X34671000Y8521000D02*
X36449000Y8521000D01*
X36449000Y8521000D02*
X37790000Y7180000D01*
X37790000Y7180000D02*
X37790000Y6096000D01*
X20150000Y14700000D02*
X20150000Y13517000D01*
X20150000Y13517000D02*
X20840000Y12827000D01*
X21150000Y14700000D02*
X21150000Y13137000D01*
X21150000Y13137000D02*
X20840000Y12827000D01*
X20840000Y11303000D02*
X20840000Y12827000D01*
X19177000Y11037000D02*
X20574000Y11037000D01*
X20574000Y11037000D02*
X20840000Y11303000D01*
X12835000Y7710000D02*
X12835000Y8985000D01*
X12835000Y8985000D02*
X12497500Y9322500D01*
X12497500Y9322500D02*
X14172500Y10997500D01*
X14172500Y10997500D02*
X14172500Y9322500D01*
X35049000Y33150000D02*
X36100000Y33150000D01*
X34798000Y33401000D02*
X34798000Y35941000D01*
X35049000Y33150000D02*
X34798000Y33401000D01*
X35052000Y36195000D02*
X34798000Y35941000D01*
X25650000Y36100000D02*
X25650000Y37596000D01*
X25650000Y37596000D02*
X25146000Y38100000D01*
D44*
X16129000Y7874000D02*
X15113000Y6858000D01*
X15113000Y6858000D02*
X14732000Y6858000D01*
X14732000Y6858000D02*
X14335000Y7255000D01*
X14335000Y7255000D02*
X14335000Y7710000D01*
D43*
X33401000Y13462000D02*
X37846000Y13462000D01*
X37846000Y13462000D02*
X38481000Y14097000D01*
X9601200Y34798000D02*
X9601200Y38544500D01*
X9601200Y38544500D02*
X9537700Y38608000D01*
X8763000Y31496000D02*
X8763000Y33959800D01*
X11109000Y29150000D02*
X8763000Y31496000D01*
X8763000Y33959800D02*
X9601200Y34798000D01*
X11557000Y13462000D02*
X11557000Y13335000D01*
X14986000Y13462000D02*
X11557000Y13462000D01*
X17399000Y11049000D02*
X14986000Y13462000D01*
X11557000Y13335000D02*
X10668000Y12446000D01*
X26797000Y12954000D02*
X26797000Y10795000D01*
X28448000Y9144000D02*
X28448000Y8624000D01*
X26797000Y10795000D02*
X28448000Y9144000D01*
X26650000Y14700000D02*
X26650000Y13101000D01*
X21590000Y10795000D02*
X21590000Y12065000D01*
X21590000Y10414000D02*
X21590000Y10795000D01*
X21590000Y10414000D02*
X20840000Y9664000D01*
X26650000Y13101000D02*
X26797000Y12954000D01*
X28714000Y8890000D02*
X28829000Y8890000D01*
X28829000Y8890000D02*
X33401000Y13462000D01*
X28714000Y8890000D02*
X28448000Y8624000D01*
X37465000Y42799000D02*
X37846000Y43180000D01*
X30099000Y37465000D02*
X30861000Y38227000D01*
X30861000Y38227000D02*
X30861000Y42037000D01*
X30861000Y42037000D02*
X31623000Y42799000D01*
X31623000Y42799000D02*
X37465000Y42799000D01*
X26150000Y36100000D02*
X26150000Y37580000D01*
X28067000Y37465000D02*
X29845000Y37465000D01*
X27305000Y38227000D02*
X28067000Y37465000D01*
X26797000Y38227000D02*
X27305000Y38227000D01*
X26150000Y37580000D02*
X26797000Y38227000D01*
X29845000Y37465000D02*
X30099000Y37465000D01*
X39255000Y42406000D02*
X39255000Y41910000D01*
X38481000Y43180000D02*
X39255000Y42406000D01*
X37846000Y43180000D02*
X38481000Y43180000D01*
X18669000Y10287000D02*
X18161000Y10795000D01*
X18669000Y10287000D02*
X20205000Y10287000D01*
X20840000Y9652000D02*
X20205000Y10287000D01*
X18161000Y10795000D02*
X17641000Y10795000D01*
X17641000Y10795000D02*
X17399000Y11037000D01*
D42*
X37846000Y33401000D02*
X38354000Y32893000D01*
X38354000Y32893000D02*
X38620700Y32893000D01*
D43*
X7239000Y11430000D02*
X7620000Y11049000D01*
X7239000Y11430000D02*
X6477000Y11430000D01*
X6477000Y11430000D02*
X5715000Y12192000D01*
X5715000Y12192000D02*
X5715000Y25527000D01*
X5715000Y25527000D02*
X6858000Y26670000D01*
X6858000Y26670000D02*
X8629000Y26670000D01*
X8629000Y26670000D02*
X11109000Y29150000D01*
X26150000Y36100000D02*
X26150000Y34532000D01*
X24765000Y34036000D02*
X24003000Y34798000D01*
X25654000Y34036000D02*
X24765000Y34036000D01*
X26150000Y34532000D02*
X25654000Y34036000D01*
X11684000Y28309000D02*
X11684000Y28829000D01*
X11684000Y28829000D02*
X12005000Y29150000D01*
X26650000Y15855000D02*
X26650000Y14700000D01*
X27051000Y16256000D02*
X26650000Y15855000D01*
X27051000Y17018000D02*
X27051000Y16256000D01*
X26289000Y17780000D02*
X27051000Y17018000D01*
X17399000Y11037000D02*
X17399000Y11049000D01*
X38620700Y34544000D02*
X38620700Y34810700D01*
X38620700Y34810700D02*
X39370000Y35560000D01*
X39370000Y35560000D02*
X39370000Y39890000D01*
X39370000Y39890000D02*
X39255000Y40005000D01*
X14700000Y29150000D02*
X16069000Y29150000D01*
X16069000Y29150000D02*
X16352046Y29465893D01*
X16352046Y29465893D02*
X16383000Y29972000D01*
X16383000Y29972000D02*
X16383000Y30099000D01*
X16383000Y30099000D02*
X19177000Y32893000D01*
X19177000Y32893000D02*
X19304000Y32893000D01*
X20840000Y9652000D02*
X20840000Y9664000D01*
X24150000Y14700000D02*
X24150000Y15982000D01*
X24150000Y15982000D02*
X24130000Y16002000D01*
D42*
X38481000Y14097000D02*
X38481000Y14351000D01*
X38481000Y14351000D02*
X39751000Y15621000D01*
D43*
X29150000Y14700000D02*
X29150000Y13776000D01*
X29464000Y13462000D02*
X33401000Y13462000D01*
X29150000Y13776000D02*
X29464000Y13462000D01*
D42*
X39255000Y40005000D02*
X38481000Y40005000D01*
D43*
X36100000Y32650000D02*
X38377700Y32650000D01*
X38377700Y32650000D02*
X38620700Y32893000D01*
D42*
X38620700Y34544000D02*
X38620700Y32893000D01*
X39255000Y40005000D02*
X39255000Y41910000D01*
D43*
X11109000Y29150000D02*
X12005000Y29150000D01*
X12005000Y29150000D02*
X14700000Y29150000D01*
D42*
X9537700Y38608000D02*
X9537700Y40259000D01*
X9537700Y40259000D02*
X9537700Y41910000D01*
D44*
X36830000Y36703000D02*
X36830000Y34925000D01*
X25654000Y21463000D02*
X25654000Y22225000D01*
X28321000Y24130000D02*
X29210000Y24130000D01*
X29210000Y24130000D02*
X30861000Y25781000D01*
X30861000Y25781000D02*
X32004000Y25781000D01*
X32004000Y25781000D02*
X32893000Y26670000D01*
X32893000Y26670000D02*
X32893000Y26924000D01*
X32893000Y26924000D02*
X33655000Y27686000D01*
X21650000Y14700000D02*
X21650000Y15681000D01*
X33655000Y27686000D02*
X33655000Y29464000D01*
X25654000Y19685000D02*
X25654000Y21463000D01*
X21650000Y15681000D02*
X25654000Y19685000D01*
X27559000Y24130000D02*
X28321000Y24130000D01*
X25654000Y22225000D02*
X27559000Y24130000D01*
X39245320Y28986430D02*
X39245320Y29334680D01*
X39245320Y29334680D02*
X37592000Y30988000D01*
X39245320Y28986430D02*
X39400430Y28986430D01*
X10390000Y8660000D02*
X9017000Y10033000D01*
X9017000Y10033000D02*
X9017000Y15875000D01*
X9017000Y15875000D02*
X8509000Y16383000D01*
X8509000Y16383000D02*
X8509000Y17653000D01*
X8509000Y17653000D02*
X9017000Y18161000D01*
X9017000Y18161000D02*
X9017000Y18923000D01*
X9017000Y18923000D02*
X9271000Y19177000D01*
X9271000Y19177000D02*
X10287000Y19177000D01*
X10287000Y19177000D02*
X12954000Y21844000D01*
X12954000Y21844000D02*
X12954000Y26797000D01*
X12954000Y26797000D02*
X12827000Y26924000D01*
X10390000Y8660000D02*
X10885000Y8660000D01*
X23368000Y12700000D02*
X24130000Y12700000D01*
X23114000Y12954000D02*
X23368000Y12700000D01*
X22650000Y13799000D02*
X23114000Y13335000D01*
X22650000Y14700000D02*
X22650000Y13799000D01*
X23114000Y13335000D02*
X23114000Y12954000D01*
X24638000Y11188700D02*
X23749000Y10299700D01*
X24638000Y12192000D02*
X24638000Y11188700D01*
X24130000Y12700000D02*
X24638000Y12192000D01*
X23749000Y10299700D02*
X23343300Y10299700D01*
X23343300Y10299700D02*
X22340000Y11303000D01*
X23749000Y11798300D02*
X23126700Y11798300D01*
X23126700Y11798300D02*
X22340000Y12585000D01*
X22340000Y12827000D02*
X22340000Y12585000D01*
X22340000Y12827000D02*
X22340000Y12585000D01*
X22150000Y14700000D02*
X22150000Y13017000D01*
X22150000Y13017000D02*
X22340000Y12827000D01*
X9906000Y21578000D02*
X9918000Y21578000D01*
X9918000Y21578000D02*
X10795000Y20701000D01*
X18150000Y15991000D02*
X18150000Y14700000D01*
X18161000Y16002000D02*
X18150000Y15991000D01*
X9906000Y22872000D02*
X9906000Y21578000D01*
X28770000Y32150000D02*
X26650000Y34270000D01*
X36100000Y32150000D02*
X28770000Y32150000D01*
X28829000Y21463000D02*
X28702000Y21590000D01*
X28829000Y16510000D02*
X28829000Y21463000D01*
X26150000Y14700000D02*
X26150000Y12627998D01*
X26797000Y10033000D02*
X26797000Y8624000D01*
X26289000Y10541000D02*
X26797000Y10033000D01*
X26289000Y12488998D02*
X26289000Y10541000D01*
X26150000Y12627998D02*
X26289000Y12488998D01*
X22098000Y31242000D02*
X22161500Y31178500D01*
X22161500Y31178500D02*
X23558500Y31178500D01*
X36100000Y32150000D02*
X39351000Y32150000D01*
X39351000Y32150000D02*
X39370000Y32131000D01*
X26650000Y37064000D02*
X27051000Y37465000D01*
X26650000Y37064000D02*
X26650000Y36100000D01*
X14700000Y29650000D02*
X12018000Y29650000D01*
X12018000Y29650000D02*
X11684000Y29984000D01*
X21717000Y26670000D02*
X21717000Y27432000D01*
X21463000Y26416000D02*
X21717000Y26670000D01*
X21336000Y27051000D02*
X21717000Y27432000D01*
X20701000Y27051000D02*
X21336000Y27051000D01*
X19939000Y26289000D02*
X20701000Y27051000D01*
X19939000Y19050000D02*
X19939000Y26289000D01*
X21717000Y27432000D02*
X21717000Y29337000D01*
X21717000Y29337000D02*
X23558500Y31178500D01*
X23558500Y31178500D02*
X25908000Y33528000D01*
X26150000Y14700000D02*
X26150000Y16371000D01*
X28650000Y16331000D02*
X28650000Y14700000D01*
X28829000Y16510000D02*
X28650000Y16331000D01*
X26150000Y16371000D02*
X26289000Y16510000D01*
X20650000Y14700000D02*
X20650000Y15672000D01*
X20320000Y16002000D02*
X19558000Y16002000D01*
X20650000Y15672000D02*
X20320000Y16002000D01*
X14700000Y29650000D02*
X15680000Y29650000D01*
X26650000Y34270000D02*
X26650000Y36100000D01*
X25908000Y33528000D02*
X26650000Y34270000D01*
X19050000Y33528000D02*
X25908000Y33528000D01*
X15875000Y30353000D02*
X19050000Y33528000D01*
X15875000Y29845000D02*
X15875000Y30353000D01*
X15680000Y29650000D02*
X15875000Y29845000D01*
X34801000Y17650000D02*
X36100000Y17650000D01*
X34798000Y17653000D02*
X34801000Y17650000D01*
X17402000Y17650000D02*
X14700000Y17650000D01*
X18161000Y16891000D02*
X17402000Y17650000D01*
X21336000Y18415000D02*
X21717000Y18796000D01*
X21336000Y21209000D02*
X20701000Y21209000D01*
X21844000Y20701000D02*
X21336000Y21209000D01*
X21844000Y18923000D02*
X21844000Y20701000D01*
X21717000Y18796000D02*
X21844000Y18923000D01*
X18650000Y14700000D02*
X18650000Y15602000D01*
X19304000Y18415000D02*
X21336000Y18415000D01*
X18796000Y17907000D02*
X19304000Y18415000D01*
X18796000Y15748000D02*
X18796000Y17907000D01*
X18650000Y15602000D02*
X18796000Y15748000D01*
X34798000Y15875000D02*
X35573000Y16650000D01*
X35573000Y16650000D02*
X36100000Y16650000D01*
X36100000Y34150000D02*
X36100000Y36036000D01*
X36100000Y36036000D02*
X34798000Y37338000D01*
X33650000Y36100000D02*
X33650000Y38000000D01*
X33650000Y38000000D02*
X34766000Y39116000D01*
X34150000Y36100000D02*
X34150000Y37706000D01*
X35941000Y42291000D02*
X34766000Y41116000D01*
X37211000Y42291000D02*
X35941000Y42291000D01*
X37846000Y41656000D02*
X37211000Y42291000D01*
X37846000Y38608000D02*
X37846000Y41656000D01*
X37211000Y37973000D02*
X37846000Y38608000D01*
X34417000Y37973000D02*
X37211000Y37973000D01*
X34150000Y37706000D02*
X34417000Y37973000D01*
X11100500Y33147000D02*
X11100500Y34797300D01*
X11100500Y34797300D02*
X11099800Y34798000D01*
D42*
X27940000Y43180000D02*
X28448000Y43180000D01*
X28448000Y43180000D02*
X29833000Y41795000D01*
X29833000Y41795000D02*
X29845000Y41795000D01*
X29845000Y40425000D02*
X29845000Y41795000D01*
D44*
X29845000Y41795000D02*
X29845000Y41910000D01*
X40640000Y14974000D02*
X40640000Y16268000D01*
X40640000Y16268000D02*
X39612000Y16268000D01*
X39612000Y16268000D02*
X38481000Y17399000D01*
X36100000Y19150000D02*
X37111000Y19150000D01*
X37111000Y19150000D02*
X38481000Y17780000D01*
X38481000Y17780000D02*
X38481000Y17399000D01*
X11036300Y38608000D02*
X12331000Y38608000D01*
X11036300Y40259000D02*
X12331000Y40259000D01*
X11036300Y41910000D02*
X12331000Y41910000D01*
X40120000Y36195000D02*
X40120000Y34544700D01*
X40120000Y34544700D02*
X40119300Y34544000D01*
X40119300Y32893000D02*
X40119300Y31242700D01*
X40119300Y31242700D02*
X40120000Y31242000D01*
X11400000Y5431000D02*
X11811000Y5842000D01*
X11400000Y5431000D02*
X11400000Y4445000D01*
X30790000Y6096000D02*
X30790000Y5136000D01*
X30790000Y5136000D02*
X29845000Y4191000D01*
X13335000Y7710000D02*
X13335000Y6477000D01*
X11430000Y6477000D02*
X10668000Y5715000D01*
X10668000Y5715000D02*
X9640000Y5715000D01*
X12065000Y6477000D02*
X11430000Y6477000D01*
X12319000Y6223000D02*
X12065000Y6477000D01*
X13081000Y6223000D02*
X12319000Y6223000D01*
X13335000Y6477000D02*
X13081000Y6223000D01*
X12700000Y4445000D02*
X12700000Y3683000D01*
X9640000Y4711000D02*
X9640000Y5715000D01*
X11049000Y3302000D02*
X9640000Y4711000D01*
X12319000Y3302000D02*
X11049000Y3302000D01*
X12700000Y3683000D02*
X12319000Y3302000D01*
X13835000Y7710000D02*
X13835000Y6215000D01*
X13835000Y6215000D02*
X13335000Y5715000D01*
X12050000Y4445000D02*
X12050000Y5192000D01*
X12573000Y5715000D02*
X13335000Y5715000D01*
X13335000Y5715000D02*
X15760000Y5715000D01*
X12050000Y5192000D02*
X12573000Y5715000D01*
X15785000Y9160000D02*
X16399000Y9160000D01*
X16776000Y9537000D02*
X17399000Y9537000D01*
X16399000Y9160000D02*
X16776000Y9537000D01*
X15785000Y10160000D02*
X18034000Y10160000D01*
X18657000Y9537000D02*
X19177000Y9537000D01*
X18034000Y10160000D02*
X18657000Y9537000D01*
X10885000Y10160000D02*
X10414000Y10160000D01*
X10795000Y16141000D02*
X9906000Y17030000D01*
X10795000Y13843000D02*
X10795000Y16141000D01*
X10033000Y13081000D02*
X10795000Y13843000D01*
X10033000Y10541000D02*
X10033000Y13081000D01*
X10414000Y10160000D02*
X10033000Y10541000D01*
X10885000Y9660000D02*
X10152000Y9660000D01*
X9906000Y13716000D02*
X9906000Y14236000D01*
X9525000Y13335000D02*
X9906000Y13716000D01*
X9525000Y10287000D02*
X9525000Y13335000D01*
X10152000Y9660000D02*
X9525000Y10287000D01*
X23650000Y36100000D02*
X23650000Y37056000D01*
X22860000Y37465000D02*
X21844000Y38481000D01*
X23241000Y37465000D02*
X22860000Y37465000D01*
X23650000Y37056000D02*
X23241000Y37465000D01*
X9271000Y6858000D02*
X8140000Y5727000D01*
X8140000Y5715000D02*
X8140000Y5727000D01*
X17260000Y5715000D02*
X17260000Y2405000D01*
X17260000Y2405000D02*
X16450000Y1595000D01*
X8140000Y5715000D02*
X8140000Y2405000D01*
X8140000Y2405000D02*
X8950000Y1595000D01*
X13850000Y1595000D02*
X11550000Y1595000D01*
X11550000Y1595000D02*
X8950000Y1595000D01*
X16450000Y1595000D02*
X13850000Y1595000D01*
X6985000Y34544000D02*
X6985000Y36195000D01*
X8001000Y33528000D02*
X6985000Y34544000D01*
X6477000Y22479000D02*
X7366000Y23368000D01*
X7366000Y23368000D02*
X7620000Y23368000D01*
X9017000Y21209000D02*
X9017000Y23495000D01*
X13335000Y19685000D02*
X13335000Y19812000D01*
X12065000Y18415000D02*
X12827000Y19177000D01*
X12827000Y19177000D02*
X13335000Y19685000D01*
X21209000Y20447000D02*
X20828000Y20066000D01*
X20828000Y20066000D02*
X20828000Y19050000D01*
X25019000Y16002000D02*
X25019000Y18288000D01*
X26162000Y21082000D02*
X26162000Y19431000D01*
X25019000Y18288000D02*
X26162000Y19431000D01*
X26162000Y21082000D02*
X26289000Y21209000D01*
X26416000Y21082000D02*
X26289000Y21209000D01*
X41910000Y14605000D02*
X43180000Y13335000D01*
X41910000Y19050000D02*
X41910000Y14605000D01*
X41021000Y19939000D02*
X41910000Y19050000D01*
X41021000Y20955000D02*
X41021000Y19939000D01*
X41783000Y21717000D02*
X41021000Y20955000D01*
X43180000Y18542000D02*
X43180000Y17145000D01*
X41783000Y19939000D02*
X43180000Y18542000D01*
X41783000Y20828000D02*
X41783000Y19939000D01*
X40767000Y30099000D02*
X40640000Y30226000D01*
X40767000Y25400000D02*
X40767000Y30099000D01*
X40005000Y24638000D02*
X40767000Y25400000D01*
X44450000Y34925000D02*
X43180000Y36195000D01*
X44450000Y27432000D02*
X44450000Y34925000D01*
X44069000Y27051000D02*
X44450000Y27432000D01*
X42418000Y27051000D02*
X44069000Y27051000D01*
X36100000Y23150000D02*
X40295000Y23150000D01*
X41783000Y24638000D02*
X41783000Y38100000D01*
X40295000Y23150000D02*
X41783000Y24638000D01*
X40005000Y41160000D02*
X40755000Y41910000D01*
X40005000Y37973000D02*
X40005000Y41160000D01*
X40386000Y37592000D02*
X40005000Y37973000D01*
X40755000Y41910000D02*
X40755000Y42430000D01*
X40755000Y42430000D02*
X38100000Y45085000D01*
X38100000Y45085000D02*
X38100000Y46355000D01*
X41529000Y42418000D02*
X41529000Y41402000D01*
X40640000Y46355000D02*
X40640000Y43307000D01*
X41529000Y42418000D02*
X40640000Y43307000D01*
X40767000Y40640000D02*
X40767000Y40017000D01*
X41529000Y41402000D02*
X40767000Y40640000D01*
X40767000Y40017000D02*
X40755000Y40005000D01*
X36100000Y23650000D02*
X40033000Y23650000D01*
X40767000Y38100000D02*
X40767000Y39993000D01*
X41148000Y37719000D02*
X40767000Y38100000D01*
X41275000Y37592000D02*
X41148000Y37719000D01*
X41275000Y24892000D02*
X41275000Y37592000D01*
X40033000Y23650000D02*
X41275000Y24892000D01*
X40767000Y39993000D02*
X40755000Y40005000D01*
X40755000Y40005000D02*
X40755000Y40120000D01*
X14700000Y32150000D02*
X13697000Y32150000D01*
X12573000Y37084000D02*
X12954000Y37465000D01*
X12573000Y34798000D02*
X12573000Y37084000D01*
X12573000Y33274000D02*
X12573000Y34798000D01*
X13081000Y32766000D02*
X12573000Y33274000D01*
X13697000Y32150000D02*
X13081000Y32766000D01*
X14700000Y31650000D02*
X13435000Y31650000D01*
X12065000Y34544000D02*
X12065000Y37465000D01*
X12065000Y33020000D02*
X12065000Y34544000D01*
X12573000Y32512000D02*
X12065000Y33020000D01*
X13435000Y31650000D02*
X12573000Y32512000D01*
D43*
X40640000Y13474000D02*
X40640000Y12192000D01*
X40640000Y12192000D02*
X39497000Y11049000D01*
D44*
X34671000Y10021000D02*
X34671000Y11315000D01*
X33290000Y6096000D02*
X33290000Y9160000D01*
X33290000Y9160000D02*
X34151000Y10021000D01*
X34151000Y10021000D02*
X34671000Y10021000D01*
X33290000Y6096000D02*
X33290000Y9160000D01*
X34151000Y10021000D02*
X34671000Y10021000D01*
X33290000Y9160000D02*
X34151000Y10021000D01*
X34671000Y11315000D02*
X34671000Y10021000D01*
X33655000Y11303000D02*
X33667000Y11315000D01*
X34671000Y11315000D02*
X33667000Y11315000D01*
X17150000Y13594000D02*
X16891000Y13335000D01*
X17150000Y13594000D02*
X17150000Y14700000D01*
X34163000Y9271000D02*
X33782000Y8890000D01*
X35179000Y9271000D02*
X34163000Y9271000D01*
X35929000Y10021000D02*
X35179000Y9271000D01*
X16002000Y14732000D02*
X16034000Y14700000D01*
X16650000Y14700000D02*
X16034000Y14700000D01*
X36207000Y11315000D02*
X35560000Y10668000D01*
X36449000Y11315000D02*
X36207000Y11315000D01*
X36449000Y10021000D02*
X35929000Y10021000D01*
X33782000Y8128000D02*
X35290000Y6620000D01*
X33782000Y8890000D02*
X33782000Y8128000D01*
X35290000Y6620000D02*
X35290000Y6096000D01*
X35290000Y6096000D02*
X35290000Y6747000D01*
X36449000Y11315000D02*
X36449000Y10021000D01*
X9906000Y15736000D02*
X9906000Y15748000D01*
X9906000Y15748000D02*
X9017000Y16637000D01*
X9017000Y16637000D02*
X9017000Y17399000D01*
X9017000Y17399000D02*
X9398000Y17780000D01*
X9398000Y17780000D02*
X10414000Y17780000D01*
X10414000Y17780000D02*
X13784000Y21150000D01*
X13784000Y21150000D02*
X14700000Y21150000D01*
X9906000Y18530000D02*
X10402000Y18530000D01*
X13340000Y33650000D02*
X14700000Y33650000D01*
X13335000Y33655000D02*
X13340000Y33650000D01*
X13462000Y27432000D02*
X13335000Y27559000D01*
X13462000Y21590000D02*
X13462000Y27432000D01*
X10402000Y18530000D02*
X13462000Y21590000D01*
X20650000Y36100000D02*
X20650000Y37135000D01*
X19177000Y38608000D02*
X13831000Y38608000D01*
X20650000Y37135000D02*
X19177000Y38608000D01*
X34671000Y12815000D02*
X33770000Y12815000D01*
X19650000Y12989000D02*
X19650000Y14700000D01*
X19685000Y12954000D02*
X19650000Y12989000D01*
X33770000Y12815000D02*
X33655000Y12700000D01*
X36449000Y12815000D02*
X36183000Y12815000D01*
X36183000Y12815000D02*
X35560000Y12192000D01*
X18796000Y13335000D02*
X19150000Y13689000D01*
X19150000Y13689000D02*
X19150000Y14700000D01*
X21150000Y36100000D02*
X21150000Y37397000D01*
X18288000Y40259000D02*
X13831000Y40259000D01*
X21150000Y37397000D02*
X18288000Y40259000D01*
X21650000Y36100000D02*
X21650000Y37659000D01*
X17399000Y41910000D02*
X13831000Y41910000D01*
X21650000Y37659000D02*
X17399000Y41910000D01*
X36100000Y33650000D02*
X37079000Y33650000D01*
X37719000Y35294000D02*
X38620000Y36195000D01*
X37719000Y34290000D02*
X37719000Y35294000D01*
X37079000Y33650000D02*
X37719000Y34290000D01*
X36100000Y31650000D02*
X38212000Y31650000D01*
X38212000Y31650000D02*
X38620000Y31242000D01*
X24650000Y14700000D02*
X24650000Y12942000D01*
X24765000Y10287000D02*
X24765000Y9906000D01*
X24765000Y9906000D02*
X24257000Y9398000D01*
X24257000Y9398000D02*
X22594000Y9398000D01*
X22594000Y9398000D02*
X22340000Y9652000D01*
X24765000Y10541000D02*
X24765000Y10287000D01*
X25146000Y10922000D02*
X24765000Y10541000D01*
X25146000Y12446000D02*
X25146000Y10922000D01*
X24650000Y12942000D02*
X25146000Y12446000D01*
X16002000Y24511000D02*
X16002000Y23876000D01*
X16002000Y23876000D02*
X15776000Y23650000D01*
X15776000Y23650000D02*
X14700000Y23650000D01*
X16002000Y19177000D02*
X16002000Y19050000D01*
X16002000Y19050000D02*
X15602000Y18650000D01*
X14700000Y18650000D02*
X15602000Y18650000D01*
X15752000Y25150000D02*
X14700000Y25150000D01*
X16002000Y25400000D02*
X15752000Y25150000D01*
X17018000Y26670000D02*
X14700000Y26650000D01*
X17640426Y27303743D02*
X17018000Y26670000D01*
X17653000Y29210000D02*
X17640426Y27303743D01*
X17653000Y30353000D02*
X17653000Y29210000D01*
X14700000Y27650000D02*
X16220000Y27650000D01*
X18669000Y26797000D02*
X18669000Y28194000D01*
X17780000Y23495000D02*
X17145000Y24130000D01*
X17145000Y24130000D02*
X17145000Y25273000D01*
X17145000Y25273000D02*
X18669000Y26797000D01*
X18669000Y28194000D02*
X18796000Y28321000D01*
X16891000Y28321000D02*
X17018000Y28321000D01*
X16220000Y27650000D02*
X16891000Y28321000D01*
X16609000Y27150000D02*
X16764000Y27305000D01*
X14700000Y27150000D02*
X16609000Y27150000D01*
X17653000Y24511000D02*
X18669000Y23495000D01*
X17653000Y25019000D02*
X17653000Y24511000D01*
X19177000Y26543000D02*
X17653000Y25019000D01*
X19177000Y27559000D02*
X19177000Y26543000D01*
X19304000Y27686000D02*
X19177000Y27559000D01*
X14700000Y28150000D02*
X15958000Y28150000D01*
X17018000Y29210000D02*
X17018000Y29591000D01*
X15958000Y28150000D02*
X17018000Y29210000D01*
X18161000Y29083000D02*
X18161000Y29337000D01*
X18161000Y29337000D02*
X18288000Y29464000D01*
X18288000Y29464000D02*
X18288000Y29591000D01*
X16637000Y25527000D02*
X18161000Y27051000D01*
X16637000Y23749000D02*
X16637000Y25527000D01*
X16891000Y23495000D02*
X16637000Y23749000D01*
X18161000Y27051000D02*
X18161000Y29083000D01*
X17018000Y29464000D02*
X17018000Y29591000D01*
X33444000Y30650000D02*
X36100000Y30650000D01*
X32258000Y29464000D02*
X33444000Y30650000D01*
X33909000Y18923000D02*
X34798000Y19812000D01*
X34798000Y19812000D02*
X34798000Y29464000D01*
X34798000Y29464000D02*
X34984000Y29650000D01*
X34984000Y29650000D02*
X36100000Y29650000D01*
X34290000Y20193000D02*
X34290000Y29718000D01*
X33777633Y19689317D02*
X34034569Y19940464D01*
X33020000Y18923000D02*
X33777633Y19689317D01*
X34034569Y19940464D02*
X34290000Y20193000D01*
X34722000Y30150000D02*
X36100000Y30150000D01*
X34290000Y29718000D02*
X34722000Y30150000D01*
X31650000Y14700000D02*
X31650000Y19077000D01*
X31650000Y19077000D02*
X32766000Y20193000D01*
X31150000Y14700000D02*
X31150000Y19720000D01*
X31150000Y19720000D02*
X32131000Y20701000D01*
X30150000Y14700000D02*
X30150000Y22047000D01*
X33147000Y22479000D02*
X31623000Y22479000D01*
X31623000Y22479000D02*
X31369000Y22225000D01*
X33528000Y22098000D02*
X33147000Y22479000D01*
X30150000Y22047000D02*
X29972000Y22225000D01*
X30650000Y14700000D02*
X30650000Y22395000D01*
X31242000Y22987000D02*
X33528000Y22987000D01*
X30650000Y22395000D02*
X31242000Y22987000D01*
X29650000Y14700000D02*
X29650000Y21023000D01*
X32766000Y21971000D02*
X32258000Y21971000D01*
X32258000Y21971000D02*
X32131000Y21844000D01*
X33528000Y21209000D02*
X32766000Y21971000D01*
X29650000Y21023000D02*
X29464000Y21209000D01*
X31369000Y32639000D02*
X30650000Y33358000D01*
X34036000Y32639000D02*
X31369000Y32639000D01*
X34290000Y32893000D02*
X34036000Y32639000D01*
X30650000Y33358000D02*
X30650000Y36100000D01*
X27559000Y22098000D02*
X28194000Y22733000D01*
X27650000Y20991000D02*
X27559000Y21082000D01*
X27559000Y21082000D02*
X27559000Y22098000D01*
X28702000Y22733000D02*
X28194000Y22733000D01*
X30099000Y24130000D02*
X28702000Y22733000D01*
X27650000Y20991000D02*
X27650000Y14700000D01*
X30099000Y24130000D02*
X30098301Y24129301D01*
X30098301Y24129301D02*
X30098301Y24002301D01*
X33528000Y25654000D02*
X32639000Y24765000D01*
X31623000Y24765000D02*
X31369000Y24511000D01*
X32639000Y24765000D02*
X31623000Y24765000D01*
X28150000Y18332000D02*
X28150000Y21253000D01*
X28150000Y14700000D02*
X28150000Y18332000D01*
X28448000Y22225000D02*
X28956000Y22225000D01*
X28067000Y21844000D02*
X28448000Y22225000D01*
X28067000Y21336000D02*
X28067000Y21844000D01*
X28150000Y21253000D02*
X28067000Y21336000D01*
X33528000Y26543000D02*
X32258000Y25273000D01*
X30734000Y24765000D02*
X30734000Y23876000D01*
X31242000Y25273000D02*
X30734000Y24765000D01*
X32258000Y25273000D02*
X31242000Y25273000D01*
X30353000Y23495000D02*
X30734000Y23876000D01*
X30226000Y23495000D02*
X30353000Y23495000D01*
X28956000Y22225000D02*
X30226000Y23495000D01*
X26924000Y21590000D02*
X26924000Y22733000D01*
X25650000Y14700000D02*
X25654000Y18161000D01*
X26924000Y19431000D02*
X26924000Y21590000D01*
X25654000Y18161000D02*
X26924000Y19431000D01*
X32004000Y24257000D02*
X31369000Y23622000D01*
X33020000Y24257000D02*
X32004000Y24257000D01*
X33528000Y24765000D02*
X33020000Y24257000D01*
X27686000Y23495000D02*
X28575000Y23495000D01*
X26924000Y22733000D02*
X27686000Y23495000D01*
X33274000Y23622000D02*
X32258000Y23622000D01*
X33528000Y23876000D02*
X33274000Y23622000D01*
X19050000Y29718000D02*
X18288000Y30480000D01*
X21082000Y27686000D02*
X19050000Y29718000D01*
X15634000Y34150000D02*
X14700000Y34150000D01*
X15875000Y33909000D02*
X15634000Y34150000D01*
X15875000Y33020000D02*
X15875000Y33909000D01*
X16764000Y32131000D02*
X15875000Y33020000D01*
X18288000Y30480000D02*
X18288000Y30988000D01*
X12319000Y17456000D02*
X13405000Y17456000D01*
X13711000Y17150000D02*
X14700000Y17150000D01*
X13405000Y17456000D02*
X13711000Y17150000D01*
X12319000Y15056000D02*
X14167000Y15056000D01*
X14700000Y15589000D02*
X14700000Y16650000D01*
X14167000Y15056000D02*
X14700000Y15589000D01*
X12319000Y15056000D02*
X13106000Y15056000D01*
D45*
G36*
X49315000Y41629039D02*
X49249910Y41656000D01*
X48545750Y41656000D01*
X48387000Y41497250D01*
X48387000Y40132000D01*
X48407000Y40132000D01*
X48407000Y39878000D01*
X48387000Y39878000D01*
X48387000Y38512750D01*
X48545750Y38354000D01*
X49249910Y38354000D01*
X49315000Y38380961D01*
X49315000Y37819039D01*
X49249910Y37846000D01*
X48545750Y37846000D01*
X48387000Y37687250D01*
X48387000Y36322000D01*
X48407000Y36322000D01*
X48407000Y36068000D01*
X48387000Y36068000D01*
X48387000Y34702750D01*
X48545750Y34544000D01*
X49249910Y34544000D01*
X49315000Y34570961D01*
X49315000Y34009039D01*
X49249910Y34036000D01*
X48545750Y34036000D01*
X48387000Y33877250D01*
X48387000Y32512000D01*
X48407000Y32512000D01*
X48407000Y32258000D01*
X48387000Y32258000D01*
X48387000Y30892750D01*
X48545750Y30734000D01*
X49249910Y30734000D01*
X49315000Y30760961D01*
X49315000Y30199039D01*
X49249910Y30226000D01*
X48545750Y30226000D01*
X48387000Y30067250D01*
X48387000Y28702000D01*
X48407000Y28702000D01*
X48407000Y28448000D01*
X48387000Y28448000D01*
X48387000Y27082750D01*
X48545750Y26924000D01*
X49249910Y26924000D01*
X49315000Y26950961D01*
X49315000Y26389039D01*
X49249910Y26416000D01*
X48545750Y26416000D01*
X48387000Y26257250D01*
X48387000Y24892000D01*
X48407000Y24892000D01*
X48407000Y24638000D01*
X48387000Y24638000D01*
X48387000Y23272750D01*
X48545750Y23114000D01*
X49249910Y23114000D01*
X49315000Y23140961D01*
X49315000Y22579039D01*
X49249910Y22606000D01*
X48545750Y22606000D01*
X48387000Y22447250D01*
X48387000Y21082000D01*
X48407000Y21082000D01*
X48407000Y20828000D01*
X48387000Y20828000D01*
X48387000Y19462750D01*
X48545750Y19304000D01*
X49249910Y19304000D01*
X49315000Y19330961D01*
X49315000Y18769039D01*
X49249910Y18796000D01*
X48545750Y18796000D01*
X48387000Y18637250D01*
X48387000Y17272000D01*
X48407000Y17272000D01*
X48407000Y17018000D01*
X48387000Y17018000D01*
X48387000Y15652750D01*
X48545750Y15494000D01*
X49249910Y15494000D01*
X49315000Y15520961D01*
X49315000Y14959039D01*
X49249910Y14986000D01*
X48545750Y14986000D01*
X48387000Y14827250D01*
X48387000Y13462000D01*
X48407000Y13462000D01*
X48407000Y13208000D01*
X48387000Y13208000D01*
X48387000Y11842750D01*
X48545750Y11684000D01*
X49249910Y11684000D01*
X49315000Y11710961D01*
X49315000Y11149039D01*
X49249910Y11176000D01*
X48545750Y11176000D01*
X48387000Y11017250D01*
X48387000Y9652000D01*
X48407000Y9652000D01*
X48407000Y9398000D01*
X48387000Y9398000D01*
X48387000Y8032750D01*
X48545750Y7874000D01*
X49249910Y7874000D01*
X49315000Y7900961D01*
X49315000Y685000D01*
X42035454Y685000D01*
X42194365Y1002030D01*
X40860000Y2336395D01*
X39525635Y1002030D01*
X39684546Y685000D01*
X28895454Y685000D01*
X29054365Y1002030D01*
X27720000Y2336395D01*
X26385635Y1002030D01*
X26544546Y685000D01*
X25685693Y685000D01*
X25781000Y915090D01*
X25781000Y1597955D01*
X25887261Y1341418D01*
X26206030Y1181635D01*
X27540395Y2516000D01*
X26206030Y3850365D01*
X25887261Y3690582D01*
X25671768Y3140858D01*
X25505698Y3306927D01*
X25352220Y3370500D01*
X25374415Y3385330D01*
X25699271Y3871511D01*
X25813345Y4445000D01*
X25699271Y5018489D01*
X25374415Y5504670D01*
X25059634Y5715000D01*
X25374415Y5925330D01*
X25699271Y6411511D01*
X25784154Y6838250D01*
X25787000Y6838250D01*
X25787000Y6597691D01*
X25883673Y6364302D01*
X26062301Y6185673D01*
X26295690Y6089000D01*
X26511250Y6089000D01*
X26670000Y6247750D01*
X26670000Y6997000D01*
X26924000Y6997000D01*
X26924000Y6247750D01*
X27082750Y6089000D01*
X27298310Y6089000D01*
X27531699Y6185673D01*
X27622500Y6276475D01*
X27713301Y6185673D01*
X27946690Y6089000D01*
X28162250Y6089000D01*
X28321000Y6247750D01*
X28321000Y6997000D01*
X26924000Y6997000D01*
X26670000Y6997000D01*
X25945750Y6997000D01*
X25787000Y6838250D01*
X25784154Y6838250D01*
X25813345Y6985000D01*
X25699271Y7558489D01*
X25374415Y8044670D01*
X24888234Y8369526D01*
X24314745Y8483600D01*
X23945255Y8483600D01*
X23371766Y8369526D01*
X22885585Y8044670D01*
X22560729Y7558489D01*
X22446655Y6985000D01*
X22560729Y6411511D01*
X22885585Y5925330D01*
X23200366Y5715000D01*
X22885585Y5504670D01*
X22560729Y5018489D01*
X22446655Y4445000D01*
X22560729Y3871511D01*
X22885585Y3385330D01*
X22907780Y3370500D01*
X22754302Y3306927D01*
X22575673Y3128299D01*
X22479000Y2894910D01*
X22479000Y2190750D01*
X22637750Y2032000D01*
X24003000Y2032000D01*
X24003000Y2052000D01*
X24257000Y2052000D01*
X24257000Y2032000D01*
X24277000Y2032000D01*
X24277000Y1778000D01*
X24257000Y1778000D01*
X24257000Y1758000D01*
X24003000Y1758000D01*
X24003000Y1778000D01*
X22637750Y1778000D01*
X22479000Y1619250D01*
X22479000Y915090D01*
X22574307Y685000D01*
X21875693Y685000D01*
X21971000Y915090D01*
X21971000Y1619250D01*
X21812250Y1778000D01*
X20447000Y1778000D01*
X20447000Y1758000D01*
X20193000Y1758000D01*
X20193000Y1778000D01*
X18827750Y1778000D01*
X18669000Y1619250D01*
X18669000Y915090D01*
X18764307Y685000D01*
X18247440Y685000D01*
X18247440Y2545000D01*
X18203162Y2780317D01*
X18064090Y2996441D01*
X18020000Y3026566D01*
X18020000Y4886614D01*
X18106431Y5013110D01*
X18157440Y5265000D01*
X18157440Y6165000D01*
X18113162Y6400317D01*
X17974090Y6616441D01*
X17761890Y6761431D01*
X17510000Y6812440D01*
X17010000Y6812440D01*
X16774683Y6768162D01*
X16558559Y6629090D01*
X16510866Y6559289D01*
X16474090Y6616441D01*
X16261890Y6761431D01*
X16119972Y6790170D01*
X16268680Y6938878D01*
X16314167Y6938838D01*
X16425887Y6985000D01*
X18636655Y6985000D01*
X18750729Y6411511D01*
X19075585Y5925330D01*
X19390366Y5715000D01*
X19075585Y5504670D01*
X18750729Y5018489D01*
X18636655Y4445000D01*
X18750729Y3871511D01*
X19075585Y3385330D01*
X19097780Y3370500D01*
X18944302Y3306927D01*
X18765673Y3128299D01*
X18669000Y2894910D01*
X18669000Y2190750D01*
X18827750Y2032000D01*
X20193000Y2032000D01*
X20193000Y2052000D01*
X20447000Y2052000D01*
X20447000Y2032000D01*
X21812250Y2032000D01*
X21971000Y2190750D01*
X21971000Y2894910D01*
X21874327Y3128299D01*
X21695698Y3306927D01*
X21542220Y3370500D01*
X21564415Y3385330D01*
X21889271Y3871511D01*
X22003345Y4445000D01*
X21889271Y5018489D01*
X21564415Y5504670D01*
X21249634Y5715000D01*
X21564415Y5925330D01*
X21889271Y6411511D01*
X22003345Y6985000D01*
X21889271Y7558489D01*
X21564415Y8044670D01*
X21078234Y8369526D01*
X20504745Y8483600D01*
X20135255Y8483600D01*
X19561766Y8369526D01*
X19075585Y8044670D01*
X18750729Y7558489D01*
X18636655Y6985000D01*
X16425887Y6985000D01*
X16657943Y7080883D01*
X16921192Y7343673D01*
X17063838Y7687201D01*
X17063891Y7748241D01*
X17292943Y7842883D01*
X17556192Y8105673D01*
X17698838Y8449201D01*
X17699004Y8639560D01*
X17849000Y8639560D01*
X18084317Y8683838D01*
X18290647Y8816607D01*
X18475110Y8690569D01*
X18727000Y8639560D01*
X19627000Y8639560D01*
X19862317Y8683838D01*
X20078441Y8822910D01*
X20078911Y8823598D01*
X20125910Y8750559D01*
X20338110Y8605569D01*
X20590000Y8554560D01*
X21090000Y8554560D01*
X21325317Y8598838D01*
X21541441Y8737910D01*
X21589134Y8807711D01*
X21625910Y8750559D01*
X21838110Y8605569D01*
X22090000Y8554560D01*
X22590000Y8554560D01*
X22825317Y8598838D01*
X22886176Y8638000D01*
X24257000Y8638000D01*
X24547839Y8695852D01*
X24794401Y8860599D01*
X25302401Y9368599D01*
X25402969Y9519110D01*
X25467148Y9615161D01*
X25525000Y9906000D01*
X25525000Y10226198D01*
X25580566Y10281764D01*
X25586852Y10250161D01*
X25751599Y10003599D01*
X26037000Y9718198D01*
X26037000Y9530844D01*
X25970559Y9488090D01*
X25825569Y9275890D01*
X25774560Y9024000D01*
X25774560Y8224000D01*
X25818838Y7988683D01*
X25885329Y7885354D01*
X25883673Y7883698D01*
X25787000Y7650309D01*
X25787000Y7409750D01*
X25945750Y7251000D01*
X26670000Y7251000D01*
X26670000Y7271000D01*
X26924000Y7271000D01*
X26924000Y7251000D01*
X28321000Y7251000D01*
X28321000Y7271000D01*
X28575000Y7271000D01*
X28575000Y7251000D01*
X28595000Y7251000D01*
X28595000Y6997000D01*
X28575000Y6997000D01*
X28575000Y6247750D01*
X28733750Y6089000D01*
X28949310Y6089000D01*
X29182699Y6185673D01*
X29361327Y6364302D01*
X29458000Y6597691D01*
X29458000Y6685115D01*
X29582560Y6685007D01*
X29582560Y5094234D01*
X29316057Y4984117D01*
X29052808Y4721327D01*
X28910162Y4377799D01*
X28910110Y4317761D01*
X28894582Y4348739D01*
X28103813Y4658723D01*
X27254613Y4642497D01*
X26545418Y4348739D01*
X26385635Y4029970D01*
X27720000Y2695605D01*
X27734143Y2709747D01*
X27913748Y2530142D01*
X27899605Y2516000D01*
X29233970Y1181635D01*
X29552739Y1341418D01*
X29862723Y2132187D01*
X29848056Y2899813D01*
X38717277Y2899813D01*
X38733503Y2050613D01*
X39027261Y1341418D01*
X39346030Y1181635D01*
X40680395Y2516000D01*
X41039605Y2516000D01*
X42373970Y1181635D01*
X42692739Y1341418D01*
X43002723Y2132187D01*
X42986497Y2981387D01*
X42747913Y3557381D01*
X43764613Y3557381D01*
X44104155Y2735628D01*
X44732321Y2106364D01*
X45553481Y1765389D01*
X46442619Y1764613D01*
X47264372Y2104155D01*
X47893636Y2732321D01*
X48234611Y3553481D01*
X48235387Y4442619D01*
X47895845Y5264372D01*
X47267679Y5893636D01*
X46446519Y6234611D01*
X45557381Y6235387D01*
X44735628Y5895845D01*
X44106364Y5267679D01*
X43765389Y4446519D01*
X43764613Y3557381D01*
X42747913Y3557381D01*
X42692739Y3690582D01*
X42373970Y3850365D01*
X41039605Y2516000D01*
X40680395Y2516000D01*
X39346030Y3850365D01*
X39027261Y3690582D01*
X38717277Y2899813D01*
X29848056Y2899813D01*
X29846497Y2981387D01*
X29732708Y3256097D01*
X30030167Y3255838D01*
X30373943Y3397883D01*
X30637192Y3660673D01*
X30779838Y4004201D01*
X30779842Y4008560D01*
X31350000Y4008560D01*
X31585317Y4052838D01*
X31801441Y4191910D01*
X31946431Y4404110D01*
X31997440Y4656000D01*
X31997440Y7536000D01*
X31953162Y7771317D01*
X31814090Y7987441D01*
X31601890Y8132431D01*
X31350000Y8183440D01*
X30874000Y8183440D01*
X30874000Y8469511D01*
X30891192Y8486673D01*
X31033838Y8830201D01*
X31034162Y9202167D01*
X30892117Y9545943D01*
X30736674Y9701658D01*
X32858878Y11823863D01*
X32720162Y11489799D01*
X32719838Y11117833D01*
X32861883Y10774057D01*
X33124673Y10510808D01*
X33436517Y10381319D01*
X32752599Y9697401D01*
X32587852Y9450839D01*
X32530000Y9160000D01*
X32530000Y8145807D01*
X32494683Y8139162D01*
X32278559Y8000090D01*
X32133569Y7787890D01*
X32082560Y7536000D01*
X32082560Y4656000D01*
X32126838Y4420683D01*
X32265910Y4204559D01*
X32478110Y4059569D01*
X32730000Y4008560D01*
X33850000Y4008560D01*
X34085317Y4052838D01*
X34292677Y4186270D01*
X34478110Y4059569D01*
X34730000Y4008560D01*
X35850000Y4008560D01*
X36085317Y4052838D01*
X36301441Y4191910D01*
X36446431Y4404110D01*
X36497440Y4656000D01*
X36497440Y5810250D01*
X36595000Y5810250D01*
X36595000Y4529690D01*
X36691673Y4296301D01*
X36870302Y4117673D01*
X37103691Y4021000D01*
X37504250Y4021000D01*
X37663000Y4179750D01*
X37663000Y5969000D01*
X37917000Y5969000D01*
X37917000Y4179750D01*
X38075750Y4021000D01*
X38476309Y4021000D01*
X38497964Y4029970D01*
X39525635Y4029970D01*
X40860000Y2695605D01*
X42194365Y4029970D01*
X42034582Y4348739D01*
X41243813Y4658723D01*
X40394613Y4642497D01*
X39685418Y4348739D01*
X39525635Y4029970D01*
X38497964Y4029970D01*
X38709698Y4117673D01*
X38888327Y4296301D01*
X38985000Y4529690D01*
X38985000Y5810250D01*
X38826250Y5969000D01*
X37917000Y5969000D01*
X37663000Y5969000D01*
X36753750Y5969000D01*
X36595000Y5810250D01*
X36497440Y5810250D01*
X36497440Y7536000D01*
X36478624Y7636000D01*
X36576002Y7636000D01*
X36576002Y7794748D01*
X36628226Y7742524D01*
X36595000Y7662310D01*
X36595000Y6381750D01*
X36753750Y6223000D01*
X37663000Y6223000D01*
X37663000Y6243000D01*
X37917000Y6243000D01*
X37917000Y6223000D01*
X38826250Y6223000D01*
X38985000Y6381750D01*
X38985000Y7662310D01*
X38888327Y7895699D01*
X38709698Y8074327D01*
X38476309Y8171000D01*
X38195411Y8171000D01*
X38257192Y8232673D01*
X38399838Y8576201D01*
X38399860Y8601844D01*
X38548016Y8750000D01*
X40894000Y8750000D01*
X41190580Y8808993D01*
X41442008Y8976992D01*
X41701952Y9236936D01*
X41795474Y8766766D01*
X42120330Y8280585D01*
X42606511Y7955729D01*
X43180000Y7841655D01*
X43753489Y7955729D01*
X44239670Y8280585D01*
X44450000Y8595366D01*
X44660330Y8280585D01*
X45146511Y7955729D01*
X45720000Y7841655D01*
X46293489Y7955729D01*
X46779670Y8280585D01*
X46794500Y8302780D01*
X46858073Y8149302D01*
X47036701Y7970673D01*
X47270090Y7874000D01*
X47974250Y7874000D01*
X48133000Y8032750D01*
X48133000Y9398000D01*
X48113000Y9398000D01*
X48113000Y9652000D01*
X48133000Y9652000D01*
X48133000Y11017250D01*
X47974250Y11176000D01*
X47270090Y11176000D01*
X47036701Y11079327D01*
X46858073Y10900698D01*
X46794500Y10747220D01*
X46779670Y10769415D01*
X46481597Y10968581D01*
X47218419Y11705403D01*
X47270090Y11684000D01*
X47974250Y11684000D01*
X48133000Y11842750D01*
X48133000Y13208000D01*
X48113000Y13208000D01*
X48113000Y13462000D01*
X48133000Y13462000D01*
X48133000Y14827250D01*
X48011576Y14948674D01*
X48019000Y14986000D01*
X48019000Y15494000D01*
X48011576Y15531326D01*
X48133000Y15652750D01*
X48133000Y17018000D01*
X48113000Y17018000D01*
X48113000Y17272000D01*
X48133000Y17272000D01*
X48133000Y18637250D01*
X47974250Y18796000D01*
X47765000Y18796000D01*
X47765000Y19304000D01*
X47974250Y19304000D01*
X48133000Y19462750D01*
X48133000Y20828000D01*
X48113000Y20828000D01*
X48113000Y21082000D01*
X48133000Y21082000D01*
X48133000Y22447250D01*
X48011576Y22568674D01*
X48019000Y22606000D01*
X48019000Y23114000D01*
X48011576Y23151326D01*
X48133000Y23272750D01*
X48133000Y24638000D01*
X48113000Y24638000D01*
X48113000Y24892000D01*
X48133000Y24892000D01*
X48133000Y26257250D01*
X47974250Y26416000D01*
X47765000Y26416000D01*
X47765000Y26924000D01*
X47974250Y26924000D01*
X48133000Y27082750D01*
X48133000Y28448000D01*
X48113000Y28448000D01*
X48113000Y28702000D01*
X48133000Y28702000D01*
X48133000Y30067250D01*
X47974250Y30226000D01*
X47765000Y30226000D01*
X47765000Y30734000D01*
X47974250Y30734000D01*
X48133000Y30892750D01*
X48133000Y32258000D01*
X48113000Y32258000D01*
X48113000Y32512000D01*
X48133000Y32512000D01*
X48133000Y33877250D01*
X47974250Y34036000D01*
X47765000Y34036000D01*
X47765000Y34544000D01*
X47974250Y34544000D01*
X48133000Y34702750D01*
X48133000Y36068000D01*
X48113000Y36068000D01*
X48113000Y36322000D01*
X48133000Y36322000D01*
X48133000Y37687250D01*
X47974250Y37846000D01*
X47270090Y37846000D01*
X47218419Y37824597D01*
X46481597Y38561419D01*
X46779670Y38760585D01*
X46794500Y38782780D01*
X46858073Y38629302D01*
X47036701Y38450673D01*
X47270090Y38354000D01*
X47974250Y38354000D01*
X48133000Y38512750D01*
X48133000Y39878000D01*
X48113000Y39878000D01*
X48113000Y40132000D01*
X48133000Y40132000D01*
X48133000Y41497250D01*
X47974250Y41656000D01*
X47270090Y41656000D01*
X47036701Y41559327D01*
X46858073Y41380698D01*
X46794500Y41227220D01*
X46779670Y41249415D01*
X46293489Y41574271D01*
X45720000Y41688345D01*
X45146511Y41574271D01*
X44660330Y41249415D01*
X44450000Y40934634D01*
X44239670Y41249415D01*
X43753489Y41574271D01*
X43180000Y41688345D01*
X42606511Y41574271D01*
X42279851Y41356003D01*
X42289000Y41402000D01*
X42289000Y42418000D01*
X42231148Y42708839D01*
X42066401Y42955401D01*
X41400000Y43621802D01*
X41400000Y44596293D01*
X41796120Y44860971D01*
X42150543Y45391404D01*
X42183557Y45557381D01*
X43764613Y45557381D01*
X44104155Y44735628D01*
X44732321Y44106364D01*
X45553481Y43765389D01*
X46442619Y43764613D01*
X47264372Y44104155D01*
X47893636Y44732321D01*
X48234611Y45553481D01*
X48235387Y46442619D01*
X47895845Y47264372D01*
X47267679Y47893636D01*
X46446519Y48234611D01*
X45557381Y48235387D01*
X44735628Y47895845D01*
X44106364Y47267679D01*
X43765389Y46446519D01*
X43764613Y45557381D01*
X42183557Y45557381D01*
X42275000Y46017091D01*
X42275000Y46692909D01*
X42150543Y47318596D01*
X41796120Y47849029D01*
X41265687Y48203452D01*
X40640000Y48327909D01*
X40014313Y48203452D01*
X39483880Y47849029D01*
X39370000Y47678595D01*
X39256120Y47849029D01*
X38725687Y48203452D01*
X38100000Y48327909D01*
X37474313Y48203452D01*
X36943880Y47849029D01*
X36830000Y47678595D01*
X36716120Y47849029D01*
X36185687Y48203452D01*
X35560000Y48327909D01*
X34934313Y48203452D01*
X34575808Y47963907D01*
X34484090Y48106441D01*
X34271890Y48251431D01*
X34020000Y48302440D01*
X32324140Y48302440D01*
X31613790Y49012790D01*
X31326675Y49204633D01*
X31270484Y49215810D01*
X30988000Y49272001D01*
X30987995Y49272000D01*
X24892005Y49272000D01*
X24892000Y49272001D01*
X24553325Y49204633D01*
X24266210Y49012790D01*
X24266208Y49012787D01*
X22636860Y47383440D01*
X22194139Y47383440D01*
X20564790Y49012790D01*
X20277675Y49204633D01*
X20221484Y49215810D01*
X19939000Y49272001D01*
X19938995Y49272000D01*
X11303005Y49272000D01*
X11303000Y49272001D01*
X11020516Y49215810D01*
X10964325Y49204633D01*
X10677210Y49012790D01*
X10677208Y49012787D01*
X9966861Y48302440D01*
X8525000Y48302440D01*
X8289683Y48258162D01*
X8073559Y48119090D01*
X7928569Y47906890D01*
X7877560Y47655000D01*
X7877560Y45055000D01*
X7921838Y44819683D01*
X8060910Y44603559D01*
X8273110Y44458569D01*
X8525000Y44407560D01*
X10525000Y44407560D01*
X10760317Y44451838D01*
X10976441Y44590910D01*
X11081951Y44745329D01*
X11439313Y44506548D01*
X12065000Y44382091D01*
X12690687Y44506548D01*
X13221120Y44860971D01*
X13335000Y45031405D01*
X13448880Y44860971D01*
X13979313Y44506548D01*
X14605000Y44382091D01*
X15230687Y44506548D01*
X15761120Y44860971D01*
X15875000Y45031405D01*
X15988880Y44860971D01*
X16519313Y44506548D01*
X17145000Y44382091D01*
X17770687Y44506548D01*
X18301120Y44860971D01*
X18655543Y45391404D01*
X18780000Y46017091D01*
X18780000Y46692909D01*
X18655543Y47318596D01*
X18532997Y47502000D01*
X19572420Y47502000D01*
X21094960Y45979461D01*
X21094960Y45460540D01*
X20964210Y45329790D01*
X20772367Y45042675D01*
X20772367Y45042674D01*
X20704999Y44704000D01*
X20705000Y44703995D01*
X20705000Y43986853D01*
X20567059Y43898090D01*
X20422069Y43685890D01*
X20371060Y43434000D01*
X20371060Y42926000D01*
X20415338Y42690683D01*
X20509666Y42544093D01*
X20422069Y42415890D01*
X20371060Y42164000D01*
X20371060Y41656000D01*
X20415338Y41420683D01*
X20509666Y41274093D01*
X20422069Y41145890D01*
X20371060Y40894000D01*
X20371060Y40386000D01*
X20415338Y40150683D01*
X20509666Y40004093D01*
X20456914Y39926888D01*
X17936401Y42447401D01*
X17689839Y42612148D01*
X17399000Y42670000D01*
X14636105Y42670000D01*
X14545090Y42811441D01*
X14332890Y42956431D01*
X14081000Y43007440D01*
X13581000Y43007440D01*
X13345683Y42963162D01*
X13129559Y42824090D01*
X13081866Y42754289D01*
X13045090Y42811441D01*
X12832890Y42956431D01*
X12581000Y43007440D01*
X12081000Y43007440D01*
X11845683Y42963162D01*
X11720268Y42882460D01*
X11686970Y42905211D01*
X11435080Y42956220D01*
X10637520Y42956220D01*
X10402203Y42911942D01*
X10287007Y42837815D01*
X10188370Y42905211D01*
X9936480Y42956220D01*
X9138920Y42956220D01*
X8903603Y42911942D01*
X8687479Y42772870D01*
X8542489Y42560670D01*
X8491480Y42308780D01*
X8491480Y41511220D01*
X8535758Y41275903D01*
X8652700Y41094170D01*
X8652700Y41070969D01*
X8542489Y40909670D01*
X8491480Y40657780D01*
X8491480Y39860220D01*
X8535758Y39624903D01*
X8652700Y39443170D01*
X8652700Y39419969D01*
X8542489Y39258670D01*
X8491480Y39006780D01*
X8491480Y38209220D01*
X8535758Y37973903D01*
X8674830Y37757779D01*
X8826200Y37654352D01*
X8826200Y35709273D01*
X8750979Y35660870D01*
X8605989Y35448670D01*
X8554980Y35196780D01*
X8554980Y34847796D01*
X8214992Y34507808D01*
X8184946Y34462840D01*
X8140923Y34462879D01*
X7810011Y34793791D01*
X8044670Y34950585D01*
X8369526Y35436766D01*
X8483600Y36010255D01*
X8483600Y36379745D01*
X8369526Y36953234D01*
X8044670Y37439415D01*
X7558489Y37764271D01*
X6985000Y37878345D01*
X6411511Y37764271D01*
X5925330Y37439415D01*
X5715000Y37124634D01*
X5504670Y37439415D01*
X5018489Y37764271D01*
X4445000Y37878345D01*
X3871511Y37764271D01*
X3385330Y37439415D01*
X3370500Y37417220D01*
X3306927Y37570698D01*
X3128299Y37749327D01*
X2894910Y37846000D01*
X2190750Y37846000D01*
X2032000Y37687250D01*
X2032000Y36322000D01*
X2052000Y36322000D01*
X2052000Y36068000D01*
X2032000Y36068000D01*
X2032000Y34702750D01*
X2190750Y34544000D01*
X2894910Y34544000D01*
X3128299Y34640673D01*
X3306927Y34819302D01*
X3370500Y34972780D01*
X3385330Y34950585D01*
X3871511Y34625729D01*
X4445000Y34511655D01*
X5018489Y34625729D01*
X5504670Y34950585D01*
X5715000Y35265366D01*
X5925330Y34950585D01*
X6225000Y34750352D01*
X6225000Y34544000D01*
X6282852Y34253161D01*
X6447599Y34006599D01*
X6485258Y33968940D01*
X6411511Y33954271D01*
X5925330Y33629415D01*
X5715000Y33314634D01*
X5504670Y33629415D01*
X5018489Y33954271D01*
X4445000Y34068345D01*
X3871511Y33954271D01*
X3385330Y33629415D01*
X3370500Y33607220D01*
X3306927Y33760698D01*
X3128299Y33939327D01*
X2894910Y34036000D01*
X2190750Y34036000D01*
X2032000Y33877250D01*
X2032000Y32512000D01*
X2052000Y32512000D01*
X2052000Y32258000D01*
X2032000Y32258000D01*
X2032000Y30892750D01*
X2190750Y30734000D01*
X2894910Y30734000D01*
X3128299Y30830673D01*
X3306927Y31009302D01*
X3370500Y31162780D01*
X3385330Y31140585D01*
X3871511Y30815729D01*
X4445000Y30701655D01*
X5018489Y30815729D01*
X5504670Y31140585D01*
X5715000Y31455366D01*
X5925330Y31140585D01*
X6411511Y30815729D01*
X6985000Y30701655D01*
X7558489Y30815729D01*
X8044670Y31140585D01*
X8065488Y31171741D01*
X8214992Y30947992D01*
X10012984Y29150000D01*
X8307984Y27445000D01*
X8121120Y27445000D01*
X8369526Y27816766D01*
X8483600Y28390255D01*
X8483600Y28759745D01*
X8369526Y29333234D01*
X8044670Y29819415D01*
X7558489Y30144271D01*
X6985000Y30258345D01*
X6411511Y30144271D01*
X5925330Y29819415D01*
X5715000Y29504634D01*
X5504670Y29819415D01*
X5018489Y30144271D01*
X4445000Y30258345D01*
X3871511Y30144271D01*
X3385330Y29819415D01*
X3370500Y29797220D01*
X3306927Y29950698D01*
X3128299Y30129327D01*
X2894910Y30226000D01*
X2190750Y30226000D01*
X2032000Y30067250D01*
X2032000Y28702000D01*
X2052000Y28702000D01*
X2052000Y28448000D01*
X2032000Y28448000D01*
X2032000Y27082750D01*
X2190750Y26924000D01*
X2894910Y26924000D01*
X3128299Y27020673D01*
X3306927Y27199302D01*
X3370500Y27352780D01*
X3385330Y27330585D01*
X3871511Y27005729D01*
X4445000Y26891655D01*
X5018489Y27005729D01*
X5504670Y27330585D01*
X5715000Y27645366D01*
X5925330Y27330585D01*
X6223403Y27131419D01*
X5262927Y26170943D01*
X5018489Y26334271D01*
X4445000Y26448345D01*
X3871511Y26334271D01*
X3385330Y26009415D01*
X3370500Y25987220D01*
X3306927Y26140698D01*
X3128299Y26319327D01*
X2894910Y26416000D01*
X2190750Y26416000D01*
X2032000Y26257250D01*
X2032000Y24892000D01*
X2052000Y24892000D01*
X2052000Y24638000D01*
X2032000Y24638000D01*
X2032000Y23272750D01*
X2190750Y23114000D01*
X2894910Y23114000D01*
X3128299Y23210673D01*
X3306927Y23389302D01*
X3370500Y23542780D01*
X3385330Y23520585D01*
X3871511Y23195729D01*
X4445000Y23081655D01*
X4940000Y23180117D01*
X4940000Y22539883D01*
X4445000Y22638345D01*
X3871511Y22524271D01*
X3385330Y22199415D01*
X3370500Y22177220D01*
X3306927Y22330698D01*
X3128299Y22509327D01*
X2894910Y22606000D01*
X2190750Y22606000D01*
X2032000Y22447250D01*
X2032000Y21082000D01*
X2052000Y21082000D01*
X2052000Y20828000D01*
X2032000Y20828000D01*
X2032000Y19462750D01*
X2190750Y19304000D01*
X2894910Y19304000D01*
X3128299Y19400673D01*
X3306927Y19579302D01*
X3370500Y19732780D01*
X3385330Y19710585D01*
X3871511Y19385729D01*
X4445000Y19271655D01*
X4940000Y19370117D01*
X4940000Y18729883D01*
X4445000Y18828345D01*
X3871511Y18714271D01*
X3385330Y18389415D01*
X3370500Y18367220D01*
X3306927Y18520698D01*
X3128299Y18699327D01*
X2894910Y18796000D01*
X2190750Y18796000D01*
X2032000Y18637250D01*
X2032000Y17272000D01*
X2052000Y17272000D01*
X2052000Y17018000D01*
X2032000Y17018000D01*
X2032000Y15652750D01*
X2190750Y15494000D01*
X2894910Y15494000D01*
X3128299Y15590673D01*
X3306927Y15769302D01*
X3370500Y15922780D01*
X3385330Y15900585D01*
X3871511Y15575729D01*
X4445000Y15461655D01*
X4940000Y15560117D01*
X4940000Y14919883D01*
X4445000Y15018345D01*
X3871511Y14904271D01*
X3385330Y14579415D01*
X3370500Y14557220D01*
X3306927Y14710698D01*
X3128299Y14889327D01*
X2894910Y14986000D01*
X2190750Y14986000D01*
X2032000Y14827250D01*
X2032000Y13462000D01*
X2052000Y13462000D01*
X2052000Y13208000D01*
X2032000Y13208000D01*
X2032000Y11842750D01*
X2190750Y11684000D01*
X2894910Y11684000D01*
X3128299Y11780673D01*
X3306927Y11959302D01*
X3370500Y12112780D01*
X3385330Y12090585D01*
X3871511Y11765729D01*
X4445000Y11651655D01*
X5018489Y11765729D01*
X5064920Y11796753D01*
X5166992Y11643992D01*
X5928992Y10881992D01*
X6011403Y10826927D01*
X5925330Y10769415D01*
X5715000Y10454634D01*
X5504670Y10769415D01*
X5018489Y11094271D01*
X4445000Y11208345D01*
X3871511Y11094271D01*
X3385330Y10769415D01*
X3370500Y10747220D01*
X3306927Y10900698D01*
X3128299Y11079327D01*
X2894910Y11176000D01*
X2190750Y11176000D01*
X2032000Y11017250D01*
X2032000Y9652000D01*
X2052000Y9652000D01*
X2052000Y9398000D01*
X2032000Y9398000D01*
X2032000Y8032750D01*
X2190750Y7874000D01*
X2894910Y7874000D01*
X3128299Y7970673D01*
X3306927Y8149302D01*
X3370500Y8302780D01*
X3385330Y8280585D01*
X3871511Y7955729D01*
X4445000Y7841655D01*
X5018489Y7955729D01*
X5504670Y8280585D01*
X5715000Y8595366D01*
X5925330Y8280585D01*
X6411511Y7955729D01*
X6985000Y7841655D01*
X7558489Y7955729D01*
X8044670Y8280585D01*
X8369526Y8766766D01*
X8483600Y9340255D01*
X8483600Y9491598D01*
X9852599Y8122599D01*
X10099160Y7957852D01*
X10390000Y7900000D01*
X10463551Y7900000D01*
X10589233Y7875000D01*
X11050000Y7875000D01*
X11050000Y7414233D01*
X11101736Y7154141D01*
X10892599Y7014401D01*
X10409120Y6530922D01*
X10354090Y6616441D01*
X10205879Y6717710D01*
X10206162Y7043167D01*
X10064117Y7386943D01*
X9801327Y7650192D01*
X9457799Y7792838D01*
X9085833Y7793162D01*
X8742057Y7651117D01*
X8478808Y7388327D01*
X8336162Y7044799D01*
X8336121Y6997923D01*
X8150638Y6812440D01*
X7890000Y6812440D01*
X7654683Y6768162D01*
X7438559Y6629090D01*
X7293569Y6416890D01*
X7242560Y6165000D01*
X7242560Y5265000D01*
X7286838Y5029683D01*
X7380000Y4884905D01*
X7380000Y3029322D01*
X7348559Y3009090D01*
X7203569Y2796890D01*
X7152560Y2545000D01*
X7152560Y685000D01*
X685000Y685000D01*
X685000Y3557381D01*
X1764613Y3557381D01*
X2104155Y2735628D01*
X2732321Y2106364D01*
X3553481Y1765389D01*
X4442619Y1764613D01*
X5264372Y2104155D01*
X5893636Y2732321D01*
X6234611Y3553481D01*
X6235387Y4442619D01*
X5895845Y5264372D01*
X5267679Y5893636D01*
X4446519Y6234611D01*
X3557381Y6235387D01*
X2735628Y5895845D01*
X2106364Y5267679D01*
X1765389Y4446519D01*
X1764613Y3557381D01*
X685000Y3557381D01*
X685000Y7969307D01*
X915090Y7874000D01*
X1619250Y7874000D01*
X1778000Y8032750D01*
X1778000Y9398000D01*
X1758000Y9398000D01*
X1758000Y9652000D01*
X1778000Y9652000D01*
X1778000Y11017250D01*
X1619250Y11176000D01*
X915090Y11176000D01*
X685000Y11080693D01*
X685000Y11779307D01*
X915090Y11684000D01*
X1619250Y11684000D01*
X1778000Y11842750D01*
X1778000Y13208000D01*
X1758000Y13208000D01*
X1758000Y13462000D01*
X1778000Y13462000D01*
X1778000Y14827250D01*
X1619250Y14986000D01*
X915090Y14986000D01*
X685000Y14890693D01*
X685000Y15589307D01*
X915090Y15494000D01*
X1619250Y15494000D01*
X1778000Y15652750D01*
X1778000Y17018000D01*
X1758000Y17018000D01*
X1758000Y17272000D01*
X1778000Y17272000D01*
X1778000Y18637250D01*
X1619250Y18796000D01*
X915090Y18796000D01*
X685000Y18700693D01*
X685000Y19399307D01*
X915090Y19304000D01*
X1619250Y19304000D01*
X1778000Y19462750D01*
X1778000Y20828000D01*
X1758000Y20828000D01*
X1758000Y21082000D01*
X1778000Y21082000D01*
X1778000Y22447250D01*
X1619250Y22606000D01*
X915090Y22606000D01*
X685000Y22510693D01*
X685000Y23209307D01*
X915090Y23114000D01*
X1619250Y23114000D01*
X1778000Y23272750D01*
X1778000Y24638000D01*
X1758000Y24638000D01*
X1758000Y24892000D01*
X1778000Y24892000D01*
X1778000Y26257250D01*
X1619250Y26416000D01*
X915090Y26416000D01*
X685000Y26320693D01*
X685000Y27019307D01*
X915090Y26924000D01*
X1619250Y26924000D01*
X1778000Y27082750D01*
X1778000Y28448000D01*
X1758000Y28448000D01*
X1758000Y28702000D01*
X1778000Y28702000D01*
X1778000Y30067250D01*
X1619250Y30226000D01*
X915090Y30226000D01*
X685000Y30130693D01*
X685000Y30829307D01*
X915090Y30734000D01*
X1619250Y30734000D01*
X1778000Y30892750D01*
X1778000Y32258000D01*
X1758000Y32258000D01*
X1758000Y32512000D01*
X1778000Y32512000D01*
X1778000Y33877250D01*
X1619250Y34036000D01*
X915090Y34036000D01*
X685000Y33940693D01*
X685000Y34639307D01*
X915090Y34544000D01*
X1619250Y34544000D01*
X1778000Y34702750D01*
X1778000Y36068000D01*
X1758000Y36068000D01*
X1758000Y36322000D01*
X1778000Y36322000D01*
X1778000Y37687250D01*
X1619250Y37846000D01*
X915090Y37846000D01*
X685000Y37750693D01*
X685000Y38449307D01*
X915090Y38354000D01*
X1619250Y38354000D01*
X1778000Y38512750D01*
X1778000Y39878000D01*
X1758000Y39878000D01*
X1758000Y40132000D01*
X1778000Y40132000D01*
X1778000Y41497250D01*
X2032000Y41497250D01*
X2032000Y40132000D01*
X2052000Y40132000D01*
X2052000Y39878000D01*
X2032000Y39878000D01*
X2032000Y38512750D01*
X2190750Y38354000D01*
X2894910Y38354000D01*
X3128299Y38450673D01*
X3306927Y38629302D01*
X3370500Y38782780D01*
X3385330Y38760585D01*
X3871511Y38435729D01*
X4445000Y38321655D01*
X5018489Y38435729D01*
X5504670Y38760585D01*
X5715000Y39075366D01*
X5925330Y38760585D01*
X6411511Y38435729D01*
X6985000Y38321655D01*
X7558489Y38435729D01*
X8044670Y38760585D01*
X8369526Y39246766D01*
X8483600Y39820255D01*
X8483600Y40189745D01*
X8369526Y40763234D01*
X8044670Y41249415D01*
X7558489Y41574271D01*
X6985000Y41688345D01*
X6411511Y41574271D01*
X5925330Y41249415D01*
X5715000Y40934634D01*
X5504670Y41249415D01*
X5018489Y41574271D01*
X4445000Y41688345D01*
X3871511Y41574271D01*
X3385330Y41249415D01*
X3370500Y41227220D01*
X3306927Y41380698D01*
X3128299Y41559327D01*
X2894910Y41656000D01*
X2190750Y41656000D01*
X2032000Y41497250D01*
X1778000Y41497250D01*
X1619250Y41656000D01*
X915090Y41656000D01*
X685000Y41560693D01*
X685000Y45557381D01*
X1764613Y45557381D01*
X2104155Y44735628D01*
X2732321Y44106364D01*
X3553481Y43765389D01*
X4442619Y43764613D01*
X5264372Y44104155D01*
X5893636Y44732321D01*
X6234611Y45553481D01*
X6235387Y46442619D01*
X5895845Y47264372D01*
X5267679Y47893636D01*
X4446519Y48234611D01*
X3557381Y48235387D01*
X2735628Y47895845D01*
X2106364Y47267679D01*
X1765389Y46446519D01*
X1764613Y45557381D01*
X685000Y45557381D01*
X685000Y49315000D01*
X49315000Y49315000D01*
X49315000Y41629039D01*
X49315000Y41629039D01*
G37*
X49315000Y41629039D02*
X49249910Y41656000D01*
X48545750Y41656000D01*
X48387000Y41497250D01*
X48387000Y40132000D01*
X48407000Y40132000D01*
X48407000Y39878000D01*
X48387000Y39878000D01*
X48387000Y38512750D01*
X48545750Y38354000D01*
X49249910Y38354000D01*
X49315000Y38380961D01*
X49315000Y37819039D01*
X49249910Y37846000D01*
X48545750Y37846000D01*
X48387000Y37687250D01*
X48387000Y36322000D01*
X48407000Y36322000D01*
X48407000Y36068000D01*
X48387000Y36068000D01*
X48387000Y34702750D01*
X48545750Y34544000D01*
X49249910Y34544000D01*
X49315000Y34570961D01*
X49315000Y34009039D01*
X49249910Y34036000D01*
X48545750Y34036000D01*
X48387000Y33877250D01*
X48387000Y32512000D01*
X48407000Y32512000D01*
X48407000Y32258000D01*
X48387000Y32258000D01*
X48387000Y30892750D01*
X48545750Y30734000D01*
X49249910Y30734000D01*
X49315000Y30760961D01*
X49315000Y30199039D01*
X49249910Y30226000D01*
X48545750Y30226000D01*
X48387000Y30067250D01*
X48387000Y28702000D01*
X48407000Y28702000D01*
X48407000Y28448000D01*
X48387000Y28448000D01*
X48387000Y27082750D01*
X48545750Y26924000D01*
X49249910Y26924000D01*
X49315000Y26950961D01*
X49315000Y26389039D01*
X49249910Y26416000D01*
X48545750Y26416000D01*
X48387000Y26257250D01*
X48387000Y24892000D01*
X48407000Y24892000D01*
X48407000Y24638000D01*
X48387000Y24638000D01*
X48387000Y23272750D01*
X48545750Y23114000D01*
X49249910Y23114000D01*
X49315000Y23140961D01*
X49315000Y22579039D01*
X49249910Y22606000D01*
X48545750Y22606000D01*
X48387000Y22447250D01*
X48387000Y21082000D01*
X48407000Y21082000D01*
X48407000Y20828000D01*
X48387000Y20828000D01*
X48387000Y19462750D01*
X48545750Y19304000D01*
X49249910Y19304000D01*
X49315000Y19330961D01*
X49315000Y18769039D01*
X49249910Y18796000D01*
X48545750Y18796000D01*
X48387000Y18637250D01*
X48387000Y17272000D01*
X48407000Y17272000D01*
X48407000Y17018000D01*
X48387000Y17018000D01*
X48387000Y15652750D01*
X48545750Y15494000D01*
X49249910Y15494000D01*
X49315000Y15520961D01*
X49315000Y14959039D01*
X49249910Y14986000D01*
X48545750Y14986000D01*
X48387000Y14827250D01*
X48387000Y13462000D01*
X48407000Y13462000D01*
X48407000Y13208000D01*
X48387000Y13208000D01*
X48387000Y11842750D01*
X48545750Y11684000D01*
X49249910Y11684000D01*
X49315000Y11710961D01*
X49315000Y11149039D01*
X49249910Y11176000D01*
X48545750Y11176000D01*
X48387000Y11017250D01*
X48387000Y9652000D01*
X48407000Y9652000D01*
X48407000Y9398000D01*
X48387000Y9398000D01*
X48387000Y8032750D01*
X48545750Y7874000D01*
X49249910Y7874000D01*
X49315000Y7900961D01*
X49315000Y685000D01*
X42035454Y685000D01*
X42194365Y1002030D01*
X40860000Y2336395D01*
X39525635Y1002030D01*
X39684546Y685000D01*
X28895454Y685000D01*
X29054365Y1002030D01*
X27720000Y2336395D01*
X26385635Y1002030D01*
X26544546Y685000D01*
X25685693Y685000D01*
X25781000Y915090D01*
X25781000Y1597955D01*
X25887261Y1341418D01*
X26206030Y1181635D01*
X27540395Y2516000D01*
X26206030Y3850365D01*
X25887261Y3690582D01*
X25671768Y3140858D01*
X25505698Y3306927D01*
X25352220Y3370500D01*
X25374415Y3385330D01*
X25699271Y3871511D01*
X25813345Y4445000D01*
X25699271Y5018489D01*
X25374415Y5504670D01*
X25059634Y5715000D01*
X25374415Y5925330D01*
X25699271Y6411511D01*
X25784154Y6838250D01*
X25787000Y6838250D01*
X25787000Y6597691D01*
X25883673Y6364302D01*
X26062301Y6185673D01*
X26295690Y6089000D01*
X26511250Y6089000D01*
X26670000Y6247750D01*
X26670000Y6997000D01*
X26924000Y6997000D01*
X26924000Y6247750D01*
X27082750Y6089000D01*
X27298310Y6089000D01*
X27531699Y6185673D01*
X27622500Y6276475D01*
X27713301Y6185673D01*
X27946690Y6089000D01*
X28162250Y6089000D01*
X28321000Y6247750D01*
X28321000Y6997000D01*
X26924000Y6997000D01*
X26670000Y6997000D01*
X25945750Y6997000D01*
X25787000Y6838250D01*
X25784154Y6838250D01*
X25813345Y6985000D01*
X25699271Y7558489D01*
X25374415Y8044670D01*
X24888234Y8369526D01*
X24314745Y8483600D01*
X23945255Y8483600D01*
X23371766Y8369526D01*
X22885585Y8044670D01*
X22560729Y7558489D01*
X22446655Y6985000D01*
X22560729Y6411511D01*
X22885585Y5925330D01*
X23200366Y5715000D01*
X22885585Y5504670D01*
X22560729Y5018489D01*
X22446655Y4445000D01*
X22560729Y3871511D01*
X22885585Y3385330D01*
X22907780Y3370500D01*
X22754302Y3306927D01*
X22575673Y3128299D01*
X22479000Y2894910D01*
X22479000Y2190750D01*
X22637750Y2032000D01*
X24003000Y2032000D01*
X24003000Y2052000D01*
X24257000Y2052000D01*
X24257000Y2032000D01*
X24277000Y2032000D01*
X24277000Y1778000D01*
X24257000Y1778000D01*
X24257000Y1758000D01*
X24003000Y1758000D01*
X24003000Y1778000D01*
X22637750Y1778000D01*
X22479000Y1619250D01*
X22479000Y915090D01*
X22574307Y685000D01*
X21875693Y685000D01*
X21971000Y915090D01*
X21971000Y1619250D01*
X21812250Y1778000D01*
X20447000Y1778000D01*
X20447000Y1758000D01*
X20193000Y1758000D01*
X20193000Y1778000D01*
X18827750Y1778000D01*
X18669000Y1619250D01*
X18669000Y915090D01*
X18764307Y685000D01*
X18247440Y685000D01*
X18247440Y2545000D01*
X18203162Y2780317D01*
X18064090Y2996441D01*
X18020000Y3026566D01*
X18020000Y4886614D01*
X18106431Y5013110D01*
X18157440Y5265000D01*
X18157440Y6165000D01*
X18113162Y6400317D01*
X17974090Y6616441D01*
X17761890Y6761431D01*
X17510000Y6812440D01*
X17010000Y6812440D01*
X16774683Y6768162D01*
X16558559Y6629090D01*
X16510866Y6559289D01*
X16474090Y6616441D01*
X16261890Y6761431D01*
X16119972Y6790170D01*
X16268680Y6938878D01*
X16314167Y6938838D01*
X16425887Y6985000D01*
X18636655Y6985000D01*
X18750729Y6411511D01*
X19075585Y5925330D01*
X19390366Y5715000D01*
X19075585Y5504670D01*
X18750729Y5018489D01*
X18636655Y4445000D01*
X18750729Y3871511D01*
X19075585Y3385330D01*
X19097780Y3370500D01*
X18944302Y3306927D01*
X18765673Y3128299D01*
X18669000Y2894910D01*
X18669000Y2190750D01*
X18827750Y2032000D01*
X20193000Y2032000D01*
X20193000Y2052000D01*
X20447000Y2052000D01*
X20447000Y2032000D01*
X21812250Y2032000D01*
X21971000Y2190750D01*
X21971000Y2894910D01*
X21874327Y3128299D01*
X21695698Y3306927D01*
X21542220Y3370500D01*
X21564415Y3385330D01*
X21889271Y3871511D01*
X22003345Y4445000D01*
X21889271Y5018489D01*
X21564415Y5504670D01*
X21249634Y5715000D01*
X21564415Y5925330D01*
X21889271Y6411511D01*
X22003345Y6985000D01*
X21889271Y7558489D01*
X21564415Y8044670D01*
X21078234Y8369526D01*
X20504745Y8483600D01*
X20135255Y8483600D01*
X19561766Y8369526D01*
X19075585Y8044670D01*
X18750729Y7558489D01*
X18636655Y6985000D01*
X16425887Y6985000D01*
X16657943Y7080883D01*
X16921192Y7343673D01*
X17063838Y7687201D01*
X17063891Y7748241D01*
X17292943Y7842883D01*
X17556192Y8105673D01*
X17698838Y8449201D01*
X17699004Y8639560D01*
X17849000Y8639560D01*
X18084317Y8683838D01*
X18290647Y8816607D01*
X18475110Y8690569D01*
X18727000Y8639560D01*
X19627000Y8639560D01*
X19862317Y8683838D01*
X20078441Y8822910D01*
X20078911Y8823598D01*
X20125910Y8750559D01*
X20338110Y8605569D01*
X20590000Y8554560D01*
X21090000Y8554560D01*
X21325317Y8598838D01*
X21541441Y8737910D01*
X21589134Y8807711D01*
X21625910Y8750559D01*
X21838110Y8605569D01*
X22090000Y8554560D01*
X22590000Y8554560D01*
X22825317Y8598838D01*
X22886176Y8638000D01*
X24257000Y8638000D01*
X24547839Y8695852D01*
X24794401Y8860599D01*
X25302401Y9368599D01*
X25402969Y9519110D01*
X25467148Y9615161D01*
X25525000Y9906000D01*
X25525000Y10226198D01*
X25580566Y10281764D01*
X25586852Y10250161D01*
X25751599Y10003599D01*
X26037000Y9718198D01*
X26037000Y9530844D01*
X25970559Y9488090D01*
X25825569Y9275890D01*
X25774560Y9024000D01*
X25774560Y8224000D01*
X25818838Y7988683D01*
X25885329Y7885354D01*
X25883673Y7883698D01*
X25787000Y7650309D01*
X25787000Y7409750D01*
X25945750Y7251000D01*
X26670000Y7251000D01*
X26670000Y7271000D01*
X26924000Y7271000D01*
X26924000Y7251000D01*
X28321000Y7251000D01*
X28321000Y7271000D01*
X28575000Y7271000D01*
X28575000Y7251000D01*
X28595000Y7251000D01*
X28595000Y6997000D01*
X28575000Y6997000D01*
X28575000Y6247750D01*
X28733750Y6089000D01*
X28949310Y6089000D01*
X29182699Y6185673D01*
X29361327Y6364302D01*
X29458000Y6597691D01*
X29458000Y6685115D01*
X29582560Y6685007D01*
X29582560Y5094234D01*
X29316057Y4984117D01*
X29052808Y4721327D01*
X28910162Y4377799D01*
X28910110Y4317761D01*
X28894582Y4348739D01*
X28103813Y4658723D01*
X27254613Y4642497D01*
X26545418Y4348739D01*
X26385635Y4029970D01*
X27720000Y2695605D01*
X27734143Y2709747D01*
X27913748Y2530142D01*
X27899605Y2516000D01*
X29233970Y1181635D01*
X29552739Y1341418D01*
X29862723Y2132187D01*
X29848056Y2899813D01*
X38717277Y2899813D01*
X38733503Y2050613D01*
X39027261Y1341418D01*
X39346030Y1181635D01*
X40680395Y2516000D01*
X41039605Y2516000D01*
X42373970Y1181635D01*
X42692739Y1341418D01*
X43002723Y2132187D01*
X42986497Y2981387D01*
X42747913Y3557381D01*
X43764613Y3557381D01*
X44104155Y2735628D01*
X44732321Y2106364D01*
X45553481Y1765389D01*
X46442619Y1764613D01*
X47264372Y2104155D01*
X47893636Y2732321D01*
X48234611Y3553481D01*
X48235387Y4442619D01*
X47895845Y5264372D01*
X47267679Y5893636D01*
X46446519Y6234611D01*
X45557381Y6235387D01*
X44735628Y5895845D01*
X44106364Y5267679D01*
X43765389Y4446519D01*
X43764613Y3557381D01*
X42747913Y3557381D01*
X42692739Y3690582D01*
X42373970Y3850365D01*
X41039605Y2516000D01*
X40680395Y2516000D01*
X39346030Y3850365D01*
X39027261Y3690582D01*
X38717277Y2899813D01*
X29848056Y2899813D01*
X29846497Y2981387D01*
X29732708Y3256097D01*
X30030167Y3255838D01*
X30373943Y3397883D01*
X30637192Y3660673D01*
X30779838Y4004201D01*
X30779842Y4008560D01*
X31350000Y4008560D01*
X31585317Y4052838D01*
X31801441Y4191910D01*
X31946431Y4404110D01*
X31997440Y4656000D01*
X31997440Y7536000D01*
X31953162Y7771317D01*
X31814090Y7987441D01*
X31601890Y8132431D01*
X31350000Y8183440D01*
X30874000Y8183440D01*
X30874000Y8469511D01*
X30891192Y8486673D01*
X31033838Y8830201D01*
X31034162Y9202167D01*
X30892117Y9545943D01*
X30736674Y9701658D01*
X32858878Y11823863D01*
X32720162Y11489799D01*
X32719838Y11117833D01*
X32861883Y10774057D01*
X33124673Y10510808D01*
X33436517Y10381319D01*
X32752599Y9697401D01*
X32587852Y9450839D01*
X32530000Y9160000D01*
X32530000Y8145807D01*
X32494683Y8139162D01*
X32278559Y8000090D01*
X32133569Y7787890D01*
X32082560Y7536000D01*
X32082560Y4656000D01*
X32126838Y4420683D01*
X32265910Y4204559D01*
X32478110Y4059569D01*
X32730000Y4008560D01*
X33850000Y4008560D01*
X34085317Y4052838D01*
X34292677Y4186270D01*
X34478110Y4059569D01*
X34730000Y4008560D01*
X35850000Y4008560D01*
X36085317Y4052838D01*
X36301441Y4191910D01*
X36446431Y4404110D01*
X36497440Y4656000D01*
X36497440Y5810250D01*
X36595000Y5810250D01*
X36595000Y4529690D01*
X36691673Y4296301D01*
X36870302Y4117673D01*
X37103691Y4021000D01*
X37504250Y4021000D01*
X37663000Y4179750D01*
X37663000Y5969000D01*
X37917000Y5969000D01*
X37917000Y4179750D01*
X38075750Y4021000D01*
X38476309Y4021000D01*
X38497964Y4029970D01*
X39525635Y4029970D01*
X40860000Y2695605D01*
X42194365Y4029970D01*
X42034582Y4348739D01*
X41243813Y4658723D01*
X40394613Y4642497D01*
X39685418Y4348739D01*
X39525635Y4029970D01*
X38497964Y4029970D01*
X38709698Y4117673D01*
X38888327Y4296301D01*
X38985000Y4529690D01*
X38985000Y5810250D01*
X38826250Y5969000D01*
X37917000Y5969000D01*
X37663000Y5969000D01*
X36753750Y5969000D01*
X36595000Y5810250D01*
X36497440Y5810250D01*
X36497440Y7536000D01*
X36478624Y7636000D01*
X36576002Y7636000D01*
X36576002Y7794748D01*
X36628226Y7742524D01*
X36595000Y7662310D01*
X36595000Y6381750D01*
X36753750Y6223000D01*
X37663000Y6223000D01*
X37663000Y6243000D01*
X37917000Y6243000D01*
X37917000Y6223000D01*
X38826250Y6223000D01*
X38985000Y6381750D01*
X38985000Y7662310D01*
X38888327Y7895699D01*
X38709698Y8074327D01*
X38476309Y8171000D01*
X38195411Y8171000D01*
X38257192Y8232673D01*
X38399838Y8576201D01*
X38399860Y8601844D01*
X38548016Y8750000D01*
X40894000Y8750000D01*
X41190580Y8808993D01*
X41442008Y8976992D01*
X41701952Y9236936D01*
X41795474Y8766766D01*
X42120330Y8280585D01*
X42606511Y7955729D01*
X43180000Y7841655D01*
X43753489Y7955729D01*
X44239670Y8280585D01*
X44450000Y8595366D01*
X44660330Y8280585D01*
X45146511Y7955729D01*
X45720000Y7841655D01*
X46293489Y7955729D01*
X46779670Y8280585D01*
X46794500Y8302780D01*
X46858073Y8149302D01*
X47036701Y7970673D01*
X47270090Y7874000D01*
X47974250Y7874000D01*
X48133000Y8032750D01*
X48133000Y9398000D01*
X48113000Y9398000D01*
X48113000Y9652000D01*
X48133000Y9652000D01*
X48133000Y11017250D01*
X47974250Y11176000D01*
X47270090Y11176000D01*
X47036701Y11079327D01*
X46858073Y10900698D01*
X46794500Y10747220D01*
X46779670Y10769415D01*
X46481597Y10968581D01*
X47218419Y11705403D01*
X47270090Y11684000D01*
X47974250Y11684000D01*
X48133000Y11842750D01*
X48133000Y13208000D01*
X48113000Y13208000D01*
X48113000Y13462000D01*
X48133000Y13462000D01*
X48133000Y14827250D01*
X48011576Y14948674D01*
X48019000Y14986000D01*
X48019000Y15494000D01*
X48011576Y15531326D01*
X48133000Y15652750D01*
X48133000Y17018000D01*
X48113000Y17018000D01*
X48113000Y17272000D01*
X48133000Y17272000D01*
X48133000Y18637250D01*
X47974250Y18796000D01*
X47765000Y18796000D01*
X47765000Y19304000D01*
X47974250Y19304000D01*
X48133000Y19462750D01*
X48133000Y20828000D01*
X48113000Y20828000D01*
X48113000Y21082000D01*
X48133000Y21082000D01*
X48133000Y22447250D01*
X48011576Y22568674D01*
X48019000Y22606000D01*
X48019000Y23114000D01*
X48011576Y23151326D01*
X48133000Y23272750D01*
X48133000Y24638000D01*
X48113000Y24638000D01*
X48113000Y24892000D01*
X48133000Y24892000D01*
X48133000Y26257250D01*
X47974250Y26416000D01*
X47765000Y26416000D01*
X47765000Y26924000D01*
X47974250Y26924000D01*
X48133000Y27082750D01*
X48133000Y28448000D01*
X48113000Y28448000D01*
X48113000Y28702000D01*
X48133000Y28702000D01*
X48133000Y30067250D01*
X47974250Y30226000D01*
X47765000Y30226000D01*
X47765000Y30734000D01*
X47974250Y30734000D01*
X48133000Y30892750D01*
X48133000Y32258000D01*
X48113000Y32258000D01*
X48113000Y32512000D01*
X48133000Y32512000D01*
X48133000Y33877250D01*
X47974250Y34036000D01*
X47765000Y34036000D01*
X47765000Y34544000D01*
X47974250Y34544000D01*
X48133000Y34702750D01*
X48133000Y36068000D01*
X48113000Y36068000D01*
X48113000Y36322000D01*
X48133000Y36322000D01*
X48133000Y37687250D01*
X47974250Y37846000D01*
X47270090Y37846000D01*
X47218419Y37824597D01*
X46481597Y38561419D01*
X46779670Y38760585D01*
X46794500Y38782780D01*
X46858073Y38629302D01*
X47036701Y38450673D01*
X47270090Y38354000D01*
X47974250Y38354000D01*
X48133000Y38512750D01*
X48133000Y39878000D01*
X48113000Y39878000D01*
X48113000Y40132000D01*
X48133000Y40132000D01*
X48133000Y41497250D01*
X47974250Y41656000D01*
X47270090Y41656000D01*
X47036701Y41559327D01*
X46858073Y41380698D01*
X46794500Y41227220D01*
X46779670Y41249415D01*
X46293489Y41574271D01*
X45720000Y41688345D01*
X45146511Y41574271D01*
X44660330Y41249415D01*
X44450000Y40934634D01*
X44239670Y41249415D01*
X43753489Y41574271D01*
X43180000Y41688345D01*
X42606511Y41574271D01*
X42279851Y41356003D01*
X42289000Y41402000D01*
X42289000Y42418000D01*
X42231148Y42708839D01*
X42066401Y42955401D01*
X41400000Y43621802D01*
X41400000Y44596293D01*
X41796120Y44860971D01*
X42150543Y45391404D01*
X42183557Y45557381D01*
X43764613Y45557381D01*
X44104155Y44735628D01*
X44732321Y44106364D01*
X45553481Y43765389D01*
X46442619Y43764613D01*
X47264372Y44104155D01*
X47893636Y44732321D01*
X48234611Y45553481D01*
X48235387Y46442619D01*
X47895845Y47264372D01*
X47267679Y47893636D01*
X46446519Y48234611D01*
X45557381Y48235387D01*
X44735628Y47895845D01*
X44106364Y47267679D01*
X43765389Y46446519D01*
X43764613Y45557381D01*
X42183557Y45557381D01*
X42275000Y46017091D01*
X42275000Y46692909D01*
X42150543Y47318596D01*
X41796120Y47849029D01*
X41265687Y48203452D01*
X40640000Y48327909D01*
X40014313Y48203452D01*
X39483880Y47849029D01*
X39370000Y47678595D01*
X39256120Y47849029D01*
X38725687Y48203452D01*
X38100000Y48327909D01*
X37474313Y48203452D01*
X36943880Y47849029D01*
X36830000Y47678595D01*
X36716120Y47849029D01*
X36185687Y48203452D01*
X35560000Y48327909D01*
X34934313Y48203452D01*
X34575808Y47963907D01*
X34484090Y48106441D01*
X34271890Y48251431D01*
X34020000Y48302440D01*
X32324140Y48302440D01*
X31613790Y49012790D01*
X31326675Y49204633D01*
X31270484Y49215810D01*
X30988000Y49272001D01*
X30987995Y49272000D01*
X24892005Y49272000D01*
X24892000Y49272001D01*
X24553325Y49204633D01*
X24266210Y49012790D01*
X24266208Y49012787D01*
X22636860Y47383440D01*
X22194139Y47383440D01*
X20564790Y49012790D01*
X20277675Y49204633D01*
X20221484Y49215810D01*
X19939000Y49272001D01*
X19938995Y49272000D01*
X11303005Y49272000D01*
X11303000Y49272001D01*
X11020516Y49215810D01*
X10964325Y49204633D01*
X10677210Y49012790D01*
X10677208Y49012787D01*
X9966861Y48302440D01*
X8525000Y48302440D01*
X8289683Y48258162D01*
X8073559Y48119090D01*
X7928569Y47906890D01*
X7877560Y47655000D01*
X7877560Y45055000D01*
X7921838Y44819683D01*
X8060910Y44603559D01*
X8273110Y44458569D01*
X8525000Y44407560D01*
X10525000Y44407560D01*
X10760317Y44451838D01*
X10976441Y44590910D01*
X11081951Y44745329D01*
X11439313Y44506548D01*
X12065000Y44382091D01*
X12690687Y44506548D01*
X13221120Y44860971D01*
X13335000Y45031405D01*
X13448880Y44860971D01*
X13979313Y44506548D01*
X14605000Y44382091D01*
X15230687Y44506548D01*
X15761120Y44860971D01*
X15875000Y45031405D01*
X15988880Y44860971D01*
X16519313Y44506548D01*
X17145000Y44382091D01*
X17770687Y44506548D01*
X18301120Y44860971D01*
X18655543Y45391404D01*
X18780000Y46017091D01*
X18780000Y46692909D01*
X18655543Y47318596D01*
X18532997Y47502000D01*
X19572420Y47502000D01*
X21094960Y45979461D01*
X21094960Y45460540D01*
X20964210Y45329790D01*
X20772367Y45042675D01*
X20772367Y45042674D01*
X20704999Y44704000D01*
X20705000Y44703995D01*
X20705000Y43986853D01*
X20567059Y43898090D01*
X20422069Y43685890D01*
X20371060Y43434000D01*
X20371060Y42926000D01*
X20415338Y42690683D01*
X20509666Y42544093D01*
X20422069Y42415890D01*
X20371060Y42164000D01*
X20371060Y41656000D01*
X20415338Y41420683D01*
X20509666Y41274093D01*
X20422069Y41145890D01*
X20371060Y40894000D01*
X20371060Y40386000D01*
X20415338Y40150683D01*
X20509666Y40004093D01*
X20456914Y39926888D01*
X17936401Y42447401D01*
X17689839Y42612148D01*
X17399000Y42670000D01*
X14636105Y42670000D01*
X14545090Y42811441D01*
X14332890Y42956431D01*
X14081000Y43007440D01*
X13581000Y43007440D01*
X13345683Y42963162D01*
X13129559Y42824090D01*
X13081866Y42754289D01*
X13045090Y42811441D01*
X12832890Y42956431D01*
X12581000Y43007440D01*
X12081000Y43007440D01*
X11845683Y42963162D01*
X11720268Y42882460D01*
X11686970Y42905211D01*
X11435080Y42956220D01*
X10637520Y42956220D01*
X10402203Y42911942D01*
X10287007Y42837815D01*
X10188370Y42905211D01*
X9936480Y42956220D01*
X9138920Y42956220D01*
X8903603Y42911942D01*
X8687479Y42772870D01*
X8542489Y42560670D01*
X8491480Y42308780D01*
X8491480Y41511220D01*
X8535758Y41275903D01*
X8652700Y41094170D01*
X8652700Y41070969D01*
X8542489Y40909670D01*
X8491480Y40657780D01*
X8491480Y39860220D01*
X8535758Y39624903D01*
X8652700Y39443170D01*
X8652700Y39419969D01*
X8542489Y39258670D01*
X8491480Y39006780D01*
X8491480Y38209220D01*
X8535758Y37973903D01*
X8674830Y37757779D01*
X8826200Y37654352D01*
X8826200Y35709273D01*
X8750979Y35660870D01*
X8605989Y35448670D01*
X8554980Y35196780D01*
X8554980Y34847796D01*
X8214992Y34507808D01*
X8184946Y34462840D01*
X8140923Y34462879D01*
X7810011Y34793791D01*
X8044670Y34950585D01*
X8369526Y35436766D01*
X8483600Y36010255D01*
X8483600Y36379745D01*
X8369526Y36953234D01*
X8044670Y37439415D01*
X7558489Y37764271D01*
X6985000Y37878345D01*
X6411511Y37764271D01*
X5925330Y37439415D01*
X5715000Y37124634D01*
X5504670Y37439415D01*
X5018489Y37764271D01*
X4445000Y37878345D01*
X3871511Y37764271D01*
X3385330Y37439415D01*
X3370500Y37417220D01*
X3306927Y37570698D01*
X3128299Y37749327D01*
X2894910Y37846000D01*
X2190750Y37846000D01*
X2032000Y37687250D01*
X2032000Y36322000D01*
X2052000Y36322000D01*
X2052000Y36068000D01*
X2032000Y36068000D01*
X2032000Y34702750D01*
X2190750Y34544000D01*
X2894910Y34544000D01*
X3128299Y34640673D01*
X3306927Y34819302D01*
X3370500Y34972780D01*
X3385330Y34950585D01*
X3871511Y34625729D01*
X4445000Y34511655D01*
X5018489Y34625729D01*
X5504670Y34950585D01*
X5715000Y35265366D01*
X5925330Y34950585D01*
X6225000Y34750352D01*
X6225000Y34544000D01*
X6282852Y34253161D01*
X6447599Y34006599D01*
X6485258Y33968940D01*
X6411511Y33954271D01*
X5925330Y33629415D01*
X5715000Y33314634D01*
X5504670Y33629415D01*
X5018489Y33954271D01*
X4445000Y34068345D01*
X3871511Y33954271D01*
X3385330Y33629415D01*
X3370500Y33607220D01*
X3306927Y33760698D01*
X3128299Y33939327D01*
X2894910Y34036000D01*
X2190750Y34036000D01*
X2032000Y33877250D01*
X2032000Y32512000D01*
X2052000Y32512000D01*
X2052000Y32258000D01*
X2032000Y32258000D01*
X2032000Y30892750D01*
X2190750Y30734000D01*
X2894910Y30734000D01*
X3128299Y30830673D01*
X3306927Y31009302D01*
X3370500Y31162780D01*
X3385330Y31140585D01*
X3871511Y30815729D01*
X4445000Y30701655D01*
X5018489Y30815729D01*
X5504670Y31140585D01*
X5715000Y31455366D01*
X5925330Y31140585D01*
X6411511Y30815729D01*
X6985000Y30701655D01*
X7558489Y30815729D01*
X8044670Y31140585D01*
X8065488Y31171741D01*
X8214992Y30947992D01*
X10012984Y29150000D01*
X8307984Y27445000D01*
X8121120Y27445000D01*
X8369526Y27816766D01*
X8483600Y28390255D01*
X8483600Y28759745D01*
X8369526Y29333234D01*
X8044670Y29819415D01*
X7558489Y30144271D01*
X6985000Y30258345D01*
X6411511Y30144271D01*
X5925330Y29819415D01*
X5715000Y29504634D01*
X5504670Y29819415D01*
X5018489Y30144271D01*
X4445000Y30258345D01*
X3871511Y30144271D01*
X3385330Y29819415D01*
X3370500Y29797220D01*
X3306927Y29950698D01*
X3128299Y30129327D01*
X2894910Y30226000D01*
X2190750Y30226000D01*
X2032000Y30067250D01*
X2032000Y28702000D01*
X2052000Y28702000D01*
X2052000Y28448000D01*
X2032000Y28448000D01*
X2032000Y27082750D01*
X2190750Y26924000D01*
X2894910Y26924000D01*
X3128299Y27020673D01*
X3306927Y27199302D01*
X3370500Y27352780D01*
X3385330Y27330585D01*
X3871511Y27005729D01*
X4445000Y26891655D01*
X5018489Y27005729D01*
X5504670Y27330585D01*
X5715000Y27645366D01*
X5925330Y27330585D01*
X6223403Y27131419D01*
X5262927Y26170943D01*
X5018489Y26334271D01*
X4445000Y26448345D01*
X3871511Y26334271D01*
X3385330Y26009415D01*
X3370500Y25987220D01*
X3306927Y26140698D01*
X3128299Y26319327D01*
X2894910Y26416000D01*
X2190750Y26416000D01*
X2032000Y26257250D01*
X2032000Y24892000D01*
X2052000Y24892000D01*
X2052000Y24638000D01*
X2032000Y24638000D01*
X2032000Y23272750D01*
X2190750Y23114000D01*
X2894910Y23114000D01*
X3128299Y23210673D01*
X3306927Y23389302D01*
X3370500Y23542780D01*
X3385330Y23520585D01*
X3871511Y23195729D01*
X4445000Y23081655D01*
X4940000Y23180117D01*
X4940000Y22539883D01*
X4445000Y22638345D01*
X3871511Y22524271D01*
X3385330Y22199415D01*
X3370500Y22177220D01*
X3306927Y22330698D01*
X3128299Y22509327D01*
X2894910Y22606000D01*
X2190750Y22606000D01*
X2032000Y22447250D01*
X2032000Y21082000D01*
X2052000Y21082000D01*
X2052000Y20828000D01*
X2032000Y20828000D01*
X2032000Y19462750D01*
X2190750Y19304000D01*
X2894910Y19304000D01*
X3128299Y19400673D01*
X3306927Y19579302D01*
X3370500Y19732780D01*
X3385330Y19710585D01*
X3871511Y19385729D01*
X4445000Y19271655D01*
X4940000Y19370117D01*
X4940000Y18729883D01*
X4445000Y18828345D01*
X3871511Y18714271D01*
X3385330Y18389415D01*
X3370500Y18367220D01*
X3306927Y18520698D01*
X3128299Y18699327D01*
X2894910Y18796000D01*
X2190750Y18796000D01*
X2032000Y18637250D01*
X2032000Y17272000D01*
X2052000Y17272000D01*
X2052000Y17018000D01*
X2032000Y17018000D01*
X2032000Y15652750D01*
X2190750Y15494000D01*
X2894910Y15494000D01*
X3128299Y15590673D01*
X3306927Y15769302D01*
X3370500Y15922780D01*
X3385330Y15900585D01*
X3871511Y15575729D01*
X4445000Y15461655D01*
X4940000Y15560117D01*
X4940000Y14919883D01*
X4445000Y15018345D01*
X3871511Y14904271D01*
X3385330Y14579415D01*
X3370500Y14557220D01*
X3306927Y14710698D01*
X3128299Y14889327D01*
X2894910Y14986000D01*
X2190750Y14986000D01*
X2032000Y14827250D01*
X2032000Y13462000D01*
X2052000Y13462000D01*
X2052000Y13208000D01*
X2032000Y13208000D01*
X2032000Y11842750D01*
X2190750Y11684000D01*
X2894910Y11684000D01*
X3128299Y11780673D01*
X3306927Y11959302D01*
X3370500Y12112780D01*
X3385330Y12090585D01*
X3871511Y11765729D01*
X4445000Y11651655D01*
X5018489Y11765729D01*
X5064920Y11796753D01*
X5166992Y11643992D01*
X5928992Y10881992D01*
X6011403Y10826927D01*
X5925330Y10769415D01*
X5715000Y10454634D01*
X5504670Y10769415D01*
X5018489Y11094271D01*
X4445000Y11208345D01*
X3871511Y11094271D01*
X3385330Y10769415D01*
X3370500Y10747220D01*
X3306927Y10900698D01*
X3128299Y11079327D01*
X2894910Y11176000D01*
X2190750Y11176000D01*
X2032000Y11017250D01*
X2032000Y9652000D01*
X2052000Y9652000D01*
X2052000Y9398000D01*
X2032000Y9398000D01*
X2032000Y8032750D01*
X2190750Y7874000D01*
X2894910Y7874000D01*
X3128299Y7970673D01*
X3306927Y8149302D01*
X3370500Y8302780D01*
X3385330Y8280585D01*
X3871511Y7955729D01*
X4445000Y7841655D01*
X5018489Y7955729D01*
X5504670Y8280585D01*
X5715000Y8595366D01*
X5925330Y8280585D01*
X6411511Y7955729D01*
X6985000Y7841655D01*
X7558489Y7955729D01*
X8044670Y8280585D01*
X8369526Y8766766D01*
X8483600Y9340255D01*
X8483600Y9491598D01*
X9852599Y8122599D01*
X10099160Y7957852D01*
X10390000Y7900000D01*
X10463551Y7900000D01*
X10589233Y7875000D01*
X11050000Y7875000D01*
X11050000Y7414233D01*
X11101736Y7154141D01*
X10892599Y7014401D01*
X10409120Y6530922D01*
X10354090Y6616441D01*
X10205879Y6717710D01*
X10206162Y7043167D01*
X10064117Y7386943D01*
X9801327Y7650192D01*
X9457799Y7792838D01*
X9085833Y7793162D01*
X8742057Y7651117D01*
X8478808Y7388327D01*
X8336162Y7044799D01*
X8336121Y6997923D01*
X8150638Y6812440D01*
X7890000Y6812440D01*
X7654683Y6768162D01*
X7438559Y6629090D01*
X7293569Y6416890D01*
X7242560Y6165000D01*
X7242560Y5265000D01*
X7286838Y5029683D01*
X7380000Y4884905D01*
X7380000Y3029322D01*
X7348559Y3009090D01*
X7203569Y2796890D01*
X7152560Y2545000D01*
X7152560Y685000D01*
X685000Y685000D01*
X685000Y3557381D01*
X1764613Y3557381D01*
X2104155Y2735628D01*
X2732321Y2106364D01*
X3553481Y1765389D01*
X4442619Y1764613D01*
X5264372Y2104155D01*
X5893636Y2732321D01*
X6234611Y3553481D01*
X6235387Y4442619D01*
X5895845Y5264372D01*
X5267679Y5893636D01*
X4446519Y6234611D01*
X3557381Y6235387D01*
X2735628Y5895845D01*
X2106364Y5267679D01*
X1765389Y4446519D01*
X1764613Y3557381D01*
X685000Y3557381D01*
X685000Y7969307D01*
X915090Y7874000D01*
X1619250Y7874000D01*
X1778000Y8032750D01*
X1778000Y9398000D01*
X1758000Y9398000D01*
X1758000Y9652000D01*
X1778000Y9652000D01*
X1778000Y11017250D01*
X1619250Y11176000D01*
X915090Y11176000D01*
X685000Y11080693D01*
X685000Y11779307D01*
X915090Y11684000D01*
X1619250Y11684000D01*
X1778000Y11842750D01*
X1778000Y13208000D01*
X1758000Y13208000D01*
X1758000Y13462000D01*
X1778000Y13462000D01*
X1778000Y14827250D01*
X1619250Y14986000D01*
X915090Y14986000D01*
X685000Y14890693D01*
X685000Y15589307D01*
X915090Y15494000D01*
X1619250Y15494000D01*
X1778000Y15652750D01*
X1778000Y17018000D01*
X1758000Y17018000D01*
X1758000Y17272000D01*
X1778000Y17272000D01*
X1778000Y18637250D01*
X1619250Y18796000D01*
X915090Y18796000D01*
X685000Y18700693D01*
X685000Y19399307D01*
X915090Y19304000D01*
X1619250Y19304000D01*
X1778000Y19462750D01*
X1778000Y20828000D01*
X1758000Y20828000D01*
X1758000Y21082000D01*
X1778000Y21082000D01*
X1778000Y22447250D01*
X1619250Y22606000D01*
X915090Y22606000D01*
X685000Y22510693D01*
X685000Y23209307D01*
X915090Y23114000D01*
X1619250Y23114000D01*
X1778000Y23272750D01*
X1778000Y24638000D01*
X1758000Y24638000D01*
X1758000Y24892000D01*
X1778000Y24892000D01*
X1778000Y26257250D01*
X1619250Y26416000D01*
X915090Y26416000D01*
X685000Y26320693D01*
X685000Y27019307D01*
X915090Y26924000D01*
X1619250Y26924000D01*
X1778000Y27082750D01*
X1778000Y28448000D01*
X1758000Y28448000D01*
X1758000Y28702000D01*
X1778000Y28702000D01*
X1778000Y30067250D01*
X1619250Y30226000D01*
X915090Y30226000D01*
X685000Y30130693D01*
X685000Y30829307D01*
X915090Y30734000D01*
X1619250Y30734000D01*
X1778000Y30892750D01*
X1778000Y32258000D01*
X1758000Y32258000D01*
X1758000Y32512000D01*
X1778000Y32512000D01*
X1778000Y33877250D01*
X1619250Y34036000D01*
X915090Y34036000D01*
X685000Y33940693D01*
X685000Y34639307D01*
X915090Y34544000D01*
X1619250Y34544000D01*
X1778000Y34702750D01*
X1778000Y36068000D01*
X1758000Y36068000D01*
X1758000Y36322000D01*
X1778000Y36322000D01*
X1778000Y37687250D01*
X1619250Y37846000D01*
X915090Y37846000D01*
X685000Y37750693D01*
X685000Y38449307D01*
X915090Y38354000D01*
X1619250Y38354000D01*
X1778000Y38512750D01*
X1778000Y39878000D01*
X1758000Y39878000D01*
X1758000Y40132000D01*
X1778000Y40132000D01*
X1778000Y41497250D01*
X2032000Y41497250D01*
X2032000Y40132000D01*
X2052000Y40132000D01*
X2052000Y39878000D01*
X2032000Y39878000D01*
X2032000Y38512750D01*
X2190750Y38354000D01*
X2894910Y38354000D01*
X3128299Y38450673D01*
X3306927Y38629302D01*
X3370500Y38782780D01*
X3385330Y38760585D01*
X3871511Y38435729D01*
X4445000Y38321655D01*
X5018489Y38435729D01*
X5504670Y38760585D01*
X5715000Y39075366D01*
X5925330Y38760585D01*
X6411511Y38435729D01*
X6985000Y38321655D01*
X7558489Y38435729D01*
X8044670Y38760585D01*
X8369526Y39246766D01*
X8483600Y39820255D01*
X8483600Y40189745D01*
X8369526Y40763234D01*
X8044670Y41249415D01*
X7558489Y41574271D01*
X6985000Y41688345D01*
X6411511Y41574271D01*
X5925330Y41249415D01*
X5715000Y40934634D01*
X5504670Y41249415D01*
X5018489Y41574271D01*
X4445000Y41688345D01*
X3871511Y41574271D01*
X3385330Y41249415D01*
X3370500Y41227220D01*
X3306927Y41380698D01*
X3128299Y41559327D01*
X2894910Y41656000D01*
X2190750Y41656000D01*
X2032000Y41497250D01*
X1778000Y41497250D01*
X1619250Y41656000D01*
X915090Y41656000D01*
X685000Y41560693D01*
X685000Y45557381D01*
X1764613Y45557381D01*
X2104155Y44735628D01*
X2732321Y44106364D01*
X3553481Y43765389D01*
X4442619Y43764613D01*
X5264372Y44104155D01*
X5893636Y44732321D01*
X6234611Y45553481D01*
X6235387Y46442619D01*
X5895845Y47264372D01*
X5267679Y47893636D01*
X4446519Y48234611D01*
X3557381Y48235387D01*
X2735628Y47895845D01*
X2106364Y47267679D01*
X1765389Y46446519D01*
X1764613Y45557381D01*
X685000Y45557381D01*
X685000Y49315000D01*
X49315000Y49315000D01*
X49315000Y41629039D01*
G36*
X15045910Y4813559D02*
X15258110Y4668569D01*
X15510000Y4617560D01*
X16010000Y4617560D01*
X16245317Y4661838D01*
X16461441Y4800910D01*
X16500000Y4857343D01*
X16500000Y3192440D01*
X15300000Y3192440D01*
X15064683Y3148162D01*
X15027272Y3124088D01*
X15001890Y3141431D01*
X14750000Y3192440D01*
X14525337Y3192440D01*
X14559698Y3206673D01*
X14738327Y3385301D01*
X14835000Y3618690D01*
X14835000Y4159250D01*
X14676250Y4318000D01*
X14197440Y4318000D01*
X14197440Y4572000D01*
X14676250Y4572000D01*
X14835000Y4730750D01*
X14835000Y4955000D01*
X14954895Y4955000D01*
X15045910Y4813559D01*
X15045910Y4813559D01*
G37*
X15045910Y4813559D02*
X15258110Y4668569D01*
X15510000Y4617560D01*
X16010000Y4617560D01*
X16245317Y4661838D01*
X16461441Y4800910D01*
X16500000Y4857343D01*
X16500000Y3192440D01*
X15300000Y3192440D01*
X15064683Y3148162D01*
X15027272Y3124088D01*
X15001890Y3141431D01*
X14750000Y3192440D01*
X14525337Y3192440D01*
X14559698Y3206673D01*
X14738327Y3385301D01*
X14835000Y3618690D01*
X14835000Y4159250D01*
X14676250Y4318000D01*
X14197440Y4318000D01*
X14197440Y4572000D01*
X14676250Y4572000D01*
X14835000Y4730750D01*
X14835000Y4955000D01*
X14954895Y4955000D01*
X15045910Y4813559D01*
G36*
X36529838Y8577833D02*
X36596000Y8417709D01*
X36596000Y8396000D01*
X36576000Y8396000D01*
X36576000Y8374000D01*
X36322000Y8374000D01*
X36322000Y8396000D01*
X34798000Y8396000D01*
X34798000Y8374000D01*
X34610802Y8374000D01*
X34542000Y8442802D01*
X34542000Y8511000D01*
X35179000Y8511000D01*
X35469839Y8568852D01*
X35585299Y8646000D01*
X36322000Y8646000D01*
X36322000Y8668000D01*
X36529917Y8668000D01*
X36529838Y8577833D01*
X36529838Y8577833D01*
G37*
X36529838Y8577833D02*
X36596000Y8417709D01*
X36596000Y8396000D01*
X36576000Y8396000D01*
X36576000Y8374000D01*
X36322000Y8374000D01*
X36322000Y8396000D01*
X34798000Y8396000D01*
X34798000Y8374000D01*
X34610802Y8374000D01*
X34542000Y8442802D01*
X34542000Y8511000D01*
X35179000Y8511000D01*
X35469839Y8568852D01*
X35585299Y8646000D01*
X36322000Y8646000D01*
X36322000Y8668000D01*
X36529917Y8668000D01*
X36529838Y8577833D01*
G36*
X12624500Y11124500D02*
X14045500Y11124500D01*
X14045500Y11144500D01*
X14299500Y11144500D01*
X14299500Y11124500D01*
X14319500Y11124500D01*
X14319500Y10870500D01*
X14299500Y10870500D01*
X14299500Y9449500D01*
X14319500Y9449500D01*
X14319500Y9195500D01*
X14299500Y9195500D01*
X14299500Y9175500D01*
X14045500Y9175500D01*
X14045500Y9195500D01*
X12624500Y9195500D01*
X12624500Y9175500D01*
X12370500Y9175500D01*
X12370500Y9195500D01*
X12350500Y9195500D01*
X12350500Y9449500D01*
X12370500Y9449500D01*
X12370500Y10870500D01*
X12624500Y10870500D01*
X12624500Y9449500D01*
X14045500Y9449500D01*
X14045500Y10870500D01*
X12624500Y10870500D01*
X12370500Y10870500D01*
X12350500Y10870500D01*
X12350500Y11124500D01*
X12370500Y11124500D01*
X12370500Y11144500D01*
X12624500Y11144500D01*
X12624500Y11124500D01*
X12624500Y11124500D01*
G37*
X12624500Y11124500D02*
X14045500Y11124500D01*
X14045500Y11144500D01*
X14299500Y11144500D01*
X14299500Y11124500D01*
X14319500Y11124500D01*
X14319500Y10870500D01*
X14299500Y10870500D01*
X14299500Y9449500D01*
X14319500Y9449500D01*
X14319500Y9195500D01*
X14299500Y9195500D01*
X14299500Y9175500D01*
X14045500Y9175500D01*
X14045500Y9195500D01*
X12624500Y9195500D01*
X12624500Y9175500D01*
X12370500Y9175500D01*
X12370500Y9195500D01*
X12350500Y9195500D01*
X12350500Y9449500D01*
X12370500Y9449500D01*
X12370500Y10870500D01*
X12624500Y10870500D01*
X12624500Y9449500D01*
X14045500Y9449500D01*
X14045500Y10870500D01*
X12624500Y10870500D01*
X12370500Y10870500D01*
X12350500Y10870500D01*
X12350500Y11124500D01*
X12370500Y11124500D01*
X12370500Y11144500D01*
X12624500Y11144500D01*
X12624500Y11124500D01*
G36*
X28500000Y13277560D02*
X28568872Y13277560D01*
X28601992Y13227992D01*
X28915992Y12913992D01*
X29167420Y12745993D01*
X29464000Y12687000D01*
X31529985Y12687000D01*
X28765500Y9922516D01*
X27572000Y11116016D01*
X27572000Y12406511D01*
X27589192Y12423673D01*
X27731838Y12767201D01*
X27732162Y13139167D01*
X27674979Y13277560D01*
X27800000Y13277560D01*
X27903671Y13297067D01*
X28000000Y13277560D01*
X28300000Y13277560D01*
X28403671Y13297067D01*
X28500000Y13277560D01*
X28500000Y13277560D01*
G37*
X28500000Y13277560D02*
X28568872Y13277560D01*
X28601992Y13227992D01*
X28915992Y12913992D01*
X29167420Y12745993D01*
X29464000Y12687000D01*
X31529985Y12687000D01*
X28765500Y9922516D01*
X27572000Y11116016D01*
X27572000Y12406511D01*
X27589192Y12423673D01*
X27731838Y12767201D01*
X27732162Y13139167D01*
X27674979Y13277560D01*
X27800000Y13277560D01*
X27903671Y13297067D01*
X28000000Y13277560D01*
X28300000Y13277560D01*
X28403671Y13297067D01*
X28500000Y13277560D01*
G36*
X20967000Y12954000D02*
X20987000Y12954000D01*
X20987000Y12784189D01*
X20882629Y12680000D01*
X20713000Y12680000D01*
X20713000Y12700000D01*
X20693000Y12700000D01*
X20693000Y12954000D01*
X20713000Y12954000D01*
X20713000Y12974000D01*
X20967000Y12974000D01*
X20967000Y12954000D01*
X20967000Y12954000D01*
G37*
X20967000Y12954000D02*
X20987000Y12954000D01*
X20987000Y12784189D01*
X20882629Y12680000D01*
X20713000Y12680000D01*
X20713000Y12700000D01*
X20693000Y12700000D01*
X20693000Y12954000D01*
X20713000Y12954000D01*
X20713000Y12974000D01*
X20967000Y12974000D01*
X20967000Y12954000D01*
G36*
X44660330Y15900585D02*
X45146511Y15575729D01*
X45720000Y15461655D01*
X46250950Y15567267D01*
X46273993Y15451420D01*
X46415259Y15240000D01*
X46273993Y15028580D01*
X46250950Y14912733D01*
X45720000Y15018345D01*
X45146511Y14904271D01*
X44660330Y14579415D01*
X44450000Y14264634D01*
X44239670Y14579415D01*
X43753489Y14904271D01*
X43180000Y15018345D01*
X42672421Y14917381D01*
X42670000Y14919802D01*
X42670000Y15563100D01*
X43180000Y15461655D01*
X43753489Y15575729D01*
X44239670Y15900585D01*
X44450000Y16215366D01*
X44660330Y15900585D01*
X44660330Y15900585D01*
G37*
X44660330Y15900585D02*
X45146511Y15575729D01*
X45720000Y15461655D01*
X46250950Y15567267D01*
X46273993Y15451420D01*
X46415259Y15240000D01*
X46273993Y15028580D01*
X46250950Y14912733D01*
X45720000Y15018345D01*
X45146511Y14904271D01*
X44660330Y14579415D01*
X44450000Y14264634D01*
X44239670Y14579415D01*
X43753489Y14904271D01*
X43180000Y15018345D01*
X42672421Y14917381D01*
X42670000Y14919802D01*
X42670000Y15563100D01*
X43180000Y15461655D01*
X43753489Y15575729D01*
X44239670Y15900585D01*
X44450000Y16215366D01*
X44660330Y15900585D01*
G36*
X12446000Y16383000D02*
X12466000Y16383000D01*
X12466000Y16129000D01*
X12446000Y16129000D01*
X12446000Y16109000D01*
X12192000Y16109000D01*
X12192000Y16129000D01*
X12172000Y16129000D01*
X12172000Y16383000D01*
X12192000Y16383000D01*
X12192000Y16403000D01*
X12446000Y16403000D01*
X12446000Y16383000D01*
X12446000Y16383000D01*
G37*
X12446000Y16383000D02*
X12466000Y16383000D01*
X12466000Y16129000D01*
X12446000Y16129000D01*
X12446000Y16109000D01*
X12192000Y16109000D01*
X12192000Y16129000D01*
X12172000Y16129000D01*
X12172000Y16383000D01*
X12192000Y16383000D01*
X12192000Y16403000D01*
X12446000Y16403000D01*
X12446000Y16383000D01*
G36*
X28232599Y31612599D02*
X28479161Y31447852D01*
X28770000Y31390000D01*
X33343454Y31390000D01*
X33153160Y31352148D01*
X32906599Y31187401D01*
X32118320Y30399122D01*
X32072833Y30399162D01*
X31729057Y30257117D01*
X31465808Y29994327D01*
X31323162Y29650799D01*
X31322838Y29278833D01*
X31464883Y28935057D01*
X31727673Y28671808D01*
X32071201Y28529162D01*
X32443167Y28528838D01*
X32786943Y28670883D01*
X32895000Y28778752D01*
X32895000Y28000802D01*
X32355599Y27461401D01*
X32190852Y27214839D01*
X32148097Y26999899D01*
X31689198Y26541000D01*
X30861000Y26541000D01*
X30570161Y26483148D01*
X30323599Y26318401D01*
X28895198Y24890000D01*
X27559000Y24890000D01*
X27268161Y24832148D01*
X27021599Y24667401D01*
X25116599Y22762401D01*
X24951852Y22515839D01*
X24894000Y22225000D01*
X24894000Y19999802D01*
X21145500Y16251302D01*
X20857401Y16539401D01*
X20610839Y16704148D01*
X20320000Y16762000D01*
X20120463Y16762000D01*
X20088327Y16794192D01*
X19744799Y16936838D01*
X19556000Y16937002D01*
X19556000Y17592198D01*
X19618802Y17655000D01*
X20773537Y17655000D01*
X20805673Y17622808D01*
X21149201Y17480162D01*
X21521167Y17479838D01*
X21864943Y17621883D01*
X22128192Y17884673D01*
X22270838Y18228201D01*
X22270879Y18275077D01*
X22381401Y18385599D01*
X22546148Y18632161D01*
X22604000Y18923000D01*
X22604000Y20701000D01*
X22546148Y20991839D01*
X22381401Y21238401D01*
X21873401Y21746401D01*
X21626839Y21911148D01*
X21336000Y21969000D01*
X21263463Y21969000D01*
X21231327Y22001192D01*
X20887799Y22143838D01*
X20699000Y22144002D01*
X20699000Y25857889D01*
X20932673Y25623808D01*
X21276201Y25481162D01*
X21648167Y25480838D01*
X21991943Y25622883D01*
X22255192Y25885673D01*
X22397838Y26229201D01*
X22397941Y26347421D01*
X22419148Y26379160D01*
X22477000Y26670000D01*
X22477000Y29022198D01*
X26650000Y33195198D01*
X28232599Y31612599D01*
X28232599Y31612599D01*
G37*
X28232599Y31612599D02*
X28479161Y31447852D01*
X28770000Y31390000D01*
X33343454Y31390000D01*
X33153160Y31352148D01*
X32906599Y31187401D01*
X32118320Y30399122D01*
X32072833Y30399162D01*
X31729057Y30257117D01*
X31465808Y29994327D01*
X31323162Y29650799D01*
X31322838Y29278833D01*
X31464883Y28935057D01*
X31727673Y28671808D01*
X32071201Y28529162D01*
X32443167Y28528838D01*
X32786943Y28670883D01*
X32895000Y28778752D01*
X32895000Y28000802D01*
X32355599Y27461401D01*
X32190852Y27214839D01*
X32148097Y26999899D01*
X31689198Y26541000D01*
X30861000Y26541000D01*
X30570161Y26483148D01*
X30323599Y26318401D01*
X28895198Y24890000D01*
X27559000Y24890000D01*
X27268161Y24832148D01*
X27021599Y24667401D01*
X25116599Y22762401D01*
X24951852Y22515839D01*
X24894000Y22225000D01*
X24894000Y19999802D01*
X21145500Y16251302D01*
X20857401Y16539401D01*
X20610839Y16704148D01*
X20320000Y16762000D01*
X20120463Y16762000D01*
X20088327Y16794192D01*
X19744799Y16936838D01*
X19556000Y16937002D01*
X19556000Y17592198D01*
X19618802Y17655000D01*
X20773537Y17655000D01*
X20805673Y17622808D01*
X21149201Y17480162D01*
X21521167Y17479838D01*
X21864943Y17621883D01*
X22128192Y17884673D01*
X22270838Y18228201D01*
X22270879Y18275077D01*
X22381401Y18385599D01*
X22546148Y18632161D01*
X22604000Y18923000D01*
X22604000Y20701000D01*
X22546148Y20991839D01*
X22381401Y21238401D01*
X21873401Y21746401D01*
X21626839Y21911148D01*
X21336000Y21969000D01*
X21263463Y21969000D01*
X21231327Y22001192D01*
X20887799Y22143838D01*
X20699000Y22144002D01*
X20699000Y25857889D01*
X20932673Y25623808D01*
X21276201Y25481162D01*
X21648167Y25480838D01*
X21991943Y25622883D01*
X22255192Y25885673D01*
X22397838Y26229201D01*
X22397941Y26347421D01*
X22419148Y26379160D01*
X22477000Y26670000D01*
X22477000Y29022198D01*
X26650000Y33195198D01*
X28232599Y31612599D01*
G36*
X16360673Y22702808D02*
X16704201Y22560162D01*
X17076167Y22559838D01*
X17335714Y22667080D01*
X17593201Y22560162D01*
X17965167Y22559838D01*
X18224714Y22667080D01*
X18482201Y22560162D01*
X18854167Y22559838D01*
X19179000Y22694056D01*
X19179000Y19612463D01*
X19146808Y19580327D01*
X19004162Y19236799D01*
X19004052Y19111062D01*
X18885563Y19031890D01*
X18766599Y18952401D01*
X18258599Y18444401D01*
X18093852Y18197839D01*
X18066495Y18060307D01*
X17939401Y18187401D01*
X17692839Y18352148D01*
X17402000Y18410000D01*
X16557106Y18410000D01*
X16794192Y18646673D01*
X16936838Y18990201D01*
X16937162Y19362167D01*
X16795117Y19705943D01*
X16532327Y19969192D01*
X16188799Y20111838D01*
X16122440Y20111896D01*
X16122440Y20300000D01*
X16102933Y20403671D01*
X16122440Y20500000D01*
X16122440Y20800000D01*
X16102933Y20903671D01*
X16122440Y21000000D01*
X16122440Y21300000D01*
X16102933Y21403671D01*
X16122440Y21500000D01*
X16122440Y21800000D01*
X16102933Y21903671D01*
X16122440Y22000000D01*
X16122440Y22300000D01*
X16102933Y22403671D01*
X16122440Y22500000D01*
X16122440Y22800000D01*
X16102933Y22903671D01*
X16112584Y22951330D01*
X16360673Y22702808D01*
X16360673Y22702808D01*
G37*
X16360673Y22702808D02*
X16704201Y22560162D01*
X17076167Y22559838D01*
X17335714Y22667080D01*
X17593201Y22560162D01*
X17965167Y22559838D01*
X18224714Y22667080D01*
X18482201Y22560162D01*
X18854167Y22559838D01*
X19179000Y22694056D01*
X19179000Y19612463D01*
X19146808Y19580327D01*
X19004162Y19236799D01*
X19004052Y19111062D01*
X18885563Y19031890D01*
X18766599Y18952401D01*
X18258599Y18444401D01*
X18093852Y18197839D01*
X18066495Y18060307D01*
X17939401Y18187401D01*
X17692839Y18352148D01*
X17402000Y18410000D01*
X16557106Y18410000D01*
X16794192Y18646673D01*
X16936838Y18990201D01*
X16937162Y19362167D01*
X16795117Y19705943D01*
X16532327Y19969192D01*
X16188799Y20111838D01*
X16122440Y20111896D01*
X16122440Y20300000D01*
X16102933Y20403671D01*
X16122440Y20500000D01*
X16122440Y20800000D01*
X16102933Y20903671D01*
X16122440Y21000000D01*
X16122440Y21300000D01*
X16102933Y21403671D01*
X16122440Y21500000D01*
X16122440Y21800000D01*
X16102933Y21903671D01*
X16122440Y22000000D01*
X16122440Y22300000D01*
X16102933Y22403671D01*
X16122440Y22500000D01*
X16122440Y22800000D01*
X16102933Y22903671D01*
X16112584Y22951330D01*
X16360673Y22702808D01*
G36*
X8486673Y20416808D02*
X8830201Y20274162D01*
X8985723Y20274027D01*
X9054750Y20205000D01*
X9779000Y20205000D01*
X9779000Y20225000D01*
X9980007Y20225000D01*
X10001883Y20172057D01*
X10053000Y20120850D01*
X10053000Y20017802D01*
X9972198Y19937000D01*
X9779000Y19937000D01*
X9779000Y19951000D01*
X9054750Y19951000D01*
X8983578Y19879828D01*
X8980160Y19879148D01*
X8733599Y19714401D01*
X8479599Y19460401D01*
X8314852Y19213839D01*
X8257000Y18923000D01*
X8257000Y18475802D01*
X8095116Y18313918D01*
X8044670Y18389415D01*
X7558489Y18714271D01*
X6985000Y18828345D01*
X6490000Y18729883D01*
X6490000Y19370117D01*
X6985000Y19271655D01*
X7558489Y19385729D01*
X8044670Y19710585D01*
X8369526Y20196766D01*
X8425487Y20478101D01*
X8486673Y20416808D01*
X8486673Y20416808D01*
G37*
X8486673Y20416808D02*
X8830201Y20274162D01*
X8985723Y20274027D01*
X9054750Y20205000D01*
X9779000Y20205000D01*
X9779000Y20225000D01*
X9980007Y20225000D01*
X10001883Y20172057D01*
X10053000Y20120850D01*
X10053000Y20017802D01*
X9972198Y19937000D01*
X9779000Y19937000D01*
X9779000Y19951000D01*
X9054750Y19951000D01*
X8983578Y19879828D01*
X8980160Y19879148D01*
X8733599Y19714401D01*
X8479599Y19460401D01*
X8314852Y19213839D01*
X8257000Y18923000D01*
X8257000Y18475802D01*
X8095116Y18313918D01*
X8044670Y18389415D01*
X7558489Y18714271D01*
X6985000Y18828345D01*
X6490000Y18729883D01*
X6490000Y19370117D01*
X6985000Y19271655D01*
X7558489Y19385729D01*
X8044670Y19710585D01*
X8369526Y20196766D01*
X8425487Y20478101D01*
X8486673Y20416808D01*
G36*
X44660330Y23520585D02*
X45146511Y23195729D01*
X45720000Y23081655D01*
X46250950Y23187267D01*
X46273993Y23071420D01*
X46415259Y22860000D01*
X46273993Y22648580D01*
X46250950Y22532733D01*
X45720000Y22638345D01*
X45146511Y22524271D01*
X44660330Y22199415D01*
X44450000Y21884634D01*
X44239670Y22199415D01*
X43753489Y22524271D01*
X43180000Y22638345D01*
X42606511Y22524271D01*
X42421608Y22400722D01*
X42313327Y22509192D01*
X41969799Y22651838D01*
X41597833Y22652162D01*
X41254057Y22510117D01*
X40990808Y22247327D01*
X40848162Y21903799D01*
X40848121Y21856923D01*
X40483599Y21492401D01*
X40417219Y21393057D01*
X40400379Y21409897D01*
X40166990Y21506570D01*
X39526430Y21506570D01*
X39367680Y21347820D01*
X39367680Y19908570D01*
X39387680Y19908570D01*
X39387680Y19654570D01*
X39367680Y19654570D01*
X39367680Y19634570D01*
X39113680Y19634570D01*
X39113680Y19654570D01*
X37964430Y19654570D01*
X37822831Y19512971D01*
X37648401Y19687401D01*
X37522440Y19771565D01*
X37522440Y19800000D01*
X37502933Y19903671D01*
X37522440Y20000000D01*
X37522440Y20300000D01*
X37502933Y20403671D01*
X37522440Y20500000D01*
X37522440Y20800000D01*
X37502933Y20903671D01*
X37522010Y20997879D01*
X37805680Y20997879D01*
X37805680Y20067320D01*
X37964430Y19908570D01*
X39113680Y19908570D01*
X39113680Y21347820D01*
X38954930Y21506570D01*
X38314370Y21506570D01*
X38080981Y21409897D01*
X37902353Y21231268D01*
X37805680Y20997879D01*
X37522010Y20997879D01*
X37522440Y21000000D01*
X37522440Y21300000D01*
X37502933Y21403671D01*
X37522440Y21500000D01*
X37522440Y21800000D01*
X37502933Y21903671D01*
X37522440Y22000000D01*
X37522440Y22300000D01*
X37505505Y22390000D01*
X40295000Y22390000D01*
X40585839Y22447852D01*
X40832401Y22612599D01*
X41968146Y23748344D01*
X42120330Y23520585D01*
X42606511Y23195729D01*
X43180000Y23081655D01*
X43753489Y23195729D01*
X44239670Y23520585D01*
X44450000Y23835366D01*
X44660330Y23520585D01*
X44660330Y23520585D01*
G37*
X44660330Y23520585D02*
X45146511Y23195729D01*
X45720000Y23081655D01*
X46250950Y23187267D01*
X46273993Y23071420D01*
X46415259Y22860000D01*
X46273993Y22648580D01*
X46250950Y22532733D01*
X45720000Y22638345D01*
X45146511Y22524271D01*
X44660330Y22199415D01*
X44450000Y21884634D01*
X44239670Y22199415D01*
X43753489Y22524271D01*
X43180000Y22638345D01*
X42606511Y22524271D01*
X42421608Y22400722D01*
X42313327Y22509192D01*
X41969799Y22651838D01*
X41597833Y22652162D01*
X41254057Y22510117D01*
X40990808Y22247327D01*
X40848162Y21903799D01*
X40848121Y21856923D01*
X40483599Y21492401D01*
X40417219Y21393057D01*
X40400379Y21409897D01*
X40166990Y21506570D01*
X39526430Y21506570D01*
X39367680Y21347820D01*
X39367680Y19908570D01*
X39387680Y19908570D01*
X39387680Y19654570D01*
X39367680Y19654570D01*
X39367680Y19634570D01*
X39113680Y19634570D01*
X39113680Y19654570D01*
X37964430Y19654570D01*
X37822831Y19512971D01*
X37648401Y19687401D01*
X37522440Y19771565D01*
X37522440Y19800000D01*
X37502933Y19903671D01*
X37522440Y20000000D01*
X37522440Y20300000D01*
X37502933Y20403671D01*
X37522440Y20500000D01*
X37522440Y20800000D01*
X37502933Y20903671D01*
X37522010Y20997879D01*
X37805680Y20997879D01*
X37805680Y20067320D01*
X37964430Y19908570D01*
X39113680Y19908570D01*
X39113680Y21347820D01*
X38954930Y21506570D01*
X38314370Y21506570D01*
X38080981Y21409897D01*
X37902353Y21231268D01*
X37805680Y20997879D01*
X37522010Y20997879D01*
X37522440Y21000000D01*
X37522440Y21300000D01*
X37502933Y21403671D01*
X37522440Y21500000D01*
X37522440Y21800000D01*
X37502933Y21903671D01*
X37522440Y22000000D01*
X37522440Y22300000D01*
X37505505Y22390000D01*
X40295000Y22390000D01*
X40585839Y22447852D01*
X40832401Y22612599D01*
X41968146Y23748344D01*
X42120330Y23520585D01*
X42606511Y23195729D01*
X43180000Y23081655D01*
X43753489Y23195729D01*
X44239670Y23520585D01*
X44450000Y23835366D01*
X44660330Y23520585D01*
G36*
X10772329Y27570354D02*
X10770673Y27568698D01*
X10674000Y27335309D01*
X10674000Y27094750D01*
X10832750Y26936000D01*
X11557000Y26936000D01*
X11557000Y26956000D01*
X11811000Y26956000D01*
X11811000Y26936000D01*
X11831000Y26936000D01*
X11831000Y26682000D01*
X11811000Y26682000D01*
X11811000Y25932750D01*
X11969750Y25774000D01*
X12185310Y25774000D01*
X12194000Y25777600D01*
X12194000Y22158802D01*
X11426770Y21391572D01*
X11325327Y21493192D01*
X10981799Y21635838D01*
X10934923Y21635879D01*
X10928440Y21642362D01*
X10928440Y21978000D01*
X10884162Y22213317D01*
X10865313Y22242609D01*
X10952431Y22370110D01*
X11003440Y22622000D01*
X11003440Y23122000D01*
X10959162Y23357317D01*
X10820090Y23573441D01*
X10751994Y23619969D01*
X10894327Y23762302D01*
X10991000Y23995691D01*
X10991000Y24088250D01*
X10832250Y24247000D01*
X10033000Y24247000D01*
X10033000Y24225000D01*
X9779000Y24225000D01*
X9779000Y24247000D01*
X9759000Y24247000D01*
X9759000Y24497000D01*
X9779000Y24497000D01*
X9779000Y25098250D01*
X10033000Y25098250D01*
X10033000Y24497000D01*
X10832250Y24497000D01*
X10991000Y24655750D01*
X10991000Y24748309D01*
X10894327Y24981698D01*
X10715699Y25160327D01*
X10482310Y25257000D01*
X10191750Y25257000D01*
X10033000Y25098250D01*
X9779000Y25098250D01*
X9620250Y25257000D01*
X9329690Y25257000D01*
X9096301Y25160327D01*
X8917673Y24981698D01*
X8821000Y24748309D01*
X8821000Y24655750D01*
X8977748Y24499002D01*
X8821000Y24499002D01*
X8821000Y24425686D01*
X8488057Y24288117D01*
X8409988Y24210185D01*
X8483600Y24580255D01*
X8483600Y24949745D01*
X8369526Y25523234D01*
X8121120Y25895000D01*
X8629000Y25895000D01*
X8925580Y25953993D01*
X9177008Y26121992D01*
X9578266Y26523250D01*
X10674000Y26523250D01*
X10674000Y26282691D01*
X10770673Y26049302D01*
X10949301Y25870673D01*
X11182690Y25774000D01*
X11398250Y25774000D01*
X11557000Y25932750D01*
X11557000Y26682000D01*
X10832750Y26682000D01*
X10674000Y26523250D01*
X9578266Y26523250D01*
X10714789Y27659773D01*
X10772329Y27570354D01*
X10772329Y27570354D01*
G37*
X10772329Y27570354D02*
X10770673Y27568698D01*
X10674000Y27335309D01*
X10674000Y27094750D01*
X10832750Y26936000D01*
X11557000Y26936000D01*
X11557000Y26956000D01*
X11811000Y26956000D01*
X11811000Y26936000D01*
X11831000Y26936000D01*
X11831000Y26682000D01*
X11811000Y26682000D01*
X11811000Y25932750D01*
X11969750Y25774000D01*
X12185310Y25774000D01*
X12194000Y25777600D01*
X12194000Y22158802D01*
X11426770Y21391572D01*
X11325327Y21493192D01*
X10981799Y21635838D01*
X10934923Y21635879D01*
X10928440Y21642362D01*
X10928440Y21978000D01*
X10884162Y22213317D01*
X10865313Y22242609D01*
X10952431Y22370110D01*
X11003440Y22622000D01*
X11003440Y23122000D01*
X10959162Y23357317D01*
X10820090Y23573441D01*
X10751994Y23619969D01*
X10894327Y23762302D01*
X10991000Y23995691D01*
X10991000Y24088250D01*
X10832250Y24247000D01*
X10033000Y24247000D01*
X10033000Y24225000D01*
X9779000Y24225000D01*
X9779000Y24247000D01*
X9759000Y24247000D01*
X9759000Y24497000D01*
X9779000Y24497000D01*
X9779000Y25098250D01*
X10033000Y25098250D01*
X10033000Y24497000D01*
X10832250Y24497000D01*
X10991000Y24655750D01*
X10991000Y24748309D01*
X10894327Y24981698D01*
X10715699Y25160327D01*
X10482310Y25257000D01*
X10191750Y25257000D01*
X10033000Y25098250D01*
X9779000Y25098250D01*
X9620250Y25257000D01*
X9329690Y25257000D01*
X9096301Y25160327D01*
X8917673Y24981698D01*
X8821000Y24748309D01*
X8821000Y24655750D01*
X8977748Y24499002D01*
X8821000Y24499002D01*
X8821000Y24425686D01*
X8488057Y24288117D01*
X8409988Y24210185D01*
X8483600Y24580255D01*
X8483600Y24949745D01*
X8369526Y25523234D01*
X8121120Y25895000D01*
X8629000Y25895000D01*
X8925580Y25953993D01*
X9177008Y26121992D01*
X9578266Y26523250D01*
X10674000Y26523250D01*
X10674000Y26282691D01*
X10770673Y26049302D01*
X10949301Y25870673D01*
X11182690Y25774000D01*
X11398250Y25774000D01*
X11557000Y25932750D01*
X11557000Y26682000D01*
X10832750Y26682000D01*
X10674000Y26523250D01*
X9578266Y26523250D01*
X10714789Y27659773D01*
X10772329Y27570354D01*
G36*
X9725500Y33274000D02*
X9747500Y33274000D01*
X9747500Y33020000D01*
X9725500Y33020000D01*
X9725500Y32220750D01*
X9884250Y32062000D01*
X9976809Y32062000D01*
X10210198Y32158673D01*
X10351436Y32299910D01*
X10386410Y32245559D01*
X10598610Y32100569D01*
X10702659Y32079498D01*
X10674000Y32010309D01*
X10674000Y31769750D01*
X10832750Y31611000D01*
X11557000Y31611000D01*
X11557000Y31631000D01*
X11811000Y31631000D01*
X11811000Y31611000D01*
X11831000Y31611000D01*
X11831000Y31357000D01*
X11811000Y31357000D01*
X11811000Y31337000D01*
X11557000Y31337000D01*
X11557000Y31357000D01*
X10832750Y31357000D01*
X10674000Y31198250D01*
X10674000Y30957691D01*
X10770673Y30724302D01*
X10772043Y30722932D01*
X10715231Y30639785D01*
X9538000Y31817016D01*
X9538000Y33294000D01*
X9725500Y33294000D01*
X9725500Y33274000D01*
X9725500Y33274000D01*
G37*
X9725500Y33274000D02*
X9747500Y33274000D01*
X9747500Y33020000D01*
X9725500Y33020000D01*
X9725500Y32220750D01*
X9884250Y32062000D01*
X9976809Y32062000D01*
X10210198Y32158673D01*
X10351436Y32299910D01*
X10386410Y32245559D01*
X10598610Y32100569D01*
X10702659Y32079498D01*
X10674000Y32010309D01*
X10674000Y31769750D01*
X10832750Y31611000D01*
X11557000Y31611000D01*
X11557000Y31631000D01*
X11811000Y31631000D01*
X11811000Y31611000D01*
X11831000Y31611000D01*
X11831000Y31357000D01*
X11811000Y31357000D01*
X11811000Y31337000D01*
X11557000Y31337000D01*
X11557000Y31357000D01*
X10832750Y31357000D01*
X10674000Y31198250D01*
X10674000Y30957691D01*
X10770673Y30724302D01*
X10772043Y30722932D01*
X10715231Y30639785D01*
X9538000Y31817016D01*
X9538000Y33294000D01*
X9725500Y33294000D01*
X9725500Y33274000D01*
G36*
X24086330Y44475585D02*
X24572511Y44150729D01*
X25146000Y44036655D01*
X25612060Y44129360D01*
X26298208Y43443213D01*
X26298210Y43443210D01*
X26490054Y43315025D01*
X26585326Y43251366D01*
X26721060Y43224367D01*
X26721060Y42926000D01*
X26765338Y42690683D01*
X26856104Y42549629D01*
X26830173Y42523698D01*
X26733500Y42290309D01*
X26733500Y42195750D01*
X26892250Y42037000D01*
X27813000Y42037000D01*
X27813000Y42057000D01*
X28067000Y42057000D01*
X28067000Y42037000D01*
X28087000Y42037000D01*
X28087000Y41783000D01*
X28067000Y41783000D01*
X28067000Y40767000D01*
X28087000Y40767000D01*
X28087000Y40513000D01*
X28067000Y40513000D01*
X28067000Y39497000D01*
X28987750Y39497000D01*
X29146500Y39655750D01*
X29146500Y39693183D01*
X29155910Y39678559D01*
X29368110Y39533569D01*
X29620000Y39482560D01*
X30070000Y39482560D01*
X30086000Y39485571D01*
X30086000Y39214750D01*
X29957500Y39086250D01*
X29957500Y38442000D01*
X29979984Y38442000D01*
X29777984Y38240000D01*
X28388016Y38240000D01*
X28067002Y38561014D01*
X28067002Y38639748D01*
X28225750Y38481000D01*
X28637810Y38481000D01*
X28871199Y38577673D01*
X28985000Y38691475D01*
X28985000Y38600750D01*
X29143750Y38442000D01*
X29732500Y38442000D01*
X29732500Y39086250D01*
X29573750Y39245000D01*
X29493690Y39245000D01*
X29260301Y39148327D01*
X29146500Y39034525D01*
X29146500Y39084250D01*
X28987750Y39243000D01*
X28067000Y39243000D01*
X28067000Y39223000D01*
X27813000Y39223000D01*
X27813000Y39243000D01*
X26892250Y39243000D01*
X26733500Y39084250D01*
X26733500Y38989691D01*
X26733623Y38989394D01*
X26500420Y38943007D01*
X26248992Y38775008D01*
X25601992Y38128008D01*
X25433993Y37876580D01*
X25375000Y37580000D01*
X25375000Y37510000D01*
X25373690Y37510000D01*
X25369665Y37508333D01*
X25300000Y37522440D01*
X25000000Y37522440D01*
X24896329Y37502933D01*
X24800000Y37522440D01*
X24500000Y37522440D01*
X24396329Y37502933D01*
X24300000Y37522440D01*
X24234816Y37522440D01*
X24187401Y37593401D01*
X23778401Y38002401D01*
X23531839Y38167148D01*
X23241000Y38225000D01*
X23174802Y38225000D01*
X22779122Y38620680D01*
X22779162Y38666167D01*
X22720194Y38808880D01*
X22757931Y38864110D01*
X22808940Y39116000D01*
X22808940Y39624000D01*
X22764662Y39859317D01*
X22670334Y40005907D01*
X22757931Y40134110D01*
X22802510Y40354250D01*
X26733500Y40354250D01*
X26733500Y40259691D01*
X26830173Y40026302D01*
X26851475Y40005000D01*
X26830173Y39983698D01*
X26733500Y39750309D01*
X26733500Y39655750D01*
X26892250Y39497000D01*
X27813000Y39497000D01*
X27813000Y40513000D01*
X26892250Y40513000D01*
X26733500Y40354250D01*
X22802510Y40354250D01*
X22808940Y40386000D01*
X22808940Y40894000D01*
X22764662Y41129317D01*
X22670334Y41275907D01*
X22757931Y41404110D01*
X22802510Y41624250D01*
X26733500Y41624250D01*
X26733500Y41529691D01*
X26830173Y41296302D01*
X26851475Y41275000D01*
X26830173Y41253698D01*
X26733500Y41020309D01*
X26733500Y40925750D01*
X26892250Y40767000D01*
X27813000Y40767000D01*
X27813000Y41783000D01*
X26892250Y41783000D01*
X26733500Y41624250D01*
X22802510Y41624250D01*
X22808940Y41656000D01*
X22808940Y42164000D01*
X22764662Y42399317D01*
X22670334Y42545907D01*
X22757931Y42674110D01*
X22808940Y42926000D01*
X22808940Y43434000D01*
X22764662Y43669317D01*
X22625590Y43885441D01*
X22475000Y43988335D01*
X22475000Y44056560D01*
X23469600Y44056560D01*
X23704917Y44100838D01*
X23921041Y44239910D01*
X24066031Y44452110D01*
X24074400Y44493439D01*
X24086330Y44475585D01*
X24086330Y44475585D01*
G37*
X24086330Y44475585D02*
X24572511Y44150729D01*
X25146000Y44036655D01*
X25612060Y44129360D01*
X26298208Y43443213D01*
X26298210Y43443210D01*
X26490054Y43315025D01*
X26585326Y43251366D01*
X26721060Y43224367D01*
X26721060Y42926000D01*
X26765338Y42690683D01*
X26856104Y42549629D01*
X26830173Y42523698D01*
X26733500Y42290309D01*
X26733500Y42195750D01*
X26892250Y42037000D01*
X27813000Y42037000D01*
X27813000Y42057000D01*
X28067000Y42057000D01*
X28067000Y42037000D01*
X28087000Y42037000D01*
X28087000Y41783000D01*
X28067000Y41783000D01*
X28067000Y40767000D01*
X28087000Y40767000D01*
X28087000Y40513000D01*
X28067000Y40513000D01*
X28067000Y39497000D01*
X28987750Y39497000D01*
X29146500Y39655750D01*
X29146500Y39693183D01*
X29155910Y39678559D01*
X29368110Y39533569D01*
X29620000Y39482560D01*
X30070000Y39482560D01*
X30086000Y39485571D01*
X30086000Y39214750D01*
X29957500Y39086250D01*
X29957500Y38442000D01*
X29979984Y38442000D01*
X29777984Y38240000D01*
X28388016Y38240000D01*
X28067002Y38561014D01*
X28067002Y38639748D01*
X28225750Y38481000D01*
X28637810Y38481000D01*
X28871199Y38577673D01*
X28985000Y38691475D01*
X28985000Y38600750D01*
X29143750Y38442000D01*
X29732500Y38442000D01*
X29732500Y39086250D01*
X29573750Y39245000D01*
X29493690Y39245000D01*
X29260301Y39148327D01*
X29146500Y39034525D01*
X29146500Y39084250D01*
X28987750Y39243000D01*
X28067000Y39243000D01*
X28067000Y39223000D01*
X27813000Y39223000D01*
X27813000Y39243000D01*
X26892250Y39243000D01*
X26733500Y39084250D01*
X26733500Y38989691D01*
X26733623Y38989394D01*
X26500420Y38943007D01*
X26248992Y38775008D01*
X25601992Y38128008D01*
X25433993Y37876580D01*
X25375000Y37580000D01*
X25375000Y37510000D01*
X25373690Y37510000D01*
X25369665Y37508333D01*
X25300000Y37522440D01*
X25000000Y37522440D01*
X24896329Y37502933D01*
X24800000Y37522440D01*
X24500000Y37522440D01*
X24396329Y37502933D01*
X24300000Y37522440D01*
X24234816Y37522440D01*
X24187401Y37593401D01*
X23778401Y38002401D01*
X23531839Y38167148D01*
X23241000Y38225000D01*
X23174802Y38225000D01*
X22779122Y38620680D01*
X22779162Y38666167D01*
X22720194Y38808880D01*
X22757931Y38864110D01*
X22808940Y39116000D01*
X22808940Y39624000D01*
X22764662Y39859317D01*
X22670334Y40005907D01*
X22757931Y40134110D01*
X22802510Y40354250D01*
X26733500Y40354250D01*
X26733500Y40259691D01*
X26830173Y40026302D01*
X26851475Y40005000D01*
X26830173Y39983698D01*
X26733500Y39750309D01*
X26733500Y39655750D01*
X26892250Y39497000D01*
X27813000Y39497000D01*
X27813000Y40513000D01*
X26892250Y40513000D01*
X26733500Y40354250D01*
X22802510Y40354250D01*
X22808940Y40386000D01*
X22808940Y40894000D01*
X22764662Y41129317D01*
X22670334Y41275907D01*
X22757931Y41404110D01*
X22802510Y41624250D01*
X26733500Y41624250D01*
X26733500Y41529691D01*
X26830173Y41296302D01*
X26851475Y41275000D01*
X26830173Y41253698D01*
X26733500Y41020309D01*
X26733500Y40925750D01*
X26892250Y40767000D01*
X27813000Y40767000D01*
X27813000Y41783000D01*
X26892250Y41783000D01*
X26733500Y41624250D01*
X22802510Y41624250D01*
X22808940Y41656000D01*
X22808940Y42164000D01*
X22764662Y42399317D01*
X22670334Y42545907D01*
X22757931Y42674110D01*
X22808940Y42926000D01*
X22808940Y43434000D01*
X22764662Y43669317D01*
X22625590Y43885441D01*
X22475000Y43988335D01*
X22475000Y44056560D01*
X23469600Y44056560D01*
X23704917Y44100838D01*
X23921041Y44239910D01*
X24066031Y44452110D01*
X24074400Y44493439D01*
X24086330Y44475585D01*
G36*
X36959748Y41130142D02*
X36945605Y41116000D01*
X36959748Y41101857D01*
X36780143Y40922252D01*
X36766000Y40936395D01*
X36079279Y40249674D01*
X36024914Y40227211D01*
X35765871Y39968620D01*
X35618620Y40116129D01*
X35875916Y40372976D01*
X35899026Y40428631D01*
X36586395Y41116000D01*
X36572253Y41130142D01*
X36751858Y41309747D01*
X36766000Y41295605D01*
X36780143Y41309747D01*
X36959748Y41130142D01*
X36959748Y41130142D01*
G37*
X36959748Y41130142D02*
X36945605Y41116000D01*
X36959748Y41101857D01*
X36780143Y40922252D01*
X36766000Y40936395D01*
X36079279Y40249674D01*
X36024914Y40227211D01*
X35765871Y39968620D01*
X35618620Y40116129D01*
X35875916Y40372976D01*
X35899026Y40428631D01*
X36586395Y41116000D01*
X36572253Y41130142D01*
X36751858Y41309747D01*
X36766000Y41295605D01*
X36780143Y41309747D01*
X36959748Y41130142D01*
M02*
